<svg width="927" height="501" viewBox="0 0 927 501" fill="none" xmlns="http://www.w3.org/2000/svg">
<rect width="927" height="501" fill="white"/>
<path d="M387.572 276.282V218.633H402.502L402.829 229.64L400.54 230.076C401.339 228.187 402.393 226.48 403.701 224.954C405.008 223.428 406.534 222.121 408.278 221.031C410.094 219.941 411.983 219.106 413.944 218.524C415.906 217.871 417.867 217.544 419.829 217.544C422.808 217.544 425.496 218.016 427.893 218.96C430.291 219.905 432.325 221.394 433.996 223.428C435.667 225.39 436.975 228.005 437.919 231.275L435.522 231.057L436.285 229.313C437.229 227.57 438.428 226.008 439.881 224.627C441.334 223.174 442.968 221.939 444.785 220.922C446.601 219.832 448.49 218.997 450.452 218.415C452.413 217.834 454.338 217.544 456.227 217.544C460.732 217.544 464.473 218.452 467.452 220.268C470.431 222.012 472.646 224.663 474.099 228.223C475.625 231.783 476.388 236.142 476.388 241.301V276.282H460.913V242.39C460.913 239.775 460.55 237.632 459.824 235.961C459.097 234.29 458.044 233.055 456.663 232.256C455.283 231.384 453.503 230.948 451.323 230.948C449.652 230.948 448.09 231.238 446.637 231.82C445.257 232.328 444.022 233.091 442.932 234.108C441.915 235.053 441.116 236.179 440.535 237.486C439.953 238.794 439.663 240.247 439.663 241.845V276.282H424.188V242.281C424.188 239.884 423.789 237.85 422.989 236.179C422.263 234.435 421.209 233.127 419.829 232.256C418.449 231.384 416.741 230.948 414.707 230.948C413.036 230.948 411.474 231.238 410.021 231.82C408.641 232.328 407.442 233.091 406.425 234.108C405.408 235.053 404.572 236.179 403.918 237.486C403.337 238.794 403.047 240.211 403.047 241.736V276.282H387.572ZM517.932 277.372C512.047 277.372 506.78 276.1 502.13 273.558C497.553 270.942 493.921 267.382 491.233 262.878C488.617 258.374 487.309 253.215 487.309 247.403C487.309 241.591 488.617 236.469 491.233 232.038C493.921 227.533 497.553 223.973 502.13 221.358C506.78 218.742 512.047 217.435 517.932 217.435C523.744 217.435 528.939 218.742 533.516 221.358C538.165 223.973 541.798 227.533 544.413 232.038C547.029 236.469 548.336 241.591 548.336 247.403C548.336 253.215 547.029 258.374 544.413 262.878C541.798 267.382 538.165 270.942 533.516 273.558C528.939 276.1 523.744 277.372 517.932 277.372ZM517.932 263.859C520.765 263.859 523.308 263.169 525.56 261.788C527.812 260.335 529.556 258.374 530.791 255.903C532.099 253.361 532.753 250.527 532.753 247.403C532.753 244.207 532.099 241.373 530.791 238.903C529.556 236.36 527.812 234.399 525.56 233.018C523.308 231.565 520.765 230.839 517.932 230.839C515.026 230.839 512.447 231.565 510.195 233.018C507.942 234.471 506.162 236.433 504.855 238.903C503.547 241.373 502.929 244.207 503.002 247.403C502.929 250.527 503.547 253.361 504.855 255.903C506.162 258.374 507.942 260.335 510.195 261.788C512.447 263.169 515.026 263.859 517.932 263.859ZM565.537 276.282V204.031H581.012V276.282H565.537ZM554.748 232.473V218.633H592.781V232.473H554.748ZM629.143 277.372C623.259 277.372 617.992 276.1 613.342 273.558C608.765 270.942 605.132 267.382 602.444 262.878C599.829 258.374 598.521 253.215 598.521 247.403C598.521 241.591 599.829 236.469 602.444 232.038C605.132 227.533 608.765 223.973 613.342 221.358C617.992 218.742 623.259 217.435 629.143 217.435C634.956 217.435 640.15 218.742 644.727 221.358C649.377 223.973 653.009 227.533 655.625 232.038C658.24 236.469 659.548 241.591 659.548 247.403C659.548 253.215 658.24 258.374 655.625 262.878C653.009 267.382 649.377 270.942 644.727 273.558C640.15 276.1 634.956 277.372 629.143 277.372ZM629.143 263.859C631.977 263.859 634.52 263.169 636.772 261.788C639.024 260.335 640.768 258.374 642.003 255.903C643.31 253.361 643.964 250.527 643.964 247.403C643.964 244.207 643.31 241.373 642.003 238.903C640.768 236.36 639.024 234.399 636.772 233.018C634.52 231.565 631.977 230.839 629.143 230.839C626.237 230.839 623.658 231.565 621.406 233.018C619.154 234.471 617.374 236.433 616.066 238.903C614.759 241.373 614.141 244.207 614.214 247.403C614.141 250.527 614.759 253.361 616.066 255.903C617.374 258.374 619.154 260.335 621.406 261.788C623.658 263.169 626.237 263.859 629.143 263.859ZM685.902 258.955L681.325 246.205L708.57 218.633H728.948L685.902 258.955ZM671.191 276.282V195.639H686.665V276.282H671.191ZM710.204 276.282L689.499 250.237L700.396 241.519L728.839 276.282H710.204ZM756.515 277.372C751.72 277.372 747.397 276.064 743.547 273.449C739.696 270.833 736.645 267.273 734.393 262.769C732.141 258.265 731.015 253.106 731.015 247.294C731.015 241.482 732.141 236.36 734.393 231.929C736.718 227.424 739.842 223.901 743.765 221.358C747.688 218.742 752.156 217.435 757.169 217.435C760.002 217.435 762.581 217.871 764.906 218.742C767.304 219.542 769.374 220.668 771.118 222.121C772.934 223.574 774.46 225.245 775.695 227.134C776.93 229.023 777.802 231.057 778.31 233.236L775.041 232.691V218.633H790.407V276.282H774.823V262.442L778.31 262.115C777.729 264.149 776.785 266.075 775.477 267.891C774.169 269.707 772.535 271.342 770.573 272.795C768.684 274.175 766.541 275.301 764.143 276.173C761.746 276.972 759.203 277.372 756.515 277.372ZM760.765 263.968C763.671 263.968 766.214 263.278 768.394 261.897C770.573 260.517 772.244 258.592 773.406 256.121C774.642 253.579 775.259 250.636 775.259 247.294C775.259 244.025 774.642 241.155 773.406 238.685C772.244 236.215 770.573 234.29 768.394 232.909C766.214 231.456 763.671 230.73 760.765 230.73C757.932 230.73 755.425 231.456 753.246 232.909C751.139 234.29 749.468 236.215 748.233 238.685C746.998 241.155 746.38 244.025 746.38 247.294C746.38 250.636 746.998 253.579 748.233 256.121C749.468 258.592 751.139 260.517 753.246 261.897C755.425 263.278 757.932 263.968 760.765 263.968Z" fill="#05243F"/>
<path d="M388.6 321L395.032 304.2H397.168L403.552 321H401.512L397.408 310.104C397.296 309.8 397.168 309.448 397.024 309.048C396.896 308.632 396.752 308.208 396.592 307.776C396.448 307.328 396.304 306.896 396.16 306.48C396.032 306.064 395.912 305.696 395.8 305.376H396.28C396.152 305.776 396.016 306.184 395.872 306.6C395.744 307 395.608 307.408 395.464 307.824C395.32 308.224 395.176 308.624 395.032 309.024C394.888 309.424 394.744 309.824 394.6 310.224L390.52 321H388.6ZM391.336 316.368L392.032 314.544H399.976L400.744 316.368H391.336ZM410.106 321.24C409.146 321.24 408.33 321.048 407.658 320.664C407.002 320.264 406.498 319.688 406.146 318.936C405.81 318.184 405.642 317.248 405.642 316.128V308.472H407.466V315.768C407.466 316.616 407.578 317.328 407.802 317.904C408.042 318.464 408.394 318.888 408.858 319.176C409.338 319.464 409.922 319.608 410.61 319.608C411.138 319.608 411.626 319.52 412.074 319.344C412.522 319.152 412.914 318.896 413.25 318.576C413.586 318.256 413.85 317.88 414.042 317.448C414.234 317.016 414.33 316.56 414.33 316.08V308.472H416.13V321H414.354L414.282 318.36L414.57 318.216C414.378 318.776 414.058 319.288 413.61 319.752C413.162 320.2 412.626 320.56 412.002 320.832C411.394 321.104 410.762 321.24 410.106 321.24ZM421.363 321V305.184H423.163V321H421.363ZM418.531 310.2V308.472H426.331V310.2H418.531ZM433.968 321.24C432.72 321.24 431.608 320.96 430.632 320.4C429.672 319.84 428.912 319.064 428.352 318.072C427.808 317.08 427.536 315.952 427.536 314.688C427.536 313.44 427.808 312.328 428.352 311.352C428.912 310.376 429.672 309.608 430.632 309.048C431.608 308.488 432.72 308.208 433.968 308.208C435.2 308.208 436.296 308.488 437.256 309.048C438.232 309.608 438.992 310.376 439.536 311.352C440.096 312.328 440.376 313.44 440.376 314.688C440.376 315.952 440.096 317.08 439.536 318.072C438.992 319.064 438.232 319.84 437.256 320.4C436.296 320.96 435.2 321.24 433.968 321.24ZM433.968 319.536C434.848 319.536 435.632 319.328 436.32 318.912C437.008 318.48 437.544 317.904 437.928 317.184C438.312 316.448 438.504 315.616 438.504 314.688C438.504 313.76 438.312 312.936 437.928 312.216C437.544 311.496 437.008 310.936 436.32 310.536C435.632 310.12 434.848 309.912 433.968 309.912C433.088 309.912 432.296 310.12 431.592 310.536C430.904 310.936 430.36 311.504 429.96 312.24C429.576 312.96 429.392 313.776 429.408 314.688C429.392 315.616 429.576 316.448 429.96 317.184C430.36 317.904 430.904 318.48 431.592 318.912C432.296 319.328 433.088 319.536 433.968 319.536ZM455.009 321.24C453.825 321.24 452.769 320.96 451.841 320.4C450.913 319.824 450.177 319.048 449.633 318.072C449.105 317.08 448.841 315.96 448.841 314.712C448.841 313.464 449.105 312.352 449.633 311.376C450.177 310.384 450.913 309.608 451.841 309.048C452.769 308.488 453.833 308.208 455.033 308.208C456.105 308.208 457.081 308.424 457.961 308.856C458.841 309.272 459.545 309.856 460.073 310.608L459.017 311.904C458.713 311.504 458.345 311.152 457.913 310.848C457.497 310.544 457.041 310.312 456.545 310.152C456.065 309.976 455.585 309.888 455.105 309.888C454.257 309.888 453.497 310.104 452.825 310.536C452.153 310.952 451.617 311.52 451.217 312.24C450.833 312.96 450.641 313.784 450.641 314.712C450.641 315.64 450.833 316.472 451.217 317.208C451.617 317.928 452.153 318.496 452.825 318.912C453.497 319.328 454.249 319.536 455.081 319.536C455.561 319.536 456.033 319.464 456.497 319.32C456.961 319.16 457.401 318.936 457.817 318.648C458.233 318.36 458.617 318 458.969 317.568L460.025 318.864C459.481 319.584 458.753 320.16 457.841 320.592C456.929 321.024 455.985 321.24 455.009 321.24ZM467.257 321.24C466.169 321.24 465.185 320.96 464.305 320.4C463.425 319.824 462.729 319.048 462.217 318.072C461.705 317.08 461.449 315.96 461.449 314.712C461.449 313.448 461.713 312.328 462.241 311.352C462.769 310.376 463.473 309.608 464.353 309.048C465.249 308.488 466.249 308.208 467.353 308.208C468.009 308.208 468.617 308.304 469.177 308.496C469.737 308.688 470.233 308.96 470.665 309.312C471.113 309.648 471.481 310.048 471.769 310.512C472.073 310.96 472.281 311.448 472.393 311.976L471.865 311.712L471.937 308.472H473.737V321H471.913V317.928L472.393 317.616C472.281 318.096 472.065 318.56 471.745 319.008C471.425 319.44 471.033 319.824 470.569 320.16C470.121 320.496 469.609 320.76 469.033 320.952C468.473 321.144 467.881 321.24 467.257 321.24ZM467.665 319.512C468.497 319.512 469.241 319.312 469.897 318.912C470.553 318.496 471.065 317.928 471.433 317.208C471.817 316.472 472.009 315.64 472.009 314.712C472.009 313.784 471.817 312.96 471.433 312.24C471.065 311.52 470.553 310.952 469.897 310.536C469.241 310.12 468.497 309.912 467.665 309.912C466.817 309.912 466.065 310.12 465.409 310.536C464.769 310.952 464.257 311.52 463.873 312.24C463.505 312.96 463.321 313.784 463.321 314.712C463.321 315.624 463.505 316.448 463.873 317.184C464.241 317.904 464.753 318.472 465.409 318.888C466.065 319.304 466.817 319.512 467.665 319.512ZM477.244 321V308.472H479.044L479.092 311.808L478.9 311.352C479.076 310.792 479.356 310.272 479.74 309.792C480.14 309.312 480.612 308.928 481.156 308.64C481.7 308.352 482.3 308.208 482.956 308.208C483.228 308.208 483.484 308.232 483.724 308.28C483.964 308.312 484.164 308.36 484.324 308.424L483.82 310.44C483.612 310.344 483.396 310.28 483.172 310.248C482.964 310.2 482.764 310.176 482.572 310.176C482.028 310.176 481.54 310.272 481.108 310.464C480.676 310.656 480.308 310.928 480.004 311.28C479.7 311.616 479.468 312.008 479.308 312.456C479.148 312.904 479.068 313.384 479.068 313.896V321H477.244ZM491.178 321.24C489.93 321.24 488.818 320.968 487.842 320.424C486.882 319.88 486.13 319.12 485.586 318.144C485.042 317.168 484.77 316.048 484.77 314.784C484.77 313.808 484.922 312.928 485.226 312.144C485.53 311.344 485.954 310.648 486.498 310.056C487.058 309.464 487.722 309.008 488.49 308.688C489.258 308.352 490.09 308.184 490.986 308.184C491.834 308.184 492.602 308.336 493.29 308.64C493.994 308.944 494.594 309.368 495.09 309.912C495.602 310.44 495.986 311.072 496.242 311.808C496.498 312.544 496.61 313.352 496.578 314.232L496.554 315.072H486.114L485.85 313.56H495.186L494.754 313.968V313.392C494.722 312.816 494.554 312.264 494.25 311.736C493.946 311.192 493.514 310.752 492.954 310.416C492.41 310.08 491.754 309.912 490.986 309.912C490.09 309.912 489.314 310.096 488.658 310.464C488.002 310.816 487.498 311.344 487.146 312.048C486.794 312.752 486.618 313.624 486.618 314.664C486.618 315.656 486.81 316.52 487.194 317.256C487.578 317.976 488.122 318.536 488.826 318.936C489.546 319.336 490.41 319.536 491.418 319.536C492.01 319.536 492.594 319.44 493.17 319.248C493.762 319.04 494.41 318.64 495.114 318.048L496.05 319.344C495.682 319.712 495.242 320.04 494.73 320.328C494.218 320.6 493.658 320.824 493.05 321C492.442 321.16 491.818 321.24 491.178 321.24ZM505.453 315.216V313.416H512.221V315.216H505.453ZM527.385 321L520.881 304.2H522.993L527.169 315.144C527.361 315.64 527.529 316.08 527.673 316.464C527.817 316.848 527.945 317.216 528.057 317.568C528.185 317.904 528.305 318.24 528.417 318.576C528.529 318.912 528.649 319.28 528.777 319.68L528.153 319.704C528.313 319.16 528.465 318.656 528.609 318.192C528.769 317.728 528.929 317.256 529.089 316.776C529.265 316.28 529.481 315.704 529.737 315.048L533.889 304.2H536.001L529.305 321H527.385ZM542.436 321.24C541.188 321.24 540.076 320.968 539.1 320.424C538.14 319.88 537.388 319.12 536.844 318.144C536.3 317.168 536.028 316.048 536.028 314.784C536.028 313.808 536.18 312.928 536.484 312.144C536.788 311.344 537.212 310.648 537.756 310.056C538.316 309.464 538.98 309.008 539.748 308.688C540.516 308.352 541.348 308.184 542.244 308.184C543.092 308.184 543.86 308.336 544.548 308.64C545.252 308.944 545.852 309.368 546.348 309.912C546.86 310.44 547.244 311.072 547.5 311.808C547.756 312.544 547.868 313.352 547.836 314.232L547.812 315.072H537.372L537.108 313.56H546.444L546.012 313.968V313.392C545.98 312.816 545.812 312.264 545.508 311.736C545.204 311.192 544.772 310.752 544.212 310.416C543.668 310.08 543.012 309.912 542.244 309.912C541.348 309.912 540.572 310.096 539.916 310.464C539.26 310.816 538.756 311.344 538.404 312.048C538.052 312.752 537.876 313.624 537.876 314.664C537.876 315.656 538.068 316.52 538.452 317.256C538.836 317.976 539.38 318.536 540.084 318.936C540.804 319.336 541.668 319.536 542.676 319.536C543.268 319.536 543.852 319.44 544.428 319.248C545.02 319.04 545.668 318.64 546.372 318.048L547.308 319.344C546.94 319.712 546.5 320.04 545.988 320.328C545.476 320.6 544.916 320.824 544.308 321C543.7 321.16 543.076 321.24 542.436 321.24ZM550.393 321V303.24H552.193V311.208L551.833 311.568C552.009 310.912 552.337 310.336 552.817 309.84C553.297 309.328 553.857 308.928 554.497 308.64C555.153 308.352 555.817 308.208 556.489 308.208C557.449 308.208 558.249 308.392 558.889 308.76C559.529 309.128 560.001 309.696 560.305 310.464C560.625 311.232 560.785 312.208 560.785 313.392V321H558.961V313.488C558.961 312.656 558.849 311.976 558.625 311.448C558.417 310.904 558.089 310.504 557.641 310.248C557.193 309.992 556.633 309.872 555.961 309.888C555.433 309.888 554.937 309.984 554.473 310.176C554.009 310.352 553.609 310.6 553.273 310.92C552.937 311.24 552.673 311.608 552.481 312.024C552.289 312.44 552.193 312.888 552.193 313.368V321H551.305C551.193 321 551.065 321 550.921 321C550.777 321 550.601 321 550.393 321ZM564.701 321V308.472H566.501V321H564.701ZM565.589 305.76C565.141 305.76 564.797 305.648 564.557 305.424C564.333 305.184 564.221 304.864 564.221 304.464C564.221 304.064 564.341 303.744 564.581 303.504C564.821 303.264 565.157 303.144 565.589 303.144C566.021 303.144 566.357 303.264 566.597 303.504C566.837 303.728 566.957 304.048 566.957 304.464C566.957 304.848 566.837 305.16 566.597 305.4C566.357 305.64 566.021 305.76 565.589 305.76ZM575.712 321.24C574.528 321.24 573.472 320.96 572.544 320.4C571.616 319.824 570.88 319.048 570.336 318.072C569.808 317.08 569.544 315.96 569.544 314.712C569.544 313.464 569.808 312.352 570.336 311.376C570.88 310.384 571.616 309.608 572.544 309.048C573.472 308.488 574.536 308.208 575.736 308.208C576.808 308.208 577.784 308.424 578.664 308.856C579.544 309.272 580.248 309.856 580.776 310.608L579.72 311.904C579.416 311.504 579.048 311.152 578.616 310.848C578.2 310.544 577.744 310.312 577.248 310.152C576.768 309.976 576.288 309.888 575.808 309.888C574.96 309.888 574.2 310.104 573.528 310.536C572.856 310.952 572.32 311.52 571.92 312.24C571.536 312.96 571.344 313.784 571.344 314.712C571.344 315.64 571.536 316.472 571.92 317.208C572.32 317.928 572.856 318.496 573.528 318.912C574.2 319.328 574.952 319.536 575.784 319.536C576.264 319.536 576.736 319.464 577.2 319.32C577.664 319.16 578.104 318.936 578.52 318.648C578.936 318.36 579.32 318 579.672 317.568L580.728 318.864C580.184 319.584 579.456 320.16 578.544 320.592C577.632 321.024 576.688 321.24 575.712 321.24ZM583.113 321V303.24H584.913V321H583.113ZM593.741 321.24C592.493 321.24 591.381 320.968 590.405 320.424C589.445 319.88 588.693 319.12 588.149 318.144C587.605 317.168 587.333 316.048 587.333 314.784C587.333 313.808 587.485 312.928 587.789 312.144C588.093 311.344 588.517 310.648 589.061 310.056C589.621 309.464 590.285 309.008 591.053 308.688C591.821 308.352 592.653 308.184 593.549 308.184C594.397 308.184 595.165 308.336 595.853 308.64C596.557 308.944 597.157 309.368 597.653 309.912C598.165 310.44 598.549 311.072 598.805 311.808C599.061 312.544 599.173 313.352 599.141 314.232L599.117 315.072H588.677L588.413 313.56H597.749L597.317 313.968V313.392C597.285 312.816 597.117 312.264 596.813 311.736C596.509 311.192 596.077 310.752 595.517 310.416C594.973 310.08 594.317 309.912 593.549 309.912C592.653 309.912 591.877 310.096 591.221 310.464C590.565 310.816 590.061 311.344 589.709 312.048C589.357 312.752 589.181 313.624 589.181 314.664C589.181 315.656 589.373 316.52 589.757 317.256C590.141 317.976 590.685 318.536 591.389 318.936C592.109 319.336 592.973 319.536 593.981 319.536C594.573 319.536 595.157 319.44 595.733 319.248C596.325 319.04 596.973 318.64 597.677 318.048L598.613 319.344C598.245 319.712 597.805 320.04 597.293 320.328C596.781 320.6 596.221 320.824 595.613 321C595.005 321.16 594.381 321.24 593.741 321.24ZM608.472 321V303.24H610.272V321H608.472ZM614.295 321V308.472H616.095V321H614.295ZM615.183 305.76C614.735 305.76 614.391 305.648 614.151 305.424C613.927 305.184 613.815 304.864 613.815 304.464C613.815 304.064 613.935 303.744 614.175 303.504C614.415 303.264 614.751 303.144 615.183 303.144C615.615 303.144 615.951 303.264 616.191 303.504C616.431 303.728 616.551 304.048 616.551 304.464C616.551 304.848 616.431 305.16 616.191 305.4C615.951 305.64 615.615 305.76 615.183 305.76ZM625.305 321.24C624.121 321.24 623.065 320.96 622.137 320.4C621.209 319.824 620.473 319.048 619.929 318.072C619.401 317.08 619.137 315.96 619.137 314.712C619.137 313.464 619.401 312.352 619.929 311.376C620.473 310.384 621.209 309.608 622.137 309.048C623.065 308.488 624.129 308.208 625.329 308.208C626.401 308.208 627.377 308.424 628.257 308.856C629.137 309.272 629.841 309.856 630.369 310.608L629.313 311.904C629.009 311.504 628.641 311.152 628.209 310.848C627.793 310.544 627.337 310.312 626.841 310.152C626.361 309.976 625.881 309.888 625.401 309.888C624.553 309.888 623.793 310.104 623.121 310.536C622.449 310.952 621.913 311.52 621.513 312.24C621.129 312.96 620.937 313.784 620.937 314.712C620.937 315.64 621.129 316.472 621.513 317.208C621.913 317.928 622.449 318.496 623.121 318.912C623.793 319.328 624.545 319.536 625.377 319.536C625.857 319.536 626.329 319.464 626.793 319.32C627.257 319.16 627.697 318.936 628.113 318.648C628.529 318.36 628.913 318 629.265 317.568L630.321 318.864C629.777 319.584 629.049 320.16 628.137 320.592C627.225 321.024 626.281 321.24 625.305 321.24ZM638.178 321.24C636.93 321.24 635.818 320.968 634.842 320.424C633.882 319.88 633.13 319.12 632.586 318.144C632.042 317.168 631.77 316.048 631.77 314.784C631.77 313.808 631.922 312.928 632.226 312.144C632.53 311.344 632.954 310.648 633.498 310.056C634.058 309.464 634.722 309.008 635.49 308.688C636.258 308.352 637.09 308.184 637.986 308.184C638.834 308.184 639.602 308.336 640.29 308.64C640.994 308.944 641.594 309.368 642.09 309.912C642.602 310.44 642.986 311.072 643.242 311.808C643.498 312.544 643.61 313.352 643.578 314.232L643.554 315.072H633.114L632.85 313.56H642.186L641.754 313.968V313.392C641.722 312.816 641.554 312.264 641.25 311.736C640.946 311.192 640.514 310.752 639.954 310.416C639.41 310.08 638.754 309.912 637.986 309.912C637.09 309.912 636.314 310.096 635.658 310.464C635.002 310.816 634.498 311.344 634.146 312.048C633.794 312.752 633.618 313.624 633.618 314.664C633.618 315.656 633.81 316.52 634.194 317.256C634.578 317.976 635.122 318.536 635.826 318.936C636.546 319.336 637.41 319.536 638.418 319.536C639.01 319.536 639.594 319.44 640.17 319.248C640.762 319.04 641.41 318.64 642.114 318.048L643.05 319.344C642.682 319.712 642.242 320.04 641.73 320.328C641.218 320.6 640.658 320.824 640.05 321C639.442 321.16 638.818 321.24 638.178 321.24ZM646.135 321V308.472H647.911L647.983 311.088L647.695 311.208C647.855 310.664 648.167 310.168 648.631 309.72C649.095 309.272 649.647 308.912 650.287 308.64C650.943 308.352 651.615 308.208 652.303 308.208C653.231 308.208 654.007 308.392 654.631 308.76C655.255 309.128 655.727 309.696 656.047 310.464C656.367 311.232 656.527 312.208 656.527 313.392V321H654.703V313.488C654.703 312.656 654.591 311.976 654.367 311.448C654.159 310.904 653.831 310.504 653.383 310.248C652.935 309.992 652.383 309.872 651.727 309.888C651.183 309.888 650.679 309.984 650.215 310.176C649.751 310.352 649.351 310.6 649.015 310.92C648.679 311.24 648.415 311.608 648.223 312.024C648.031 312.44 647.935 312.888 647.935 313.368V321H647.047C646.935 321 646.807 321 646.663 321C646.519 321 646.343 321 646.135 321ZM664.067 321.24C662.995 321.24 662.035 321.04 661.187 320.64C660.339 320.24 659.667 319.712 659.171 319.056L660.443 317.952C660.907 318.512 661.451 318.936 662.075 319.224C662.715 319.512 663.427 319.656 664.211 319.656C664.611 319.656 664.971 319.616 665.291 319.536C665.611 319.44 665.891 319.304 666.131 319.128C666.371 318.952 666.555 318.744 666.683 318.504C666.811 318.264 666.875 318 666.875 317.712C666.875 317.184 666.643 316.744 666.179 316.392C665.971 316.248 665.675 316.104 665.291 315.96C664.907 315.8 664.443 315.648 663.899 315.504C663.003 315.248 662.259 314.992 661.667 314.736C661.075 314.464 660.611 314.152 660.275 313.8C660.035 313.512 659.851 313.2 659.723 312.864C659.611 312.528 659.555 312.16 659.555 311.76C659.555 311.248 659.659 310.776 659.867 310.344C660.091 309.912 660.395 309.536 660.779 309.216C661.179 308.88 661.643 308.632 662.171 308.472C662.715 308.296 663.299 308.208 663.923 308.208C664.515 308.208 665.099 308.288 665.675 308.448C666.251 308.608 666.787 308.84 667.283 309.144C667.779 309.448 668.203 309.808 668.555 310.224L667.451 311.424C667.147 311.104 666.811 310.816 666.443 310.56C666.075 310.304 665.683 310.104 665.267 309.96C664.867 309.816 664.451 309.744 664.019 309.744C663.635 309.744 663.275 309.792 662.939 309.888C662.619 309.984 662.339 310.12 662.099 310.296C661.875 310.456 661.699 310.656 661.571 310.896C661.459 311.136 661.403 311.4 661.403 311.688C661.403 311.928 661.451 312.144 661.547 312.336C661.643 312.528 661.779 312.696 661.955 312.84C662.179 313.016 662.491 313.184 662.891 313.344C663.307 313.488 663.819 313.64 664.427 313.8C665.131 313.992 665.723 314.192 666.203 314.4C666.699 314.592 667.107 314.824 667.427 315.096C667.859 315.416 668.163 315.784 668.339 316.2C668.531 316.616 668.627 317.088 668.627 317.616C668.627 318.32 668.427 318.944 668.027 319.488C667.643 320.032 667.107 320.464 666.419 320.784C665.731 321.088 664.947 321.24 664.067 321.24ZM671.927 321V308.472H673.727V321H671.927ZM672.815 305.76C672.367 305.76 672.023 305.648 671.783 305.424C671.559 305.184 671.447 304.864 671.447 304.464C671.447 304.064 671.567 303.744 671.807 303.504C672.047 303.264 672.383 303.144 672.815 303.144C673.247 303.144 673.583 303.264 673.823 303.504C674.063 303.728 674.183 304.048 674.183 304.464C674.183 304.848 674.063 305.16 673.823 305.4C673.583 305.64 673.247 305.76 672.815 305.76ZM677.658 321V308.472H679.434L679.506 311.088L679.218 311.208C679.378 310.664 679.69 310.168 680.154 309.72C680.618 309.272 681.17 308.912 681.81 308.64C682.466 308.352 683.138 308.208 683.826 308.208C684.754 308.208 685.53 308.392 686.154 308.76C686.778 309.128 687.25 309.696 687.57 310.464C687.89 311.232 688.05 312.208 688.05 313.392V321H686.226V313.488C686.226 312.656 686.114 311.976 685.89 311.448C685.682 310.904 685.354 310.504 684.906 310.248C684.458 309.992 683.906 309.872 683.25 309.888C682.706 309.888 682.202 309.984 681.738 310.176C681.274 310.352 680.874 310.6 680.538 310.92C680.202 311.24 679.938 311.608 679.746 312.024C679.554 312.44 679.458 312.888 679.458 313.368V321H678.57C678.458 321 678.33 321 678.186 321C678.042 321 677.866 321 677.658 321ZM696.886 326.52C695.958 326.52 695.078 326.376 694.246 326.088C693.414 325.8 692.726 325.44 692.182 325.008L692.902 323.496C693.222 323.752 693.59 323.976 694.006 324.168C694.438 324.376 694.902 324.536 695.398 324.648C695.894 324.776 696.398 324.84 696.91 324.84C697.838 324.84 698.622 324.664 699.262 324.312C699.918 323.976 700.414 323.472 700.75 322.8C701.102 322.128 701.278 321.296 701.278 320.304V317.904L701.566 317.832C701.422 318.44 701.11 319.008 700.63 319.536C700.15 320.048 699.566 320.464 698.878 320.784C698.19 321.088 697.462 321.24 696.694 321.24C695.526 321.24 694.478 320.96 693.55 320.4C692.638 319.84 691.918 319.072 691.39 318.096C690.862 317.104 690.598 315.984 690.598 314.736C690.598 313.472 690.862 312.352 691.39 311.376C691.934 310.384 692.662 309.608 693.574 309.048C694.486 308.488 695.51 308.208 696.646 308.208C697.142 308.208 697.622 308.272 698.086 308.4C698.55 308.512 698.974 308.68 699.358 308.904C699.758 309.128 700.118 309.384 700.438 309.672C700.758 309.96 701.022 310.272 701.23 310.608C701.454 310.944 701.614 311.288 701.71 311.64L701.206 311.568L701.278 308.472H703.078V320.232C703.078 321.24 702.934 322.128 702.646 322.896C702.358 323.68 701.934 324.336 701.374 324.864C700.83 325.408 700.174 325.816 699.406 326.088C698.654 326.376 697.814 326.52 696.886 326.52ZM696.91 319.512C697.758 319.512 698.51 319.312 699.166 318.912C699.838 318.496 700.366 317.928 700.75 317.208C701.134 316.488 701.326 315.656 701.326 314.712C701.326 313.784 701.134 312.96 700.75 312.24C700.382 311.52 699.862 310.952 699.19 310.536C698.518 310.12 697.758 309.912 696.91 309.912C696.046 309.912 695.278 310.12 694.606 310.536C693.95 310.952 693.43 311.52 693.046 312.24C692.662 312.96 692.47 313.784 692.47 314.712C692.47 315.624 692.654 316.448 693.022 317.184C693.406 317.904 693.926 318.472 694.582 318.888C695.254 319.304 696.03 319.512 696.91 319.512Z" fill="black"/>
<g filter="url(#filter0_ii_3907_2984)">
<path fill-rule="evenodd" clip-rule="evenodd" d="M238.441 371.548C299.436 371.548 348.882 322.69 348.882 262.422C348.882 202.153 299.436 153.295 238.441 153.295C177.446 153.295 128 202.153 128 262.422C128 322.69 177.446 371.548 238.441 371.548ZM197.19 182.013C222.701 168.44 253.407 168.44 278.919 182.013C299.33 192.873 315.129 210.6 323.451 231.979L324.857 235.591C330.273 249.506 316.862 263.374 302.547 258.659L262.744 245.55C246.718 240.271 229.391 240.271 213.364 245.55L173.561 258.659C159.247 263.374 145.835 249.506 151.252 235.591L152.657 231.979C160.979 210.6 176.778 192.873 197.19 182.013ZM179.221 291.981H192.299C207.72 291.981 220.818 303.133 223.097 318.203L224.88 329.99C226.545 341.002 215.131 349.414 204.924 344.696C190.394 337.981 177.594 327.69 167.899 315.062C160.695 305.678 167.3 291.981 179.221 291.981ZM289.709 291.981H299.995C312.149 291.981 319.055 305.722 311.709 315.289L310.677 316.634C301.671 328.364 290.018 337.854 276.646 344.348C266.75 349.155 255.463 341.003 257.092 330.227L258.911 318.203C261.19 303.133 274.288 291.981 289.709 291.981Z" fill="#2389E3"/>
</g>
<rect x="156.925" y="127" width="163.032" height="144.625" rx="10.5182" fill="url(#paint0_linear_3907_2984)"/>
<mask id="mask0_3907_2984" style="mask-type:alpha" maskUnits="userSpaceOnUse" x="128" y="234" width="221" height="141">
<rect width="220.882" height="139.366" transform="matrix(1 0 0 -1 128 374.178)" fill="#D9D9D9"/>
</mask>
<g mask="url(#mask0_3907_2984)">
<g filter="url(#filter1_ii_3907_2984)">
<path fill-rule="evenodd" clip-rule="evenodd" d="M238.599 372.565C299.474 372.565 348.822 323.216 348.822 262.342C348.822 201.467 299.474 152.118 238.599 152.118C177.724 152.118 128.376 201.467 128.376 262.342C128.376 323.216 177.724 372.565 238.599 372.565ZM197.429 181.125C222.89 167.415 253.536 167.415 278.997 181.125C299.368 192.094 315.136 209.999 323.441 231.593L324.844 235.241C330.25 249.296 316.865 263.303 302.579 258.542L262.854 245.3C246.859 239.968 229.567 239.968 213.572 245.3L173.847 258.542C159.561 263.303 146.176 249.296 151.581 235.241L152.984 231.593C161.29 209.999 177.058 192.094 197.429 181.125ZM179.496 292.198H192.548C207.938 292.198 221.011 303.462 223.285 318.684L225.064 330.59C226.726 341.712 215.335 350.208 205.148 345.443C190.647 338.66 177.872 328.266 168.196 315.511C161.006 306.033 167.599 292.198 179.496 292.198ZM289.766 292.198H300.032C312.161 292.198 319.054 306.077 311.723 315.741L310.693 317.099C301.705 328.947 290.075 338.532 276.729 345.092C266.852 349.947 255.587 341.713 257.213 330.829L259.028 318.684C261.303 303.462 274.375 292.198 289.766 292.198Z" fill="#2389E3"/>
</g>
</g>
<line x1="188.479" y1="163.814" x2="291.032" y2="163.814" stroke="#05243F" stroke-width="10.5182"/>
<line x1="188.479" y1="190.109" x2="291.032" y2="190.109" stroke="#05243F" stroke-width="10.5182"/>
<line x1="188.479" y1="216.404" x2="291.032" y2="216.404" stroke="#05243F" stroke-width="10.5182"/>
<defs>
<filter id="filter0_ii_3907_2984" x="128" y="153.295" width="220.882" height="228.771" filterUnits="userSpaceOnUse" color-interpolation-filters="sRGB">
<feFlood flood-opacity="0" result="BackgroundImageFix"/>
<feBlend mode="normal" in="SourceGraphic" in2="BackgroundImageFix" result="shape"/>
<feColorMatrix in="SourceAlpha" type="matrix" values="0 0 0 0 0 0 0 0 0 0 0 0 0 0 0 0 0 0 127 0" result="hardAlpha"/>
<feOffset/>
<feGaussianBlur stdDeviation="23.9289"/>
<feComposite in2="hardAlpha" operator="arithmetic" k2="-1" k3="1"/>
<feColorMatrix type="matrix" values="0 0 0 0 0 0 0 0 0 0 0 0 0 0 0 0 0 0 0.25 0"/>
<feBlend mode="normal" in2="shape" result="effect1_innerShadow_3907_2984"/>
<feColorMatrix in="SourceAlpha" type="matrix" values="0 0 0 0 0 0 0 0 0 0 0 0 0 0 0 0 0 0 127 0" result="hardAlpha"/>
<feOffset dy="10.5182"/>
<feGaussianBlur stdDeviation="11.4385"/>
<feComposite in2="hardAlpha" operator="arithmetic" k2="-1" k3="1"/>
<feColorMatrix type="matrix" values="0 0 0 0 0.27144 0 0 0 0 0.63318 0 0 0 0 0.949702 0 0 0 1 0"/>
<feBlend mode="normal" in2="effect1_innerShadow_3907_2984" result="effect2_innerShadow_3907_2984"/>
</filter>
<filter id="filter1_ii_3907_2984" x="128.376" y="152.118" width="220.447" height="230.965" filterUnits="userSpaceOnUse" color-interpolation-filters="sRGB">
<feFlood flood-opacity="0" result="BackgroundImageFix"/>
<feBlend mode="normal" in="SourceGraphic" in2="BackgroundImageFix" result="shape"/>
<feColorMatrix in="SourceAlpha" type="matrix" values="0 0 0 0 0 0 0 0 0 0 0 0 0 0 0 0 0 0 127 0" result="hardAlpha"/>
<feOffset/>
<feGaussianBlur stdDeviation="23.9289"/>
<feComposite in2="hardAlpha" operator="arithmetic" k2="-1" k3="1"/>
<feColorMatrix type="matrix" values="0 0 0 0 0 0 0 0 0 0 0 0 0 0 0 0 0 0 0.25 0"/>
<feBlend mode="normal" in2="shape" result="effect1_innerShadow_3907_2984"/>
<feColorMatrix in="SourceAlpha" type="matrix" values="0 0 0 0 0 0 0 0 0 0 0 0 0 0 0 0 0 0 127 0" result="hardAlpha"/>
<feOffset dy="10.5182"/>
<feGaussianBlur stdDeviation="11.4385"/>
<feComposite in2="hardAlpha" operator="arithmetic" k2="-1" k3="1"/>
<feColorMatrix type="matrix" values="0 0 0 0 0.27144 0 0 0 0 0.63318 0 0 0 0 0.949702 0 0 0 1 0"/>
<feBlend mode="normal" in2="effect1_innerShadow_3907_2984" result="effect2_innerShadow_3907_2984"/>
</filter>
<linearGradient id="paint0_linear_3907_2984" x1="238.441" y1="127" x2="238.441" y2="271.625" gradientUnits="userSpaceOnUse">
<stop stop-color="#D9D9D9"/>
<stop offset="1" stop-color="#A3B0D4"/>
</linearGradient>
</defs>
</svg>
