<svg width="880" height="248" viewBox="0 0 880 248" fill="none" xmlns="http://www.w3.org/2000/svg">
<path d="M265.415 195.924V109.657H287.757L288.246 126.128L284.821 126.78C286.017 123.953 287.593 121.398 289.55 119.115C291.507 116.832 293.79 114.875 296.399 113.245C299.117 111.614 301.944 110.364 304.879 109.494C307.815 108.515 310.75 108.026 313.685 108.026C318.143 108.026 322.165 108.733 325.753 110.146C329.341 111.56 332.385 113.788 334.885 116.832C337.386 119.768 339.343 123.681 340.756 128.574L337.168 128.248L338.31 125.638C339.723 123.029 341.517 120.692 343.691 118.626C345.866 116.452 348.312 114.604 351.03 113.082C353.747 111.451 356.574 110.201 359.509 109.331C362.445 108.461 365.326 108.026 368.152 108.026C374.893 108.026 380.492 109.385 384.949 112.103C389.407 114.712 392.722 118.681 394.897 124.008C397.18 129.335 398.321 135.858 398.321 143.577V195.924H375.165V145.207C375.165 141.294 374.621 138.086 373.534 135.586C372.447 133.085 370.87 131.237 368.805 130.041C366.739 128.737 364.076 128.084 360.814 128.084C358.314 128.084 355.976 128.519 353.802 129.389C351.736 130.15 349.888 131.292 348.257 132.814C346.735 134.227 345.539 135.912 344.67 137.869C343.8 139.826 343.365 142 343.365 144.392V195.924H320.208V145.044C320.208 141.457 319.61 138.413 318.415 135.912C317.327 133.303 315.751 131.346 313.685 130.041C311.62 128.737 309.065 128.084 306.021 128.084C303.52 128.084 301.183 128.519 299.009 129.389C296.943 130.15 295.149 131.292 293.627 132.814C292.105 134.227 290.855 135.912 289.876 137.869C289.007 139.826 288.572 141.946 288.572 144.229V195.924H265.415ZM460.488 197.554C451.682 197.554 443.8 195.652 436.843 191.847C429.993 187.933 424.558 182.606 420.535 175.865C416.621 169.125 414.664 161.406 414.664 152.709C414.664 144.011 416.621 136.347 420.535 129.715C424.558 122.975 429.993 117.648 436.843 113.734C443.8 109.82 451.682 107.863 460.488 107.863C469.186 107.863 476.959 109.82 483.808 113.734C490.766 117.648 496.202 122.975 500.116 129.715C504.029 136.347 505.986 144.011 505.986 152.709C505.986 161.406 504.029 169.125 500.116 175.865C496.202 182.606 490.766 187.933 483.808 191.847C476.959 195.652 469.186 197.554 460.488 197.554ZM460.488 177.333C464.728 177.333 468.534 176.3 471.904 174.235C475.274 172.06 477.883 169.125 479.731 165.429C481.688 161.624 482.667 157.384 482.667 152.709C482.667 147.925 481.688 143.685 479.731 139.989C477.883 136.184 475.274 133.249 471.904 131.183C468.534 129.009 464.728 127.921 460.488 127.921C456.14 127.921 452.28 129.009 448.91 131.183C445.54 133.357 442.876 136.293 440.92 139.989C438.963 143.685 438.039 147.925 438.147 152.709C438.039 157.384 438.963 161.624 440.92 165.429C442.876 169.125 445.54 172.06 448.91 174.235C452.28 176.3 456.14 177.333 460.488 177.333ZM531.725 195.924V87.805H554.882V195.924H531.725ZM515.581 130.368V109.657H572.494V130.368H515.581ZM626.908 197.554C618.102 197.554 610.22 195.652 603.262 191.847C596.413 187.933 590.977 182.606 586.954 175.865C583.041 169.125 581.084 161.406 581.084 152.709C581.084 144.011 583.041 136.347 586.954 129.715C590.977 122.975 596.413 117.648 603.262 113.734C610.22 109.82 618.102 107.863 626.908 107.863C635.605 107.863 643.378 109.82 650.227 113.734C657.185 117.648 662.621 122.975 666.535 129.715C670.449 136.347 672.406 144.011 672.406 152.709C672.406 161.406 670.449 169.125 666.535 175.865C662.621 182.606 657.185 187.933 650.227 191.847C643.378 195.652 635.605 197.554 626.908 197.554ZM626.908 177.333C631.148 177.333 634.953 176.3 638.323 174.235C641.693 172.06 644.302 169.125 646.151 165.429C648.107 161.624 649.086 157.384 649.086 152.709C649.086 147.925 648.107 143.685 646.151 139.989C644.302 136.184 641.693 133.249 638.323 131.183C634.953 129.009 631.148 127.921 626.908 127.921C622.559 127.921 618.7 129.009 615.329 131.183C611.959 133.357 609.296 136.293 607.339 139.989C605.382 143.685 604.458 147.925 604.566 152.709C604.458 157.384 605.382 161.624 607.339 165.429C609.296 169.125 611.959 172.06 615.329 174.235C618.7 176.3 622.559 177.333 626.908 177.333ZM711.843 169.995L704.994 150.915L745.763 109.657H776.258L711.843 169.995ZM689.828 195.924V75.2482H712.984V195.924H689.828ZM748.209 195.924L717.224 156.949L733.532 143.903L776.094 195.924H748.209ZM817.509 197.554C810.334 197.554 803.865 195.597 798.103 191.684C792.341 187.77 787.775 182.443 784.405 175.702C781.035 168.962 779.35 161.243 779.35 152.546C779.35 143.848 781.035 136.184 784.405 129.552C787.884 122.812 792.559 117.539 798.429 113.734C804.3 109.82 810.986 107.863 818.488 107.863C822.728 107.863 826.587 108.516 830.066 109.82C833.654 111.016 836.752 112.701 839.361 114.875C842.079 117.05 844.362 119.55 846.21 122.377C848.058 125.203 849.363 128.248 850.124 131.509L845.232 130.694V109.657H868.225V195.924H844.906V175.213L850.124 174.724C849.254 177.768 847.841 180.649 845.884 183.367C843.927 186.085 841.481 188.531 838.546 190.705C835.719 192.771 832.512 194.456 828.924 195.761C825.337 196.956 821.532 197.554 817.509 197.554ZM823.869 177.496C828.218 177.496 832.023 176.463 835.284 174.398C838.546 172.332 841.046 169.451 842.786 165.755C844.634 161.95 845.558 157.547 845.558 152.546C845.558 147.653 844.634 143.359 842.786 139.663C841.046 135.966 838.546 133.085 835.284 131.02C832.023 128.846 828.218 127.758 823.869 127.758C819.629 127.758 815.878 128.846 812.617 131.02C809.464 133.085 806.964 135.966 805.115 139.663C803.267 143.359 802.343 147.653 802.343 152.546C802.343 157.547 803.267 161.95 805.115 165.755C806.964 169.451 809.464 172.332 812.617 174.398C815.878 176.463 819.629 177.496 823.869 177.496Z" fill="#05243F"/>
<g filter="url(#filter0_ii_3907_2971)">
<path fill-rule="evenodd" clip-rule="evenodd" d="M110.441 244.548C171.436 244.548 220.882 195.69 220.882 135.422C220.882 75.1529 171.436 26.2954 110.441 26.2954C49.4461 26.2954 0 75.1529 0 135.422C0 195.69 49.4461 244.548 110.441 244.548ZM69.1896 55.0132C94.701 41.4398 125.407 41.4398 150.919 55.0132C171.33 65.8732 187.129 83.5996 195.451 104.979L196.857 108.591C202.273 122.506 188.862 136.374 174.547 131.659L134.744 118.55C118.718 113.271 101.391 113.271 85.3644 118.55L45.5611 131.659C31.2469 136.374 17.8352 122.506 23.2516 108.591L24.6573 104.979C32.9794 83.5996 48.778 65.8732 69.1896 55.0132ZM51.2211 164.981H64.2989C79.7197 164.981 92.8181 176.133 95.097 191.203L96.8796 202.99C98.5449 214.002 87.131 222.414 76.9239 217.696C62.3939 210.981 49.5943 200.69 39.8994 188.062C32.6947 178.678 39.3004 164.981 51.2211 164.981ZM161.709 164.981H171.995C184.149 164.981 191.055 178.722 183.709 188.289L182.677 189.634C173.671 201.364 162.018 210.854 148.646 217.348C138.75 222.155 127.463 214.003 129.092 203.227L130.911 191.203C133.19 176.133 146.288 164.981 161.709 164.981Z" fill="#2389E3"/>
</g>
<rect x="28.925" y="6.10352e-05" width="163.032" height="144.625" rx="10.5182" fill="url(#paint0_linear_3907_2971)"/>
<mask id="mask0_3907_2971" style="mask-type:alpha" maskUnits="userSpaceOnUse" x="0" y="107" width="221" height="141">
<rect width="220.882" height="139.366" transform="matrix(1 0 0 -1 0 247.178)" fill="#D9D9D9"/>
</mask>
<g mask="url(#mask0_3907_2971)">
<g filter="url(#filter1_ii_3907_2971)">
<path fill-rule="evenodd" clip-rule="evenodd" d="M110.599 245.565C171.474 245.565 220.822 196.216 220.822 135.342C220.822 74.467 171.474 25.1184 110.599 25.1184C49.7244 25.1184 0.375732 74.467 0.375732 135.342C0.375732 196.216 49.7244 245.565 110.599 245.565ZM69.4289 54.1248C94.89 40.415 125.536 40.415 150.997 54.1248C171.368 65.094 187.136 82.9986 195.441 104.593L196.844 108.241C202.25 122.296 188.865 136.303 174.579 131.542L134.854 118.3C118.859 112.968 101.567 112.968 85.5718 118.3L45.847 131.542C31.561 136.303 18.1757 122.296 23.5815 108.241L24.9844 104.593C33.2901 82.9986 49.0575 65.094 69.4289 54.1248ZM51.4959 165.198H64.5478C79.9383 165.198 93.0108 176.462 95.2853 191.684L97.0643 203.59C98.7264 214.712 87.3349 223.208 77.148 218.443C62.6466 211.66 49.8722 201.266 40.1964 188.511C33.0059 179.033 39.5987 165.198 51.4959 165.198ZM161.766 165.198H172.032C184.161 165.198 191.054 179.077 183.723 188.741L182.693 190.099C173.705 201.947 162.075 211.532 148.729 218.092C138.852 222.947 127.587 214.713 129.213 203.829L131.028 191.684C133.303 176.462 146.375 165.198 161.766 165.198Z" fill="#2389E3"/>
</g>
</g>
<line x1="60.4795" y1="36.8136" x2="163.032" y2="36.8136" stroke="#05243F" stroke-width="10.5182"/>
<line x1="60.4795" y1="63.109" x2="163.032" y2="63.109" stroke="#05243F" stroke-width="10.5182"/>
<line x1="60.4795" y1="89.4044" x2="163.032" y2="89.4044" stroke="#05243F" stroke-width="10.5182"/>
<defs>
<filter id="filter0_ii_3907_2971" x="0" y="26.2954" width="220.882" height="228.771" filterUnits="userSpaceOnUse" color-interpolation-filters="sRGB">
<feFlood flood-opacity="0" result="BackgroundImageFix"/>
<feBlend mode="normal" in="SourceGraphic" in2="BackgroundImageFix" result="shape"/>
<feColorMatrix in="SourceAlpha" type="matrix" values="0 0 0 0 0 0 0 0 0 0 0 0 0 0 0 0 0 0 127 0" result="hardAlpha"/>
<feOffset/>
<feGaussianBlur stdDeviation="23.9289"/>
<feComposite in2="hardAlpha" operator="arithmetic" k2="-1" k3="1"/>
<feColorMatrix type="matrix" values="0 0 0 0 0 0 0 0 0 0 0 0 0 0 0 0 0 0 0.25 0"/>
<feBlend mode="normal" in2="shape" result="effect1_innerShadow_3907_2971"/>
<feColorMatrix in="SourceAlpha" type="matrix" values="0 0 0 0 0 0 0 0 0 0 0 0 0 0 0 0 0 0 127 0" result="hardAlpha"/>
<feOffset dy="10.5182"/>
<feGaussianBlur stdDeviation="11.4385"/>
<feComposite in2="hardAlpha" operator="arithmetic" k2="-1" k3="1"/>
<feColorMatrix type="matrix" values="0 0 0 0 0.27144 0 0 0 0 0.63318 0 0 0 0 0.949702 0 0 0 1 0"/>
<feBlend mode="normal" in2="effect1_innerShadow_3907_2971" result="effect2_innerShadow_3907_2971"/>
</filter>
<filter id="filter1_ii_3907_2971" x="0.375732" y="25.1184" width="220.447" height="230.965" filterUnits="userSpaceOnUse" color-interpolation-filters="sRGB">
<feFlood flood-opacity="0" result="BackgroundImageFix"/>
<feBlend mode="normal" in="SourceGraphic" in2="BackgroundImageFix" result="shape"/>
<feColorMatrix in="SourceAlpha" type="matrix" values="0 0 0 0 0 0 0 0 0 0 0 0 0 0 0 0 0 0 127 0" result="hardAlpha"/>
<feOffset/>
<feGaussianBlur stdDeviation="23.9289"/>
<feComposite in2="hardAlpha" operator="arithmetic" k2="-1" k3="1"/>
<feColorMatrix type="matrix" values="0 0 0 0 0 0 0 0 0 0 0 0 0 0 0 0 0 0 0.25 0"/>
<feBlend mode="normal" in2="shape" result="effect1_innerShadow_3907_2971"/>
<feColorMatrix in="SourceAlpha" type="matrix" values="0 0 0 0 0 0 0 0 0 0 0 0 0 0 0 0 0 0 127 0" result="hardAlpha"/>
<feOffset dy="10.5182"/>
<feGaussianBlur stdDeviation="11.4385"/>
<feComposite in2="hardAlpha" operator="arithmetic" k2="-1" k3="1"/>
<feColorMatrix type="matrix" values="0 0 0 0 0.27144 0 0 0 0 0.63318 0 0 0 0 0.949702 0 0 0 1 0"/>
<feBlend mode="normal" in2="effect1_innerShadow_3907_2971" result="effect2_innerShadow_3907_2971"/>
</filter>
<linearGradient id="paint0_linear_3907_2971" x1="110.441" y1="6.10352e-05" x2="110.441" y2="144.625" gradientUnits="userSpaceOnUse">
<stop stop-color="#D9D9D9"/>
<stop offset="1" stop-color="#A3B0D4"/>
</linearGradient>
</defs>
</svg>
