<?xml version="1.0" encoding="UTF-8"?>
<svg width="48" height="48" viewBox="0 0 48 48" fill="none" xmlns="http://www.w3.org/2000/svg">
  <path d="M39 21L36.72 13.8C36.2 12.16 34.64 11 32.88 11H15.12C13.36 11 11.8 12.16 11.28 13.8L9 21M39 21H9M39 21V35C39 36.1 38.1 37 37 37H35C33.9 37 33 36.1 33 35V33H15V35C15 36.1 14.1 37 13 37H11C9.9 37 9 36.1 9 35V21" stroke="#2389E3" stroke-width="2" stroke-linecap="round" stroke-linejoin="round"/>
  <path d="M15 27C16.6569 27 18 25.6569 18 24C18 22.3431 16.6569 21 15 21C13.3431 21 12 22.3431 12 24C12 25.6569 13.3431 27 15 27Z" stroke="#2389E3" stroke-width="2"/>
  <path d="M33 27C34.6569 27 36 25.6569 36 24C36 22.3431 34.6569 21 33 21C31.3431 21 30 22.3431 30 24C30 25.6569 31.3431 27 33 27Z" stroke="#2389E3" stroke-width="2"/>
</svg>
