<svg width="78" height="16" viewBox="0 0 78 16" fill="none" xmlns="http://www.w3.org/2000/svg">
<path d="M0.435688 11.6387L4.80369 0.438671H6.75569L11.0917 11.6387H8.93169L6.53169 5.27067C6.47835 5.14267 6.40369 4.94 6.30769 4.66267C6.22235 4.38534 6.12635 4.08667 6.01969 3.76667C5.91302 3.43601 5.81702 3.13201 5.73169 2.85467C5.64635 2.56667 5.58235 2.35867 5.53969 2.23067L5.93969 2.21467C5.87569 2.428 5.80102 2.668 5.71569 2.93467C5.63035 3.20134 5.53969 3.47867 5.44369 3.76667C5.34769 4.05467 5.25169 4.332 5.15569 4.59867C5.07035 4.86534 4.99035 5.10534 4.91569 5.31867L2.51569 11.6387H0.435688ZM2.41969 9.07867L3.13969 7.27067H8.24369L9.01169 9.07867H2.41969ZM12.5036 15.1587V3.20667H14.4396L14.4716 5.12667L14.1356 4.98267C14.1996 4.652 14.3809 4.34267 14.6796 4.05467C14.9782 3.756 15.3409 3.516 15.7676 3.33467C16.2049 3.15334 16.6582 3.06267 17.1276 3.06267C17.8742 3.06267 18.5356 3.24934 19.1116 3.62267C19.6982 3.996 20.1569 4.508 20.4876 5.15867C20.8289 5.80934 20.9996 6.56134 20.9996 7.41467C20.9996 8.25734 20.8289 9.00934 20.4876 9.67067C20.1569 10.3213 19.6982 10.8387 19.1116 11.2227C18.5356 11.596 17.8849 11.7827 17.1596 11.7827C16.6689 11.7827 16.1942 11.6867 15.7356 11.4947C15.2876 11.3027 14.9036 11.052 14.5836 10.7427C14.2742 10.4333 14.0822 10.108 14.0076 9.76667L14.4876 9.54267V15.1587H12.5036ZM16.7596 10.0387C17.2076 10.0387 17.6076 9.92667 17.9596 9.70267C18.3116 9.47867 18.5836 9.16934 18.7756 8.77467C18.9782 8.38001 19.0796 7.92667 19.0796 7.41467C19.0796 6.90267 18.9836 6.45467 18.7916 6.07067C18.5996 5.676 18.3276 5.36667 17.9756 5.14267C17.6236 4.91867 17.2182 4.80667 16.7596 4.80667C16.2902 4.80667 15.8796 4.91867 15.5276 5.14267C15.1862 5.35601 14.9142 5.66001 14.7116 6.05467C14.5089 6.44934 14.4076 6.90267 14.4076 7.41467C14.4076 7.92667 14.5089 8.38001 14.7116 8.77467C14.9142 9.16934 15.1862 9.47867 15.5276 9.70267C15.8796 9.92667 16.2902 10.0387 16.7596 10.0387ZM22.7536 15.1587V3.20667H24.6896L24.7216 5.12667L24.3856 4.98267C24.4496 4.652 24.6309 4.34267 24.9296 4.05467C25.2282 3.756 25.5909 3.516 26.0176 3.33467C26.4549 3.15334 26.9082 3.06267 27.3776 3.06267C28.1242 3.06267 28.7856 3.24934 29.3616 3.62267C29.9482 3.996 30.4069 4.508 30.7376 5.15867C31.0789 5.80934 31.2496 6.56134 31.2496 7.41467C31.2496 8.25734 31.0789 9.00934 30.7376 9.67067C30.4069 10.3213 29.9482 10.8387 29.3616 11.2227C28.7856 11.596 28.1349 11.7827 27.4096 11.7827C26.9189 11.7827 26.4442 11.6867 25.9856 11.4947C25.5376 11.3027 25.1536 11.052 24.8336 10.7427C24.5242 10.4333 24.3322 10.108 24.2576 9.76667L24.7376 9.54267V15.1587H22.7536ZM27.0096 10.0387C27.4576 10.0387 27.8576 9.92667 28.2096 9.70267C28.5616 9.47867 28.8336 9.16934 29.0256 8.77467C29.2282 8.38001 29.3296 7.92667 29.3296 7.41467C29.3296 6.90267 29.2336 6.45467 29.0416 6.07067C28.8496 5.676 28.5776 5.36667 28.2256 5.14267C27.8736 4.91867 27.4682 4.80667 27.0096 4.80667C26.5402 4.80667 26.1296 4.91867 25.7776 5.14267C25.4362 5.35601 25.1642 5.66001 24.9616 6.05467C24.7589 6.44934 24.6576 6.90267 24.6576 7.41467C24.6576 7.92667 24.7589 8.38001 24.9616 8.77467C25.1642 9.16934 25.4362 9.47867 25.7776 9.70267C26.1296 9.92667 26.5402 10.0387 27.0096 10.0387ZM41.6107 11.7987C40.96 11.7987 40.3627 11.7187 39.8187 11.5587C39.2747 11.388 38.784 11.1373 38.3467 10.8067C37.9094 10.476 37.52 10.076 37.1787 9.60667L38.5387 8.07067C39.0614 8.79601 39.5734 9.29734 40.0747 9.57467C40.576 9.85201 41.1414 9.99067 41.7707 9.99067C42.1334 9.99067 42.464 9.93734 42.7627 9.83067C43.0614 9.71334 43.296 9.55867 43.4667 9.36667C43.6374 9.16401 43.7227 8.93467 43.7227 8.67867C43.7227 8.49734 43.6854 8.33201 43.6107 8.18267C43.5467 8.02267 43.4454 7.88401 43.3067 7.76667C43.168 7.63867 42.9974 7.52134 42.7947 7.41467C42.592 7.30801 42.3627 7.21734 42.1067 7.14267C41.8507 7.068 41.568 6.99867 41.2587 6.93467C40.672 6.81734 40.16 6.66267 39.7227 6.47067C39.2854 6.26801 38.9174 6.02267 38.6187 5.73467C38.32 5.436 38.1014 5.10534 37.9627 4.74267C37.824 4.36934 37.7547 3.948 37.7547 3.47867C37.7547 3.00934 37.856 2.57734 38.0587 2.18267C38.272 1.788 38.56 1.44667 38.9227 1.15867C39.2854 0.870671 39.7067 0.646671 40.1867 0.486671C40.6667 0.326672 41.184 0.246672 41.7387 0.246672C42.368 0.246672 42.928 0.321338 43.4187 0.470672C43.92 0.620005 44.3574 0.844005 44.7307 1.14267C45.1147 1.43067 45.4294 1.78267 45.6747 2.19867L44.2987 3.55867C44.0854 3.22801 43.8454 2.956 43.5787 2.74267C43.312 2.51867 43.024 2.35334 42.7147 2.24667C42.4054 2.12934 42.08 2.07067 41.7387 2.07067C41.3547 2.07067 41.0187 2.124 40.7307 2.23067C40.4534 2.33734 40.2347 2.49201 40.0747 2.69467C39.9147 2.88667 39.8347 3.12134 39.8347 3.39867C39.8347 3.612 39.8827 3.804 39.9787 3.97467C40.0747 4.13467 40.208 4.27867 40.3787 4.40667C40.56 4.53467 40.7894 4.64667 41.0667 4.74267C41.344 4.83867 41.6587 4.924 42.0107 4.99867C42.5974 5.116 43.1254 5.276 43.5947 5.47867C44.064 5.67067 44.464 5.90534 44.7947 6.18267C45.1254 6.44934 45.376 6.75867 45.5467 7.11067C45.7174 7.452 45.8027 7.836 45.8027 8.26267C45.8027 8.99867 45.6267 9.63334 45.2747 10.1667C44.9334 10.6893 44.448 11.0947 43.8187 11.3827C43.1894 11.66 42.4534 11.7987 41.6107 11.7987ZM48.6499 11.6387V1.06267H50.6179V11.6387H48.6499ZM46.9859 5.03067V3.20667H52.4579V5.03067H46.9859ZM57.7346 11.7987C56.8919 11.7987 56.1399 11.612 55.4786 11.2387C54.8172 10.8547 54.2946 10.332 53.9106 9.67067C53.5266 9.00934 53.3346 8.25734 53.3346 7.41467C53.3346 6.572 53.5266 5.82 53.9106 5.15867C54.2946 4.49734 54.8172 3.98 55.4786 3.60667C56.1399 3.22267 56.8919 3.03067 57.7346 3.03067C58.5666 3.03067 59.3132 3.22267 59.9746 3.60667C60.6359 3.98 61.1532 4.49734 61.5266 5.15867C61.9106 5.82 62.1026 6.572 62.1026 7.41467C62.1026 8.25734 61.9106 9.00934 61.5266 9.67067C61.1532 10.332 60.6359 10.8547 59.9746 11.2387C59.3132 11.612 58.5666 11.7987 57.7346 11.7987ZM57.7346 10.0547C58.1932 10.0547 58.5986 9.93734 58.9506 9.70267C59.3132 9.46801 59.5959 9.15334 59.7986 8.75867C60.0119 8.36401 60.1132 7.91601 60.1026 7.41467C60.1132 6.90267 60.0119 6.44934 59.7986 6.05467C59.5959 5.66001 59.3132 5.35067 58.9506 5.12667C58.5986 4.892 58.1932 4.77467 57.7346 4.77467C57.2759 4.77467 56.8599 4.892 56.4866 5.12667C56.1239 5.35067 55.8412 5.66534 55.6386 6.07067C55.4359 6.46534 55.3346 6.91334 55.3346 7.41467C55.3346 7.91601 55.4359 8.36401 55.6386 8.75867C55.8412 9.15334 56.1239 9.46801 56.4866 9.70267C56.8599 9.93734 57.2759 10.0547 57.7346 10.0547ZM63.8629 11.6387V3.20667H65.7989L65.8309 5.89467L65.5589 5.28667C65.6763 4.86001 65.8789 4.47601 66.1669 4.13467C66.4549 3.79334 66.7856 3.52667 67.1589 3.33467C67.5429 3.132 67.9429 3.03067 68.3589 3.03067C68.5403 3.03067 68.7109 3.04667 68.8709 3.07867C69.0416 3.11067 69.1803 3.14801 69.2869 3.19067L68.7589 5.35067C68.6416 5.28667 68.4976 5.23334 68.3269 5.19067C68.1563 5.14801 67.9856 5.12667 67.8149 5.12667C67.5483 5.12667 67.2923 5.18001 67.0469 5.28667C66.8123 5.38267 66.6043 5.52134 66.4229 5.70267C66.2416 5.88401 66.0976 6.09734 65.9909 6.34267C65.8949 6.57734 65.8469 6.844 65.8469 7.14267V11.6387H63.8629ZM74.1899 11.7987C73.3046 11.7987 72.5206 11.612 71.8379 11.2387C71.1659 10.8653 70.6379 10.3587 70.2539 9.71867C69.8806 9.06801 69.6939 8.32667 69.6939 7.49467C69.6939 6.83334 69.8006 6.23067 70.0139 5.68667C70.2273 5.14267 70.5206 4.67334 70.8939 4.27867C71.2779 3.87334 71.7313 3.564 72.2539 3.35067C72.7873 3.12667 73.3686 3.01467 73.9979 3.01467C74.5526 3.01467 75.0699 3.12134 75.5499 3.33467C76.0299 3.548 76.4459 3.84134 76.7979 4.21467C77.1499 4.57734 77.4166 5.01467 77.5979 5.52667C77.7899 6.028 77.8806 6.57734 77.8699 7.17467L77.8539 7.86267H71.0219L70.6539 6.51867H76.2059L75.9499 6.79067V6.43867C75.9179 6.10801 75.8113 5.82001 75.6299 5.57467C75.4486 5.31867 75.2139 5.12134 74.9259 4.98267C74.6486 4.83334 74.3393 4.75867 73.9979 4.75867C73.4753 4.75867 73.0326 4.86001 72.6699 5.06267C72.3179 5.26534 72.0513 5.55867 71.8699 5.94267C71.6886 6.31601 71.5979 6.78534 71.5979 7.35067C71.5979 7.89467 71.7099 8.36934 71.9339 8.77467C72.1686 9.18001 72.4939 9.49467 72.9099 9.71867C73.3366 9.93201 73.8326 10.0387 74.3979 10.0387C74.7926 10.0387 75.1553 9.97467 75.4859 9.84667C75.8166 9.71867 76.1739 9.48934 76.5579 9.15867L77.5339 10.5187C77.2459 10.7853 76.9153 11.0147 76.5419 11.2067C76.1793 11.388 75.7953 11.532 75.3899 11.6387C74.9846 11.7453 74.5846 11.7987 74.1899 11.7987Z" fill="white"/>
</svg>
