<svg width="367" height="27" viewBox="0 0 367 27" fill="none" xmlns="http://www.w3.org/2000/svg">
<g opacity="0.6">
<path d="M26.0814 14.855C25.2362 22.1332 18.711 27.3504 11.5497 26.4921C4.38228 25.6247 -0.761532 19.0016 0.0927404 11.7296C0.937924 4.45134 7.46008 -0.765855 14.6275 0.0923979C16.9055 0.366177 18.9928 1.22443 20.7346 2.5072L19.5744 3.80842L18.3566 5.17732L18.2869 5.26037C17.0964 4.45749 15.709 3.92531 14.2003 3.74074C9.02019 3.12243 4.30048 6.8969 3.68553 12.1572C3.06755 17.4236 6.78454 22.2101 11.9738 22.8346C17.16 23.459 21.8736 19.6846 22.4886 14.4181C22.6582 12.9816 22.5037 11.5758 22.0796 10.2807L22.4795 9.83464L23.767 8.38269L24.7545 7.27527C25.8875 9.53933 26.3964 12.1479 26.0814 14.855Z" fill="#4949D7"/>
<path d="M24.0924 6.11143L22.8322 7.52955L21.5448 8.9815L14.7288 16.6504C13.7049 17.8009 11.9539 17.8778 10.8361 16.8196L8.12482 14.2941C7.39475 13.6019 7.35234 12.4391 8.03394 11.6947C8.71554 10.9533 9.86063 10.9103 10.5937 11.6024L12.6446 13.5035L19.2879 6.02837L20.5027 4.65947L21.7114 3.2998C22.6293 4.12114 23.432 5.06861 24.0924 6.11143Z" fill="#3AD6DE"/>
<path d="M31.9285 17.9245L36.1484 8.55449C36.2968 8.22227 36.521 8.02539 36.8906 8.02539H36.9512C37.3086 8.02539 37.5449 8.22227 37.6782 8.55449L41.8981 17.9122C41.9435 18.0168 41.9738 18.1245 41.9738 18.2137C41.9738 18.5305 41.7224 18.7859 41.4103 18.7859C41.1286 18.7859 40.9347 18.589 40.8317 18.349L39.7472 15.9189H34.04L32.9555 18.3798C32.8525 18.6351 32.6586 18.7859 32.392 18.7859C32.0951 18.7859 31.8558 18.5428 31.8558 18.2414C31.8528 18.1491 31.8679 18.0445 31.9285 17.9245ZM39.2837 14.8299L36.8906 9.42813L34.4974 14.8299H39.2837Z" fill="white"/>
<path d="M49.8815 18.1964C49.8815 18.5132 49.6421 18.7839 49.318 18.7839C49.006 18.7839 48.7545 18.5286 48.7545 18.1964V17.3504C48.2335 18.1964 47.4459 18.8762 46.1251 18.8762C44.2681 18.8762 43.1836 17.6088 43.1836 15.7508V11.4196C43.1836 11.0874 43.4229 10.832 43.7471 10.832C44.0591 10.832 44.3257 11.0874 44.3257 11.4196V15.4648C44.3257 16.9136 45.0981 17.818 46.4522 17.818C47.7609 17.818 48.7545 16.8367 48.7545 15.3725V11.4196C48.7545 11.0874 48.9939 10.832 49.318 10.832C49.63 10.832 49.8815 11.0874 49.8815 11.4196V18.1964Z" fill="white"/>
<path d="M52.2589 16.6409V11.9313H51.6348C51.3682 11.9313 51.1289 11.6882 51.1289 11.4175C51.1289 11.1314 51.3682 10.9038 51.6348 10.9038H52.2589V9.06118C52.2589 8.74434 52.4982 8.47363 52.8223 8.47363C53.1343 8.47363 53.4009 8.74434 53.4009 9.06118V10.9038H55.3912C55.6729 10.9038 55.9122 11.1438 55.9122 11.4175C55.9122 11.7036 55.6729 11.9313 55.3912 11.9313H53.4009V16.4901C53.4009 17.4407 53.922 17.7883 54.6944 17.7883C55.0943 17.7883 55.3033 17.6837 55.3912 17.6837C55.6578 17.6837 55.8819 17.9113 55.8819 18.182C55.8819 18.3943 55.7486 18.5604 55.5548 18.6342C55.2276 18.7696 54.8701 18.8465 54.4248 18.8465C53.1949 18.8434 52.2589 18.2251 52.2589 16.6409Z" fill="white"/>
<path d="M56.5684 14.843V14.8123C56.5684 12.6097 58.2618 10.7363 60.5822 10.7363C62.8845 10.7363 64.5809 12.579 64.5809 14.7815V14.8123C64.5809 17.0148 62.8724 18.8882 60.555 18.8882C58.2466 18.8882 56.5684 17.0456 56.5684 14.843ZM63.4025 14.843V14.8123C63.4025 13.1357 62.1696 11.7638 60.5489 11.7638C58.8858 11.7638 57.7407 13.1357 57.7407 14.7815V14.8123C57.7407 16.4888 58.9585 17.8454 60.5792 17.8454C62.2453 17.8454 63.4025 16.4888 63.4025 14.843Z" fill="white"/>
<path d="M65.5645 13.4579V13.4272C65.5645 10.4248 67.794 7.96387 70.99 7.96387C72.5501 7.96387 73.6043 8.3853 74.4677 9.03438C74.707 9.21587 74.913 9.5481 74.913 9.95415C74.913 10.5878 74.4071 11.0862 73.783 11.0862C73.471 11.0862 73.262 10.9662 73.0984 10.8585C72.4592 10.3756 71.7897 10.1049 70.9748 10.1049C69.2209 10.1049 67.9576 11.5845 67.9576 13.3933V13.4241C67.9576 15.2359 69.1906 16.7433 70.9748 16.7433C71.9412 16.7433 72.5804 16.4418 73.2347 15.9127C73.4135 15.762 73.6498 15.6574 73.9194 15.6574C74.498 15.6574 74.9887 16.1403 74.9887 16.7279C74.9887 17.0909 74.81 17.377 74.601 17.5585C73.6649 18.389 72.5653 18.8874 70.9021 18.8874C67.8395 18.8904 65.5645 16.491 65.5645 13.4579Z" fill="white"/>
<path d="M76.1593 11.6767C76.1593 11.043 76.6652 10.5293 77.2892 10.5293C77.9133 10.5293 78.4192 11.043 78.4192 11.6767V12.0397C78.7463 11.2553 79.2795 10.5293 79.949 10.5293C80.6487 10.5293 81.0486 10.9969 81.0486 11.6459C81.0486 12.2489 80.6609 12.6119 80.2004 12.7165C79.0553 12.9872 78.4161 13.8793 78.4161 15.5096V17.6537C78.4161 18.2874 77.9102 18.8011 77.2862 18.8011C76.6621 18.8011 76.1562 18.2874 76.1562 17.6537V11.6767H76.1593Z" fill="white"/>
<path d="M85.3322 18.8903C82.939 18.8903 81.1699 17.1861 81.1699 14.7098V14.6791C81.1699 12.3689 82.7906 10.4678 85.108 10.4678C87.7678 10.4678 88.9432 12.6857 88.9432 14.3622C88.9432 15.0267 88.4827 15.4635 87.889 15.4635H83.4146C83.6388 16.5032 84.3507 17.0477 85.3625 17.0477C85.9866 17.0477 86.5076 16.8508 86.9681 16.5032C87.1316 16.3833 87.2801 16.3217 87.5194 16.3217C88.0253 16.3217 88.3949 16.7155 88.3949 17.2261C88.3949 17.5276 88.2616 17.7552 88.098 17.906C87.3952 18.512 86.4894 18.8903 85.3322 18.8903ZM86.7863 14.03C86.653 13.0025 86.0593 12.3104 85.108 12.3104C84.172 12.3104 83.5631 12.9902 83.3844 14.03H86.7863Z" fill="white"/>
<path d="M98.0819 17.6496C98.0819 18.2833 97.576 18.797 96.9519 18.797C96.3279 18.797 95.822 18.2833 95.822 17.6496V17.545C95.2706 18.2987 94.5133 18.8586 93.341 18.8586C91.484 18.8586 89.7148 17.3789 89.7148 14.678V14.6473C89.7148 11.9464 91.4537 10.4668 93.341 10.4668C94.5436 10.4668 95.2888 11.0235 95.822 11.6726V8.74409C95.822 8.1104 96.3279 7.59668 96.9519 7.59668C97.576 7.59668 98.0819 8.1104 98.0819 8.74409V17.6496ZM91.9747 14.6473V14.678C91.9747 16.0223 92.8653 16.9113 93.9226 16.9113C94.9768 16.9113 95.8553 16.0223 95.8553 14.678V14.6473C95.8553 13.303 94.9798 12.414 93.9226 12.414C92.8653 12.414 91.9747 13.2907 91.9747 14.6473Z" fill="white"/>
<path d="M99.4805 8.68672C99.4805 8.02227 100.032 7.61621 100.744 7.61621C101.459 7.61621 102.007 8.02227 102.007 8.68672V8.71748C102.007 9.38194 101.459 9.80337 100.744 9.80337C100.032 9.80337 99.4805 9.38194 99.4805 8.71748V8.68672ZM99.6138 11.6768C99.6138 11.0431 100.12 10.5293 100.744 10.5293C101.368 10.5293 101.874 11.0431 101.874 11.6768V17.6538C101.874 18.2875 101.368 18.8012 100.744 18.8012C100.12 18.8012 99.6138 18.2875 99.6138 17.6538V11.6768Z" fill="white"/>
<path d="M103.776 16.413V12.5801H103.701C103.165 12.5801 102.734 12.1433 102.734 11.5988C102.734 11.0543 103.165 10.6175 103.701 10.6175H103.776V9.60542C103.776 8.97173 104.282 8.45801 104.906 8.45801C105.53 8.45801 106.036 8.97173 106.036 9.60542V10.6175H107.033C107.569 10.6175 107.999 11.0543 107.999 11.5988C107.999 12.1433 107.569 12.5801 107.033 12.5801H106.036V16.0346C106.036 16.5637 106.261 16.819 106.763 16.819C106.839 16.819 106.988 16.8037 107.03 16.8037C107.536 16.8037 107.966 17.2251 107.966 17.7542C107.966 18.1633 107.699 18.4925 107.387 18.6155C106.972 18.7816 106.585 18.8432 106.094 18.8432C104.713 18.8432 103.776 18.2833 103.776 16.413Z" fill="white"/>
</g>
<g opacity="0.6">
<path d="M185.455 0.873595C185.085 0.462834 184.595 0.178484 184.054 0.0606744C183.514 -0.0571355 182.951 -0.00249606 182.443 0.216844C181.935 0.436183 181.509 0.809228 181.224 1.28343C180.94 1.75763 180.811 2.30912 180.857 2.86028V5.56796H186.144V2.86028C186.172 2.49954 186.125 2.13683 186.007 1.79496C185.888 1.4531 185.7 1.13946 185.455 0.873595ZM191.607 18.882C191.499 18.7731 191.369 18.6893 191.225 18.6367C191.081 18.5841 190.927 18.5639 190.774 18.5776C190.51 18.5911 190.247 18.6286 189.989 18.6898C189.664 18.7675 189.33 18.8051 188.996 18.8019C188.602 18.8402 188.205 18.7959 187.83 18.6717C187.455 18.5475 187.11 18.3463 186.817 18.081C186.329 17.4575 186.089 16.6756 186.144 15.886V9.47728H180.857V16.0622C180.809 17.4019 181.072 18.7345 181.626 19.9555C182.139 20.9848 182.986 21.8096 184.029 22.2947C185.303 22.8592 186.689 23.1276 188.082 23.0797C188.529 23.0754 188.974 23.0324 189.412 22.9515C189.84 22.8962 190.263 22.8106 190.678 22.6952C190.9 22.6352 191.106 22.5243 191.278 22.3714C191.45 22.2185 191.585 22.0276 191.671 21.814C191.861 21.3349 191.953 20.823 191.944 20.3079C192.001 19.8079 191.882 19.3037 191.607 18.882Z" fill="#39D3DB"/>
<path d="M196.972 0.872462C196.701 0.635303 196.387 0.453799 196.046 0.338338C195.705 0.222877 195.345 0.175651 194.985 0.199477C194.628 0.160699 194.267 0.203139 193.928 0.323572C193.589 0.444005 193.282 0.639363 193.03 0.895051C192.777 1.15074 192.585 1.4602 192.469 1.80029C192.353 2.14037 192.315 2.50231 192.358 2.85915V5.56683H197.661V2.85915C197.685 2.49871 197.637 2.13701 197.519 1.79569C197.4 1.45437 197.214 1.14043 196.972 0.872462ZM203.108 18.8809C203.003 18.7732 202.875 18.6901 202.734 18.6375C202.593 18.5849 202.441 18.5641 202.291 18.5765C202.021 18.5898 201.753 18.6273 201.49 18.6887C201.165 18.7672 200.831 18.8048 200.497 18.8007C200.104 18.838 199.707 18.7933 199.332 18.6692C198.957 18.5451 198.611 18.3444 198.318 18.0798C197.836 17.4541 197.602 16.6725 197.661 15.8849V9.47614H192.326V16.0611C192.278 17.4008 192.541 18.7333 193.095 19.9543C193.608 20.9837 194.455 21.8084 195.498 22.2936C196.773 22.858 198.159 23.1264 199.552 23.0786C199.998 23.0756 200.443 23.0327 200.881 22.9504C201.309 22.8967 201.732 22.8111 202.147 22.6941C202.371 22.6364 202.577 22.5264 202.75 22.3732C202.923 22.22 203.056 22.0279 203.14 21.8128C203.33 21.3338 203.423 20.8219 203.413 20.3068C203.48 19.8106 203.372 19.3067 203.108 18.8809Z" fill="#39D3DB"/>
<path d="M219.358 8.4345C218.917 7.58244 218.254 6.86571 217.439 6.36068C216.623 5.85566 215.686 5.58129 214.727 5.56664C212.404 5.56664 210.065 5.56664 207.742 5.56664H191.56C191.331 5.54029 191.1 5.54029 190.871 5.56664C190.631 5.54031 190.39 5.54031 190.15 5.56664H180.04C179.498 5.53479 178.965 5.71262 178.55 6.06331C178.359 6.24876 178.211 6.47413 178.117 6.72338C178.023 6.97264 177.985 7.23958 178.006 7.50521C177.989 7.77287 178.028 8.04108 178.122 8.29231C178.216 8.54355 178.362 8.77221 178.55 8.96324C178.964 9.33084 179.503 9.52574 180.056 9.50793H186.882H190.086C190.325 9.53426 190.567 9.53426 190.807 9.50793C191.036 9.53428 191.267 9.53428 191.496 9.50793H193.098H210.85H213.029C213.317 9.47098 213.61 9.49777 213.887 9.58636C214.164 9.67494 214.418 9.82318 214.631 10.0206C214.996 10.6033 215.154 11.2919 215.08 11.9753V12.5681H213.814C211.859 12.5266 209.904 12.6877 207.982 13.0488C206.775 13.2416 205.656 13.8009 204.778 14.651C204.079 15.4816 203.724 16.5474 203.785 17.631C203.77 18.6509 204.067 19.6512 204.634 20.4989C205.22 21.34 206.015 22.0136 206.941 22.4535C208.019 22.9536 209.197 23.2003 210.386 23.1745C211.212 23.1924 212.033 23.0284 212.789 22.6939C213.461 22.4068 214.051 21.955 214.503 21.3801C214.791 21.0454 215.014 20.6595 215.16 20.2425V20.4348C215.132 20.793 215.176 21.1531 215.289 21.4941C215.401 21.8352 215.581 22.1505 215.817 22.4215C216.057 22.6569 216.343 22.8397 216.658 22.9583C216.972 23.077 217.308 23.1287 217.643 23.1104C217.977 23.1285 218.31 23.0765 218.622 22.9578C218.933 22.8392 219.217 22.6565 219.454 22.4215C219.924 21.8705 220.16 21.1574 220.111 20.4348V12.6482C220.207 11.2033 219.949 9.75661 219.358 8.4345ZM215.16 15.9327C215.181 16.6068 215.026 17.2749 214.711 17.8713C214.409 18.3979 213.972 18.8346 213.446 19.137C212.884 19.4367 212.256 19.591 211.619 19.5857C210.917 19.631 210.224 19.4076 209.68 18.9608C209.457 18.7594 209.279 18.5119 209.16 18.2353C209.041 17.9587 208.984 17.6596 208.992 17.3586C208.983 17.1286 209.021 16.8992 209.104 16.6844C209.186 16.4696 209.312 16.2738 209.472 16.1089C209.934 15.7413 210.489 15.5085 211.074 15.436C212.035 15.3053 213.005 15.2464 213.974 15.2598H215.192L215.16 15.9327Z" fill="#39D3DB"/>
<path d="M191.558 5.56664C191.329 5.54029 191.098 5.54029 190.869 5.56664C190.63 5.54031 190.388 5.54031 190.148 5.56664H191.558Z" fill="#39D3DB"/>
<path d="M193.097 9.46094H186.881H190.085C190.325 9.48727 190.567 9.48727 190.806 9.46094C191.035 9.48729 191.266 9.48729 191.495 9.46094H193.097Z" fill="#39D3DB"/>
<path d="M226.23 11.1592C226.161 11.1642 226.091 11.1554 226.025 11.1334C225.959 11.1114 225.898 11.0766 225.846 11.031C225.795 10.9779 225.756 10.9149 225.732 10.8459C225.707 10.7769 225.696 10.7036 225.701 10.6305V8.00288H224.82C224.765 8.00749 224.708 7.99986 224.656 7.98048C224.603 7.96111 224.555 7.93046 224.516 7.89071C224.476 7.84817 224.445 7.79767 224.426 7.74246C224.406 7.68726 224.399 7.62865 224.404 7.57036C224.4 7.5146 224.408 7.45869 224.428 7.40627C224.447 7.35384 224.477 7.30605 224.516 7.26594C224.601 7.19626 224.71 7.16187 224.82 7.16981H227.576C227.691 7.15934 227.806 7.19378 227.896 7.26594C227.935 7.30605 227.966 7.35384 227.985 7.40627C228.004 7.45869 228.012 7.5146 228.009 7.57036C228.017 7.62903 228.011 7.68871 227.992 7.74481C227.973 7.80091 227.941 7.85188 227.9 7.89374C227.858 7.93561 227.807 7.96722 227.751 7.98616C227.694 8.00509 227.635 8.01081 227.576 8.00288H226.711V10.6305C226.718 10.7752 226.673 10.9177 226.583 11.031C226.483 11.1118 226.359 11.157 226.23 11.1592Z" fill="white"/>
<path d="M228.921 11.1099C228.848 11.115 228.775 11.1047 228.706 11.0799C228.637 11.0551 228.574 11.0163 228.521 10.9658C228.47 10.9132 228.43 10.8503 228.405 10.7812C228.38 10.7121 228.371 10.6384 228.377 10.5652V7.69728C228.372 7.62417 228.382 7.5508 228.407 7.48185C228.431 7.41289 228.47 7.34986 228.521 7.29673C228.575 7.2491 228.639 7.21317 228.708 7.19112C228.777 7.16907 228.849 7.16146 228.921 7.16863H230.78C230.885 7.1632 230.988 7.19753 231.068 7.26476C231.103 7.30377 231.13 7.34944 231.146 7.39902C231.163 7.44861 231.169 7.50106 231.165 7.55314C231.169 7.66278 231.135 7.77062 231.068 7.85755C230.988 7.92478 230.885 7.95911 230.78 7.95368H229.306V8.70666H230.652C230.704 8.70224 230.756 8.70851 230.806 8.72504C230.856 8.74157 230.901 8.768 230.94 8.80278C231.01 8.88829 231.044 8.99719 231.036 9.1072C231.041 9.15928 231.035 9.21173 231.018 9.26132C231.002 9.3109 230.975 9.35657 230.94 9.39558C230.902 9.43247 230.857 9.4614 230.807 9.48066C230.758 9.49991 230.705 9.50911 230.652 9.50775H229.306V10.3088H230.78C230.833 10.3055 230.887 10.3138 230.936 10.3332C230.986 10.3525 231.031 10.3825 231.068 10.421C231.103 10.46 231.13 10.5057 231.146 10.5553C231.163 10.6048 231.169 10.6573 231.165 10.7094C231.169 10.819 231.135 10.9269 231.068 11.0138C230.988 11.081 230.885 11.1154 230.78 11.1099H228.921Z" fill="white"/>
<path d="M233.826 11.1745C233.437 11.1866 233.05 11.0982 232.705 10.9181C232.399 10.7615 232.147 10.5157 231.984 10.2132C231.806 9.88406 231.717 9.51385 231.727 9.13973C231.723 8.85022 231.772 8.56231 231.872 8.29053C231.964 8.05014 232.106 7.83187 232.288 7.64972C232.476 7.47068 232.7 7.33408 232.945 7.24917C233.225 7.13621 233.525 7.08163 233.826 7.0889C234.002 7.07323 234.179 7.07323 234.355 7.0889C234.528 7.12551 234.695 7.18484 234.852 7.26521C234.941 7.31737 235.017 7.38848 235.076 7.4735C235.098 7.56291 235.098 7.65643 235.076 7.74584C235.064 7.83251 235.031 7.91489 234.98 7.98611C234.957 8.02304 234.926 8.0549 234.891 8.0797C234.855 8.10449 234.814 8.12173 234.772 8.13035C234.729 8.14934 234.682 8.1591 234.635 8.1591C234.589 8.1591 234.542 8.14934 234.499 8.13035C234.398 8.07405 234.291 8.03095 234.179 8.00215H233.826C233.627 7.99937 233.429 8.04329 233.25 8.13035C233.097 8.22079 232.974 8.3546 232.897 8.51486C232.813 8.71191 232.774 8.92563 232.785 9.13973C232.776 9.34855 232.814 9.55676 232.897 9.74857C232.965 9.91464 233.09 10.051 233.25 10.1331C233.426 10.2281 233.626 10.2725 233.826 10.2613C233.933 10.2764 234.04 10.2764 234.147 10.2613C234.261 10.2482 234.37 10.2099 234.467 10.1491C234.565 10.1107 234.674 10.1107 234.772 10.1491C234.855 10.1626 234.93 10.2087 234.98 10.2773C235.042 10.3431 235.082 10.4274 235.092 10.5176C235.115 10.6015 235.115 10.6901 235.092 10.774C235.044 10.8617 234.972 10.934 234.884 10.9823C234.735 11.072 234.573 11.1369 234.403 11.1745C234.212 11.1982 234.018 11.1982 233.826 11.1745Z" fill="white"/>
<path d="M236.193 11.1597C236.054 11.1649 235.917 11.1193 235.809 11.0315C235.718 10.9181 235.673 10.7757 235.681 10.631V7.6349C235.675 7.49544 235.721 7.35884 235.809 7.25039C235.914 7.15581 236.051 7.10352 236.193 7.10352C236.335 7.10352 236.472 7.15581 236.578 7.25039C236.665 7.35884 236.711 7.49544 236.706 7.6349V8.6923H238.308V7.6349C238.303 7.49544 238.348 7.35884 238.436 7.25039C238.487 7.20116 238.547 7.16295 238.613 7.13813C238.68 7.11332 238.75 7.10239 238.821 7.10616C238.889 7.10158 238.957 7.11213 239.021 7.13706C239.085 7.16198 239.142 7.20072 239.189 7.25039C239.238 7.30109 239.277 7.36142 239.301 7.42759C239.326 7.49376 239.337 7.56433 239.333 7.6349V10.631C239.338 10.7041 239.328 10.7774 239.303 10.8464C239.279 10.9153 239.24 10.9784 239.189 11.0315C239.088 11.1211 238.956 11.1672 238.821 11.1597C238.681 11.1649 238.545 11.1193 238.436 11.0315C238.346 10.9181 238.3 10.7757 238.308 10.631V9.52546H236.706V10.631C236.713 10.7757 236.668 10.9181 236.578 11.0315C236.47 11.1207 236.333 11.1664 236.193 11.1597Z" fill="white"/>
<path d="M226.232 16.4456C226.161 16.4514 226.09 16.4416 226.023 16.4166C225.957 16.3917 225.897 16.3523 225.847 16.3013C225.798 16.2506 225.76 16.1903 225.735 16.1241C225.71 16.058 225.699 15.9874 225.703 15.9168V13.2412H224.822C224.766 13.2461 224.709 13.2387 224.657 13.2195C224.604 13.2003 224.556 13.1697 224.516 13.13C224.476 13.0903 224.446 13.0425 224.427 12.9897C224.408 12.9369 224.4 12.8806 224.405 12.8246C224.398 12.7686 224.405 12.7118 224.424 12.6588C224.444 12.6058 224.475 12.5583 224.517 12.5202C224.557 12.4805 224.604 12.4498 224.657 12.4304C224.71 12.4111 224.766 12.4034 224.822 12.4081H227.577C227.636 12.401 227.695 12.4075 227.751 12.4269C227.806 12.4464 227.856 12.4782 227.898 12.5202C227.939 12.5583 227.972 12.6058 227.991 12.6588C228.011 12.7118 228.017 12.7686 228.01 12.8246C228.015 12.8805 228.007 12.9367 227.988 12.9893C227.968 13.0419 227.937 13.0895 227.898 13.129C227.856 13.171 227.806 13.203 227.751 13.2224C227.695 13.2419 227.636 13.2483 227.577 13.2412H226.712V15.8848C226.717 16.0243 226.672 16.1609 226.584 16.2694C226.54 16.3205 226.486 16.3624 226.425 16.3927C226.365 16.4229 226.299 16.4409 226.232 16.4456Z" fill="white"/>
<path d="M228.12 16.4464C228.016 16.4489 227.914 16.415 227.832 16.3503C227.792 16.3263 227.759 16.2936 227.734 16.2548C227.709 16.2159 227.693 16.1719 227.687 16.126C227.659 16.0211 227.659 15.9104 227.687 15.8055L229.081 12.8095C229.13 12.6825 229.214 12.5717 229.322 12.4891C229.427 12.421 229.549 12.3823 229.674 12.377C229.795 12.3801 229.912 12.4192 230.011 12.4891C230.114 12.5761 230.197 12.6856 230.251 12.8095L231.645 15.8055C231.68 15.9094 231.68 16.0221 231.645 16.126C231.629 16.2214 231.577 16.3072 231.501 16.3664C231.416 16.4231 231.315 16.4511 231.212 16.4464C231.092 16.4433 230.975 16.4042 230.876 16.3343C230.78 16.2409 230.709 16.1253 230.668 15.9978L230.363 15.2929L230.764 15.5972H228.441L228.841 15.2929L228.537 15.9978C228.496 16.1253 228.424 16.2409 228.328 16.3343C228.27 16.3896 228.198 16.4284 228.12 16.4464ZM229.722 13.5144L229.081 15.1166L228.921 14.8443H230.523L230.363 15.1166L229.722 13.5144Z" fill="white"/>
<path d="M232.737 16.3496C232.597 16.3563 232.46 16.3106 232.352 16.2214C232.302 16.1683 232.263 16.1052 232.238 16.0363C232.213 15.9673 232.203 15.8939 232.208 15.8208V12.9209C232.204 12.8502 232.214 12.7794 232.239 12.7131C232.264 12.6468 232.302 12.5865 232.352 12.5364C232.403 12.4874 232.463 12.4503 232.53 12.4281C232.597 12.4059 232.667 12.3991 232.737 12.4082C232.804 12.4004 232.872 12.408 232.936 12.4302C233 12.4524 233.058 12.4887 233.105 12.5364C233.153 12.5879 233.189 12.6487 233.211 12.715C233.233 12.7812 233.241 12.8514 233.234 12.9209V15.5004H234.612C234.67 15.4933 234.729 15.4998 234.785 15.5193C234.84 15.5387 234.891 15.5706 234.932 15.6125C234.972 15.6521 235.002 15.6998 235.022 15.7524C235.041 15.805 235.049 15.8611 235.044 15.917C235.052 15.9756 235.046 16.0354 235.027 16.0915C235.008 16.1476 234.977 16.1986 234.935 16.2405C234.893 16.2823 234.842 16.3139 234.786 16.3329C234.73 16.3518 234.67 16.3575 234.612 16.3496H232.737Z" fill="white"/>
<path d="M236.018 16.35C235.873 16.3577 235.731 16.312 235.617 16.2218C235.57 16.1673 235.534 16.1037 235.512 16.0348C235.49 15.9659 235.482 15.8932 235.489 15.8212V12.9373C235.482 12.8654 235.49 12.7927 235.512 12.7238C235.534 12.6549 235.57 12.5912 235.617 12.5368C235.731 12.4466 235.873 12.4009 236.018 12.4086H237.924C237.976 12.4042 238.029 12.4105 238.078 12.427C238.128 12.4435 238.174 12.4699 238.213 12.5047C238.253 12.5403 238.284 12.5851 238.304 12.6353C238.323 12.6855 238.331 12.7396 238.325 12.7931C238.329 12.849 238.322 12.9052 238.303 12.9578C238.283 13.0104 238.252 13.058 238.213 13.0975C238.174 13.1323 238.128 13.1588 238.078 13.1754C238.029 13.1919 237.976 13.1981 237.924 13.1937H236.466V13.9467H237.796C237.85 13.941 237.904 13.9481 237.954 13.9677C238.004 13.9872 238.049 14.0185 238.085 14.0589C238.156 14.1382 238.195 14.2409 238.195 14.3473C238.195 14.4537 238.156 14.5563 238.085 14.6356C238.049 14.6761 238.004 14.7074 237.954 14.7269C237.904 14.7464 237.85 14.7536 237.796 14.7478H236.466V15.5649H237.924C237.976 15.5605 238.029 15.5668 238.078 15.5833C238.128 15.5999 238.174 15.6263 238.213 15.6611C238.253 15.6967 238.284 15.7414 238.304 15.7916C238.323 15.8418 238.331 15.8959 238.325 15.9494C238.332 16.0055 238.325 16.0623 238.306 16.1153C238.286 16.1683 238.254 16.2158 238.213 16.2539C238.174 16.2886 238.128 16.3151 238.078 16.3316C238.029 16.3481 237.976 16.3544 237.924 16.35H236.018Z" fill="white"/>
<path d="M239.398 16.4461C239.333 16.4504 239.269 16.4411 239.208 16.4191C239.147 16.397 239.092 16.3625 239.045 16.3179C238.958 16.2151 238.913 16.0838 238.917 15.9494V12.8893C238.909 12.7544 238.955 12.6219 239.045 12.5207C239.084 12.4739 239.133 12.4366 239.189 12.4116C239.244 12.3866 239.305 12.3747 239.365 12.3766C239.454 12.3461 239.55 12.3461 239.638 12.3766C239.728 12.4342 239.805 12.5106 239.862 12.6008L241.641 14.8118H241.48V12.7931C241.476 12.6586 241.522 12.5274 241.609 12.4246C241.676 12.3504 241.766 12.2994 241.865 12.2788C241.963 12.2582 242.066 12.2689 242.158 12.3096C242.25 12.3503 242.326 12.4189 242.377 12.5057C242.428 12.5924 242.451 12.6929 242.442 12.7931V15.8853C242.447 15.9461 242.439 16.0072 242.42 16.0651C242.401 16.1229 242.37 16.1762 242.329 16.2217C242.294 16.2682 242.248 16.3056 242.195 16.3307C242.142 16.3558 242.084 16.3679 242.025 16.366C241.918 16.368 241.813 16.3403 241.721 16.2859C241.632 16.2207 241.552 16.1454 241.48 16.0616L239.718 13.8345H239.878V15.8693C239.883 16.0037 239.837 16.135 239.75 16.2378C239.711 16.2971 239.659 16.3467 239.598 16.3828C239.537 16.4189 239.468 16.4406 239.398 16.4461Z" fill="white"/>
<path d="M244.605 16.445C244.535 16.4488 244.464 16.438 244.398 16.4132C244.332 16.3883 244.272 16.35 244.221 16.3008C244.133 16.1923 244.088 16.0557 244.093 15.9163V13.2407H243.212C243.153 13.2455 243.095 13.2381 243.039 13.2188C242.984 13.1995 242.934 13.1687 242.891 13.1285C242.816 13.0454 242.775 12.9363 242.779 12.8241C242.774 12.7667 242.781 12.7088 242.801 12.6547C242.822 12.6007 242.854 12.5519 242.895 12.5119C242.937 12.4719 242.987 12.4417 243.041 12.4237C243.096 12.4056 243.154 12.4001 243.212 12.4075H245.999C246.057 12.4001 246.115 12.4056 246.17 12.4237C246.224 12.4417 246.274 12.4719 246.316 12.5119C246.357 12.5519 246.389 12.6007 246.409 12.6547C246.43 12.7088 246.437 12.7667 246.432 12.8241C246.435 12.9363 246.395 13.0454 246.32 13.1285C246.277 13.1687 246.227 13.1995 246.171 13.2188C246.116 13.2381 246.058 13.2455 245.999 13.2407H245.198V15.8843C245.203 16.0238 245.158 16.1604 245.07 16.2688C245.016 16.3377 244.944 16.3906 244.862 16.4217C244.78 16.4527 244.692 16.4608 244.605 16.445Z" fill="white"/>
<path d="M224.966 21.6526C224.872 21.6778 224.772 21.6778 224.678 21.6526C224.602 21.5996 224.55 21.5191 224.533 21.4283C224.511 21.3778 224.5 21.3233 224.5 21.2681C224.5 21.213 224.511 21.1584 224.533 21.1078L225.975 18.0477C226.029 17.9233 226.111 17.8134 226.216 17.7273C226.317 17.6649 226.433 17.6318 226.552 17.6318C226.671 17.6318 226.787 17.6649 226.889 17.7273C226.993 17.8134 227.076 17.9233 227.129 18.0477L228.539 21.0598C228.569 21.1645 228.569 21.2756 228.539 21.3803C228.526 21.4686 228.48 21.5487 228.411 21.6045C228.316 21.6297 228.217 21.6297 228.122 21.6045C228.062 21.6097 228 21.6024 227.943 21.5831C227.885 21.5638 227.831 21.533 227.786 21.4925C227.688 21.4042 227.611 21.2945 227.562 21.172L227.273 20.467L227.658 20.7554H225.351L225.751 20.467L225.447 21.172C225.398 21.2958 225.328 21.4097 225.239 21.5084C225.168 21.5871 225.071 21.6382 224.966 21.6526ZM226.568 18.7206L225.911 20.3228L225.751 20.0505H227.353L227.193 20.3228L226.536 18.7206H226.568Z" fill="white"/>
<path d="M230.942 21.6688C230.553 21.6729 230.169 21.585 229.82 21.4124C229.517 21.2447 229.267 20.9948 229.099 20.6915C228.919 20.3632 228.83 19.9923 228.843 19.618C228.839 19.3337 228.887 19.0512 228.987 18.7849C229.076 18.5426 229.218 18.3235 229.404 18.144C229.595 17.9654 229.818 17.8241 230.061 17.7274C230.344 17.6278 230.642 17.5791 230.942 17.5833C231.297 17.5866 231.647 17.6686 231.967 17.8235C232.063 17.8667 232.141 17.9398 232.191 18.0318C232.215 18.121 232.215 18.2149 232.191 18.3042C232.179 18.3908 232.146 18.4733 232.095 18.5445C232.043 18.6139 231.97 18.6645 231.887 18.6888C231.845 18.7099 231.798 18.7208 231.751 18.7208C231.704 18.7208 231.657 18.7099 231.615 18.6888C231.514 18.6349 231.406 18.597 231.294 18.5766C231.177 18.5608 231.059 18.5608 230.942 18.5766C230.741 18.5654 230.542 18.6097 230.365 18.7047C230.209 18.7918 230.086 18.9267 230.013 19.0893C229.936 19.283 229.898 19.4898 229.9 19.6981C229.896 19.9118 229.934 20.1242 230.013 20.3229C230.095 20.4793 230.216 20.6118 230.365 20.7074C230.545 20.7945 230.742 20.8384 230.942 20.8356H231.262C231.379 20.8129 231.492 20.7752 231.599 20.7235C231.692 20.6929 231.793 20.6929 231.887 20.7235C231.973 20.7522 232.05 20.8018 232.111 20.8677C232.159 20.9345 232.192 21.0111 232.208 21.092C232.231 21.1813 232.231 21.2751 232.208 21.3644C232.155 21.449 232.084 21.5203 231.999 21.5727C231.849 21.6568 231.687 21.7163 231.518 21.7489C231.324 21.7458 231.13 21.7189 230.942 21.6688Z" fill="white"/>
<path d="M232.912 21.6525C232.818 21.6776 232.718 21.6776 232.624 21.6525C232.548 21.5995 232.497 21.5189 232.48 21.4281C232.449 21.3235 232.449 21.2124 232.48 21.1077L233.986 18.0476C234.039 17.9231 234.122 17.8132 234.226 17.7271C234.333 17.6639 234.454 17.6307 234.578 17.631C234.698 17.6285 234.815 17.662 234.915 17.7271C235.019 17.8132 235.102 17.9231 235.155 18.0476L236.549 21.0597C236.586 21.1633 236.586 21.2765 236.549 21.3801C236.544 21.426 236.528 21.4701 236.503 21.5089C236.478 21.5478 236.444 21.5804 236.405 21.6044C236.311 21.6339 236.21 21.6339 236.117 21.6044C235.994 21.6097 235.875 21.5698 235.78 21.4923C235.687 21.4027 235.616 21.2931 235.572 21.1718L235.268 20.4669L235.668 20.7553H233.345L233.745 20.4669L233.441 21.1718C233.391 21.2914 233.326 21.4043 233.249 21.5082C233.157 21.5948 233.038 21.646 232.912 21.6525ZM234.514 18.7205L233.874 20.3226L233.713 20.0503H235.315L235.155 20.3226L234.514 18.7205Z" fill="white"/>
<path d="M237.544 21.6043C237.471 21.6104 237.397 21.6007 237.328 21.5758C237.259 21.5509 237.196 21.5115 237.143 21.4602C237.093 21.4071 237.054 21.344 237.029 21.2751C237.004 21.2061 236.994 21.1328 236.999 21.0597V18.1918C236.994 18.1187 237.004 18.0453 237.029 17.9764C237.054 17.9074 237.093 17.8444 237.143 17.7913C237.196 17.7399 237.259 17.7004 237.328 17.6756C237.397 17.6507 237.471 17.641 237.544 17.647H238.634C239.214 17.6069 239.787 17.7904 240.236 18.1597C240.429 18.3475 240.58 18.5752 240.677 18.8269C240.774 19.0787 240.814 19.3485 240.796 19.6177C240.802 19.9073 240.753 20.1954 240.652 20.4669C240.573 20.7046 240.429 20.9155 240.236 21.0757C240.046 21.257 239.815 21.389 239.563 21.4602C239.269 21.5625 238.96 21.6113 238.65 21.6043H237.544ZM238.025 20.7552H238.569C238.739 20.7828 238.912 20.7828 239.082 20.7552C239.212 20.7091 239.332 20.6384 239.435 20.547C239.537 20.4491 239.614 20.3283 239.659 20.1945C239.686 20.0247 239.686 19.8516 239.659 19.6818C239.673 19.528 239.654 19.3729 239.605 19.2266C239.555 19.0803 239.475 18.9462 239.37 18.8326C239.253 18.729 239.116 18.6502 238.967 18.6007C238.819 18.5511 238.661 18.5319 238.505 18.5442H237.961L238.025 20.7552Z" fill="white"/>
<path d="M241.994 21.6041C241.921 21.6091 241.848 21.599 241.779 21.5742C241.71 21.5493 241.647 21.5104 241.594 21.4599C241.504 21.3466 241.458 21.2041 241.466 21.0594V18.1915C241.458 18.0468 241.504 17.9044 241.594 17.791C241.647 17.7405 241.71 17.7016 241.779 17.6768C241.848 17.652 241.921 17.6417 241.994 17.6468H243.901C244.007 17.6468 244.109 17.689 244.184 17.7641C244.259 17.8392 244.301 17.9411 244.301 18.0473C244.301 18.1535 244.259 18.2554 244.184 18.3305C244.109 18.4056 244.007 18.4478 243.901 18.4478H242.443V19.2008H243.773C243.882 19.1959 243.99 19.2301 244.077 19.297C244.112 19.3361 244.138 19.3817 244.155 19.4313C244.171 19.4809 244.178 19.5333 244.173 19.5854C244.181 19.6954 244.147 19.8043 244.077 19.8898C243.99 19.9568 243.882 19.9909 243.773 19.986H242.443V20.803H243.901C243.953 20.7986 244.005 20.8049 244.055 20.8214C244.105 20.8379 244.15 20.8644 244.189 20.8992C244.228 20.9393 244.258 20.9871 244.278 21.0396C244.297 21.092 244.305 21.1478 244.301 21.2035C244.307 21.2571 244.3 21.3113 244.28 21.3615C244.261 21.4117 244.23 21.4564 244.189 21.492C244.151 21.5289 244.106 21.5577 244.056 21.577C244.007 21.5963 243.954 21.6055 243.901 21.6041H241.994Z" fill="white"/>
<path d="M245.315 21.6536C245.185 21.6586 245.058 21.6126 244.962 21.5254C244.92 21.4775 244.889 21.4215 244.869 21.3608C244.85 21.3002 244.844 21.2363 244.85 21.173V18.0487C244.848 17.9869 244.858 17.9254 244.88 17.8676C244.902 17.8098 244.935 17.757 244.978 17.7122C245.024 17.6658 245.079 17.6302 245.14 17.608C245.201 17.5858 245.266 17.5777 245.331 17.5841C245.434 17.5475 245.547 17.5475 245.651 17.5841C245.744 17.6474 245.816 17.7365 245.859 17.8404L247.061 20.0033H246.805L248.006 17.8404C248.055 17.74 248.126 17.6523 248.215 17.5841C248.313 17.5499 248.42 17.5499 248.519 17.5841C248.584 17.5764 248.649 17.584 248.71 17.6062C248.772 17.6285 248.827 17.6648 248.872 17.7122C248.914 17.757 248.948 17.8098 248.97 17.8676C248.992 17.9254 249.002 17.9869 249 18.0487V21.2531C249.004 21.3175 248.995 21.3821 248.973 21.4428C248.951 21.5035 248.916 21.5589 248.872 21.6055C248.827 21.6482 248.774 21.6816 248.716 21.7036C248.658 21.7256 248.597 21.7358 248.535 21.7337C248.471 21.7421 248.405 21.7352 248.344 21.7138C248.283 21.6923 248.227 21.6568 248.182 21.6101C248.137 21.5634 248.103 21.5068 248.084 21.4448C248.064 21.3828 248.06 21.3172 248.07 21.2531V19.3304H248.183L247.269 20.9326C247.229 21.0066 247.175 21.0719 247.109 21.1249C247.036 21.1454 246.958 21.1454 246.885 21.1249C246.806 21.1433 246.724 21.1433 246.644 21.1249C246.583 21.0677 246.53 21.0031 246.484 20.9326L245.587 19.3304H245.715V21.2531C245.726 21.3172 245.721 21.3828 245.702 21.4448C245.682 21.5068 245.649 21.5634 245.604 21.6101C245.558 21.6568 245.503 21.6923 245.442 21.7138C245.38 21.7352 245.315 21.7421 245.251 21.7337L245.315 21.6536Z" fill="white"/>
<path d="M251.237 21.6527C251.164 21.6577 251.091 21.6475 251.022 21.6226C250.953 21.5978 250.89 21.5589 250.837 21.5084C250.748 21.4007 250.702 21.2636 250.708 21.1239V19.5217L250.917 20.0986L249.635 18.2561C249.598 18.1579 249.598 18.0498 249.635 17.9516C249.644 17.8438 249.689 17.7422 249.763 17.6633C249.811 17.6214 249.867 17.5898 249.928 17.5706C249.988 17.5513 250.052 17.5447 250.116 17.5511C250.21 17.5226 250.31 17.5226 250.404 17.5511C250.503 17.6164 250.586 17.7042 250.644 17.8074L251.43 18.961H251.221L252.006 17.7915C252.074 17.6951 252.155 17.6088 252.247 17.5351C252.341 17.5091 252.441 17.5091 252.535 17.5351C252.596 17.5299 252.657 17.5372 252.715 17.5565C252.773 17.5758 252.826 17.6066 252.872 17.6472C252.948 17.7179 252.994 17.8156 253 17.9196C252.996 18.0354 252.957 18.1474 252.888 18.24L251.606 20.0826L251.814 19.5057V21.1079C251.734 21.4764 251.606 21.6527 251.237 21.6527Z" fill="white"/>
</g>
<g opacity="0.6">
<path d="M327.456 19.5843C327.324 20.9047 326.598 21.6199 325.278 21.73C324.661 21.73 324.122 21.5319 323.66 21.1358C323.22 20.7177 323 20.2005 323 19.5843V3.93784C323.022 3.32167 323.253 2.81552 323.693 2.41941C324.133 2.00129 324.661 1.79223 325.278 1.79223H339.109C339.241 1.79223 339.373 1.80323 339.505 1.82524H339.703C341.243 1.86925 342.509 2.22135 343.499 2.88154C344.489 3.54173 345.204 4.30095 345.645 5.15919C346.085 5.99543 346.305 6.84268 346.305 7.70092C346.305 8.58118 346.085 9.45043 345.645 10.3087C345.226 11.1449 344.511 11.8931 343.499 12.5533C342.509 13.2135 341.243 13.5656 339.703 13.6096H333.893C334.069 14.7099 334.432 15.5242 334.982 16.0523C335.511 16.5805 336.182 16.8446 336.996 16.8446H347.049C347.666 16.8666 348.172 17.0976 348.568 17.5378C348.986 17.9779 349.195 18.506 349.195 19.1222C349.173 19.7164 348.953 20.2225 348.535 20.6406C348.139 21.0368 347.644 21.2458 347.049 21.2678H336.402C334.773 21.2898 333.299 20.6516 331.979 19.3533C330.658 18.0549 329.855 16.5145 329.569 14.7319C329.173 12.7514 328.975 11.6401 328.975 11.398C328.975 10.7818 329.184 10.2647 329.602 9.84654C330.042 9.40641 330.57 9.18635 331.186 9.18635H339.901C340.319 9.16435 340.66 9.07632 340.924 8.92228C341.21 8.74623 341.419 8.55917 341.551 8.36111C341.683 8.14105 341.749 7.92099 341.749 7.70092C341.749 7.48086 341.683 7.2718 341.551 7.07374C341.419 6.85368 341.21 6.66663 340.924 6.51258C340.66 6.33653 340.319 6.2375 339.901 6.2155H328.315C327.742 6.2375 327.456 6.52359 327.456 7.07374V19.5843Z" fill="url(#paint0_linear_4090_1684)"/>
<path d="M352.965 16.1514C352.965 15.5352 353.174 15.018 353.592 14.5999C354.032 14.1598 354.56 13.9397 355.176 13.9397H360.227L359.369 11.497C359.016 10.5948 358.664 9.74751 358.312 8.95529C357.982 8.14105 357.597 7.40384 357.157 6.74365C356.761 6.08346 356.31 5.73136 355.803 5.68735C355.275 5.73136 354.802 6.08346 354.384 6.74365C353.966 7.40384 353.581 8.14105 353.229 8.95529C352.899 9.74751 352.558 10.5948 352.205 11.497L349.261 19.6863C349.04 20.1484 348.754 20.5335 348.402 20.8416C348.072 21.1277 347.566 21.2707 346.884 21.2707C346.246 21.2707 345.601 21.3338 345.108 21.0037C344.712 20.5636 344.536 20.0355 344.58 19.4193C344.602 19.1332 344.668 18.8691 344.778 18.6271L348.409 9.25237C349.422 6.78766 350.434 4.79609 351.446 3.27765C352.437 1.78122 353.889 1.02201 355.803 1C357.696 1.02201 359.137 1.78122 360.128 3.27765C361.14 4.75208 362.152 6.74365 363.165 9.25237L366.796 18.6271C366.906 18.8691 366.972 19.1332 366.994 19.4193C367.038 20.0355 366.851 20.5636 366.433 21.0037C366.036 21.4439 365.519 21.6639 364.881 21.6639C364.155 21.6639 363.616 21.5209 363.264 21.2348C362.934 20.9267 362.658 20.5416 362.438 20.0795L361.811 18.363H355.176C354.56 18.363 354.043 18.1429 353.625 17.7028C353.185 17.2847 352.965 16.7675 352.965 16.1514Z" fill="url(#paint1_linear_4090_1684)"/>
</g>
<defs>
<linearGradient id="paint0_linear_4090_1684" x1="329.89" y1="11.3354" x2="394.96" y2="21.7569" gradientUnits="userSpaceOnUse">
<stop stop-color="white"/>
<stop offset="1" stop-color="#FB0463"/>
</linearGradient>
<linearGradient id="paint1_linear_4090_1684" x1="329.89" y1="11.3354" x2="394.96" y2="21.7569" gradientUnits="userSpaceOnUse">
<stop stop-color="white"/>
<stop offset="1" stop-color="#FB0463"/>
</linearGradient>
</defs>
</svg>
