<svg width="431" height="217" viewBox="0 0 431 217" fill="none" xmlns="http://www.w3.org/2000/svg">
<rect x="0.447266" y="0.18457" width="430.252" height="74.8188" rx="20" fill="white"/>
<path d="M43.6374 44.0938L38.5974 31.4937H41.7834L44.2134 37.9197C44.3574 38.2917 44.4774 38.6157 44.5734 38.8917C44.6814 39.1677 44.7714 39.4257 44.8434 39.6657C44.9274 39.9057 44.9994 40.1517 45.0594 40.4037C45.1314 40.6437 45.2094 40.9197 45.2934 41.2317H44.7354C44.8314 40.8237 44.9274 40.4637 45.0234 40.1517C45.1194 39.8277 45.2274 39.4977 45.3474 39.1617C45.4674 38.8137 45.6174 38.3997 45.7974 37.9197L48.1374 31.4937H51.2694L46.1934 44.0938H43.6374ZM56.0996 44.2738C55.0436 44.2738 54.1256 44.0638 53.3456 43.6437C52.5656 43.2117 51.9596 42.6297 51.5276 41.8977C51.0956 41.1537 50.8796 40.3077 50.8796 39.3597C50.8796 38.6277 50.9996 37.9557 51.2396 37.3437C51.4796 36.7317 51.8156 36.2037 52.2476 35.7597C52.6796 35.3037 53.1896 34.9557 53.7776 34.7157C54.3776 34.4637 55.0316 34.3377 55.7396 34.3377C56.4116 34.3377 57.0236 34.4577 57.5756 34.6977C58.1396 34.9377 58.6256 35.2737 59.0336 35.7057C59.4416 36.1377 59.7536 36.6477 59.9696 37.2357C60.1856 37.8237 60.2816 38.4657 60.2576 39.1617L60.2396 39.9357H52.6256L52.2116 38.3157H57.8996L57.5936 38.6577V38.2977C57.5696 37.9977 57.4736 37.7337 57.3056 37.5057C57.1496 37.2657 56.9396 37.0797 56.6756 36.9477C56.4116 36.8157 56.1116 36.7497 55.7756 36.7497C55.3076 36.7497 54.9056 36.8457 54.5696 37.0377C54.2456 37.2177 53.9996 37.4877 53.8316 37.8477C53.6636 38.1957 53.5796 38.6277 53.5796 39.1437C53.5796 39.6717 53.6876 40.1337 53.9036 40.5297C54.1316 40.9137 54.4556 41.2137 54.8756 41.4297C55.3076 41.6457 55.8176 41.7537 56.4056 41.7537C56.8136 41.7537 57.1736 41.6937 57.4856 41.5737C57.8096 41.4537 58.1576 41.2497 58.5296 40.9617L59.8796 42.8697C59.5076 43.1937 59.1116 43.4577 58.6916 43.6617C58.2716 43.8657 57.8396 44.0157 57.3956 44.1118C56.9636 44.2198 56.5316 44.2738 56.0996 44.2738ZM62.0925 44.0938V30.7737H64.9185V36.4797L64.3425 36.6957C64.4745 36.2637 64.7085 35.8737 65.0445 35.5257C65.3925 35.1657 65.8065 34.8777 66.2865 34.6617C66.7665 34.4457 67.2705 34.3377 67.7985 34.3377C68.5185 34.3377 69.1245 34.4877 69.6165 34.7877C70.1085 35.0757 70.4805 35.5137 70.7325 36.1017C70.9845 36.6777 71.1105 37.3857 71.1105 38.2257V44.0938H68.2125V38.4597C68.2125 38.0757 68.1585 37.7577 68.0505 37.5057C67.9425 37.2537 67.7745 37.0677 67.5465 36.9477C67.3305 36.8157 67.0605 36.7557 66.7365 36.7677C66.4845 36.7677 66.2505 36.8097 66.0345 36.8937C65.8185 36.9657 65.6325 37.0797 65.4765 37.2357C65.3205 37.3797 65.1945 37.5477 65.0985 37.7397C65.0145 37.9317 64.9725 38.1417 64.9725 38.3697V44.0938H63.5505C63.2145 44.0938 62.9265 44.0938 62.6865 44.0938C62.4465 44.0938 62.2485 44.0938 62.0925 44.0938ZM73.6802 44.0938V34.5357H76.5602V44.0938H73.6802ZM75.1202 32.6457C74.5802 32.6457 74.1542 32.5197 73.8422 32.2677C73.5422 32.0037 73.3922 31.6317 73.3922 31.1517C73.3922 30.7197 73.5482 30.3657 73.8602 30.0897C74.1722 29.8137 74.5922 29.6757 75.1202 29.6757C75.6602 29.6757 76.0802 29.8077 76.3802 30.0717C76.6802 30.3237 76.8302 30.6837 76.8302 31.1517C76.8302 31.5957 76.6742 31.9557 76.3622 32.2317C76.0622 32.5077 75.6482 32.6457 75.1202 32.6457ZM83.4603 44.2738C82.5363 44.2738 81.7083 44.0578 80.9763 43.6257C80.2443 43.1937 79.6623 42.6057 79.2303 41.8617C78.8103 41.1057 78.6003 40.2537 78.6003 39.3057C78.6003 38.3577 78.8103 37.5117 79.2303 36.7677C79.6623 36.0117 80.2443 35.4177 80.9763 34.9857C81.7083 34.5537 82.5363 34.3377 83.4603 34.3377C84.3123 34.3377 85.0923 34.4877 85.8003 34.7877C86.5203 35.0877 87.0903 35.5077 87.5103 36.0477L85.9443 37.9197C85.7763 37.7277 85.5783 37.5477 85.3503 37.3797C85.1223 37.2117 84.8703 37.0797 84.5943 36.9837C84.3183 36.8877 84.0303 36.8397 83.7303 36.8397C83.2743 36.8397 82.8723 36.9477 82.5243 37.1637C82.1763 37.3677 81.9063 37.6557 81.7143 38.0277C81.5223 38.3997 81.4263 38.8257 81.4263 39.3057C81.4263 39.7617 81.5223 40.1757 81.7143 40.5477C81.9183 40.9197 82.1943 41.2137 82.5423 41.4297C82.8903 41.6457 83.2863 41.7537 83.7303 41.7537C84.0423 41.7537 84.3303 41.7177 84.5943 41.6457C84.8583 41.5617 85.0983 41.4417 85.3143 41.2857C85.5423 41.1297 85.7523 40.9377 85.9443 40.7097L87.4923 42.5997C87.0843 43.1157 86.5143 43.5237 85.7823 43.8237C85.0623 44.1238 84.2883 44.2738 83.4603 44.2738ZM89.0929 44.0938V30.7737H91.9729V44.0938H89.0929ZM98.9199 44.2738C97.8639 44.2738 96.9459 44.0638 96.1659 43.6437C95.3859 43.2117 94.7799 42.6297 94.3479 41.8977C93.9159 41.1537 93.6999 40.3077 93.6999 39.3597C93.6999 38.6277 93.8199 37.9557 94.0599 37.3437C94.2999 36.7317 94.6359 36.2037 95.0679 35.7597C95.4999 35.3037 96.0099 34.9557 96.5979 34.7157C97.1979 34.4637 97.8519 34.3377 98.5599 34.3377C99.2319 34.3377 99.8439 34.4577 100.396 34.6977C100.96 34.9377 101.446 35.2737 101.854 35.7057C102.262 36.1377 102.574 36.6477 102.79 37.2357C103.006 37.8237 103.102 38.4657 103.078 39.1617L103.06 39.9357H95.4459L95.0319 38.3157H100.72L100.414 38.6577V38.2977C100.39 37.9977 100.294 37.7337 100.126 37.5057C99.9699 37.2657 99.7599 37.0797 99.4959 36.9477C99.2319 36.8157 98.9319 36.7497 98.5959 36.7497C98.1279 36.7497 97.7259 36.8457 97.3899 37.0377C97.0659 37.2177 96.8199 37.4877 96.6519 37.8477C96.4839 38.1957 96.3999 38.6277 96.3999 39.1437C96.3999 39.6717 96.5079 40.1337 96.7239 40.5297C96.9519 40.9137 97.2759 41.2137 97.6959 41.4297C98.1279 41.6457 98.6379 41.7537 99.2259 41.7537C99.6339 41.7537 99.9939 41.6937 100.306 41.5737C100.63 41.4537 100.978 41.2497 101.35 40.9617L102.7 42.8697C102.328 43.1937 101.932 43.4577 101.512 43.6617C101.092 43.8657 100.66 44.0157 100.216 44.1118C99.7839 44.2198 99.3519 44.2738 98.9199 44.2738ZM110.984 44.0938V31.4937H114.044V41.3937H119.66V44.0938H110.984ZM121.809 44.0938V34.5357H124.689V44.0938H121.809ZM123.249 32.6457C122.709 32.6457 122.283 32.5197 121.971 32.2677C121.671 32.0037 121.521 31.6317 121.521 31.1517C121.521 30.7197 121.677 30.3657 121.989 30.0897C122.301 29.8137 122.721 29.6757 123.249 29.6757C123.789 29.6757 124.209 29.8077 124.509 30.0717C124.809 30.3237 124.959 30.6837 124.959 31.1517C124.959 31.5957 124.803 31.9557 124.491 32.2317C124.191 32.5077 123.777 32.6457 123.249 32.6457ZM131.589 44.2738C130.665 44.2738 129.837 44.0578 129.105 43.6257C128.373 43.1937 127.791 42.6057 127.359 41.8617C126.939 41.1057 126.729 40.2537 126.729 39.3057C126.729 38.3577 126.939 37.5117 127.359 36.7677C127.791 36.0117 128.373 35.4177 129.105 34.9857C129.837 34.5537 130.665 34.3377 131.589 34.3377C132.441 34.3377 133.221 34.4877 133.929 34.7877C134.649 35.0877 135.219 35.5077 135.639 36.0477L134.073 37.9197C133.905 37.7277 133.707 37.5477 133.479 37.3797C133.251 37.2117 132.999 37.0797 132.723 36.9837C132.447 36.8877 132.159 36.8397 131.859 36.8397C131.403 36.8397 131.001 36.9477 130.653 37.1637C130.305 37.3677 130.035 37.6557 129.843 38.0277C129.651 38.3997 129.555 38.8257 129.555 39.3057C129.555 39.7617 129.651 40.1757 129.843 40.5477C130.047 40.9197 130.323 41.2137 130.671 41.4297C131.019 41.6457 131.415 41.7537 131.859 41.7537C132.171 41.7537 132.459 41.7177 132.723 41.6457C132.987 41.5617 133.227 41.4417 133.443 41.2857C133.671 41.1297 133.881 40.9377 134.073 40.7097L135.621 42.5997C135.213 43.1157 134.643 43.5237 133.911 43.8237C133.191 44.1238 132.417 44.2738 131.589 44.2738ZM141.758 44.2738C140.702 44.2738 139.784 44.0638 139.004 43.6437C138.224 43.2117 137.618 42.6297 137.186 41.8977C136.754 41.1537 136.538 40.3077 136.538 39.3597C136.538 38.6277 136.658 37.9557 136.898 37.3437C137.138 36.7317 137.474 36.2037 137.906 35.7597C138.338 35.3037 138.848 34.9557 139.436 34.7157C140.036 34.4637 140.69 34.3377 141.398 34.3377C142.07 34.3377 142.682 34.4577 143.234 34.6977C143.798 34.9377 144.284 35.2737 144.692 35.7057C145.1 36.1377 145.412 36.6477 145.628 37.2357C145.844 37.8237 145.94 38.4657 145.916 39.1617L145.898 39.9357H138.284L137.87 38.3157H143.558L143.252 38.6577V38.2977C143.228 37.9977 143.132 37.7337 142.964 37.5057C142.808 37.2657 142.598 37.0797 142.334 36.9477C142.07 36.8157 141.77 36.7497 141.434 36.7497C140.966 36.7497 140.564 36.8457 140.228 37.0377C139.904 37.2177 139.658 37.4877 139.49 37.8477C139.322 38.1957 139.238 38.6277 139.238 39.1437C139.238 39.6717 139.346 40.1337 139.562 40.5297C139.79 40.9137 140.114 41.2137 140.534 41.4297C140.966 41.6457 141.476 41.7537 142.064 41.7537C142.472 41.7537 142.832 41.6937 143.144 41.5737C143.468 41.4537 143.816 41.2497 144.188 40.9617L145.538 42.8697C145.166 43.1937 144.77 43.4577 144.35 43.6617C143.93 43.8657 143.498 44.0157 143.054 44.1118C142.622 44.2198 142.19 44.2738 141.758 44.2738ZM147.751 44.0938V34.5357H150.487L150.577 36.4797L150.001 36.6957C150.133 36.2637 150.367 35.8737 150.703 35.5257C151.051 35.1657 151.465 34.8777 151.945 34.6617C152.425 34.4457 152.929 34.3377 153.457 34.3377C154.177 34.3377 154.783 34.4877 155.275 34.7877C155.767 35.0757 156.139 35.5137 156.391 36.1017C156.643 36.6777 156.769 37.3857 156.769 38.2257V44.0938H153.871V38.4597C153.871 38.0757 153.817 37.7577 153.709 37.5057C153.601 37.2537 153.433 37.0677 153.205 36.9477C152.989 36.8157 152.719 36.7557 152.395 36.7677C152.143 36.7677 151.909 36.8097 151.693 36.8937C151.477 36.9657 151.291 37.0797 151.135 37.2357C150.979 37.3797 150.853 37.5477 150.757 37.7397C150.673 37.9317 150.631 38.1417 150.631 38.3697V44.0938H149.209C148.873 44.0938 148.585 44.0938 148.345 44.0938C148.105 44.0938 147.907 44.0938 147.751 44.0938ZM162.398 44.2738C161.462 44.2738 160.634 44.1238 159.914 43.8237C159.206 43.5237 158.642 43.1217 158.222 42.6177L159.968 41.1057C160.34 41.4777 160.76 41.7537 161.228 41.9337C161.696 42.1017 162.14 42.1857 162.56 42.1857C162.728 42.1857 162.878 42.1677 163.01 42.1317C163.142 42.0957 163.25 42.0477 163.334 41.9877C163.43 41.9157 163.502 41.8377 163.55 41.7537C163.598 41.6577 163.622 41.5497 163.622 41.4297C163.622 41.1897 163.514 41.0037 163.298 40.8717C163.19 40.8117 163.01 40.7397 162.758 40.6557C162.506 40.5717 162.182 40.4757 161.786 40.3677C161.222 40.2237 160.73 40.0557 160.31 39.8637C159.902 39.6597 159.566 39.4257 159.302 39.1617C159.062 38.9097 158.876 38.6337 158.744 38.3337C158.612 38.0217 158.546 37.6737 158.546 37.2897C158.546 36.8457 158.648 36.4437 158.852 36.0837C159.068 35.7237 159.35 35.4117 159.698 35.1477C160.058 34.8837 160.466 34.6857 160.922 34.5537C161.39 34.4097 161.87 34.3377 162.362 34.3377C162.89 34.3377 163.394 34.3977 163.874 34.5177C164.354 34.6377 164.798 34.8057 165.206 35.0217C165.626 35.2377 165.998 35.4957 166.322 35.7957L164.81 37.4877C164.594 37.2837 164.348 37.1037 164.072 36.9477C163.808 36.7797 163.532 36.6477 163.244 36.5517C162.956 36.4557 162.692 36.4077 162.452 36.4077C162.272 36.4077 162.11 36.4257 161.966 36.4617C161.834 36.4857 161.72 36.5337 161.624 36.6057C161.528 36.6657 161.456 36.7437 161.408 36.8397C161.36 36.9237 161.336 37.0257 161.336 37.1457C161.336 37.2657 161.366 37.3797 161.426 37.4877C161.498 37.5957 161.594 37.6857 161.714 37.7577C161.834 37.8297 162.026 37.9137 162.29 38.0097C162.554 38.0937 162.914 38.2017 163.37 38.3337C163.934 38.4897 164.42 38.6637 164.828 38.8557C165.236 39.0477 165.56 39.2757 165.8 39.5397C165.992 39.7437 166.136 39.9837 166.232 40.2597C166.328 40.5237 166.376 40.8117 166.376 41.1237C166.376 41.7357 166.202 42.2817 165.854 42.7617C165.518 43.2297 165.05 43.6017 164.45 43.8777C163.85 44.1418 163.166 44.2738 162.398 44.2738ZM172.643 44.2738C171.587 44.2738 170.669 44.0638 169.889 43.6437C169.109 43.2117 168.503 42.6297 168.071 41.8977C167.639 41.1537 167.423 40.3077 167.423 39.3597C167.423 38.6277 167.543 37.9557 167.783 37.3437C168.023 36.7317 168.359 36.2037 168.791 35.7597C169.223 35.3037 169.733 34.9557 170.321 34.7157C170.921 34.4637 171.575 34.3377 172.283 34.3377C172.955 34.3377 173.567 34.4577 174.119 34.6977C174.683 34.9377 175.169 35.2737 175.577 35.7057C175.985 36.1377 176.297 36.6477 176.513 37.2357C176.729 37.8237 176.825 38.4657 176.801 39.1617L176.783 39.9357H169.169L168.755 38.3157H174.443L174.137 38.6577V38.2977C174.113 37.9977 174.017 37.7337 173.849 37.5057C173.693 37.2657 173.483 37.0797 173.219 36.9477C172.955 36.8157 172.655 36.7497 172.319 36.7497C171.851 36.7497 171.449 36.8457 171.113 37.0377C170.789 37.2177 170.543 37.4877 170.375 37.8477C170.207 38.1957 170.123 38.6277 170.123 39.1437C170.123 39.6717 170.231 40.1337 170.447 40.5297C170.675 40.9137 170.999 41.2137 171.419 41.4297C171.851 41.6457 172.361 41.7537 172.949 41.7537C173.357 41.7537 173.717 41.6937 174.029 41.5737C174.353 41.4537 174.701 41.2497 175.073 40.9617L176.423 42.8697C176.051 43.1937 175.655 43.4577 175.235 43.6617C174.815 43.8657 174.383 44.0157 173.939 44.1118C173.507 44.2198 173.075 44.2738 172.643 44.2738Z" fill="#05243F"/>
<path d="M295.436 38.9937L293.286 36.8438C293.103 36.6604 292.869 36.5688 292.586 36.5688C292.303 36.5688 292.069 36.6604 291.886 36.8438C291.703 37.0271 291.611 37.2604 291.611 37.5437C291.611 37.8271 291.703 38.0604 291.886 38.2437L294.736 41.0938C294.936 41.2937 295.169 41.3938 295.436 41.3938C295.703 41.3938 295.936 41.2937 296.136 41.0938L301.786 35.4438C301.969 35.2604 302.061 35.0271 302.061 34.7437C302.061 34.4604 301.969 34.2271 301.786 34.0437C301.603 33.8604 301.369 33.7688 301.086 33.7688C300.803 33.7688 300.569 33.8604 300.386 34.0437L295.436 38.9937ZM289.836 46.5938C289.286 46.5938 288.815 46.3981 288.424 46.0068C288.033 45.6154 287.837 45.1444 287.836 44.5938V30.5938C287.836 30.0438 288.032 29.5731 288.424 29.1818C288.816 28.7904 289.287 28.5944 289.836 28.5938H303.836C304.386 28.5938 304.857 28.7898 305.249 29.1818C305.641 29.5738 305.837 30.0444 305.836 30.5938V44.5938C305.836 45.1437 305.64 45.6147 305.249 46.0068C304.858 46.3988 304.387 46.5944 303.836 46.5938H289.836Z" fill="#2389E3"/>
<path d="M321.808 49.0938L320.815 46.627L326.952 39.9185C327.293 39.5375 327.664 39.1063 328.065 38.625C328.466 38.1436 328.857 37.6523 329.239 37.1509C329.62 36.6295 329.92 36.1281 330.141 35.6468C330.382 35.1655 330.502 34.7242 330.502 34.3231C330.502 33.922 330.412 33.5711 330.231 33.2702C330.051 32.9694 329.79 32.7388 329.449 32.5783C329.108 32.3979 328.677 32.3076 328.156 32.3076C327.694 32.3076 327.253 32.4279 326.832 32.6686C326.411 32.8892 326.01 33.2402 325.629 33.7215C325.268 34.2028 324.927 34.7944 324.606 35.4964L320.815 33.4507C321.237 32.2875 321.828 31.2647 322.59 30.3823C323.372 29.4798 324.285 28.7879 325.328 28.3066C326.371 27.8052 327.484 27.5545 328.667 27.5545C329.91 27.5746 331.033 27.8453 332.036 28.3668C333.039 28.8681 333.831 29.5801 334.413 30.5026C335.014 31.4051 335.315 32.468 335.315 33.6914C335.315 34.1126 335.265 34.5538 335.165 35.015C335.065 35.4763 334.914 35.9576 334.714 36.459C334.513 36.9403 334.242 37.4618 333.901 38.0233C333.58 38.5648 333.189 39.1364 332.728 39.738C332.267 40.3397 331.725 40.9814 331.104 41.6633L326.32 46.8676L325.719 44.5813H336.248V49.0938H321.808ZM346.652 49.3946C344.767 49.3946 343.152 48.9634 341.809 48.101C340.485 47.2387 339.472 46.0053 338.77 44.4008C338.068 42.7764 337.717 40.831 337.717 38.5648C337.717 36.2986 338.068 34.3633 338.77 32.7588C339.472 31.1344 340.485 29.891 341.809 29.0286C343.152 28.1662 344.767 27.735 346.652 27.735C348.537 27.735 350.152 28.1662 351.495 29.0286C352.839 29.891 353.862 31.1344 354.564 32.7588C355.266 34.3633 355.617 36.2986 355.617 38.5648C355.617 40.831 355.266 42.7764 354.564 44.4008C353.862 46.0053 352.839 47.2387 351.495 48.101C350.152 48.9634 348.537 49.3946 346.652 49.3946ZM346.652 45.0627C347.956 45.0627 348.958 44.5011 349.66 43.378C350.382 42.2549 350.743 40.6505 350.743 38.5648C350.743 36.4189 350.382 34.7744 349.66 33.6312C348.958 32.468 347.956 31.8864 346.652 31.8864C345.348 31.8864 344.336 32.468 343.614 33.6312C342.912 34.7744 342.561 36.4189 342.561 38.5648C342.561 40.6505 342.912 42.2549 343.614 43.378C344.336 44.5011 345.348 45.0627 346.652 45.0627ZM358.589 49.0938L357.596 46.627L363.733 39.9185C364.074 39.5375 364.445 39.1063 364.846 38.625C365.247 38.1436 365.638 37.6523 366.019 37.1509C366.4 36.6295 366.701 36.1281 366.922 35.6468C367.162 35.1655 367.283 34.7242 367.283 34.3231C367.283 33.922 367.193 33.5711 367.012 33.2702C366.832 32.9694 366.571 32.7388 366.23 32.5783C365.889 32.3979 365.458 32.3076 364.936 32.3076C364.475 32.3076 364.034 32.4279 363.613 32.6686C363.192 32.8892 362.79 33.2402 362.409 33.7215C362.048 34.2028 361.707 34.7944 361.387 35.4964L357.596 33.4507C358.017 32.2875 358.609 31.2647 359.371 30.3823C360.153 29.4798 361.066 28.7879 362.109 28.3066C363.151 27.8052 364.264 27.5545 365.448 27.5545C366.691 27.5746 367.814 27.8453 368.817 28.3668C369.82 28.8681 370.612 29.5801 371.194 30.5026C371.795 31.4051 372.096 32.468 372.096 33.6914C372.096 34.1126 372.046 34.5538 371.946 35.015C371.845 35.4763 371.695 35.9576 371.494 36.459C371.294 36.9403 371.023 37.4618 370.682 38.0233C370.361 38.5648 369.97 39.1364 369.509 39.738C369.048 40.3397 368.506 40.9814 367.884 41.6633L363.101 46.8676L362.5 44.5813H373.029V49.0938H358.589ZM381.778 49.3043C380.194 49.3043 378.75 48.9834 377.446 48.3417C376.163 47.6999 375.1 46.7774 374.258 45.5741L376.995 42.5658C377.817 43.4683 378.579 44.09 379.281 44.4309C379.983 44.7518 380.765 44.9123 381.628 44.9123C382.27 44.9123 382.841 44.7819 383.342 44.5212C383.844 44.2605 384.235 43.8995 384.516 43.4382C384.817 42.9569 384.967 42.4254 384.967 41.8438C384.967 41.2422 384.817 40.7107 384.516 40.2494C384.235 39.7681 383.844 39.3871 383.342 39.1063C382.861 38.8255 382.3 38.6851 381.658 38.6851C381.197 38.6851 380.765 38.7252 380.364 38.8055C379.963 38.8857 379.532 39.0261 379.071 39.2266C378.63 39.4071 378.098 39.6779 377.476 40.0389L375.31 37.1509L376.604 27.8554H388.697V32.1572H379.041L380.364 30.4726L379.372 37.1509L377.567 36.5493C377.948 36.2083 378.409 35.9075 378.95 35.6468C379.512 35.3861 380.114 35.1755 380.755 35.015C381.397 34.8345 382.039 34.7443 382.681 34.7443C384.004 34.7443 385.188 35.0552 386.23 35.6769C387.293 36.2785 388.136 37.1208 388.757 38.2038C389.379 39.2868 389.69 40.5302 389.69 41.9341C389.69 43.3179 389.339 44.5713 388.637 45.6944C387.935 46.7974 386.993 47.6799 385.809 48.3417C384.626 48.9834 383.282 49.3043 381.778 49.3043Z" fill="#05243F"/>
<g opacity="0.8">
<rect x="21.8672" y="83.0034" width="387.412" height="67.3691" rx="18.0086" fill="white"/>
<path d="M63.061 122.632V111.286H67.8099C68.6419 111.286 69.4037 111.427 70.0952 111.708C70.7867 111.978 71.381 112.367 71.8781 112.875C72.3859 113.383 72.7749 113.982 73.045 114.674C73.3151 115.365 73.4502 116.127 73.4502 116.959C73.4502 117.791 73.3151 118.558 73.045 119.261C72.7749 119.952 72.3859 120.552 71.8781 121.06C71.381 121.557 70.7867 121.946 70.0952 122.227C69.4037 122.497 68.6419 122.632 67.8099 122.632H63.061ZM65.8164 120.752L65.4436 120.201H67.7289C68.1827 120.201 68.5879 120.125 68.9445 119.974C69.301 119.812 69.6036 119.59 69.8521 119.309C70.1114 119.028 70.3113 118.688 70.4518 118.288C70.5922 117.888 70.6625 117.445 70.6625 116.959C70.6625 116.473 70.5922 116.03 70.4518 115.63C70.3113 115.23 70.1114 114.89 69.8521 114.609C69.6036 114.328 69.301 114.112 68.9445 113.961C68.5879 113.799 68.1827 113.718 67.7289 113.718H65.395L65.8164 113.199V120.752ZM75.3054 122.632V114.026H77.7689L77.8824 116.829L77.3962 116.295C77.5258 115.83 77.7365 115.414 78.0283 115.047C78.3308 114.679 78.682 114.387 79.0818 114.171C79.4816 113.955 79.9084 113.847 80.3622 113.847C80.5567 113.847 80.735 113.863 80.897 113.896C81.0699 113.928 81.2266 113.966 81.3671 114.009L80.6539 116.878C80.5351 116.802 80.373 116.743 80.1677 116.7C79.9732 116.646 79.7679 116.619 79.5518 116.619C79.3141 116.619 79.0926 116.662 78.8873 116.748C78.682 116.824 78.5091 116.938 78.3686 117.089C78.2282 117.24 78.1147 117.418 78.0283 117.624C77.9526 117.829 77.9148 118.061 77.9148 118.321V122.632H75.3054ZM82.827 122.632V114.026H85.4203V122.632H82.827ZM84.1236 112.324C83.6374 112.324 83.2538 112.21 82.9729 111.983C82.7028 111.746 82.5677 111.411 82.5677 110.978C82.5677 110.589 82.7082 110.271 82.9891 110.022C83.27 109.774 83.6482 109.649 84.1236 109.649C84.6099 109.649 84.988 109.768 85.2582 110.006C85.5283 110.233 85.6634 110.557 85.6634 110.978C85.6634 111.378 85.5229 111.702 85.242 111.951C84.9718 112.199 84.5991 112.324 84.1236 112.324ZM90.4987 122.632L86.9006 114.026H89.7694L91.9088 120.46L91.2767 120.525L93.4809 114.026H96.3173L92.5409 122.632H90.4987ZM101.533 122.794C100.582 122.794 99.7558 122.605 99.0535 122.227C98.3512 121.838 97.8055 121.314 97.4165 120.654C97.0275 119.985 96.833 119.223 96.833 118.369C96.833 117.71 96.9411 117.105 97.1572 116.554C97.3733 116.003 97.6758 115.527 98.0648 115.128C98.4538 114.717 98.913 114.404 99.4425 114.188C99.9827 113.961 100.572 113.847 101.209 113.847C101.814 113.847 102.365 113.955 102.862 114.171C103.37 114.387 103.808 114.69 104.175 115.079C104.543 115.468 104.823 115.927 105.018 116.457C105.212 116.986 105.299 117.564 105.277 118.191L105.261 118.888H98.4052L98.0324 117.429H103.154L102.879 117.737V117.413C102.857 117.143 102.77 116.905 102.619 116.7C102.479 116.484 102.29 116.316 102.052 116.197C101.814 116.079 101.544 116.019 101.242 116.019C100.82 116.019 100.458 116.106 100.156 116.278C99.8639 116.44 99.6424 116.684 99.4911 117.008C99.3398 117.321 99.2642 117.71 99.2642 118.175C99.2642 118.65 99.3614 119.066 99.5559 119.423C99.7612 119.768 100.053 120.039 100.431 120.233C100.82 120.428 101.279 120.525 101.809 120.525C102.176 120.525 102.5 120.471 102.781 120.363C103.073 120.255 103.386 120.071 103.721 119.812L104.937 121.53C104.602 121.821 104.245 122.059 103.867 122.243C103.489 122.427 103.1 122.562 102.7 122.648C102.311 122.745 101.922 122.794 101.533 122.794ZM106.929 122.632V114.026H109.393L109.506 116.829L109.02 116.295C109.15 115.83 109.361 115.414 109.652 115.047C109.955 114.679 110.306 114.387 110.706 114.171C111.106 113.955 111.532 113.847 111.986 113.847C112.181 113.847 112.359 113.863 112.521 113.896C112.694 113.928 112.851 113.966 112.991 114.009L112.278 116.878C112.159 116.802 111.997 116.743 111.792 116.7C111.597 116.646 111.392 116.619 111.176 116.619C110.938 116.619 110.717 116.662 110.511 116.748C110.306 116.824 110.133 116.938 109.993 117.089C109.852 117.24 109.739 117.418 109.652 117.624C109.577 117.829 109.539 118.061 109.539 118.321V122.632H106.929ZM115.129 115.679L114.383 114.771C114.837 114.577 115.199 114.339 115.469 114.058C115.75 113.766 115.89 113.523 115.89 113.329C115.89 113.21 115.847 113.096 115.761 112.988C115.685 112.869 115.566 112.761 115.404 112.664C115.156 112.48 114.983 112.302 114.886 112.129C114.788 111.956 114.74 111.767 114.74 111.562C114.74 111.227 114.859 110.962 115.096 110.768C115.345 110.573 115.664 110.476 116.052 110.476C116.377 110.476 116.668 110.562 116.928 110.735C117.198 110.897 117.409 111.135 117.56 111.448C117.711 111.751 117.787 112.102 117.787 112.502C117.787 112.848 117.722 113.188 117.592 113.523C117.463 113.847 117.273 114.155 117.025 114.447C116.787 114.728 116.506 114.976 116.182 115.192C115.858 115.409 115.507 115.571 115.129 115.679ZM122.493 122.794C121.65 122.794 120.905 122.659 120.256 122.389C119.619 122.119 119.111 121.757 118.733 121.303L120.305 119.941C120.64 120.276 121.018 120.525 121.439 120.687C121.861 120.838 122.261 120.914 122.639 120.914C122.79 120.914 122.925 120.898 123.044 120.865C123.163 120.833 123.26 120.79 123.336 120.736C123.422 120.671 123.487 120.6 123.53 120.525C123.573 120.438 123.595 120.341 123.595 120.233C123.595 120.017 123.498 119.85 123.303 119.731C123.206 119.677 123.044 119.612 122.817 119.536C122.59 119.461 122.298 119.374 121.942 119.277C121.434 119.147 120.991 118.996 120.613 118.823C120.245 118.639 119.943 118.429 119.705 118.191C119.489 117.964 119.322 117.715 119.203 117.445C119.084 117.164 119.024 116.851 119.024 116.505C119.024 116.106 119.116 115.744 119.3 115.419C119.494 115.095 119.748 114.814 120.062 114.577C120.386 114.339 120.753 114.161 121.164 114.042C121.585 113.912 122.017 113.847 122.461 113.847C122.936 113.847 123.39 113.901 123.822 114.009C124.254 114.117 124.654 114.269 125.021 114.463C125.4 114.658 125.734 114.89 126.026 115.16L124.665 116.684C124.47 116.5 124.249 116.338 124 116.197C123.763 116.046 123.514 115.927 123.255 115.841C122.995 115.754 122.758 115.711 122.542 115.711C122.379 115.711 122.234 115.727 122.104 115.76C121.985 115.781 121.882 115.825 121.796 115.889C121.71 115.943 121.645 116.014 121.601 116.1C121.558 116.176 121.537 116.268 121.537 116.376C121.537 116.484 121.564 116.586 121.618 116.684C121.683 116.781 121.769 116.862 121.877 116.927C121.985 116.992 122.158 117.067 122.396 117.154C122.633 117.229 122.958 117.327 123.368 117.445C123.876 117.586 124.314 117.743 124.681 117.915C125.048 118.088 125.34 118.294 125.556 118.531C125.729 118.715 125.859 118.931 125.945 119.18C126.032 119.417 126.075 119.677 126.075 119.958C126.075 120.509 125.918 121 125.605 121.432C125.302 121.854 124.881 122.189 124.341 122.437C123.8 122.675 123.184 122.794 122.493 122.794ZM133.084 122.632V111.286H135.839V120.201H140.896V122.632H133.084ZM142.83 122.632V114.026H145.424V122.632H142.83ZM144.127 112.324C143.641 112.324 143.257 112.21 142.976 111.983C142.706 111.746 142.571 111.411 142.571 110.978C142.571 110.589 142.712 110.271 142.993 110.022C143.273 109.774 143.652 109.649 144.127 109.649C144.613 109.649 144.991 109.768 145.262 110.006C145.532 110.233 145.667 110.557 145.667 110.978C145.667 111.378 145.526 111.702 145.245 111.951C144.975 112.199 144.603 112.324 144.127 112.324ZM151.637 122.794C150.805 122.794 150.059 122.599 149.4 122.21C148.741 121.821 148.217 121.292 147.828 120.622C147.45 119.941 147.261 119.174 147.261 118.321C147.261 117.467 147.45 116.705 147.828 116.035C148.217 115.355 148.741 114.82 149.4 114.431C150.059 114.042 150.805 113.847 151.637 113.847C152.404 113.847 153.106 113.982 153.744 114.252C154.392 114.523 154.905 114.901 155.283 115.387L153.873 117.073C153.722 116.9 153.544 116.738 153.339 116.586C153.133 116.435 152.906 116.316 152.658 116.23C152.409 116.143 152.15 116.1 151.88 116.1C151.469 116.1 151.107 116.197 150.794 116.392C150.481 116.576 150.237 116.835 150.065 117.17C149.892 117.505 149.805 117.888 149.805 118.321C149.805 118.731 149.892 119.104 150.065 119.439C150.248 119.774 150.497 120.039 150.81 120.233C151.123 120.428 151.48 120.525 151.88 120.525C152.161 120.525 152.42 120.492 152.658 120.428C152.896 120.352 153.112 120.244 153.306 120.103C153.511 119.963 153.7 119.79 153.873 119.585L155.267 121.287C154.9 121.751 154.387 122.119 153.728 122.389C153.079 122.659 152.382 122.794 151.637 122.794ZM160.793 122.794C159.842 122.794 159.015 122.605 158.313 122.227C157.611 121.838 157.065 121.314 156.676 120.654C156.287 119.985 156.093 119.223 156.093 118.369C156.093 117.71 156.201 117.105 156.417 116.554C156.633 116.003 156.935 115.527 157.324 115.128C157.713 114.717 158.173 114.404 158.702 114.188C159.242 113.961 159.831 113.847 160.469 113.847C161.074 113.847 161.625 113.955 162.122 114.171C162.63 114.387 163.067 114.69 163.435 115.079C163.802 115.468 164.083 115.927 164.277 116.457C164.472 116.986 164.558 117.564 164.537 118.191L164.521 118.888H157.665L157.292 117.429H162.414L162.138 117.737V117.413C162.116 117.143 162.03 116.905 161.879 116.7C161.738 116.484 161.549 116.316 161.311 116.197C161.074 116.079 160.804 116.019 160.501 116.019C160.08 116.019 159.718 116.106 159.415 116.278C159.123 116.44 158.902 116.684 158.751 117.008C158.599 117.321 158.524 117.71 158.524 118.175C158.524 118.65 158.621 119.066 158.815 119.423C159.021 119.768 159.313 120.039 159.691 120.233C160.08 120.428 160.539 120.525 161.068 120.525C161.436 120.525 161.76 120.471 162.041 120.363C162.333 120.255 162.646 120.071 162.981 119.812L164.196 121.53C163.861 121.821 163.505 122.059 163.127 122.243C162.749 122.427 162.36 122.562 161.96 122.648C161.571 122.745 161.182 122.794 160.793 122.794ZM166.189 122.632V114.026H168.653L168.734 115.776L168.215 115.97C168.334 115.581 168.545 115.23 168.847 114.917C169.16 114.593 169.533 114.333 169.965 114.139C170.398 113.944 170.851 113.847 171.327 113.847C171.975 113.847 172.521 113.982 172.964 114.252C173.407 114.512 173.742 114.906 173.969 115.436C174.196 115.954 174.309 116.592 174.309 117.348V122.632H171.7V117.559C171.7 117.213 171.651 116.927 171.554 116.7C171.456 116.473 171.305 116.305 171.1 116.197C170.905 116.079 170.662 116.024 170.371 116.035C170.144 116.035 169.933 116.073 169.738 116.149C169.544 116.214 169.377 116.316 169.236 116.457C169.096 116.586 168.982 116.738 168.896 116.911C168.82 117.083 168.782 117.272 168.782 117.478V122.632H167.502C167.199 122.632 166.94 122.632 166.724 122.632C166.508 122.632 166.329 122.632 166.189 122.632ZM179.378 122.794C178.535 122.794 177.79 122.659 177.142 122.389C176.504 122.119 175.996 121.757 175.618 121.303L177.19 119.941C177.525 120.276 177.903 120.525 178.325 120.687C178.746 120.838 179.146 120.914 179.524 120.914C179.675 120.914 179.81 120.898 179.929 120.865C180.048 120.833 180.145 120.79 180.221 120.736C180.308 120.671 180.372 120.6 180.416 120.525C180.459 120.438 180.48 120.341 180.48 120.233C180.48 120.017 180.383 119.85 180.189 119.731C180.091 119.677 179.929 119.612 179.702 119.536C179.476 119.461 179.184 119.374 178.827 119.277C178.319 119.147 177.876 118.996 177.498 118.823C177.131 118.639 176.828 118.429 176.591 118.191C176.374 117.964 176.207 117.715 176.088 117.445C175.969 117.164 175.91 116.851 175.91 116.505C175.91 116.106 176.002 115.744 176.185 115.419C176.38 115.095 176.634 114.814 176.947 114.577C177.271 114.339 177.639 114.161 178.049 114.042C178.471 113.912 178.903 113.847 179.346 113.847C179.821 113.847 180.275 113.901 180.707 114.009C181.14 114.117 181.539 114.269 181.907 114.463C182.285 114.658 182.62 114.89 182.912 115.16L181.55 116.684C181.356 116.5 181.134 116.338 180.886 116.197C180.648 116.046 180.399 115.927 180.14 115.841C179.881 115.754 179.643 115.711 179.427 115.711C179.265 115.711 179.119 115.727 178.989 115.76C178.87 115.781 178.768 115.825 178.681 115.889C178.595 115.943 178.53 116.014 178.487 116.1C178.444 116.176 178.422 116.268 178.422 116.376C178.422 116.484 178.449 116.586 178.503 116.684C178.568 116.781 178.654 116.862 178.762 116.927C178.87 116.992 179.043 117.067 179.281 117.154C179.519 117.229 179.843 117.327 180.253 117.445C180.761 117.586 181.199 117.743 181.566 117.915C181.934 118.088 182.225 118.294 182.442 118.531C182.614 118.715 182.744 118.931 182.831 119.18C182.917 119.417 182.96 119.677 182.96 119.958C182.96 120.509 182.804 121 182.49 121.432C182.188 121.854 181.766 122.189 181.226 122.437C180.686 122.675 180.07 122.794 179.378 122.794ZM188.602 122.794C187.652 122.794 186.825 122.605 186.123 122.227C185.42 121.838 184.875 121.314 184.486 120.654C184.097 119.985 183.902 119.223 183.902 118.369C183.902 117.71 184.01 117.105 184.226 116.554C184.442 116.003 184.745 115.527 185.134 115.128C185.523 114.717 185.982 114.404 186.512 114.188C187.052 113.961 187.641 113.847 188.278 113.847C188.883 113.847 189.434 113.955 189.931 114.171C190.439 114.387 190.877 114.69 191.244 115.079C191.612 115.468 191.893 115.927 192.087 116.457C192.282 116.986 192.368 117.564 192.346 118.191L192.33 118.888H185.474L185.102 117.429H190.223L189.948 117.737V117.413C189.926 117.143 189.84 116.905 189.688 116.7C189.548 116.484 189.359 116.316 189.121 116.197C188.883 116.079 188.613 116.019 188.311 116.019C187.889 116.019 187.527 116.106 187.225 116.278C186.933 116.44 186.711 116.684 186.56 117.008C186.409 117.321 186.333 117.71 186.333 118.175C186.333 118.65 186.431 119.066 186.625 119.423C186.83 119.768 187.122 120.039 187.5 120.233C187.889 120.428 188.348 120.525 188.878 120.525C189.245 120.525 189.569 120.471 189.85 120.363C190.142 120.255 190.455 120.071 190.79 119.812L192.006 121.53C191.671 121.821 191.314 122.059 190.936 122.243C190.558 122.427 190.169 122.562 189.769 122.648C189.38 122.745 188.991 122.794 188.602 122.794Z" fill="#05243F"/>
<path d="M281.945 117.948L280.009 116.013C279.844 115.847 279.634 115.765 279.379 115.765C279.123 115.765 278.913 115.847 278.748 116.013C278.583 116.178 278.501 116.388 278.501 116.643C278.501 116.898 278.583 117.108 278.748 117.273L281.315 119.839C281.495 120.019 281.705 120.109 281.945 120.109C282.185 120.109 282.395 120.019 282.575 119.839L287.663 114.752C287.828 114.587 287.91 114.377 287.91 114.122C287.91 113.867 287.828 113.656 287.663 113.491C287.497 113.326 287.287 113.244 287.032 113.244C286.777 113.244 286.567 113.326 286.402 113.491L281.945 117.948ZM276.902 124.792C276.407 124.792 275.983 124.616 275.631 124.263C275.279 123.911 275.102 123.487 275.102 122.991V110.385C275.102 109.89 275.278 109.466 275.631 109.113C275.984 108.761 276.408 108.585 276.902 108.584H289.508C290.004 108.584 290.428 108.76 290.781 109.113C291.134 109.466 291.31 109.89 291.309 110.385V122.991C291.309 123.486 291.133 123.91 290.781 124.263C290.428 124.616 290.004 124.792 289.508 124.792H276.902Z" fill="#2389E3"/>
<path d="M305.692 126.627L304.798 124.406L310.324 118.366C310.631 118.023 310.965 117.634 311.326 117.201C311.687 116.768 312.039 116.325 312.382 115.874C312.726 115.404 312.996 114.953 313.195 114.519C313.412 114.086 313.52 113.689 313.52 113.328C313.52 112.966 313.439 112.65 313.276 112.379C313.114 112.109 312.879 111.901 312.572 111.756C312.265 111.594 311.877 111.513 311.407 111.513C310.992 111.513 310.595 111.621 310.215 111.838C309.836 112.036 309.475 112.352 309.132 112.786C308.807 113.219 308.5 113.752 308.211 114.384L304.798 112.542C305.177 111.495 305.71 110.574 306.396 109.779C307.1 108.966 307.922 108.343 308.861 107.91C309.8 107.459 310.802 107.233 311.868 107.233C312.987 107.251 313.999 107.495 314.902 107.964C315.805 108.416 316.518 109.057 317.042 109.887C317.583 110.7 317.854 111.657 317.854 112.759C317.854 113.138 317.809 113.535 317.719 113.951C317.628 114.366 317.493 114.799 317.312 115.251C317.132 115.684 316.888 116.154 316.581 116.659C316.292 117.147 315.94 117.662 315.525 118.203C315.109 118.745 314.622 119.323 314.062 119.937L309.755 124.623L309.213 122.564H318.694V126.627H305.692ZM328.062 126.898C326.365 126.898 324.911 126.51 323.701 125.734C322.509 124.957 321.597 123.846 320.965 122.402C320.333 120.939 320.017 119.187 320.017 117.147C320.017 115.106 320.333 113.364 320.965 111.919C321.597 110.456 322.509 109.337 323.701 108.56C324.911 107.784 326.365 107.395 328.062 107.395C329.76 107.395 331.213 107.784 332.423 108.56C333.633 109.337 334.554 110.456 335.186 111.919C335.818 113.364 336.134 115.106 336.134 117.147C336.134 119.187 335.818 120.939 335.186 122.402C334.554 123.846 333.633 124.957 332.423 125.734C331.213 126.51 329.76 126.898 328.062 126.898ZM328.062 122.998C329.236 122.998 330.139 122.492 330.771 121.481C331.421 120.47 331.746 119.025 331.746 117.147C331.746 115.215 331.421 113.734 330.771 112.705C330.139 111.657 329.236 111.133 328.062 111.133C326.888 111.133 325.976 111.657 325.326 112.705C324.694 113.734 324.378 115.215 324.378 117.147C324.378 119.025 324.694 120.47 325.326 121.481C325.976 122.492 326.888 122.998 328.062 122.998ZM338.81 126.627L337.917 124.406L343.442 118.366C343.749 118.023 344.083 117.634 344.445 117.201C344.806 116.768 345.158 116.325 345.501 115.874C345.844 115.404 346.115 114.953 346.314 114.519C346.53 114.086 346.639 113.689 346.639 113.328C346.639 112.966 346.557 112.65 346.395 112.379C346.232 112.109 345.998 111.901 345.691 111.756C345.384 111.594 344.995 111.513 344.526 111.513C344.111 111.513 343.713 111.621 343.334 111.838C342.955 112.036 342.594 112.352 342.251 112.786C341.925 113.219 341.618 113.752 341.33 114.384L337.917 112.542C338.296 111.495 338.828 110.574 339.515 109.779C340.219 108.966 341.041 108.343 341.98 107.91C342.919 107.459 343.921 107.233 344.986 107.233C346.106 107.251 347.117 107.495 348.02 107.964C348.923 108.416 349.636 109.057 350.16 109.887C350.702 110.7 350.973 111.657 350.973 112.759C350.973 113.138 350.928 113.535 350.837 113.951C350.747 114.366 350.611 114.799 350.431 115.251C350.25 115.684 350.007 116.154 349.7 116.659C349.411 117.147 349.058 117.662 348.643 118.203C348.228 118.745 347.74 119.323 347.18 119.937L342.874 124.623L342.332 122.564H351.812V126.627H338.81ZM360.977 126.627V111.296L363.442 111.35L356.588 119.747L355.938 118.935H368.507V122.727H353.88L352.038 119.178L361.708 107.504H365.419V126.627H360.977Z" fill="#05243F"/>
</g>
<rect opacity="0.4" x="48.9727" y="158.373" width="333.078" height="57.9208" rx="15.4829" fill="white"/>
<path opacity="0.4" d="M92.0934 192.108V182.354H96.4829C97.1053 182.354 97.6673 182.488 98.1689 182.758C98.6799 183.027 99.0793 183.399 99.3673 183.873C99.6553 184.337 99.7993 184.867 99.7993 185.461C99.7993 186.074 99.6553 186.627 99.3673 187.119C99.0793 187.602 98.6845 187.983 98.1829 188.262C97.6812 188.541 97.1146 188.68 96.4829 188.68H94.3508V192.108H92.0934ZM97.5001 192.108L95.0197 187.705L97.4443 187.356L100.203 192.108H97.5001ZM94.3508 186.868H96.2738C96.5154 186.868 96.7244 186.817 96.9009 186.715C97.0867 186.604 97.226 186.45 97.3189 186.255C97.4211 186.06 97.4722 185.837 97.4722 185.586C97.4722 185.336 97.4165 185.117 97.305 184.932C97.1935 184.736 97.0309 184.588 96.8173 184.486C96.6129 184.383 96.3621 184.332 96.0648 184.332H94.3508V186.868ZM104.852 192.247C104.081 192.247 103.394 192.08 102.79 191.746C102.195 191.411 101.722 190.956 101.369 190.38C101.025 189.804 100.853 189.144 100.853 188.401C100.853 187.658 101.025 186.999 101.369 186.423C101.722 185.847 102.195 185.391 102.79 185.057C103.394 184.723 104.081 184.555 104.852 184.555C105.623 184.555 106.306 184.723 106.901 185.057C107.504 185.391 107.978 185.847 108.322 186.423C108.666 186.999 108.838 187.658 108.838 188.401C108.838 189.144 108.666 189.804 108.322 190.38C107.978 190.956 107.504 191.411 106.901 191.746C106.306 192.08 105.623 192.247 104.852 192.247ZM104.852 190.324C105.187 190.324 105.484 190.241 105.744 190.073C106.004 189.906 106.209 189.679 106.357 189.391C106.506 189.103 106.575 188.773 106.566 188.401C106.575 188.03 106.506 187.7 106.357 187.412C106.209 187.115 106.004 186.882 105.744 186.715C105.484 186.548 105.187 186.464 104.852 186.464C104.518 186.464 104.216 186.548 103.946 186.715C103.686 186.882 103.482 187.115 103.333 187.412C103.185 187.7 103.115 188.03 103.124 188.401C103.115 188.773 103.185 189.103 103.333 189.391C103.482 189.679 103.686 189.906 103.946 190.073C104.216 190.241 104.518 190.324 104.852 190.324ZM113.027 192.233C112.404 192.233 111.847 192.071 111.354 191.746C110.871 191.411 110.486 190.956 110.198 190.38C109.91 189.795 109.766 189.135 109.766 188.401C109.766 187.649 109.91 186.985 110.198 186.409C110.486 185.833 110.881 185.382 111.382 185.057C111.884 184.723 112.455 184.555 113.096 184.555C113.449 184.555 113.77 184.606 114.058 184.709C114.355 184.811 114.615 184.955 114.838 185.141C115.061 185.317 115.252 185.526 115.409 185.768C115.567 186 115.684 186.251 115.758 186.52L115.298 186.464V184.709H117.514V192.108H115.256V190.324L115.758 190.31C115.684 190.57 115.563 190.817 115.396 191.049C115.228 191.281 115.024 191.485 114.782 191.662C114.541 191.839 114.271 191.978 113.974 192.08C113.677 192.182 113.361 192.233 113.027 192.233ZM113.64 190.352C113.983 190.352 114.281 190.273 114.532 190.115C114.782 189.957 114.978 189.734 115.117 189.446C115.256 189.149 115.326 188.801 115.326 188.401C115.326 188.002 115.256 187.658 115.117 187.37C114.978 187.073 114.782 186.845 114.532 186.687C114.281 186.52 113.983 186.437 113.64 186.437C113.305 186.437 113.013 186.52 112.762 186.687C112.52 186.845 112.33 187.073 112.191 187.37C112.051 187.658 111.982 188.002 111.982 188.401C111.982 188.801 112.051 189.149 112.191 189.446C112.33 189.734 112.52 189.957 112.762 190.115C113.013 190.273 113.305 190.352 113.64 190.352ZM122.282 192.261C121.641 192.261 121.069 192.099 120.568 191.773C120.075 191.439 119.685 190.984 119.397 190.408C119.109 189.823 118.965 189.158 118.965 188.415C118.965 187.672 119.109 187.012 119.397 186.437C119.685 185.851 120.08 185.391 120.582 185.057C121.083 184.723 121.659 184.555 122.31 184.555C122.644 184.555 122.965 184.606 123.271 184.709C123.578 184.811 123.856 184.95 124.107 185.127C124.358 185.303 124.562 185.508 124.72 185.74C124.878 185.963 124.971 186.195 124.999 186.437L124.469 186.562V181.796H126.713V192.108H124.637L124.511 190.422L124.957 190.491C124.929 190.724 124.836 190.947 124.679 191.16C124.53 191.374 124.335 191.564 124.093 191.732C123.852 191.89 123.573 192.015 123.257 192.108C122.951 192.21 122.625 192.261 122.282 192.261ZM122.853 190.408C123.197 190.408 123.494 190.324 123.745 190.157C123.996 189.99 124.186 189.758 124.316 189.46C124.456 189.163 124.525 188.815 124.525 188.415C124.525 188.006 124.456 187.653 124.316 187.356C124.186 187.059 123.996 186.827 123.745 186.659C123.494 186.492 123.197 186.409 122.853 186.409C122.509 186.409 122.212 186.492 121.961 186.659C121.72 186.827 121.529 187.059 121.39 187.356C121.251 187.653 121.181 188.006 121.181 188.415C121.181 188.815 121.251 189.163 121.39 189.46C121.529 189.758 121.72 189.99 121.961 190.157C122.212 190.324 122.509 190.408 122.853 190.408ZM135.417 192.108V184.444H132.518V182.354H140.754V184.444H137.786V192.108H135.417ZM143.536 192.233C142.913 192.233 142.356 192.071 141.864 191.746C141.381 191.411 140.995 190.956 140.707 190.38C140.419 189.795 140.275 189.135 140.275 188.401C140.275 187.649 140.419 186.985 140.707 186.409C140.995 185.833 141.39 185.382 141.892 185.057C142.393 184.723 142.965 184.555 143.606 184.555C143.959 184.555 144.279 184.606 144.567 184.709C144.864 184.811 145.124 184.955 145.347 185.141C145.57 185.317 145.761 185.526 145.919 185.768C146.077 186 146.193 186.251 146.267 186.52L145.807 186.464V184.709H148.023V192.108H145.765V190.324L146.267 190.31C146.193 190.57 146.072 190.817 145.905 191.049C145.738 191.281 145.533 191.485 145.292 191.662C145.05 191.839 144.781 191.978 144.483 192.08C144.186 192.182 143.87 192.233 143.536 192.233ZM144.149 190.352C144.493 190.352 144.79 190.273 145.041 190.115C145.292 189.957 145.487 189.734 145.626 189.446C145.765 189.149 145.835 188.801 145.835 188.401C145.835 188.002 145.765 187.658 145.626 187.37C145.487 187.073 145.292 186.845 145.041 186.687C144.79 186.52 144.493 186.437 144.149 186.437C143.815 186.437 143.522 186.52 143.271 186.687C143.03 186.845 142.839 187.073 142.7 187.37C142.56 187.658 142.491 188.002 142.491 188.401C142.491 188.801 142.56 189.149 142.7 189.446C142.839 189.734 143.03 189.957 143.271 190.115C143.522 190.273 143.815 190.352 144.149 190.352ZM154.547 192.108L152.972 189.725L152.248 188.708L149.321 184.709H151.997L153.516 186.98L154.31 188.067L157.194 192.108H154.547ZM149.252 192.108L152.234 187.955L153.432 189.391L151.885 192.108H149.252ZM154.143 188.889L152.958 187.468L154.421 184.709H157.055L154.143 188.889Z" fill="#05243F"/>
<g opacity="0.4">
<path d="M264.759 188.417L263.094 186.752C262.952 186.611 262.772 186.54 262.552 186.54C262.333 186.54 262.152 186.611 262.01 186.752C261.868 186.894 261.797 187.075 261.797 187.294C261.797 187.514 261.868 187.694 262.01 187.836L264.217 190.043C264.371 190.197 264.552 190.275 264.759 190.275C264.965 190.275 265.146 190.197 265.3 190.043L269.674 185.669C269.816 185.527 269.887 185.346 269.887 185.127C269.887 184.907 269.816 184.727 269.674 184.585C269.532 184.443 269.352 184.372 269.132 184.372C268.913 184.372 268.732 184.443 268.591 184.585L264.759 188.417ZM260.423 194.3C259.998 194.3 259.633 194.149 259.33 193.846C259.027 193.543 258.876 193.178 258.875 192.752V181.914C258.875 181.488 259.027 181.124 259.33 180.821C259.634 180.518 259.998 180.366 260.423 180.366H271.261C271.687 180.366 272.052 180.517 272.355 180.821C272.659 181.124 272.81 181.489 272.81 181.914V192.752C272.81 193.178 272.658 193.542 272.355 193.846C272.052 194.149 271.688 194.301 271.261 194.3H260.423Z" fill="#2389E3"/>
</g>
<path opacity="0.4" d="M285.175 195.366L284.406 193.457L289.157 188.263C289.421 187.968 289.708 187.634 290.019 187.262C290.329 186.889 290.632 186.509 290.927 186.121C291.222 185.717 291.455 185.329 291.626 184.956C291.812 184.584 291.905 184.242 291.905 183.932C291.905 183.621 291.835 183.349 291.696 183.116C291.556 182.884 291.354 182.705 291.09 182.581C290.826 182.441 290.492 182.371 290.089 182.371C289.732 182.371 289.39 182.464 289.064 182.651C288.738 182.822 288.427 183.093 288.132 183.466C287.853 183.838 287.589 184.296 287.341 184.84L284.406 183.256C284.732 182.356 285.19 181.564 285.78 180.881C286.386 180.182 287.092 179.647 287.9 179.274C288.707 178.886 289.569 178.692 290.485 178.692C291.447 178.707 292.317 178.917 293.093 179.32C293.869 179.709 294.482 180.26 294.933 180.974C295.398 181.673 295.631 182.495 295.631 183.443C295.631 183.769 295.592 184.11 295.515 184.467C295.437 184.824 295.321 185.197 295.166 185.585C295.01 185.958 294.801 186.361 294.537 186.796C294.288 187.215 293.986 187.658 293.628 188.124C293.271 188.589 292.852 189.086 292.371 189.614L288.668 193.643L288.202 191.873H296.353V195.366H285.175ZM304.408 195.599C302.948 195.599 301.698 195.265 300.658 194.598C299.633 193.93 298.849 192.975 298.306 191.733C297.763 190.476 297.491 188.97 297.491 187.215C297.491 185.461 297.763 183.963 298.306 182.721C298.849 181.463 299.633 180.5 300.658 179.833C301.698 179.165 302.948 178.831 304.408 178.831C305.867 178.831 307.117 179.165 308.157 179.833C309.197 180.5 309.989 181.463 310.532 182.721C311.076 183.963 311.348 185.461 311.348 187.215C311.348 188.97 311.076 190.476 310.532 191.733C309.989 192.975 309.197 193.93 308.157 194.598C307.117 195.265 305.867 195.599 304.408 195.599ZM304.408 192.246C305.417 192.246 306.193 191.811 306.736 190.941C307.295 190.072 307.575 188.83 307.575 187.215C307.575 185.554 307.295 184.281 306.736 183.396C306.193 182.495 305.417 182.045 304.408 182.045C303.398 182.045 302.614 182.495 302.055 183.396C301.512 184.281 301.24 185.554 301.24 187.215C301.24 188.83 301.512 190.072 302.055 190.941C302.614 191.811 303.398 192.246 304.408 192.246ZM313.649 195.366L312.88 193.457L317.631 188.263C317.895 187.968 318.182 187.634 318.493 187.262C318.803 186.889 319.106 186.509 319.401 186.121C319.696 185.717 319.929 185.329 320.099 184.956C320.286 184.584 320.379 184.242 320.379 183.932C320.379 183.621 320.309 183.349 320.169 183.116C320.03 182.884 319.828 182.705 319.564 182.581C319.3 182.441 318.966 182.371 318.562 182.371C318.205 182.371 317.864 182.464 317.538 182.651C317.212 182.822 316.901 183.093 316.606 183.466C316.327 183.838 316.063 184.296 315.814 184.84L312.88 183.256C313.206 182.356 313.664 181.564 314.254 180.881C314.86 180.182 315.566 179.647 316.373 179.274C317.181 178.886 318.042 178.692 318.958 178.692C319.921 178.707 320.79 178.917 321.567 179.32C322.343 179.709 322.956 180.26 323.406 180.974C323.872 181.673 324.105 182.495 324.105 183.443C324.105 183.769 324.066 184.11 323.989 184.467C323.911 184.824 323.795 185.197 323.639 185.585C323.484 185.958 323.274 186.361 323.01 186.796C322.762 187.215 322.459 187.658 322.102 188.124C321.745 188.589 321.326 189.086 320.845 189.614L317.142 193.643L316.676 191.873H324.827V195.366H313.649ZM331.717 195.599C330.397 195.599 329.241 195.327 328.247 194.784C327.269 194.225 326.376 193.27 325.569 191.92L328.41 190.08C328.752 190.623 329.101 191.058 329.458 191.384C329.831 191.71 330.211 191.951 330.599 192.106C331.003 192.246 331.422 192.315 331.857 192.315C332.291 192.315 332.687 192.222 333.044 192.036C333.417 191.834 333.712 191.555 333.929 191.198C334.162 190.84 334.279 190.437 334.279 189.987C334.279 189.505 334.178 189.102 333.976 188.776C333.79 188.434 333.51 188.178 333.138 188.007C332.78 187.836 332.346 187.751 331.833 187.751C331.6 187.751 331.352 187.782 331.088 187.844C330.824 187.891 330.545 187.96 330.25 188.054C329.955 188.147 329.652 188.271 329.341 188.426L328.48 186.121L332.439 181.812L333.51 182.395L326.71 182.255V178.925H336.724L337.446 180.368L332.066 186.144L331.135 185.049C331.259 184.987 331.461 184.933 331.74 184.886C332.035 184.824 332.315 184.793 332.579 184.793C333.308 184.793 333.991 184.925 334.628 185.189C335.265 185.453 335.831 185.818 336.328 186.284C336.825 186.749 337.213 187.301 337.492 187.937C337.772 188.558 337.912 189.226 337.912 189.94C337.912 191.027 337.632 191.997 337.073 192.851C336.53 193.689 335.785 194.357 334.838 194.854C333.906 195.351 332.866 195.599 331.717 195.599Z" fill="#05243F"/>
</svg>
