<svg width="193" height="58" viewBox="0 0 193 58" fill="none" xmlns="http://www.w3.org/2000/svg">
<g filter="url(#filter0_ii_4083_4738)">
<path fill-rule="evenodd" clip-rule="evenodd" d="M23.919 52.5046C36.8864 52.5046 47.3986 42.1176 47.3986 29.3045C47.3986 16.4915 36.8864 6.10449 23.919 6.10449C10.9516 6.10449 0.439453 16.4915 0.439453 29.3045C0.439453 42.1176 10.9516 52.5046 23.919 52.5046ZM15.149 12.2098C20.5727 9.32415 27.1008 9.32415 32.5245 12.2098C36.864 14.5187 40.2227 18.2872 41.992 22.8326L42.2908 23.6003C43.4424 26.5586 40.5911 29.507 37.5479 28.5047L29.0858 25.7175C25.6786 24.5953 21.995 24.5953 18.5878 25.7175L10.1256 28.5047C7.08248 29.507 4.23117 26.5586 5.3827 23.6003L5.68155 22.8326C7.45081 18.2872 10.8096 14.5186 15.149 12.2098ZM11.329 35.5887H14.1093C17.3877 35.5887 20.1724 37.9597 20.6569 41.1635L21.0359 43.6695C21.3899 46.0107 18.9633 47.7989 16.7933 46.7959C13.7043 45.3683 10.9831 43.1803 8.92199 40.4958C7.39028 38.5007 8.79465 35.5887 11.329 35.5887ZM34.8184 35.5887H37.0054C39.5891 35.5887 41.0573 38.5101 39.4957 40.5441L39.2763 40.8299C37.3617 43.3237 34.8843 45.3413 32.0413 46.722C29.9374 47.7438 27.5378 46.0109 27.8842 43.7199L28.2708 41.1635C28.7553 37.9597 31.54 35.5887 34.8184 35.5887Z" fill="#2389E3"/>
</g>
<rect x="6.58789" y="0.513672" width="34.6603" height="30.747" rx="1.74457" fill="url(#paint0_linear_4083_4738)"/>
<mask id="mask0_4083_4738" style="mask-type:alpha" maskUnits="userSpaceOnUse" x="0" y="23" width="48" height="31">
<rect width="46.9591" height="29.629" transform="matrix(1 0 0 -1 0.439453 53.0635)" fill="#D9D9D9"/>
</mask>
<g mask="url(#mask0_4083_4738)">
<g filter="url(#filter1_ii_4083_4738)">
<path fill-rule="evenodd" clip-rule="evenodd" d="M23.9528 52.721C36.8946 52.721 47.3861 42.2296 47.3861 29.2878C47.3861 16.3459 36.8946 5.85449 23.9528 5.85449C11.011 5.85449 0.519531 16.3459 0.519531 29.2878C0.519531 42.2296 11.011 52.721 23.9528 52.721ZM15.2001 12.0212C20.6131 9.10652 27.1283 9.10652 32.5413 12.0212C36.8722 14.3532 40.2244 18.1597 41.9901 22.7507L42.2884 23.5262C43.4377 26.5143 40.592 29.4922 37.5548 28.4799L29.1094 25.6647C25.7089 24.5312 22.0325 24.5312 18.6321 25.6647L10.1866 28.4799C7.14946 29.4922 4.30378 26.5143 5.45303 23.5262L5.7513 22.7507C7.51706 18.1597 10.8692 14.3532 15.2001 12.0212ZM11.3876 35.6351H14.1624C17.4344 35.6351 20.2136 38.0299 20.6971 41.2659L21.0753 43.7972C21.4287 46.1618 19.0069 47.968 16.8412 46.955C13.7582 45.513 11.0424 43.3031 8.98534 40.5915C7.45665 38.5764 8.85826 35.6351 11.3876 35.6351ZM34.8307 35.6351H37.0134C39.592 35.6351 41.0573 38.5859 39.4988 40.6403L39.2798 40.929C37.369 43.4478 34.8964 45.4857 32.0591 46.8803C29.9593 47.9124 27.5644 46.162 27.9102 43.8481L28.296 41.2659C28.7796 38.0299 31.5587 35.6351 34.8307 35.6351Z" fill="#2389E3"/>
</g>
</g>
<path d="M13.2969 8.23242H35.0993M13.2969 13.8228H35.0993M13.2969 19.4131H35.0993" stroke="#05243F" stroke-width="2.45017" stroke-linecap="round"/>
<path d="M61.3028 43.4883V18.6233H66.1692L75.2271 33.3647L72.0302 33.3292L81.1947 18.6233H85.848V43.4883H80.6264V34.9631C80.6264 32.8319 80.6738 30.9137 80.7685 29.2087C80.8869 27.5037 81.0763 25.8105 81.3368 24.1291L81.9762 25.7986L74.6943 37.0944H72.3499L65.2101 25.8697L65.814 24.1291C66.0745 25.7157 66.2521 27.3497 66.3468 29.0311C66.4652 30.6887 66.5244 32.6661 66.5244 34.9631V43.4883H61.3028ZM100.342 43.8435C98.4243 43.8435 96.7074 43.4291 95.1918 42.6002C93.6999 41.7477 92.5159 40.5874 91.6397 39.1192C90.7872 37.6509 90.3609 35.9696 90.3609 34.0751C90.3609 32.1806 90.7872 30.5111 91.6397 29.0666C92.5159 27.5984 93.6999 26.438 95.1918 25.5855C96.7074 24.733 98.4243 24.3067 100.342 24.3067C102.237 24.3067 103.93 24.733 105.422 25.5855C106.938 26.438 108.122 27.5984 108.974 29.0666C109.827 30.5111 110.253 32.1806 110.253 34.0751C110.253 35.9696 109.827 37.6509 108.974 39.1192C108.122 40.5874 106.938 41.7477 105.422 42.6002C103.93 43.4291 102.237 43.8435 100.342 43.8435ZM100.342 39.4388C101.266 39.4388 102.095 39.2139 102.829 38.7639C103.563 38.2903 104.131 37.6509 104.534 36.8458C104.96 36.0169 105.173 35.0934 105.173 34.0751C105.173 33.0332 104.96 32.1096 104.534 31.3044C104.131 30.4756 103.563 29.8362 102.829 29.3863C102.095 28.9127 101.266 28.6759 100.342 28.6759C99.3952 28.6759 98.5545 28.9127 97.8204 29.3863C97.0863 29.8599 96.5061 30.4993 96.0799 31.3044C95.6536 32.1096 95.4523 33.0332 95.476 34.0751C95.4523 35.0934 95.6536 36.0169 96.0799 36.8458C96.5061 37.6509 97.0863 38.2903 97.8204 38.7639C98.5545 39.2139 99.3952 39.4388 100.342 39.4388ZM115.859 43.4883V19.9376H120.903V43.4883H115.859ZM112.343 29.2087V24.6975H124.74V29.2087H112.343ZM136.592 43.8435C134.674 43.8435 132.957 43.4291 131.442 42.6002C129.95 41.7477 128.766 40.5874 127.89 39.1192C127.037 37.6509 126.611 35.9696 126.611 34.0751C126.611 32.1806 127.037 30.5111 127.89 29.0666C128.766 27.5984 129.95 26.438 131.442 25.5855C132.957 24.733 134.674 24.3067 136.592 24.3067C138.487 24.3067 140.18 24.733 141.672 25.5855C143.187 26.438 144.371 27.5984 145.224 29.0666C146.076 30.5111 146.503 32.1806 146.503 34.0751C146.503 35.9696 146.076 37.6509 145.224 39.1192C144.371 40.5874 143.187 41.7477 141.672 42.6002C140.18 43.4291 138.487 43.8435 136.592 43.8435ZM136.592 39.4388C137.516 39.4388 138.345 39.2139 139.079 38.7639C139.813 38.2903 140.381 37.6509 140.784 36.8458C141.21 36.0169 141.423 35.0934 141.423 34.0751C141.423 33.0332 141.21 32.1096 140.784 31.3044C140.381 30.4756 139.813 29.8362 139.079 29.3863C138.345 28.9127 137.516 28.6759 136.592 28.6759C135.645 28.6759 134.804 28.9127 134.07 29.3863C133.336 29.8599 132.756 30.4993 132.33 31.3044C131.903 32.1096 131.702 33.0332 131.726 34.0751C131.702 35.0934 131.903 36.0169 132.33 36.8458C132.756 37.6509 133.336 38.2903 134.07 38.7639C134.804 39.2139 135.645 39.4388 136.592 39.4388ZM155.093 37.8404L153.601 33.6844L162.482 24.6975H169.124L155.093 37.8404ZM150.298 43.4883V17.2025H155.342V43.4883H150.298ZM163.014 43.4883L156.265 34.9987L159.817 32.157L169.089 43.4883H163.014ZM178.11 43.8435C176.547 43.8435 175.138 43.4172 173.883 42.5647C172.627 41.7122 171.633 40.5518 170.899 39.0836C170.165 37.6154 169.798 35.9341 169.798 34.0396C169.798 32.1451 170.165 30.4756 170.899 29.0311C171.657 27.5629 172.675 26.4143 173.954 25.5855C175.232 24.733 176.689 24.3067 178.323 24.3067C179.246 24.3067 180.087 24.4488 180.845 24.733C181.626 24.9935 182.301 25.3605 182.869 25.8342C183.461 26.3078 183.959 26.8524 184.361 27.4681C184.764 28.0838 185.048 28.7469 185.214 29.4573L184.148 29.2797V24.6975H189.157V43.4883H184.077V38.9771L185.214 38.8705C185.024 39.5336 184.717 40.1611 184.29 40.7531C183.864 41.3452 183.331 41.878 182.692 42.3516C182.076 42.8015 181.378 43.1686 180.596 43.4528C179.815 43.7133 178.986 43.8435 178.11 43.8435ZM179.495 39.4744C180.442 39.4744 181.271 39.2494 181.981 38.7995C182.692 38.3495 183.236 37.722 183.615 36.9168C184.018 36.088 184.219 35.1289 184.219 34.0396C184.219 32.9739 184.018 32.0386 183.615 31.2334C183.236 30.4283 182.692 29.8007 181.981 29.3508C181.271 28.8771 180.442 28.6403 179.495 28.6403C178.571 28.6403 177.754 28.8771 177.044 29.3508C176.357 29.8007 175.813 30.4283 175.41 31.2334C175.007 32.0386 174.806 32.9739 174.806 34.0396C174.806 35.1289 175.007 36.088 175.41 36.9168C175.813 37.722 176.357 38.3495 177.044 38.7995C177.754 39.2494 178.571 39.4744 179.495 39.4744Z" fill="white"/>
<defs>
<filter id="filter0_ii_4083_4738" x="0.439453" y="6.10449" width="46.959" height="48.145" filterUnits="userSpaceOnUse" color-interpolation-filters="sRGB">
<feFlood flood-opacity="0" result="BackgroundImageFix"/>
<feBlend mode="normal" in="SourceGraphic" in2="BackgroundImageFix" result="shape"/>
<feColorMatrix in="SourceAlpha" type="matrix" values="0 0 0 0 0 0 0 0 0 0 0 0 0 0 0 0 0 0 127 0" result="hardAlpha"/>
<feOffset/>
<feGaussianBlur stdDeviation="3.96889"/>
<feComposite in2="hardAlpha" operator="arithmetic" k2="-1" k3="1"/>
<feColorMatrix type="matrix" values="0 0 0 0 0 0 0 0 0 0 0 0 0 0 0 0 0 0 0.25 0"/>
<feBlend mode="normal" in2="shape" result="effect1_innerShadow_4083_4738"/>
<feColorMatrix in="SourceAlpha" type="matrix" values="0 0 0 0 0 0 0 0 0 0 0 0 0 0 0 0 0 0 127 0" result="hardAlpha"/>
<feOffset dy="1.74457"/>
<feGaussianBlur stdDeviation="1.89722"/>
<feComposite in2="hardAlpha" operator="arithmetic" k2="-1" k3="1"/>
<feColorMatrix type="matrix" values="0 0 0 0 0.27144 0 0 0 0 0.63318 0 0 0 0 0.949702 0 0 0 1 0"/>
<feBlend mode="normal" in2="effect1_innerShadow_4083_4738" result="effect2_innerShadow_4083_4738"/>
</filter>
<filter id="filter1_ii_4083_4738" x="0.519531" y="5.85449" width="46.8672" height="48.6108" filterUnits="userSpaceOnUse" color-interpolation-filters="sRGB">
<feFlood flood-opacity="0" result="BackgroundImageFix"/>
<feBlend mode="normal" in="SourceGraphic" in2="BackgroundImageFix" result="shape"/>
<feColorMatrix in="SourceAlpha" type="matrix" values="0 0 0 0 0 0 0 0 0 0 0 0 0 0 0 0 0 0 127 0" result="hardAlpha"/>
<feOffset/>
<feGaussianBlur stdDeviation="3.96889"/>
<feComposite in2="hardAlpha" operator="arithmetic" k2="-1" k3="1"/>
<feColorMatrix type="matrix" values="0 0 0 0 0 0 0 0 0 0 0 0 0 0 0 0 0 0 0.25 0"/>
<feBlend mode="normal" in2="shape" result="effect1_innerShadow_4083_4738"/>
<feColorMatrix in="SourceAlpha" type="matrix" values="0 0 0 0 0 0 0 0 0 0 0 0 0 0 0 0 0 0 127 0" result="hardAlpha"/>
<feOffset dy="1.74457"/>
<feGaussianBlur stdDeviation="1.89722"/>
<feComposite in2="hardAlpha" operator="arithmetic" k2="-1" k3="1"/>
<feColorMatrix type="matrix" values="0 0 0 0 0.27144 0 0 0 0 0.63318 0 0 0 0 0.949702 0 0 0 1 0"/>
<feBlend mode="normal" in2="effect1_innerShadow_4083_4738" result="effect2_innerShadow_4083_4738"/>
</filter>
<linearGradient id="paint0_linear_4083_4738" x1="23.918" y1="0.513672" x2="23.918" y2="31.2607" gradientUnits="userSpaceOnUse">
<stop stop-color="#D9D9D9"/>
<stop offset="1" stop-color="#A3B0D4"/>
</linearGradient>
</defs>
</svg>
