<svg width="466" height="217" viewBox="0 0 466 217" fill="none" xmlns="http://www.w3.org/2000/svg">
<rect x="0.847656" y="0.18457" width="464.174" height="74.8188" rx="20" fill="white"/>
<path d="M40.0842 44.2738C39.2562 44.2738 38.5062 44.1778 37.8342 43.9857C37.1742 43.7817 36.5862 43.4937 36.0702 43.1217C35.5542 42.7377 35.0922 42.2877 34.6842 41.7717L36.5382 39.6657C37.1382 40.4697 37.7382 41.0097 38.3382 41.2857C38.9502 41.5617 39.5802 41.6997 40.2282 41.6997C40.5522 41.6997 40.8462 41.6577 41.1102 41.5737C41.3742 41.4897 41.5782 41.3697 41.7222 41.2137C41.8662 41.0457 41.9382 40.8417 41.9382 40.6017C41.9382 40.4217 41.8902 40.2597 41.7942 40.1157C41.7102 39.9717 41.5902 39.8457 41.4342 39.7377C41.2782 39.6297 41.0922 39.5337 40.8762 39.4497C40.6602 39.3537 40.4322 39.2757 40.1922 39.2157C39.9522 39.1437 39.7062 39.0837 39.4542 39.0357C38.7582 38.8797 38.1522 38.6877 37.6362 38.4597C37.1202 38.2317 36.6882 37.9557 36.3402 37.6317C36.0042 37.2957 35.7522 36.9177 35.5842 36.4977C35.4162 36.0657 35.3322 35.5857 35.3322 35.0577C35.3322 34.4937 35.4582 33.9777 35.7102 33.5098C35.9742 33.0297 36.3222 32.6217 36.7542 32.2857C37.1982 31.9377 37.7082 31.6737 38.2842 31.4937C38.8602 31.3017 39.4602 31.2057 40.0842 31.2057C40.9122 31.2057 41.6202 31.2957 42.2082 31.4757C42.8082 31.6437 43.3182 31.8897 43.7382 32.2137C44.1702 32.5377 44.5362 32.9277 44.8362 33.3837L42.9462 35.2017C42.6942 34.8897 42.4182 34.6317 42.1182 34.4277C41.8302 34.2237 41.5182 34.0677 41.1822 33.9597C40.8582 33.8517 40.5222 33.7977 40.1742 33.7977C39.8142 33.7977 39.5022 33.8457 39.2382 33.9417C38.9862 34.0257 38.7882 34.1517 38.6442 34.3197C38.5002 34.4757 38.4282 34.6677 38.4282 34.8957C38.4282 35.0997 38.4882 35.2737 38.6082 35.4177C38.7282 35.5617 38.8902 35.6937 39.0942 35.8137C39.2982 35.9217 39.5322 36.0177 39.7962 36.1017C40.0602 36.1737 40.3362 36.2337 40.6242 36.2817C41.2842 36.4137 41.8782 36.5877 42.4062 36.8037C42.9462 37.0197 43.4082 37.2837 43.7922 37.5957C44.1882 37.9077 44.4882 38.2797 44.6922 38.7117C44.9082 39.1317 45.0162 39.6237 45.0162 40.1877C45.0162 41.0637 44.8002 41.8077 44.3682 42.4197C43.9482 43.0197 43.3662 43.4817 42.6222 43.8057C41.8902 44.1178 41.0442 44.2738 40.0842 44.2738ZM46.9924 44.0938V34.5357H49.7284L49.8184 36.2637L49.4404 36.2817C49.5844 35.9697 49.7644 35.6937 49.9804 35.4537C50.2084 35.2137 50.4604 35.0157 50.7364 34.8597C51.0244 34.6917 51.3184 34.5657 51.6184 34.4817C51.9304 34.3977 52.2424 34.3557 52.5544 34.3557C53.0224 34.3557 53.4484 34.4277 53.8324 34.5717C54.2164 34.7157 54.5524 34.9497 54.8404 35.2737C55.1284 35.5857 55.3564 36.0117 55.5244 36.5517L55.0744 36.5157L55.2184 36.2277C55.3744 35.9397 55.5724 35.6817 55.8124 35.4537C56.0644 35.2137 56.3404 35.0157 56.6404 34.8597C56.9404 34.6917 57.2524 34.5657 57.5764 34.4817C57.9004 34.3977 58.2124 34.3557 58.5124 34.3557C59.2684 34.3557 59.8984 34.5057 60.4024 34.8057C60.9064 35.0937 61.2844 35.5317 61.5364 36.1197C61.8004 36.7077 61.9324 37.4217 61.9324 38.2617V44.0938H59.0344V38.4957C59.0344 38.1117 58.9804 37.7937 58.8724 37.5417C58.7644 37.2897 58.6024 37.1037 58.3864 36.9837C58.1824 36.8517 57.9244 36.7857 57.6124 36.7857C57.3604 36.7857 57.1264 36.8277 56.9104 36.9117C56.7064 36.9957 56.5264 37.1097 56.3704 37.2537C56.2264 37.3977 56.1124 37.5657 56.0284 37.7577C55.9444 37.9497 55.9024 38.1657 55.9024 38.4057V44.0938H53.0044V38.4777C53.0044 38.1177 52.9504 37.8117 52.8424 37.5597C52.7344 37.3077 52.5724 37.1157 52.3564 36.9837C52.1404 36.8517 51.8884 36.7857 51.6004 36.7857C51.3484 36.7857 51.1144 36.8277 50.8984 36.9117C50.6944 36.9957 50.5144 37.1097 50.3584 37.2537C50.2144 37.3977 50.1004 37.5657 50.0164 37.7577C49.9324 37.9497 49.8904 38.1597 49.8904 38.3877V44.0938H46.9924ZM67.8529 44.2558C67.0489 44.2558 66.3289 44.0458 65.6929 43.6257C65.0689 43.1937 64.5709 42.6057 64.1989 41.8617C63.8269 41.1057 63.6409 40.2537 63.6409 39.3057C63.6409 38.3337 63.8269 37.4757 64.1989 36.7317C64.5709 35.9877 65.0809 35.4057 65.7289 34.9857C66.3769 34.5537 67.1149 34.3377 67.9429 34.3377C68.3989 34.3377 68.8129 34.4037 69.1849 34.5357C69.5689 34.6677 69.9049 34.8537 70.1929 35.0938C70.4809 35.3217 70.7269 35.5917 70.9309 35.9037C71.1349 36.2037 71.2849 36.5277 71.3809 36.8757L70.7869 36.8037V34.5357H73.6489V44.0938H70.7329V41.7897L71.3809 41.7717C71.2849 42.1077 71.1289 42.4257 70.9129 42.7257C70.6969 43.0257 70.4329 43.2897 70.1209 43.5177C69.8089 43.7457 69.4609 43.9257 69.0769 44.0577C68.6929 44.1898 68.2849 44.2558 67.8529 44.2558ZM68.6449 41.8257C69.0889 41.8257 69.4729 41.7237 69.7969 41.5197C70.1209 41.3157 70.3729 41.0277 70.5529 40.6557C70.7329 40.2717 70.8229 39.8217 70.8229 39.3057C70.8229 38.7897 70.7329 38.3457 70.5529 37.9737C70.3729 37.5897 70.1209 37.2957 69.7969 37.0917C69.4729 36.8757 69.0889 36.7677 68.6449 36.7677C68.2129 36.7677 67.8349 36.8757 67.5109 37.0917C67.1989 37.2957 66.9529 37.5897 66.7729 37.9737C66.5929 38.3457 66.5029 38.7897 66.5029 39.3057C66.5029 39.8217 66.5929 40.2717 66.7729 40.6557C66.9529 41.0277 67.1989 41.3157 67.5109 41.5197C67.8349 41.7237 68.2129 41.8257 68.6449 41.8257ZM76.1901 44.0938V34.5357H78.9261L79.0521 37.6497L78.5121 37.0557C78.6561 36.5397 78.8901 36.0777 79.2141 35.6697C79.5501 35.2617 79.9401 34.9377 80.3841 34.6977C80.8281 34.4577 81.3021 34.3377 81.8061 34.3377C82.0221 34.3377 82.2201 34.3557 82.4001 34.3917C82.5921 34.4277 82.7661 34.4697 82.9221 34.5177L82.1301 37.7037C81.9981 37.6197 81.8181 37.5537 81.5901 37.5057C81.3741 37.4457 81.1461 37.4157 80.9061 37.4157C80.6421 37.4157 80.3961 37.4637 80.1681 37.5597C79.9401 37.6437 79.7481 37.7697 79.5921 37.9377C79.4361 38.1057 79.3101 38.3037 79.2141 38.5317C79.1301 38.7597 79.0881 39.0177 79.0881 39.3057V44.0938H76.1901ZM85.5251 44.0938V32.1237H88.4051V44.0938H85.5251ZM83.8331 37.0557V34.5357H90.2591V37.0557H83.8331ZM96.3746 44.0938L101.361 31.4937H103.953L108.903 44.0938H105.807L103.431 37.7037C103.335 37.4517 103.239 37.1817 103.143 36.8937C103.047 36.6057 102.951 36.3117 102.855 36.0117C102.759 35.6997 102.663 35.3997 102.567 35.1117C102.483 34.8117 102.411 34.5357 102.351 34.2837L102.891 34.2657C102.819 34.5657 102.735 34.8597 102.639 35.1477C102.555 35.4357 102.465 35.7237 102.369 36.0117C102.285 36.2877 102.189 36.5697 102.081 36.8577C101.973 37.1337 101.871 37.4217 101.775 37.7217L99.3986 44.0938H96.3746ZM98.7506 41.6817L99.7046 39.3777H105.501L106.437 41.6817H98.7506ZM113.391 44.2738C112.455 44.2738 111.627 44.1238 110.907 43.8237C110.199 43.5237 109.635 43.1217 109.215 42.6177L110.961 41.1057C111.333 41.4777 111.753 41.7537 112.221 41.9337C112.689 42.1017 113.133 42.1857 113.553 42.1857C113.721 42.1857 113.871 42.1677 114.003 42.1317C114.135 42.0957 114.243 42.0477 114.327 41.9877C114.423 41.9157 114.495 41.8377 114.543 41.7537C114.591 41.6577 114.615 41.5497 114.615 41.4297C114.615 41.1897 114.507 41.0037 114.291 40.8717C114.183 40.8117 114.003 40.7397 113.751 40.6557C113.499 40.5717 113.175 40.4757 112.779 40.3677C112.215 40.2237 111.723 40.0557 111.303 39.8637C110.895 39.6597 110.559 39.4257 110.295 39.1617C110.055 38.9097 109.869 38.6337 109.737 38.3337C109.605 38.0217 109.539 37.6737 109.539 37.2897C109.539 36.8457 109.641 36.4437 109.845 36.0837C110.061 35.7237 110.343 35.4117 110.691 35.1477C111.051 34.8837 111.459 34.6857 111.915 34.5537C112.383 34.4097 112.863 34.3377 113.355 34.3377C113.883 34.3377 114.387 34.3977 114.867 34.5177C115.347 34.6377 115.791 34.8057 116.199 35.0217C116.619 35.2377 116.991 35.4957 117.315 35.7957L115.803 37.4877C115.587 37.2837 115.341 37.1037 115.065 36.9477C114.801 36.7797 114.525 36.6477 114.237 36.5517C113.949 36.4557 113.685 36.4077 113.445 36.4077C113.265 36.4077 113.103 36.4257 112.959 36.4617C112.827 36.4857 112.713 36.5337 112.617 36.6057C112.521 36.6657 112.449 36.7437 112.401 36.8397C112.353 36.9237 112.329 37.0257 112.329 37.1457C112.329 37.2657 112.359 37.3797 112.419 37.4877C112.491 37.5957 112.587 37.6857 112.707 37.7577C112.827 37.8297 113.019 37.9137 113.283 38.0097C113.547 38.0937 113.907 38.2017 114.363 38.3337C114.927 38.4897 115.413 38.6637 115.821 38.8557C116.229 39.0477 116.553 39.2757 116.793 39.5397C116.985 39.7437 117.129 39.9837 117.225 40.2597C117.321 40.5237 117.369 40.8117 117.369 41.1237C117.369 41.7357 117.195 42.2817 116.847 42.7617C116.511 43.2297 116.043 43.6017 115.443 43.8777C114.843 44.1418 114.159 44.2738 113.391 44.2738ZM122.303 44.2738C121.367 44.2738 120.539 44.1238 119.819 43.8237C119.111 43.5237 118.547 43.1217 118.127 42.6177L119.873 41.1057C120.245 41.4777 120.665 41.7537 121.133 41.9337C121.601 42.1017 122.045 42.1857 122.465 42.1857C122.633 42.1857 122.783 42.1677 122.915 42.1317C123.047 42.0957 123.155 42.0477 123.239 41.9877C123.335 41.9157 123.407 41.8377 123.455 41.7537C123.503 41.6577 123.527 41.5497 123.527 41.4297C123.527 41.1897 123.419 41.0037 123.203 40.8717C123.095 40.8117 122.915 40.7397 122.663 40.6557C122.411 40.5717 122.087 40.4757 121.691 40.3677C121.127 40.2237 120.635 40.0557 120.215 39.8637C119.807 39.6597 119.471 39.4257 119.207 39.1617C118.967 38.9097 118.781 38.6337 118.649 38.3337C118.517 38.0217 118.451 37.6737 118.451 37.2897C118.451 36.8457 118.553 36.4437 118.757 36.0837C118.973 35.7237 119.255 35.4117 119.603 35.1477C119.963 34.8837 120.371 34.6857 120.827 34.5537C121.295 34.4097 121.775 34.3377 122.267 34.3377C122.795 34.3377 123.299 34.3977 123.779 34.5177C124.259 34.6377 124.703 34.8057 125.111 35.0217C125.531 35.2377 125.903 35.4957 126.227 35.7957L124.715 37.4877C124.499 37.2837 124.253 37.1037 123.977 36.9477C123.713 36.7797 123.437 36.6477 123.149 36.5517C122.861 36.4557 122.597 36.4077 122.357 36.4077C122.177 36.4077 122.015 36.4257 121.871 36.4617C121.739 36.4857 121.625 36.5337 121.529 36.6057C121.433 36.6657 121.361 36.7437 121.313 36.8397C121.265 36.9237 121.241 37.0257 121.241 37.1457C121.241 37.2657 121.271 37.3797 121.331 37.4877C121.403 37.5957 121.499 37.6857 121.619 37.7577C121.739 37.8297 121.931 37.9137 122.195 38.0097C122.459 38.0937 122.819 38.2017 123.275 38.3337C123.839 38.4897 124.325 38.6637 124.733 38.8557C125.141 39.0477 125.465 39.2757 125.705 39.5397C125.897 39.7437 126.041 39.9837 126.137 40.2597C126.233 40.5237 126.281 40.8117 126.281 41.1237C126.281 41.7357 126.107 42.2817 125.759 42.7617C125.423 43.2297 124.955 43.6017 124.355 43.8777C123.755 44.1418 123.071 44.2738 122.303 44.2738ZM128.155 44.0938V34.5357H131.035V44.0938H128.155ZM129.595 32.6457C129.055 32.6457 128.629 32.5197 128.317 32.2677C128.017 32.0037 127.867 31.6317 127.867 31.1517C127.867 30.7197 128.023 30.3657 128.335 30.0897C128.647 29.8137 129.067 29.6757 129.595 29.6757C130.135 29.6757 130.555 29.8077 130.855 30.0717C131.155 30.3237 131.305 30.6837 131.305 31.1517C131.305 31.5957 131.149 31.9557 130.837 32.2317C130.537 32.5077 130.123 32.6457 129.595 32.6457ZM136.963 44.2738C136.027 44.2738 135.199 44.1238 134.479 43.8237C133.771 43.5237 133.207 43.1217 132.787 42.6177L134.533 41.1057C134.905 41.4777 135.325 41.7537 135.793 41.9337C136.261 42.1017 136.705 42.1857 137.125 42.1857C137.293 42.1857 137.443 42.1677 137.575 42.1317C137.707 42.0957 137.815 42.0477 137.899 41.9877C137.995 41.9157 138.067 41.8377 138.115 41.7537C138.163 41.6577 138.187 41.5497 138.187 41.4297C138.187 41.1897 138.079 41.0037 137.863 40.8717C137.755 40.8117 137.575 40.7397 137.323 40.6557C137.071 40.5717 136.747 40.4757 136.351 40.3677C135.787 40.2237 135.295 40.0557 134.875 39.8637C134.467 39.6597 134.131 39.4257 133.867 39.1617C133.627 38.9097 133.441 38.6337 133.309 38.3337C133.177 38.0217 133.111 37.6737 133.111 37.2897C133.111 36.8457 133.213 36.4437 133.417 36.0837C133.633 35.7237 133.915 35.4117 134.263 35.1477C134.623 34.8837 135.031 34.6857 135.487 34.5537C135.955 34.4097 136.435 34.3377 136.927 34.3377C137.455 34.3377 137.959 34.3977 138.439 34.5177C138.919 34.6377 139.363 34.8057 139.771 35.0217C140.191 35.2377 140.563 35.4957 140.887 35.7957L139.375 37.4877C139.159 37.2837 138.913 37.1037 138.637 36.9477C138.373 36.7797 138.097 36.6477 137.809 36.5517C137.521 36.4557 137.257 36.4077 137.017 36.4077C136.837 36.4077 136.675 36.4257 136.531 36.4617C136.399 36.4857 136.285 36.5337 136.189 36.6057C136.093 36.6657 136.021 36.7437 135.973 36.8397C135.925 36.9237 135.901 37.0257 135.901 37.1457C135.901 37.2657 135.931 37.3797 135.991 37.4877C136.063 37.5957 136.159 37.6857 136.279 37.7577C136.399 37.8297 136.591 37.9137 136.855 38.0097C137.119 38.0937 137.479 38.2017 137.935 38.3337C138.499 38.4897 138.985 38.6637 139.393 38.8557C139.801 39.0477 140.125 39.2757 140.365 39.5397C140.557 39.7437 140.701 39.9837 140.797 40.2597C140.893 40.5237 140.941 40.8117 140.941 41.1237C140.941 41.7357 140.767 42.2817 140.419 42.7617C140.083 43.2297 139.615 43.6017 139.015 43.8777C138.415 44.1418 137.731 44.2738 136.963 44.2738ZM143.445 44.0938V32.1237H146.325V44.0938H143.445ZM141.753 37.0557V34.5357H148.179V37.0557H141.753ZM153.265 44.2558C152.461 44.2558 151.741 44.0458 151.105 43.6257C150.481 43.1937 149.983 42.6057 149.611 41.8617C149.239 41.1057 149.053 40.2537 149.053 39.3057C149.053 38.3337 149.239 37.4757 149.611 36.7317C149.983 35.9877 150.493 35.4057 151.141 34.9857C151.789 34.5537 152.527 34.3377 153.355 34.3377C153.811 34.3377 154.225 34.4037 154.597 34.5357C154.981 34.6677 155.317 34.8537 155.605 35.0938C155.893 35.3217 156.139 35.5917 156.343 35.9037C156.547 36.2037 156.697 36.5277 156.793 36.8757L156.199 36.8037V34.5357H159.061V44.0938H156.145V41.7897L156.793 41.7717C156.697 42.1077 156.541 42.4257 156.325 42.7257C156.109 43.0257 155.845 43.2897 155.533 43.5177C155.221 43.7457 154.873 43.9257 154.489 44.0577C154.105 44.1898 153.697 44.2558 153.265 44.2558ZM154.057 41.8257C154.501 41.8257 154.885 41.7237 155.209 41.5197C155.533 41.3157 155.785 41.0277 155.965 40.6557C156.145 40.2717 156.235 39.8217 156.235 39.3057C156.235 38.7897 156.145 38.3457 155.965 37.9737C155.785 37.5897 155.533 37.2957 155.209 37.0917C154.885 36.8757 154.501 36.7677 154.057 36.7677C153.625 36.7677 153.247 36.8757 152.923 37.0917C152.611 37.2957 152.365 37.5897 152.185 37.9737C152.005 38.3457 151.915 38.7897 151.915 39.3057C151.915 39.8217 152.005 40.2717 152.185 40.6557C152.365 41.0277 152.611 41.3157 152.923 41.5197C153.247 41.7237 153.625 41.8257 154.057 41.8257ZM161.602 44.0938V34.5357H164.338L164.428 36.4797L163.852 36.6957C163.984 36.2637 164.218 35.8737 164.554 35.5257C164.902 35.1657 165.316 34.8777 165.796 34.6617C166.276 34.4457 166.78 34.3377 167.308 34.3377C168.028 34.3377 168.634 34.4877 169.126 34.7877C169.618 35.0757 169.99 35.5137 170.242 36.1017C170.494 36.6777 170.62 37.3857 170.62 38.2257V44.0938H167.722V38.4597C167.722 38.0757 167.668 37.7577 167.56 37.5057C167.452 37.2537 167.284 37.0677 167.056 36.9477C166.84 36.8157 166.57 36.7557 166.246 36.7677C165.994 36.7677 165.76 36.8097 165.544 36.8937C165.328 36.9657 165.142 37.0797 164.986 37.2357C164.83 37.3797 164.704 37.5477 164.608 37.7397C164.524 37.9317 164.482 38.1417 164.482 38.3697V44.0938H163.06C162.724 44.0938 162.436 44.0938 162.196 44.0938C161.956 44.0938 161.758 44.0938 161.602 44.0938ZM177.222 44.2738C176.298 44.2738 175.47 44.0578 174.738 43.6257C174.006 43.1937 173.424 42.6057 172.992 41.8617C172.572 41.1057 172.362 40.2537 172.362 39.3057C172.362 38.3577 172.572 37.5117 172.992 36.7677C173.424 36.0117 174.006 35.4177 174.738 34.9857C175.47 34.5537 176.298 34.3377 177.222 34.3377C178.074 34.3377 178.854 34.4877 179.562 34.7877C180.282 35.0877 180.852 35.5077 181.272 36.0477L179.706 37.9197C179.538 37.7277 179.34 37.5477 179.112 37.3797C178.884 37.2117 178.632 37.0797 178.356 36.9837C178.08 36.8877 177.792 36.8397 177.492 36.8397C177.036 36.8397 176.634 36.9477 176.286 37.1637C175.938 37.3677 175.668 37.6557 175.476 38.0277C175.284 38.3997 175.188 38.8257 175.188 39.3057C175.188 39.7617 175.284 40.1757 175.476 40.5477C175.68 40.9197 175.956 41.2137 176.304 41.4297C176.652 41.6457 177.048 41.7537 177.492 41.7537C177.804 41.7537 178.092 41.7177 178.356 41.6457C178.62 41.5617 178.86 41.4417 179.076 41.2857C179.304 41.1297 179.514 40.9377 179.706 40.7097L181.254 42.5997C180.846 43.1157 180.276 43.5237 179.544 43.8237C178.824 44.1238 178.05 44.2738 177.222 44.2738ZM187.391 44.2738C186.335 44.2738 185.417 44.0638 184.637 43.6437C183.857 43.2117 183.251 42.6297 182.819 41.8977C182.387 41.1537 182.171 40.3077 182.171 39.3597C182.171 38.6277 182.291 37.9557 182.531 37.3437C182.771 36.7317 183.107 36.2037 183.539 35.7597C183.971 35.3037 184.481 34.9557 185.069 34.7157C185.669 34.4637 186.323 34.3377 187.031 34.3377C187.703 34.3377 188.315 34.4577 188.867 34.6977C189.431 34.9377 189.917 35.2737 190.325 35.7057C190.733 36.1377 191.045 36.6477 191.261 37.2357C191.477 37.8237 191.573 38.4657 191.549 39.1617L191.531 39.9357H183.917L183.503 38.3157H189.191L188.885 38.6577V38.2977C188.861 37.9977 188.765 37.7337 188.597 37.5057C188.441 37.2657 188.231 37.0797 187.967 36.9477C187.703 36.8157 187.403 36.7497 187.067 36.7497C186.599 36.7497 186.197 36.8457 185.861 37.0377C185.537 37.2177 185.291 37.4877 185.123 37.8477C184.955 38.1957 184.871 38.6277 184.871 39.1437C184.871 39.6717 184.979 40.1337 185.195 40.5297C185.423 40.9137 185.747 41.2137 186.167 41.4297C186.599 41.6457 187.109 41.7537 187.697 41.7537C188.105 41.7537 188.465 41.6937 188.777 41.5737C189.101 41.4537 189.449 41.2497 189.821 40.9617L191.171 42.8697C190.799 43.1937 190.403 43.4577 189.983 43.6617C189.563 43.8657 189.131 44.0157 188.687 44.1118C188.255 44.2198 187.823 44.2738 187.391 44.2738Z" fill="#05243F"/>
<path fill-rule="evenodd" clip-rule="evenodd" d="M327.348 28.5938C324.961 28.5938 322.672 29.542 320.984 31.2298C319.296 32.9176 318.348 35.2068 318.348 37.5938C318.348 39.9807 319.296 42.2699 320.984 43.9577C322.672 45.6455 324.961 46.5938 327.348 46.5938H331.848C333.246 46.5938 333.945 46.5938 334.496 46.3657C334.86 46.215 335.191 45.994 335.469 45.7153C335.748 45.4367 335.969 45.1058 336.12 44.7418C336.348 44.1908 336.348 43.4917 336.348 42.0938V37.5938C336.348 35.2068 335.399 32.9176 333.712 31.2298C332.024 29.542 329.735 28.5938 327.348 28.5938ZM323.348 36.5938C323.348 36.3285 323.453 36.0742 323.641 35.8866C323.828 35.6991 324.082 35.5938 324.348 35.5938H330.348C330.613 35.5938 330.867 35.6991 331.055 35.8866C331.242 36.0742 331.348 36.3285 331.348 36.5938C331.348 36.859 331.242 37.1133 331.055 37.3009C330.867 37.4884 330.613 37.5938 330.348 37.5938H324.348C324.082 37.5938 323.828 37.4884 323.641 37.3009C323.453 37.1133 323.348 36.859 323.348 36.5938ZM326.348 40.5938C326.348 40.3285 326.453 40.0742 326.641 39.8866C326.828 39.6991 327.082 39.5938 327.348 39.5938H330.348C330.613 39.5938 330.867 39.6991 331.055 39.8866C331.242 40.0742 331.348 40.3285 331.348 40.5938C331.348 40.859 331.242 41.1133 331.055 41.3009C330.867 41.4884 330.613 41.5938 330.348 41.5938H327.348C327.082 41.5938 326.828 41.4884 326.641 41.3009C326.453 41.1133 326.348 40.859 326.348 40.5938Z" fill="#2287E0"/>
<path d="M353.908 49.0938L352.915 46.6272L359.051 39.9193C359.392 39.5383 359.763 39.1072 360.164 38.6259C360.565 38.1446 360.956 37.6533 361.337 37.152C361.718 36.6306 362.019 36.1293 362.24 35.648C362.48 35.1667 362.601 34.7255 362.601 34.3245C362.601 33.9234 362.51 33.5725 362.33 33.2717C362.149 32.9709 361.889 32.7403 361.548 32.5798C361.207 32.3993 360.776 32.3091 360.254 32.3091C359.793 32.3091 359.352 32.4294 358.931 32.6701C358.51 32.8907 358.109 33.2416 357.728 33.7229C357.367 34.2041 357.026 34.7957 356.705 35.4976L352.915 33.4521C353.336 32.2891 353.928 31.2663 354.69 30.384C355.472 29.4816 356.384 28.7897 357.427 28.3085C358.47 27.8071 359.583 27.5565 360.766 27.5565C362.009 27.5765 363.132 27.8472 364.135 28.3686C365.137 28.87 365.93 29.5819 366.511 30.5043C367.113 31.4067 367.413 32.4695 367.413 33.6928C367.413 34.1139 367.363 34.5551 367.263 35.0163C367.163 35.4775 367.012 35.9588 366.812 36.4601C366.611 36.9414 366.341 37.4628 366 38.0243C365.679 38.5657 365.288 39.1373 364.827 39.7389C364.365 40.3405 363.824 40.9822 363.202 41.664L358.42 46.8678L357.818 44.5817H368.346V49.0938H353.908ZM378.749 49.3946C376.864 49.3946 375.25 48.9634 373.906 48.1011C372.583 47.2388 371.57 46.0055 370.868 44.4013C370.166 42.7769 369.815 40.8318 369.815 38.5657C369.815 36.2997 370.166 34.3646 370.868 32.7603C371.57 31.136 372.583 29.8927 373.906 29.0304C375.25 28.1681 376.864 27.7369 378.749 27.7369C380.634 27.7369 382.248 28.1681 383.592 29.0304C384.936 29.8927 385.958 31.136 386.66 32.7603C387.362 34.3646 387.713 36.2997 387.713 38.5657C387.713 40.8318 387.362 42.7769 386.66 44.4013C385.958 46.0055 384.936 47.2388 383.592 48.1011C382.248 48.9634 380.634 49.3946 378.749 49.3946ZM378.749 45.063C380.053 45.063 381.055 44.5015 381.757 43.3785C382.479 42.2556 382.84 40.6513 382.84 38.5657C382.84 36.42 382.479 34.7757 381.757 33.6326C381.055 32.4695 380.053 31.888 378.749 31.888C377.446 31.888 376.433 32.4695 375.711 33.6326C375.009 34.7757 374.658 36.42 374.658 38.5657C374.658 40.6513 375.009 42.2556 375.711 43.3785C376.433 44.5015 377.446 45.063 378.749 45.063ZM390.685 49.0938L389.692 46.6272L395.829 39.9193C396.17 39.5383 396.541 39.1072 396.942 38.6259C397.343 38.1446 397.734 37.6533 398.115 37.152C398.496 36.6306 398.797 36.1293 399.017 35.648C399.258 35.1667 399.378 34.7255 399.378 34.3245C399.378 33.9234 399.288 33.5725 399.107 33.2717C398.927 32.9709 398.666 32.7403 398.325 32.5798C397.984 32.3993 397.553 32.3091 397.032 32.3091C396.571 32.3091 396.13 32.4294 395.708 32.6701C395.287 32.8907 394.886 33.2416 394.505 33.7229C394.144 34.2041 393.803 34.7957 393.482 35.4976L389.692 33.4521C390.114 32.2891 390.705 31.2663 391.467 30.384C392.249 29.4816 393.162 28.7897 394.204 28.3085C395.247 27.8071 396.36 27.5565 397.543 27.5565C398.787 27.5765 399.91 27.8472 400.912 28.3686C401.915 28.87 402.707 29.5819 403.289 30.5043C403.89 31.4067 404.191 32.4695 404.191 33.6928C404.191 34.1139 404.141 34.5551 404.041 35.0163C403.94 35.4775 403.79 35.9588 403.589 36.4601C403.389 36.9414 403.118 37.4628 402.777 38.0243C402.456 38.5657 402.065 39.1373 401.604 39.7389C401.143 40.3405 400.601 40.9822 399.98 41.664L395.197 46.8678L394.595 44.5817H405.123V49.0938H390.685ZM413.872 49.3043C412.288 49.3043 410.844 48.9835 409.541 48.3417C408.257 47.7 407.194 46.7776 406.352 45.5744L409.09 42.5664C409.912 43.4688 410.674 44.0904 411.376 44.4313C412.077 44.7522 412.86 44.9126 413.722 44.9126C414.364 44.9126 414.935 44.7823 415.436 44.5216C415.938 44.2609 416.329 43.8999 416.61 43.4387C416.91 42.9574 417.061 42.426 417.061 41.8445C417.061 41.2429 416.91 40.7115 416.61 40.2502C416.329 39.7689 415.938 39.3879 415.436 39.1072C414.955 38.8264 414.394 38.6861 413.752 38.6861C413.291 38.6861 412.86 38.7262 412.458 38.8064C412.057 38.8866 411.626 39.027 411.165 39.2275C410.724 39.408 410.192 39.6787 409.571 40.0397L407.405 37.152L408.698 27.8573H420.791V32.1587H411.135L412.458 30.4742L411.466 37.152L409.661 36.5504C410.042 36.2095 410.503 35.9087 411.045 35.648C411.606 35.3873 412.208 35.1767 412.85 35.0163C413.491 34.8358 414.133 34.7456 414.775 34.7456C416.098 34.7456 417.281 35.0564 418.324 35.6781C419.387 36.2797 420.229 37.1219 420.851 38.2048C421.472 39.2877 421.783 40.531 421.783 41.9347C421.783 43.3184 421.432 44.5717 420.73 45.6947C420.029 46.7976 419.086 47.68 417.903 48.3417C416.72 48.9835 415.376 49.3043 413.872 49.3043Z" fill="#05243F"/>
<g opacity="0.8">
<rect x="23.957" y="83.0034" width="417.956" height="67.3691" rx="18.0086" fill="white"/>
<path d="M58.3899 122.632L57.855 121.303L61.1614 117.688C61.3451 117.483 61.545 117.251 61.7611 116.992C61.9772 116.732 62.1879 116.467 62.3932 116.197C62.5985 115.916 62.7605 115.646 62.8794 115.387C63.0091 115.128 63.0739 114.89 63.0739 114.674C63.0739 114.458 63.0253 114.269 62.928 114.107C62.8308 113.944 62.6903 113.82 62.5066 113.734C62.3229 113.637 62.0906 113.588 61.8097 113.588C61.5612 113.588 61.3235 113.653 61.0965 113.782C60.8696 113.901 60.6535 114.09 60.4482 114.35C60.2537 114.609 60.0701 114.928 59.8972 115.306L57.855 114.204C58.0819 113.577 58.4007 113.026 58.8113 112.551C59.2327 112.064 59.7243 111.692 60.2862 111.432C60.848 111.162 61.4477 111.027 62.0852 111.027C62.7551 111.038 63.3602 111.184 63.9005 111.465C64.4407 111.735 64.8675 112.118 65.1809 112.615C65.505 113.102 65.6671 113.674 65.6671 114.333C65.6671 114.56 65.6401 114.798 65.5861 115.047C65.5321 115.295 65.451 115.554 65.343 115.825C65.2349 116.084 65.089 116.365 64.9054 116.667C64.7325 116.959 64.5218 117.267 64.2733 117.591C64.0247 117.915 63.733 118.261 63.398 118.629L60.821 121.432L60.4969 120.201H66.1696V122.632H58.3899ZM71.653 122.632V113.458L73.1279 113.491L69.0273 118.515L68.6383 118.029H76.1587V120.298H67.4065L66.3044 118.175L72.0906 111.189H74.311V122.632H71.653ZM76.8574 124.933L83.5998 111.286H86.1769L79.4669 124.933H76.8574ZM87.7284 122.632L92.2666 112.291L93.0445 113.588H87.1125V111.189H94.5032L94.7625 112.502L90.4837 122.632H87.7284ZM100.501 122.632L104.99 111.286H107.324L111.781 122.632H108.994L106.854 116.878C106.768 116.651 106.681 116.408 106.595 116.149C106.509 115.889 106.422 115.625 106.336 115.355C106.249 115.074 106.163 114.803 106.076 114.544C106.001 114.274 105.936 114.026 105.882 113.799L106.368 113.782C106.303 114.053 106.228 114.317 106.141 114.577C106.066 114.836 105.984 115.095 105.898 115.355C105.822 115.603 105.736 115.857 105.639 116.116C105.541 116.365 105.45 116.624 105.363 116.894L103.224 122.632H100.501ZM102.64 120.46L103.499 118.385H108.718L109.561 120.46H102.64ZM114.756 122.632L111.158 114.026H114.027L116.166 120.46L115.534 120.525L117.738 114.026H120.575L116.798 122.632H114.756ZM124.867 122.778C124.143 122.778 123.495 122.589 122.922 122.21C122.36 121.821 121.912 121.292 121.577 120.622C121.242 119.941 121.074 119.174 121.074 118.321C121.074 117.445 121.242 116.673 121.577 116.003C121.912 115.333 122.371 114.809 122.954 114.431C123.538 114.042 124.202 113.847 124.948 113.847C125.358 113.847 125.731 113.907 126.066 114.026C126.412 114.144 126.714 114.312 126.974 114.528C127.233 114.733 127.455 114.976 127.638 115.257C127.822 115.527 127.957 115.819 128.043 116.133L127.509 116.068V114.026H130.086V122.632H127.46V120.557L128.043 120.541C127.957 120.844 127.817 121.13 127.622 121.4C127.428 121.67 127.19 121.908 126.909 122.113C126.628 122.318 126.315 122.481 125.969 122.599C125.623 122.718 125.256 122.778 124.867 122.778ZM125.58 120.59C125.98 120.59 126.325 120.498 126.617 120.314C126.909 120.13 127.136 119.871 127.298 119.536C127.46 119.19 127.541 118.785 127.541 118.321C127.541 117.856 127.46 117.456 127.298 117.121C127.136 116.775 126.909 116.511 126.617 116.327C126.325 116.133 125.98 116.035 125.58 116.035C125.191 116.035 124.851 116.133 124.559 116.327C124.278 116.511 124.056 116.775 123.894 117.121C123.732 117.456 123.651 117.856 123.651 118.321C123.651 118.785 123.732 119.19 123.894 119.536C124.056 119.871 124.278 120.13 124.559 120.314C124.851 120.498 125.191 120.59 125.58 120.59ZM132.52 122.632V114.026H135.113V122.632H132.52ZM133.816 112.324C133.33 112.324 132.947 112.21 132.666 111.983C132.395 111.746 132.26 111.411 132.26 110.978C132.26 110.589 132.401 110.271 132.682 110.022C132.963 109.774 133.341 109.649 133.816 109.649C134.303 109.649 134.681 109.768 134.951 110.006C135.221 110.233 135.356 110.557 135.356 110.978C135.356 111.378 135.216 111.702 134.935 111.951C134.665 112.199 134.292 112.324 133.816 112.324ZM137.566 122.632V110.638H140.159V122.632H137.566ZM145.49 122.778C144.767 122.778 144.118 122.589 143.546 122.21C142.984 121.821 142.535 121.292 142.2 120.622C141.865 119.941 141.698 119.174 141.698 118.321C141.698 117.445 141.865 116.673 142.2 116.003C142.535 115.333 142.994 114.809 143.578 114.431C144.161 114.042 144.826 113.847 145.572 113.847C145.982 113.847 146.355 113.907 146.69 114.026C147.036 114.144 147.338 114.312 147.597 114.528C147.857 114.733 148.078 114.976 148.262 115.257C148.446 115.527 148.581 115.819 148.667 116.133L148.132 116.068V114.026H150.709V122.632H148.084V120.557L148.667 120.541C148.581 120.844 148.44 121.13 148.246 121.4C148.051 121.67 147.814 121.908 147.533 122.113C147.252 122.318 146.938 122.481 146.593 122.599C146.247 122.718 145.879 122.778 145.49 122.778ZM146.204 120.59C146.603 120.59 146.949 120.498 147.241 120.314C147.533 120.13 147.76 119.871 147.922 119.536C148.084 119.19 148.165 118.785 148.165 118.321C148.165 117.856 148.084 117.456 147.922 117.121C147.76 116.775 147.533 116.511 147.241 116.327C146.949 116.133 146.603 116.035 146.204 116.035C145.815 116.035 145.474 116.133 145.183 116.327C144.902 116.511 144.68 116.775 144.518 117.121C144.356 117.456 144.275 117.856 144.275 118.321C144.275 118.785 144.356 119.19 144.518 119.536C144.68 119.871 144.902 120.13 145.183 120.314C145.474 120.498 145.815 120.59 146.204 120.59ZM158.168 122.81C157.779 122.81 157.406 122.756 157.05 122.648C156.693 122.54 156.369 122.394 156.077 122.21C155.796 122.027 155.558 121.816 155.364 121.578C155.18 121.33 155.056 121.076 154.991 120.817L155.558 120.622L155.413 122.616H152.998V110.638H155.607V116.084L155.072 115.889C155.137 115.608 155.261 115.349 155.445 115.111C155.629 114.863 155.861 114.647 156.142 114.463C156.423 114.269 156.731 114.117 157.066 114.009C157.401 113.901 157.746 113.847 158.103 113.847C158.849 113.847 159.508 114.042 160.08 114.431C160.664 114.809 161.123 115.338 161.458 116.019C161.793 116.689 161.96 117.456 161.96 118.321C161.96 119.196 161.793 119.974 161.458 120.654C161.134 121.324 160.685 121.854 160.113 122.243C159.54 122.621 158.892 122.81 158.168 122.81ZM157.487 120.622C157.876 120.622 158.216 120.525 158.508 120.33C158.8 120.136 159.021 119.871 159.173 119.536C159.335 119.19 159.416 118.785 159.416 118.321C159.416 117.867 159.335 117.467 159.173 117.121C159.021 116.775 158.8 116.511 158.508 116.327C158.216 116.143 157.876 116.051 157.487 116.051C157.087 116.051 156.742 116.143 156.45 116.327C156.158 116.511 155.931 116.775 155.769 117.121C155.607 117.467 155.526 117.867 155.526 118.321C155.526 118.785 155.607 119.19 155.769 119.536C155.931 119.871 156.158 120.136 156.45 120.33C156.742 120.525 157.087 120.622 157.487 120.622ZM163.811 122.632V114.026H166.405V122.632H163.811ZM165.108 112.324C164.622 112.324 164.238 112.21 163.957 111.983C163.687 111.746 163.552 111.411 163.552 110.978C163.552 110.589 163.693 110.271 163.974 110.022C164.254 109.774 164.633 109.649 165.108 109.649C165.594 109.649 165.972 109.768 166.243 110.006C166.513 110.233 166.648 110.557 166.648 110.978C166.648 111.378 166.507 111.702 166.226 111.951C165.956 112.199 165.583 112.324 165.108 112.324ZM168.857 122.632V110.638H171.451V122.632H168.857ZM173.91 122.632V114.026H176.503V122.632H173.91ZM175.206 112.324C174.72 112.324 174.336 112.21 174.055 111.983C173.785 111.746 173.65 111.411 173.65 110.978C173.65 110.589 173.791 110.271 174.072 110.022C174.353 109.774 174.731 109.649 175.206 109.649C175.692 109.649 176.071 109.768 176.341 110.006C176.611 110.233 176.746 110.557 176.746 110.978C176.746 111.378 176.605 111.702 176.325 111.951C176.054 112.199 175.682 112.324 175.206 112.324ZM179.653 122.632V111.854H182.246V122.632H179.653ZM178.129 116.295V114.026H183.915V116.295H178.129ZM186.483 126.36L188.444 121.74L188.477 123.069L184.328 114.026H187.261L189.076 118.353C189.174 118.569 189.265 118.801 189.352 119.05C189.438 119.298 189.503 119.536 189.546 119.763L189.19 119.974C189.255 119.812 189.325 119.612 189.401 119.374C189.487 119.126 189.579 118.861 189.676 118.58L191.264 114.026H194.214L190.551 122.632L189.06 126.36H186.483Z" fill="#05243F"/>
<path fill-rule="evenodd" clip-rule="evenodd" d="M347 109.5C345.011 109.5 343.103 110.29 341.697 111.697C340.29 113.103 339.5 115.011 339.5 117C339.5 118.989 340.29 120.897 341.697 122.303C343.103 123.71 345.011 124.5 347 124.5H350.75C351.915 124.5 352.498 124.5 352.957 124.31C353.26 124.184 353.536 124 353.768 123.768C354 123.536 354.184 123.26 354.31 122.957C354.5 122.498 354.5 121.915 354.5 120.75V117C354.5 115.011 353.71 113.103 352.303 111.697C350.897 110.29 348.989 109.5 347 109.5ZM343.667 116.167C343.667 115.946 343.754 115.734 343.911 115.577C344.067 115.421 344.279 115.333 344.5 115.333H349.5C349.721 115.333 349.933 115.421 350.089 115.577C350.246 115.734 350.333 115.946 350.333 116.167C350.333 116.388 350.246 116.6 350.089 116.756C349.933 116.912 349.721 117 349.5 117H344.5C344.279 117 344.067 116.912 343.911 116.756C343.754 116.6 343.667 116.388 343.667 116.167ZM346.167 119.5C346.167 119.279 346.254 119.067 346.411 118.911C346.567 118.754 346.779 118.667 347 118.667H349.5C349.721 118.667 349.933 118.754 350.089 118.911C350.246 119.067 350.333 119.279 350.333 119.5C350.333 119.721 350.246 119.933 350.089 120.089C349.933 120.246 349.721 120.333 349.5 120.333H347C346.779 120.333 346.567 120.246 346.411 120.089C346.254 119.933 346.167 119.721 346.167 119.5Z" fill="#37CF95"/>
<path d="M368.001 122.632L367.473 121.32L370.737 117.752C370.918 117.549 371.115 117.32 371.329 117.064C371.542 116.808 371.75 116.547 371.953 116.28C372.155 116.003 372.315 115.736 372.433 115.48C372.561 115.224 372.625 114.989 372.625 114.776C372.625 114.563 372.577 114.376 372.481 114.216C372.385 114.056 372.246 113.933 372.065 113.848C371.883 113.752 371.654 113.704 371.377 113.704C371.131 113.704 370.897 113.768 370.673 113.896C370.449 114.013 370.235 114.2 370.033 114.456C369.841 114.712 369.659 115.027 369.489 115.4L367.473 114.312C367.697 113.693 368.011 113.149 368.417 112.68C368.833 112.2 369.318 111.832 369.873 111.576C370.427 111.309 371.019 111.176 371.649 111.176C372.31 111.187 372.907 111.331 373.441 111.608C373.974 111.875 374.395 112.253 374.705 112.744C375.025 113.224 375.185 113.789 375.185 114.44C375.185 114.664 375.158 114.899 375.105 115.144C375.051 115.389 374.971 115.645 374.865 115.912C374.758 116.168 374.614 116.445 374.433 116.744C374.262 117.032 374.054 117.336 373.809 117.656C373.563 117.976 373.275 118.317 372.945 118.68L370.401 121.448L370.081 120.232H375.681V122.632H368.001ZM381.214 122.792C380.212 122.792 379.353 122.563 378.638 122.104C377.934 121.645 377.396 120.989 377.022 120.136C376.649 119.272 376.462 118.237 376.462 117.032C376.462 115.827 376.649 114.797 377.022 113.944C377.396 113.08 377.934 112.419 378.638 111.96C379.353 111.501 380.212 111.272 381.214 111.272C382.217 111.272 383.076 111.501 383.79 111.96C384.505 112.419 385.049 113.08 385.422 113.944C385.796 114.797 385.982 115.827 385.982 117.032C385.982 118.237 385.796 119.272 385.422 120.136C385.049 120.989 384.505 121.645 383.79 122.104C383.076 122.563 382.217 122.792 381.214 122.792ZM381.214 120.488C381.908 120.488 382.441 120.189 382.814 119.592C383.198 118.995 383.39 118.141 383.39 117.032C383.39 115.891 383.198 115.016 382.814 114.408C382.441 113.789 381.908 113.48 381.214 113.48C380.521 113.48 379.982 113.789 379.598 114.408C379.225 115.016 379.038 115.891 379.038 117.032C379.038 118.141 379.225 118.995 379.598 119.592C379.982 120.189 380.521 120.488 381.214 120.488ZM387.563 122.632L387.035 121.32L390.299 117.752C390.48 117.549 390.678 117.32 390.891 117.064C391.104 116.808 391.312 116.547 391.515 116.28C391.718 116.003 391.878 115.736 391.995 115.48C392.123 115.224 392.187 114.989 392.187 114.776C392.187 114.563 392.139 114.376 392.043 114.216C391.947 114.056 391.808 113.933 391.627 113.848C391.446 113.752 391.216 113.704 390.939 113.704C390.694 113.704 390.459 113.768 390.235 113.896C390.011 114.013 389.798 114.2 389.595 114.456C389.403 114.712 389.222 115.027 389.051 115.4L387.035 114.312C387.259 113.693 387.574 113.149 387.979 112.68C388.395 112.2 388.88 111.832 389.435 111.576C389.99 111.309 390.582 111.176 391.211 111.176C391.872 111.187 392.47 111.331 393.003 111.608C393.536 111.875 393.958 112.253 394.267 112.744C394.587 113.224 394.747 113.789 394.747 114.44C394.747 114.664 394.72 114.899 394.667 115.144C394.614 115.389 394.534 115.645 394.427 115.912C394.32 116.168 394.176 116.445 393.995 116.744C393.824 117.032 393.616 117.336 393.371 117.656C393.126 117.976 392.838 118.317 392.507 118.68L389.963 121.448L389.643 120.232H395.243V122.632H387.563ZM399.897 122.744C399.054 122.744 398.286 122.573 397.593 122.232C396.91 121.891 396.345 121.4 395.897 120.76L397.353 119.16C397.79 119.64 398.195 119.971 398.569 120.152C398.942 120.323 399.358 120.408 399.817 120.408C400.158 120.408 400.462 120.339 400.729 120.2C400.995 120.061 401.203 119.869 401.353 119.624C401.513 119.368 401.593 119.085 401.593 118.776C401.593 118.456 401.513 118.173 401.353 117.928C401.203 117.672 400.995 117.469 400.729 117.32C400.473 117.171 400.174 117.096 399.833 117.096C399.587 117.096 399.358 117.117 399.145 117.16C398.931 117.203 398.702 117.277 398.457 117.384C398.222 117.48 397.939 117.624 397.609 117.816L396.457 116.28L397.145 111.336H403.577V113.624H398.441L399.145 112.728L398.617 116.28L397.657 115.96C397.859 115.779 398.105 115.619 398.393 115.48C398.691 115.341 399.011 115.229 399.353 115.144C399.694 115.048 400.035 115 400.377 115C401.081 115 401.71 115.165 402.265 115.496C402.83 115.816 403.278 116.264 403.609 116.84C403.939 117.416 404.105 118.077 404.105 118.824C404.105 119.56 403.918 120.227 403.545 120.824C403.171 121.411 402.67 121.88 402.041 122.232C401.411 122.573 400.697 122.744 399.897 122.744Z" fill="#05243F"/>
</g>
<rect opacity="0.4" x="53.1992" y="158.373" width="359.339" height="57.9208" rx="15.4829" fill="white"/>
<path fill-rule="evenodd" clip-rule="evenodd" d="M329.521 182.63C328.224 182.63 326.98 183.145 326.063 184.062C325.146 184.979 324.631 186.223 324.631 187.52C324.631 188.817 325.146 190.061 326.063 190.978C326.98 191.895 328.224 192.41 329.521 192.41H331.966C332.725 192.41 333.105 192.41 333.405 192.286C333.602 192.204 333.782 192.084 333.934 191.933C334.085 191.781 334.205 191.601 334.287 191.404C334.411 191.104 334.411 190.724 334.411 189.965V187.52C334.411 186.223 333.896 184.979 332.979 184.062C332.062 183.145 330.818 182.63 329.521 182.63ZM327.348 186.977C327.348 186.832 327.405 186.694 327.507 186.592C327.609 186.49 327.747 186.433 327.891 186.433H331.151C331.295 186.433 331.433 186.49 331.535 186.592C331.637 186.694 331.694 186.832 331.694 186.977C331.694 187.121 331.637 187.259 331.535 187.361C331.433 187.463 331.295 187.52 331.151 187.52H327.891C327.747 187.52 327.609 187.463 327.507 187.361C327.405 187.259 327.348 187.121 327.348 186.977ZM328.978 189.15C328.978 189.006 329.035 188.868 329.137 188.766C329.239 188.664 329.377 188.607 329.521 188.607H331.151C331.295 188.607 331.433 188.664 331.535 188.766C331.637 188.868 331.694 189.006 331.694 189.15C331.694 189.294 331.637 189.432 331.535 189.534C331.433 189.636 331.295 189.693 331.151 189.693H329.521C329.377 189.693 329.239 189.636 329.137 189.534C329.035 189.432 328.978 189.294 328.978 189.15Z" fill="#FFCC63"/>
<path opacity="0.4" d="M343.822 193L343.362 191.858L346.204 188.751C346.362 188.575 346.534 188.375 346.719 188.152C346.905 187.929 347.086 187.702 347.263 187.47C347.439 187.228 347.578 186.996 347.68 186.773C347.792 186.55 347.848 186.346 347.848 186.16C347.848 185.975 347.806 185.812 347.722 185.673C347.639 185.534 347.518 185.427 347.36 185.352C347.202 185.269 347.003 185.227 346.761 185.227C346.548 185.227 346.343 185.283 346.148 185.394C345.953 185.496 345.767 185.659 345.591 185.882C345.424 186.105 345.266 186.379 345.117 186.704L343.362 185.756C343.557 185.218 343.831 184.744 344.184 184.336C344.546 183.918 344.969 183.597 345.452 183.374C345.935 183.142 346.45 183.026 346.998 183.026C347.574 183.035 348.094 183.161 348.558 183.402C349.022 183.634 349.389 183.964 349.659 184.391C349.937 184.809 350.076 185.301 350.076 185.868C350.076 186.063 350.053 186.267 350.007 186.481C349.96 186.694 349.891 186.917 349.798 187.149C349.705 187.372 349.58 187.614 349.422 187.874C349.273 188.124 349.092 188.389 348.878 188.668C348.665 188.946 348.414 189.244 348.126 189.559L345.911 191.969L345.633 190.91H350.508V193H343.822ZM355.326 193.139C354.453 193.139 353.705 192.94 353.083 192.54C352.47 192.141 352.001 191.57 351.676 190.827C351.351 190.075 351.189 189.174 351.189 188.124C351.189 187.075 351.351 186.179 351.676 185.436C352.001 184.684 352.47 184.108 353.083 183.709C353.705 183.309 354.453 183.11 355.326 183.11C356.199 183.11 356.947 183.309 357.569 183.709C358.191 184.108 358.665 184.684 358.99 185.436C359.315 186.179 359.477 187.075 359.477 188.124C359.477 189.174 359.315 190.075 358.99 190.827C358.665 191.57 358.191 192.141 357.569 192.54C356.947 192.94 356.199 193.139 355.326 193.139ZM355.326 191.133C355.93 191.133 356.394 190.873 356.719 190.353C357.053 189.833 357.22 189.09 357.22 188.124C357.22 187.131 357.053 186.369 356.719 185.84C356.394 185.301 355.93 185.032 355.326 185.032C354.722 185.032 354.253 185.301 353.919 185.84C353.594 186.369 353.432 187.131 353.432 188.124C353.432 189.09 353.594 189.833 353.919 190.353C354.253 190.873 354.722 191.133 355.326 191.133ZM360.853 193L360.394 191.858L363.236 188.751C363.393 188.575 363.565 188.375 363.751 188.152C363.937 187.929 364.118 187.702 364.294 187.47C364.471 187.228 364.61 186.996 364.712 186.773C364.824 186.55 364.879 186.346 364.879 186.16C364.879 185.975 364.837 185.812 364.754 185.673C364.67 185.534 364.55 185.427 364.392 185.352C364.234 185.269 364.034 185.227 363.793 185.227C363.579 185.227 363.375 185.283 363.18 185.394C362.985 185.496 362.799 185.659 362.623 185.882C362.455 186.105 362.298 186.379 362.149 186.704L360.394 185.756C360.589 185.218 360.863 184.744 361.216 184.336C361.578 183.918 362 183.597 362.483 183.374C362.966 183.142 363.482 183.026 364.03 183.026C364.605 183.035 365.125 183.161 365.59 183.402C366.054 183.634 366.421 183.964 366.69 184.391C366.969 184.809 367.108 185.301 367.108 185.868C367.108 186.063 367.085 186.267 367.038 186.481C366.992 186.694 366.922 186.917 366.829 187.149C366.737 187.372 366.611 187.614 366.453 187.874C366.305 188.124 366.124 188.389 365.91 188.668C365.696 188.946 365.446 189.244 365.158 189.559L362.943 191.969L362.664 190.91H367.54V193H360.853ZM371.591 193.098C370.858 193.098 370.189 192.949 369.586 192.652C368.991 192.355 368.499 191.927 368.109 191.37L369.377 189.977C369.757 190.395 370.11 190.683 370.435 190.841C370.76 190.989 371.122 191.064 371.522 191.064C371.819 191.064 372.084 191.003 372.316 190.883C372.548 190.762 372.729 190.595 372.859 190.381C372.998 190.158 373.068 189.912 373.068 189.643C373.068 189.364 372.998 189.118 372.859 188.905C372.729 188.682 372.548 188.505 372.316 188.375C372.093 188.245 371.833 188.18 371.536 188.18C371.322 188.18 371.122 188.199 370.937 188.236C370.751 188.273 370.551 188.338 370.338 188.431C370.133 188.515 369.887 188.64 369.599 188.807L368.596 187.47L369.195 183.165H374.795V185.157H370.324L370.937 184.377L370.477 187.47L369.641 187.191C369.818 187.033 370.031 186.894 370.282 186.773C370.542 186.653 370.821 186.555 371.118 186.481C371.415 186.397 371.712 186.355 372.009 186.355C372.622 186.355 373.17 186.499 373.653 186.787C374.145 187.066 374.535 187.456 374.823 187.957C375.111 188.459 375.255 189.035 375.255 189.685C375.255 190.325 375.093 190.906 374.767 191.426C374.442 191.937 374.006 192.345 373.458 192.652C372.91 192.949 372.288 193.098 371.591 193.098Z" fill="#05243F"/>
<path opacity="0.4" d="M78.8923 192.108V182.354H83.1005C83.7137 182.354 84.2571 182.493 84.7309 182.772C85.2139 183.05 85.5948 183.431 85.8735 183.914C86.1615 184.397 86.3055 184.941 86.3055 185.545C86.3055 186.176 86.1615 186.743 85.8735 187.245C85.5948 187.737 85.2139 188.127 84.7309 188.415C84.2571 188.703 83.7137 188.847 83.1005 188.847H81.2612V192.108H78.8923ZM81.2194 186.771H82.7661C82.9705 186.771 83.1563 186.72 83.3235 186.618C83.4907 186.515 83.6254 186.376 83.7276 186.2C83.8298 186.023 83.8809 185.819 83.8809 185.586C83.8809 185.345 83.8298 185.141 83.7276 184.973C83.6254 184.806 83.4907 184.676 83.3235 184.583C83.1563 184.49 82.9705 184.444 82.7661 184.444H81.2194V186.771ZM91.271 192.247C90.4535 192.247 89.7429 192.085 89.139 191.76C88.5352 191.425 88.0661 190.975 87.7316 190.408C87.3972 189.832 87.23 189.177 87.23 188.443C87.23 187.876 87.3229 187.356 87.5087 186.882C87.6945 186.409 87.9546 186 88.289 185.656C88.6234 185.303 89.0183 185.034 89.4735 184.848C89.9379 184.653 90.4442 184.555 90.9923 184.555C91.5126 184.555 91.9863 184.648 92.4137 184.834C92.8503 185.02 93.2265 185.28 93.5424 185.614C93.8582 185.949 94.0998 186.344 94.267 186.799C94.4342 187.254 94.5085 187.751 94.4899 188.29L94.476 188.889H88.5816L88.2611 187.635H92.6645L92.4276 187.9V187.621C92.409 187.389 92.3347 187.184 92.2046 187.008C92.0839 186.822 91.9213 186.678 91.7169 186.576C91.5126 186.474 91.2803 186.423 91.0202 186.423C90.6579 186.423 90.3467 186.497 90.0866 186.646C89.8358 186.785 89.6453 186.994 89.5153 187.273C89.3852 187.542 89.3202 187.876 89.3202 188.276C89.3202 188.685 89.4038 189.042 89.571 189.349C89.7475 189.646 89.9983 189.878 90.3235 190.046C90.6579 190.213 91.0527 190.296 91.5079 190.296C91.8238 190.296 92.1025 190.25 92.344 190.157C92.5948 190.064 92.8642 189.906 93.1522 189.683L94.1973 191.16C93.9093 191.411 93.6028 191.616 93.2776 191.773C92.9525 191.931 92.618 192.048 92.2743 192.122C91.9399 192.205 91.6055 192.247 91.271 192.247ZM95.9104 192.108V184.709H98.0285L98.126 187.119L97.708 186.659C97.8194 186.26 98.0006 185.902 98.2514 185.586C98.5115 185.271 98.8134 185.02 99.1572 184.834C99.5009 184.648 99.8678 184.555 100.258 184.555C100.425 184.555 100.578 184.569 100.718 184.597C100.866 184.625 101.001 184.658 101.122 184.695L100.509 187.161C100.407 187.096 100.267 187.045 100.091 187.008C99.9236 186.961 99.7471 186.938 99.5613 186.938C99.3569 186.938 99.1665 186.975 98.9899 187.05C98.8134 187.115 98.6648 187.212 98.544 187.342C98.4233 187.472 98.3257 187.626 98.2514 187.802C98.1864 187.979 98.1539 188.178 98.1539 188.401V192.108H95.9104ZM104.746 192.247C104.021 192.247 103.38 192.131 102.823 191.899C102.275 191.667 101.838 191.355 101.513 190.965L102.865 189.795C103.153 190.083 103.478 190.296 103.84 190.436C104.203 190.566 104.546 190.631 104.871 190.631C105.002 190.631 105.118 190.617 105.22 190.589C105.322 190.561 105.406 190.524 105.471 190.478C105.545 190.422 105.601 190.361 105.638 190.296C105.675 190.222 105.694 190.138 105.694 190.046C105.694 189.86 105.61 189.716 105.443 189.614C105.359 189.567 105.22 189.511 105.025 189.446C104.83 189.381 104.579 189.307 104.272 189.223C103.836 189.112 103.455 188.982 103.13 188.833C102.814 188.675 102.554 188.494 102.349 188.29C102.163 188.095 102.019 187.881 101.917 187.649C101.815 187.407 101.764 187.138 101.764 186.841C101.764 186.497 101.843 186.186 102.001 185.907C102.168 185.628 102.386 185.387 102.656 185.182C102.935 184.978 103.25 184.825 103.603 184.723C103.966 184.611 104.337 184.555 104.718 184.555C105.127 184.555 105.517 184.602 105.889 184.695C106.26 184.788 106.604 184.918 106.92 185.085C107.245 185.252 107.533 185.452 107.784 185.684L106.613 186.994C106.446 186.836 106.256 186.697 106.042 186.576C105.838 186.446 105.624 186.344 105.401 186.269C105.178 186.195 104.974 186.158 104.788 186.158C104.648 186.158 104.523 186.172 104.412 186.2C104.309 186.218 104.221 186.255 104.147 186.311C104.073 186.358 104.017 186.418 103.98 186.492C103.942 186.557 103.924 186.636 103.924 186.729C103.924 186.822 103.947 186.91 103.994 186.994C104.049 187.078 104.124 187.147 104.217 187.203C104.309 187.259 104.458 187.324 104.662 187.398C104.867 187.463 105.146 187.547 105.499 187.649C105.935 187.77 106.311 187.904 106.627 188.053C106.943 188.202 107.194 188.378 107.38 188.582C107.528 188.74 107.64 188.926 107.714 189.14C107.788 189.344 107.826 189.567 107.826 189.809C107.826 190.282 107.691 190.705 107.421 191.077C107.161 191.439 106.799 191.727 106.335 191.941C105.87 192.145 105.341 192.247 104.746 192.247ZM112.635 192.247C111.864 192.247 111.176 192.08 110.572 191.746C109.978 191.411 109.504 190.956 109.151 190.38C108.807 189.804 108.635 189.144 108.635 188.401C108.635 187.658 108.807 186.999 109.151 186.423C109.504 185.847 109.978 185.391 110.572 185.057C111.176 184.723 111.864 184.555 112.635 184.555C113.406 184.555 114.089 184.723 114.683 185.057C115.287 185.391 115.761 185.847 116.104 186.423C116.448 186.999 116.62 187.658 116.62 188.401C116.62 189.144 116.448 189.804 116.104 190.38C115.761 190.956 115.287 191.411 114.683 191.746C114.089 192.08 113.406 192.247 112.635 192.247ZM112.635 190.324C112.969 190.324 113.266 190.241 113.527 190.073C113.787 189.906 113.991 189.679 114.14 189.391C114.288 189.103 114.358 188.773 114.349 188.401C114.358 188.03 114.288 187.7 114.14 187.412C113.991 187.115 113.787 186.882 113.527 186.715C113.266 186.548 112.969 186.464 112.635 186.464C112.3 186.464 111.998 186.548 111.729 186.715C111.469 186.882 111.264 187.115 111.116 187.412C110.967 187.7 110.897 188.03 110.907 188.401C110.897 188.773 110.967 189.103 111.116 189.391C111.264 189.679 111.469 189.906 111.729 190.073C111.998 190.241 112.3 190.324 112.635 190.324ZM118.078 192.108V184.709H120.196L120.266 186.214L119.82 186.381C119.922 186.046 120.103 185.744 120.363 185.475C120.633 185.196 120.953 184.973 121.325 184.806C121.696 184.639 122.086 184.555 122.495 184.555C123.053 184.555 123.522 184.671 123.903 184.904C124.283 185.127 124.571 185.466 124.767 185.921C124.962 186.367 125.059 186.915 125.059 187.565V192.108H122.816V187.746C122.816 187.449 122.774 187.203 122.69 187.008C122.607 186.813 122.477 186.669 122.3 186.576C122.133 186.474 121.924 186.427 121.673 186.437C121.478 186.437 121.297 186.469 121.13 186.534C120.962 186.59 120.818 186.678 120.698 186.799C120.577 186.91 120.479 187.04 120.405 187.189C120.34 187.338 120.307 187.5 120.307 187.677V192.108H119.207C118.946 192.108 118.724 192.108 118.538 192.108C118.352 192.108 118.199 192.108 118.078 192.108ZM129.654 192.233C129.032 192.233 128.475 192.071 127.982 191.746C127.499 191.411 127.114 190.956 126.826 190.38C126.538 189.795 126.394 189.135 126.394 188.401C126.394 187.649 126.538 186.985 126.826 186.409C127.114 185.833 127.508 185.382 128.01 185.057C128.512 184.723 129.083 184.555 129.724 184.555C130.077 184.555 130.398 184.606 130.685 184.709C130.983 184.811 131.243 184.955 131.466 185.141C131.689 185.317 131.879 185.526 132.037 185.768C132.195 186 132.311 186.251 132.386 186.52L131.926 186.464V184.709H134.141V192.108H131.884V190.324L132.386 190.31C132.311 190.57 132.19 190.817 132.023 191.049C131.856 191.281 131.652 191.485 131.41 191.662C131.169 191.839 130.899 191.978 130.602 192.08C130.305 192.182 129.989 192.233 129.654 192.233ZM130.267 190.352C130.611 190.352 130.908 190.273 131.159 190.115C131.41 189.957 131.605 189.734 131.745 189.446C131.884 189.149 131.954 188.801 131.954 188.401C131.954 188.002 131.884 187.658 131.745 187.37C131.605 187.073 131.41 186.845 131.159 186.687C130.908 186.52 130.611 186.437 130.267 186.437C129.933 186.437 129.64 186.52 129.39 186.687C129.148 186.845 128.958 187.073 128.818 187.37C128.679 187.658 128.609 188.002 128.609 188.401C128.609 188.801 128.679 189.149 128.818 189.446C128.958 189.734 129.148 189.957 129.39 190.115C129.64 190.273 129.933 190.352 130.267 190.352ZM136.123 192.108V181.796H138.352V192.108H136.123ZM140.466 192.108V184.709H142.696V192.108H140.466ZM141.581 183.245C141.163 183.245 140.833 183.148 140.592 182.953C140.359 182.748 140.243 182.46 140.243 182.089C140.243 181.754 140.364 181.48 140.605 181.267C140.847 181.053 141.172 180.946 141.581 180.946C141.999 180.946 142.324 181.048 142.556 181.253C142.789 181.448 142.905 181.727 142.905 182.089C142.905 182.433 142.784 182.711 142.542 182.925C142.31 183.139 141.99 183.245 141.581 183.245ZM144.498 192.108V190.826L148.427 185.782V186.52H144.498V184.709H150.629V186.046L146.909 190.937L146.853 190.296H150.755V192.108H144.498ZM155.841 192.247C155.024 192.247 154.313 192.085 153.709 191.76C153.105 191.425 152.636 190.975 152.302 190.408C151.967 189.832 151.8 189.177 151.8 188.443C151.8 187.876 151.893 187.356 152.079 186.882C152.265 186.409 152.525 186 152.859 185.656C153.194 185.303 153.588 185.034 154.044 184.848C154.508 184.653 155.014 184.555 155.563 184.555C156.083 184.555 156.557 184.648 156.984 184.834C157.42 185.02 157.797 185.28 158.113 185.614C158.428 185.949 158.67 186.344 158.837 186.799C159.004 187.254 159.079 187.751 159.06 188.29L159.046 188.889H153.152L152.831 187.635H157.235L156.998 187.9V187.621C156.979 187.389 156.905 187.184 156.775 187.008C156.654 186.822 156.492 186.678 156.287 186.576C156.083 186.474 155.851 186.423 155.59 186.423C155.228 186.423 154.917 186.497 154.657 186.646C154.406 186.785 154.216 186.994 154.085 187.273C153.955 187.542 153.89 187.876 153.89 188.276C153.89 188.685 153.974 189.042 154.141 189.349C154.318 189.646 154.569 189.878 154.894 190.046C155.228 190.213 155.623 190.296 156.078 190.296C156.394 190.296 156.673 190.25 156.914 190.157C157.165 190.064 157.434 189.906 157.722 189.683L158.768 191.16C158.48 191.411 158.173 191.616 157.848 191.773C157.523 191.931 157.188 192.048 156.845 192.122C156.51 192.205 156.176 192.247 155.841 192.247ZM163.281 192.261C162.64 192.261 162.069 192.099 161.568 191.773C161.075 191.439 160.685 190.984 160.397 190.408C160.109 189.823 159.965 189.158 159.965 188.415C159.965 187.672 160.109 187.012 160.397 186.437C160.685 185.851 161.08 185.391 161.581 185.057C162.083 184.723 162.659 184.555 163.309 184.555C163.644 184.555 163.964 184.606 164.271 184.709C164.577 184.811 164.856 184.95 165.107 185.127C165.358 185.303 165.562 185.508 165.72 185.74C165.878 185.963 165.971 186.195 165.999 186.437L165.469 186.562V181.796H167.713V192.108H165.636L165.511 190.422L165.957 190.491C165.929 190.724 165.836 190.947 165.678 191.16C165.53 191.374 165.335 191.564 165.093 191.732C164.851 191.89 164.573 192.015 164.257 192.108C163.95 192.21 163.625 192.261 163.281 192.261ZM163.853 190.408C164.197 190.408 164.494 190.324 164.745 190.157C164.995 189.99 165.186 189.758 165.316 189.46C165.455 189.163 165.525 188.815 165.525 188.415C165.525 188.006 165.455 187.653 165.316 187.356C165.186 187.059 164.995 186.827 164.745 186.659C164.494 186.492 164.197 186.409 163.853 186.409C163.509 186.409 163.212 186.492 162.961 186.659C162.719 186.827 162.529 187.059 162.39 187.356C162.25 187.653 162.181 188.006 162.181 188.415C162.181 188.815 162.25 189.163 162.39 189.46C162.529 189.758 162.719 189.99 162.961 190.157C163.212 190.324 163.509 190.408 163.853 190.408ZM177.531 192.247C176.89 192.247 176.31 192.173 175.789 192.024C175.278 191.866 174.823 191.643 174.424 191.355C174.024 191.058 173.667 190.71 173.351 190.31L174.786 188.68C175.251 189.302 175.715 189.72 176.18 189.934C176.653 190.148 177.141 190.255 177.643 190.255C177.893 190.255 178.121 190.222 178.325 190.157C178.53 190.092 178.688 189.999 178.799 189.878C178.911 189.748 178.966 189.59 178.966 189.405C178.966 189.265 178.929 189.14 178.855 189.028C178.79 188.917 178.697 188.819 178.576 188.736C178.455 188.652 178.312 188.578 178.144 188.513C177.977 188.438 177.801 188.378 177.615 188.332C177.429 188.276 177.239 188.229 177.043 188.192C176.505 188.072 176.036 187.923 175.636 187.746C175.237 187.57 174.902 187.356 174.633 187.105C174.373 186.845 174.178 186.553 174.048 186.227C173.917 185.893 173.852 185.521 173.852 185.113C173.852 184.676 173.95 184.277 174.145 183.914C174.349 183.543 174.619 183.227 174.953 182.967C175.297 182.697 175.692 182.493 176.138 182.354C176.584 182.205 177.048 182.131 177.531 182.131C178.172 182.131 178.72 182.2 179.175 182.34C179.64 182.47 180.035 182.66 180.36 182.911C180.694 183.162 180.978 183.464 181.21 183.817L179.747 185.224C179.552 184.983 179.338 184.783 179.106 184.625C178.883 184.467 178.641 184.346 178.381 184.263C178.13 184.179 177.87 184.137 177.601 184.137C177.322 184.137 177.081 184.174 176.876 184.249C176.681 184.314 176.528 184.411 176.416 184.541C176.305 184.662 176.249 184.811 176.249 184.987C176.249 185.145 176.296 185.28 176.389 185.391C176.481 185.503 176.607 185.605 176.765 185.698C176.923 185.782 177.104 185.856 177.308 185.921C177.513 185.977 177.726 186.023 177.949 186.06C178.46 186.162 178.92 186.297 179.329 186.464C179.747 186.632 180.104 186.836 180.402 187.078C180.708 187.319 180.941 187.607 181.098 187.941C181.266 188.267 181.349 188.647 181.349 189.084C181.349 189.762 181.182 190.338 180.848 190.812C180.522 191.276 180.072 191.634 179.496 191.885C178.929 192.126 178.274 192.247 177.531 192.247ZM185.415 192.261C184.867 192.261 184.398 192.145 184.008 191.913C183.627 191.671 183.33 191.328 183.116 190.882C182.912 190.436 182.809 189.902 182.809 189.279V184.709H185.053V188.973C185.053 189.27 185.099 189.525 185.192 189.739C185.285 189.953 185.425 190.12 185.61 190.241C185.796 190.352 186.019 190.408 186.279 190.408C186.474 190.408 186.651 190.375 186.809 190.31C186.976 190.245 187.115 190.157 187.227 190.046C187.348 189.925 187.44 189.79 187.505 189.641C187.57 189.484 187.603 189.312 187.603 189.126V184.709H189.846V192.108H187.742L187.645 190.589L188.063 190.422C187.951 190.775 187.766 191.091 187.505 191.369C187.245 191.639 186.934 191.857 186.572 192.024C186.21 192.182 185.824 192.261 185.415 192.261ZM191.834 195.174V184.709H193.952L194.035 186.367L193.617 186.241C193.682 185.935 193.84 185.656 194.091 185.405C194.342 185.155 194.658 184.955 195.039 184.806C195.429 184.648 195.837 184.569 196.265 184.569C196.896 184.569 197.459 184.736 197.951 185.071C198.443 185.396 198.829 185.847 199.107 186.423C199.395 186.989 199.539 187.649 199.539 188.401C199.539 189.144 199.395 189.804 199.107 190.38C198.829 190.956 198.439 191.411 197.937 191.746C197.445 192.071 196.878 192.233 196.237 192.233C195.819 192.233 195.419 192.154 195.039 191.996C194.658 191.839 194.337 191.625 194.077 191.355C193.817 191.086 193.645 190.793 193.561 190.478L194.077 190.282V195.174H191.834ZM195.693 190.352C196.028 190.352 196.321 190.273 196.571 190.115C196.822 189.948 197.017 189.72 197.157 189.432C197.296 189.144 197.366 188.801 197.366 188.401C197.366 188.011 197.296 187.672 197.157 187.384C197.017 187.087 196.822 186.859 196.571 186.701C196.33 186.534 196.037 186.45 195.693 186.45C195.35 186.45 195.052 186.529 194.802 186.687C194.551 186.845 194.356 187.073 194.216 187.37C194.077 187.667 194.007 188.011 194.007 188.401C194.007 188.801 194.077 189.144 194.216 189.432C194.356 189.72 194.551 189.948 194.802 190.115C195.052 190.273 195.35 190.352 195.693 190.352ZM201.019 195.174V184.709H203.137L203.221 186.367L202.803 186.241C202.868 185.935 203.026 185.656 203.276 185.405C203.527 185.155 203.843 184.955 204.224 184.806C204.614 184.648 205.023 184.569 205.45 184.569C206.082 184.569 206.644 184.736 207.136 185.071C207.629 185.396 208.014 185.847 208.293 186.423C208.581 186.989 208.725 187.649 208.725 188.401C208.725 189.144 208.581 189.804 208.293 190.38C208.014 190.956 207.624 191.411 207.122 191.746C206.63 192.071 206.063 192.233 205.422 192.233C205.004 192.233 204.605 192.154 204.224 191.996C203.843 191.839 203.523 191.625 203.262 191.355C203.002 191.086 202.83 190.793 202.747 190.478L203.262 190.282V195.174H201.019ZM204.879 190.352C205.213 190.352 205.506 190.273 205.757 190.115C206.008 189.948 206.203 189.72 206.342 189.432C206.481 189.144 206.551 188.801 206.551 188.401C206.551 188.011 206.481 187.672 206.342 187.384C206.203 187.087 206.008 186.859 205.757 186.701C205.515 186.534 205.223 186.45 204.879 186.45C204.535 186.45 204.238 186.529 203.987 186.687C203.736 186.845 203.541 187.073 203.402 187.37C203.262 187.667 203.193 188.011 203.193 188.401C203.193 188.801 203.262 189.144 203.402 189.432C203.541 189.72 203.736 189.948 203.987 190.115C204.238 190.273 204.535 190.352 204.879 190.352ZM213.688 192.247C212.917 192.247 212.23 192.08 211.626 191.746C211.031 191.411 210.557 190.956 210.204 190.38C209.861 189.804 209.689 189.144 209.689 188.401C209.689 187.658 209.861 186.999 210.204 186.423C210.557 185.847 211.031 185.391 211.626 185.057C212.23 184.723 212.917 184.555 213.688 184.555C214.459 184.555 215.142 184.723 215.736 185.057C216.34 185.391 216.814 185.847 217.158 186.423C217.502 186.999 217.673 187.658 217.673 188.401C217.673 189.144 217.502 189.804 217.158 190.38C216.814 190.956 216.34 191.411 215.736 191.746C215.142 192.08 214.459 192.247 213.688 192.247ZM213.688 190.324C214.023 190.324 214.32 190.241 214.58 190.073C214.84 189.906 215.044 189.679 215.193 189.391C215.342 189.103 215.411 188.773 215.402 188.401C215.411 188.03 215.342 187.7 215.193 187.412C215.044 187.115 214.84 186.882 214.58 186.715C214.32 186.548 214.023 186.464 213.688 186.464C213.354 186.464 213.052 186.548 212.782 186.715C212.522 186.882 212.318 187.115 212.169 187.412C212.021 187.7 211.951 188.03 211.96 188.401C211.951 188.773 212.021 189.103 212.169 189.391C212.318 189.679 212.522 189.906 212.782 190.073C213.052 190.241 213.354 190.324 213.688 190.324ZM219.131 192.108V184.709H221.249L221.347 187.119L220.929 186.659C221.04 186.26 221.222 185.902 221.472 185.586C221.732 185.271 222.034 185.02 222.378 184.834C222.722 184.648 223.089 184.555 223.479 184.555C223.646 184.555 223.799 184.569 223.939 184.597C224.087 184.625 224.222 184.658 224.343 184.695L223.73 187.161C223.628 187.096 223.488 187.045 223.312 187.008C223.144 186.961 222.968 186.938 222.782 186.938C222.578 186.938 222.387 186.975 222.211 187.05C222.034 187.115 221.886 187.212 221.765 187.342C221.644 187.472 221.547 187.626 221.472 187.802C221.407 187.979 221.375 188.178 221.375 188.401V192.108H219.131ZM226.358 192.108V182.841H228.587V192.108H226.358ZM225.048 186.659V184.709H230.023V186.659H225.048Z" fill="#05243F"/>
</svg>
