<svg width="465" height="217" viewBox="0 0 465 217" fill="none" xmlns="http://www.w3.org/2000/svg">
<rect x="-0.00390625" y="0.18457" width="464.174" height="74.8188" rx="20" fill="white"/>
<path d="M35.0567 44.0938V31.4937H40.3307C41.2547 31.4937 42.1007 31.6497 42.8687 31.9617C43.6367 32.2617 44.2967 32.6937 44.8487 33.2577C45.4127 33.8217 45.8447 34.4877 46.1447 35.2557C46.4447 36.0237 46.5947 36.8697 46.5947 37.7937C46.5947 38.7177 46.4447 39.5697 46.1447 40.3497C45.8447 41.1177 45.4127 41.7837 44.8487 42.3477C44.2967 42.8997 43.6367 43.3317 42.8687 43.6437C42.1007 43.9437 41.2547 44.0938 40.3307 44.0938H35.0567ZM38.1167 42.0057L37.7027 41.3937H40.2407C40.7447 41.3937 41.1947 41.3097 41.5907 41.1417C41.9867 40.9617 42.3227 40.7157 42.5987 40.4037C42.8867 40.0917 43.1087 39.7137 43.2647 39.2697C43.4207 38.8257 43.4987 38.3337 43.4987 37.7937C43.4987 37.2537 43.4207 36.7617 43.2647 36.3177C43.1087 35.8737 42.8867 35.4957 42.5987 35.1837C42.3227 34.8717 41.9867 34.6317 41.5907 34.4637C41.1947 34.2837 40.7447 34.1937 40.2407 34.1937H37.6487L38.1167 33.6177V42.0057ZM48.655 44.0938V34.5357H51.391L51.517 37.6497L50.977 37.0557C51.121 36.5397 51.355 36.0777 51.679 35.6697C52.015 35.2617 52.405 34.9377 52.849 34.6977C53.293 34.4577 53.767 34.3377 54.271 34.3377C54.487 34.3377 54.685 34.3557 54.865 34.3917C55.057 34.4277 55.231 34.4697 55.387 34.5177L54.595 37.7037C54.463 37.6197 54.283 37.5537 54.055 37.5057C53.839 37.4457 53.611 37.4157 53.371 37.4157C53.107 37.4157 52.861 37.4637 52.633 37.5597C52.405 37.6437 52.213 37.7697 52.057 37.9377C51.901 38.1057 51.775 38.3037 51.679 38.5317C51.595 38.7597 51.553 39.0177 51.553 39.3057V44.0938H48.655ZM57.0084 44.0938V34.5357H59.8884V44.0938H57.0084ZM58.4484 32.6457C57.9084 32.6457 57.4824 32.5197 57.1704 32.2677C56.8704 32.0037 56.7204 31.6317 56.7204 31.1517C56.7204 30.7197 56.8764 30.3657 57.1884 30.0897C57.5004 29.8137 57.9204 29.6757 58.4484 29.6757C58.9884 29.6757 59.4084 29.8077 59.7084 30.0717C60.0084 30.3237 60.1584 30.6837 60.1584 31.1517C60.1584 31.5957 60.0024 31.9557 59.6904 32.2317C59.3904 32.5077 58.9764 32.6457 58.4484 32.6457ZM65.5284 44.0938L61.5324 34.5357H64.7184L67.0944 41.6817L66.3924 41.7537L68.8404 34.5357H71.9904L67.7964 44.0938H65.5284ZM73.6548 44.0938V34.5357H76.5348V44.0938H73.6548ZM75.0948 32.6457C74.5548 32.6457 74.1288 32.5197 73.8168 32.2677C73.5168 32.0037 73.3668 31.6317 73.3668 31.1517C73.3668 30.7197 73.5228 30.3657 73.8348 30.0897C74.1468 29.8137 74.5668 29.6757 75.0948 29.6757C75.6348 29.6757 76.0548 29.8077 76.3548 30.0717C76.6548 30.3237 76.8048 30.6837 76.8048 31.1517C76.8048 31.5957 76.6488 31.9557 76.3368 32.2317C76.0368 32.5077 75.6228 32.6457 75.0948 32.6457ZM79.2409 44.0938V34.5357H81.9769L82.0669 36.4797L81.4909 36.6957C81.6229 36.2637 81.8569 35.8737 82.1929 35.5257C82.5409 35.1657 82.9549 34.8777 83.4349 34.6617C83.9149 34.4457 84.4189 34.3377 84.9469 34.3377C85.6669 34.3377 86.2729 34.4877 86.7649 34.7877C87.2569 35.0757 87.6289 35.5137 87.8809 36.1017C88.1329 36.6777 88.2589 37.3857 88.2589 38.2257V44.0938H85.3609V38.4597C85.3609 38.0757 85.3069 37.7577 85.1989 37.5057C85.0909 37.2537 84.9229 37.0677 84.6949 36.9477C84.4789 36.8157 84.2089 36.7557 83.8849 36.7677C83.6329 36.7677 83.3989 36.8097 83.1829 36.8937C82.9669 36.9657 82.7809 37.0797 82.6249 37.2357C82.4689 37.3797 82.3429 37.5477 82.2469 37.7397C82.1629 37.9317 82.1209 38.1417 82.1209 38.3697V44.0938H80.6989C80.3629 44.0938 80.0749 44.0938 79.8349 44.0938C79.5949 44.0938 79.3969 44.0938 79.2409 44.0938ZM95.0407 48.2338C94.2607 48.2338 93.4807 48.1198 92.7007 47.8918C91.9327 47.6638 91.3087 47.3698 90.8287 47.0098L91.8367 44.9938C92.0887 45.1618 92.3647 45.3058 92.6647 45.4258C92.9767 45.5578 93.3007 45.6598 93.6367 45.7318C93.9727 45.8038 94.3147 45.8398 94.6627 45.8398C95.2747 45.8398 95.7727 45.7498 96.1567 45.5698C96.5407 45.3898 96.8287 45.1138 97.0207 44.7418C97.2127 44.3818 97.3087 43.9257 97.3087 43.3737V41.7717L97.8667 41.8617C97.7827 42.2577 97.5727 42.6177 97.2367 42.9417C96.9127 43.2657 96.5107 43.5297 96.0307 43.7337C95.5507 43.9257 95.0407 44.0217 94.5007 44.0217C93.6367 44.0217 92.8627 43.8237 92.1787 43.4277C91.5067 43.0197 90.9727 42.4617 90.5767 41.7537C90.1927 41.0337 90.0007 40.2057 90.0007 39.2697C90.0007 38.3097 90.1927 37.4637 90.5767 36.7317C90.9607 35.9877 91.4887 35.4057 92.1607 34.9857C92.8327 34.5537 93.5887 34.3377 94.4287 34.3377C94.7887 34.3377 95.1307 34.3797 95.4547 34.4637C95.7907 34.5477 96.0967 34.6617 96.3727 34.8057C96.6607 34.9377 96.9127 35.0997 97.1287 35.2917C97.3567 35.4717 97.5367 35.6697 97.6687 35.8857C97.8127 36.1017 97.9087 36.3237 97.9567 36.5517L97.3627 36.6957L97.4707 34.5357H100.207V43.3197C100.207 44.0998 100.087 44.7898 99.8467 45.3898C99.6187 46.0018 99.2767 46.5178 98.8207 46.9378C98.3767 47.3698 97.8367 47.6938 97.2007 47.9098C96.5647 48.1258 95.8447 48.2338 95.0407 48.2338ZM95.1127 41.7897C95.5807 41.7897 95.9827 41.6877 96.3187 41.4837C96.6667 41.2677 96.9307 40.9737 97.1107 40.6017C97.3027 40.2297 97.3987 39.7917 97.3987 39.2877C97.3987 38.7837 97.3027 38.3457 97.1107 37.9737C96.9307 37.5897 96.6667 37.2957 96.3187 37.0917C95.9827 36.8757 95.5807 36.7677 95.1127 36.7677C94.6567 36.7677 94.2607 36.8757 93.9247 37.0917C93.5887 37.2957 93.3247 37.5897 93.1327 37.9737C92.9527 38.3457 92.8627 38.7837 92.8627 39.2877C92.8627 39.7917 92.9527 40.2297 93.1327 40.6017C93.3247 40.9737 93.5887 41.2677 93.9247 41.4837C94.2607 41.6877 94.6567 41.7897 95.1127 41.7897ZM114.503 44.2738C113.555 44.2738 112.679 44.1178 111.875 43.8057C111.083 43.4817 110.393 43.0317 109.805 42.4557C109.217 41.8677 108.761 41.1777 108.437 40.3857C108.125 39.5817 107.969 38.6997 107.969 37.7397C107.969 36.8037 108.137 35.9397 108.473 35.1477C108.809 34.3557 109.271 33.6717 109.859 33.0957C110.459 32.5077 111.161 32.0517 111.965 31.7277C112.781 31.4037 113.669 31.2417 114.629 31.2417C115.229 31.2417 115.817 31.3197 116.393 31.4757C116.969 31.6317 117.503 31.8657 117.995 32.1777C118.499 32.4777 118.931 32.8377 119.291 33.2577L117.419 35.3997C117.167 35.1357 116.897 34.9077 116.609 34.7157C116.333 34.5117 116.027 34.3557 115.691 34.2477C115.355 34.1397 114.995 34.0857 114.611 34.0857C114.131 34.0857 113.675 34.1757 113.243 34.3557C112.823 34.5237 112.451 34.7697 112.127 35.0938C111.815 35.4057 111.569 35.7897 111.389 36.2457C111.209 36.7017 111.119 37.2117 111.119 37.7757C111.119 38.3277 111.209 38.8317 111.389 39.2877C111.569 39.7317 111.821 40.1157 112.145 40.4397C112.469 40.7637 112.859 41.0097 113.315 41.1777C113.783 41.3457 114.299 41.4297 114.863 41.4297C115.247 41.4297 115.613 41.3757 115.961 41.2677C116.309 41.1597 116.627 41.0157 116.915 40.8357C117.215 40.6437 117.479 40.4277 117.707 40.1877L119.183 42.5277C118.883 42.8637 118.481 43.1637 117.977 43.4277C117.485 43.6917 116.933 43.9017 116.321 44.0577C115.721 44.2018 115.115 44.2738 114.503 44.2738ZM125.471 44.2738C124.475 44.2738 123.587 44.0578 122.807 43.6257C122.039 43.1937 121.427 42.6057 120.971 41.8617C120.527 41.1177 120.305 40.2657 120.305 39.3057C120.305 38.3457 120.527 37.4937 120.971 36.7497C121.427 36.0057 122.039 35.4177 122.807 34.9857C123.587 34.5537 124.475 34.3377 125.471 34.3377C126.467 34.3377 127.349 34.5537 128.117 34.9857C128.897 35.4177 129.509 36.0057 129.953 36.7497C130.397 37.4937 130.619 38.3457 130.619 39.3057C130.619 40.2657 130.397 41.1177 129.953 41.8617C129.509 42.6057 128.897 43.1937 128.117 43.6257C127.349 44.0578 126.467 44.2738 125.471 44.2738ZM125.471 41.7897C125.903 41.7897 126.287 41.6817 126.623 41.4657C126.959 41.2497 127.223 40.9557 127.415 40.5837C127.607 40.2117 127.697 39.7857 127.685 39.3057C127.697 38.8257 127.607 38.3997 127.415 38.0277C127.223 37.6437 126.959 37.3437 126.623 37.1277C126.287 36.9117 125.903 36.8037 125.471 36.8037C125.039 36.8037 124.649 36.9117 124.301 37.1277C123.965 37.3437 123.701 37.6437 123.509 38.0277C123.317 38.3997 123.227 38.8257 123.239 39.3057C123.227 39.7857 123.317 40.2117 123.509 40.5837C123.701 40.9557 123.965 41.2497 124.301 41.4657C124.649 41.6817 125.039 41.7897 125.471 41.7897ZM132.503 44.0938V34.5357H135.239L135.329 36.4797L134.753 36.6957C134.885 36.2637 135.119 35.8737 135.455 35.5257C135.803 35.1657 136.217 34.8777 136.697 34.6617C137.177 34.4457 137.681 34.3377 138.209 34.3377C138.929 34.3377 139.535 34.4877 140.027 34.7877C140.519 35.0757 140.891 35.5137 141.143 36.1017C141.395 36.6777 141.521 37.3857 141.521 38.2257V44.0938H138.623V38.4597C138.623 38.0757 138.569 37.7577 138.461 37.5057C138.353 37.2537 138.185 37.0677 137.957 36.9477C137.741 36.8157 137.471 36.7557 137.147 36.7677C136.895 36.7677 136.661 36.8097 136.445 36.8937C136.229 36.9657 136.043 37.0797 135.887 37.2357C135.731 37.3797 135.605 37.5477 135.509 37.7397C135.425 37.9317 135.383 38.1417 135.383 38.3697V44.0938H133.961C133.625 44.0938 133.337 44.0938 133.097 44.0938C132.857 44.0938 132.659 44.0938 132.503 44.0938ZM147.546 44.2918C146.718 44.2918 145.98 44.0818 145.332 43.6617C144.696 43.2297 144.192 42.6417 143.82 41.8977C143.448 41.1417 143.262 40.2837 143.262 39.3237C143.262 38.3637 143.448 37.5117 143.82 36.7677C144.192 36.0117 144.702 35.4177 145.35 34.9857C145.998 34.5537 146.742 34.3377 147.582 34.3377C148.014 34.3377 148.428 34.4037 148.824 34.5357C149.22 34.6677 149.58 34.8477 149.904 35.0757C150.228 35.3037 150.492 35.5677 150.696 35.8677C150.9 36.1557 151.02 36.4557 151.056 36.7677L150.372 36.9297V30.7737H153.27V44.0938H150.588L150.426 41.9157L151.002 42.0057C150.966 42.3057 150.846 42.5937 150.642 42.8697C150.45 43.1457 150.198 43.3917 149.886 43.6077C149.574 43.8117 149.214 43.9737 148.806 44.0938C148.41 44.2258 147.99 44.2918 147.546 44.2918ZM148.284 41.8977C148.728 41.8977 149.112 41.7897 149.436 41.5737C149.76 41.3577 150.006 41.0577 150.174 40.6737C150.354 40.2897 150.444 39.8397 150.444 39.3237C150.444 38.7957 150.354 38.3397 150.174 37.9557C150.006 37.5717 149.76 37.2717 149.436 37.0557C149.112 36.8397 148.728 36.7317 148.284 36.7317C147.84 36.7317 147.456 36.8397 147.132 37.0557C146.82 37.2717 146.574 37.5717 146.394 37.9557C146.214 38.3397 146.124 38.7957 146.124 39.3237C146.124 39.8397 146.214 40.2897 146.394 40.6737C146.574 41.0577 146.82 41.3577 147.132 41.5737C147.456 41.7897 147.84 41.8977 148.284 41.8977ZM159.245 44.2918C158.537 44.2918 157.931 44.1418 157.427 43.8417C156.935 43.5297 156.551 43.0857 156.275 42.5097C156.011 41.9337 155.879 41.2437 155.879 40.4397V34.5357H158.777V40.0437C158.777 40.4277 158.837 40.7577 158.957 41.0337C159.077 41.3097 159.257 41.5257 159.497 41.6817C159.737 41.8257 160.025 41.8977 160.361 41.8977C160.613 41.8977 160.841 41.8557 161.045 41.7717C161.261 41.6877 161.441 41.5737 161.585 41.4297C161.741 41.2737 161.861 41.0997 161.945 40.9077C162.029 40.7037 162.071 40.4817 162.071 40.2417V34.5357H164.969V44.0938H162.251L162.125 42.1317L162.665 41.9157C162.521 42.3717 162.281 42.7797 161.945 43.1397C161.609 43.4877 161.207 43.7697 160.739 43.9857C160.271 44.1898 159.773 44.2918 159.245 44.2918ZM171.73 44.2738C170.806 44.2738 169.978 44.0578 169.246 43.6257C168.514 43.1937 167.932 42.6057 167.5 41.8617C167.08 41.1057 166.87 40.2537 166.87 39.3057C166.87 38.3577 167.08 37.5117 167.5 36.7677C167.932 36.0117 168.514 35.4177 169.246 34.9857C169.978 34.5537 170.806 34.3377 171.73 34.3377C172.582 34.3377 173.362 34.4877 174.07 34.7877C174.79 35.0877 175.36 35.5077 175.78 36.0477L174.214 37.9197C174.046 37.7277 173.848 37.5477 173.62 37.3797C173.392 37.2117 173.14 37.0797 172.864 36.9837C172.588 36.8877 172.3 36.8397 172 36.8397C171.544 36.8397 171.142 36.9477 170.794 37.1637C170.446 37.3677 170.176 37.6557 169.984 38.0277C169.792 38.3997 169.696 38.8257 169.696 39.3057C169.696 39.7617 169.792 40.1757 169.984 40.5477C170.188 40.9197 170.464 41.2137 170.812 41.4297C171.16 41.6457 171.556 41.7537 172 41.7537C172.312 41.7537 172.6 41.7177 172.864 41.6457C173.128 41.5617 173.368 41.4417 173.584 41.2857C173.812 41.1297 174.022 40.9377 174.214 40.7097L175.762 42.5997C175.354 43.1157 174.784 43.5237 174.052 43.8237C173.332 44.1238 172.558 44.2738 171.73 44.2738ZM178.136 44.0938V32.1237H181.016V44.0938H178.136ZM176.444 37.0557V34.5357H182.87V37.0557H176.444Z" fill="#05243F"/>
<path d="M326.291 36.496L316.594 26.7985C316.45 26.6543 316.279 26.54 316.09 26.4619C315.902 26.3839 315.7 26.3438 315.496 26.3438C315.292 26.3438 315.09 26.3839 314.902 26.4619C314.714 26.54 314.543 26.6543 314.398 26.7985L304.701 36.496C304.557 36.6402 304.442 36.8113 304.364 36.9997C304.286 37.188 304.246 37.3899 304.246 37.5938C304.246 37.7977 304.286 37.9996 304.364 38.1879C304.442 38.3763 304.557 38.5475 304.701 38.6916L314.398 48.3891C314.543 48.5333 314.714 48.6477 314.902 48.7257C315.09 48.8037 315.292 48.8439 315.496 48.8439C315.7 48.8439 315.902 48.8037 316.09 48.7257C316.279 48.6477 316.45 48.5333 316.594 48.3891L326.291 38.6916C326.436 38.5475 326.55 38.3763 326.628 38.1879C326.706 37.9996 326.746 37.7977 326.746 37.5938C326.746 37.3899 326.706 37.188 326.628 36.9997C326.55 36.8113 326.436 36.6402 326.291 36.496ZM319.777 37.3744L317.527 39.6244C317.386 39.7652 317.195 39.8442 316.996 39.8442C316.797 39.8442 316.606 39.7652 316.466 39.6244C316.325 39.4837 316.246 39.2928 316.246 39.0938C316.246 38.8948 316.325 38.7039 316.466 38.5632L317.436 37.5938H313.996C313.598 37.5938 313.217 37.7518 312.935 38.0331C312.654 38.3145 312.496 38.696 312.496 39.0938V39.8438C312.496 40.0427 312.417 40.2335 312.276 40.3741C312.136 40.5148 311.945 40.5938 311.746 40.5938C311.547 40.5938 311.356 40.5148 311.216 40.3741C311.075 40.2335 310.996 40.0427 310.996 39.8438V39.0938C310.996 38.2982 311.312 37.5351 311.875 36.9725C312.437 36.4099 313.201 36.0938 313.996 36.0938H317.436L316.466 35.1244C316.325 34.9837 316.246 34.7928 316.246 34.5938C316.246 34.3948 316.325 34.2039 316.466 34.0632C316.606 33.9225 316.797 33.8434 316.996 33.8434C317.195 33.8434 317.386 33.9225 317.527 34.0632L319.777 36.3132C319.847 36.3828 319.902 36.4656 319.94 36.5566C319.977 36.6477 319.997 36.7452 319.997 36.8438C319.997 36.9424 319.977 37.04 319.94 37.131C319.902 37.2221 319.847 37.3048 319.777 37.3744Z" fill="#2389E3"/>
<path d="M348.421 45.2938C347.355 45.2938 346.381 45.1138 345.501 44.7537C344.621 44.3937 343.855 43.8871 343.201 43.2337C342.548 42.5804 342.041 41.8137 341.681 40.9337C341.321 40.0537 341.141 39.0871 341.141 38.0337C341.141 36.9804 341.321 36.0137 341.681 35.1337C342.041 34.2537 342.548 33.4871 343.201 32.8337C343.855 32.1804 344.621 31.6737 345.501 31.3137C346.381 30.9537 347.348 30.7737 348.401 30.7737C349.455 30.7737 350.421 30.9537 351.301 31.3137C352.181 31.6737 352.948 32.1804 353.601 32.8337C354.255 33.4871 354.755 34.2537 355.101 35.1337C355.461 36.0137 355.641 36.9804 355.641 38.0337C355.641 39.0737 355.461 40.0404 355.101 40.9337C354.755 41.8137 354.255 42.5804 353.601 43.2337C352.948 43.8871 352.181 44.3937 351.301 44.7537C350.421 45.1138 349.461 45.2938 348.421 45.2938ZM348.401 42.0937C348.948 42.0937 349.448 41.9937 349.901 41.7937C350.368 41.5937 350.768 41.3137 351.101 40.9537C351.448 40.5804 351.715 40.1471 351.901 39.6537C352.088 39.1604 352.181 38.6204 352.181 38.0337C352.181 37.4471 352.088 36.9071 351.901 36.4137C351.715 35.9204 351.448 35.4937 351.101 35.1337C350.768 34.7604 350.368 34.4737 349.901 34.2737C349.448 34.0737 348.948 33.9737 348.401 33.9737C347.855 33.9737 347.348 34.0737 346.881 34.2737C346.428 34.4737 346.028 34.7604 345.681 35.1337C345.335 35.4937 345.068 35.9204 344.881 36.4137C344.708 36.9071 344.621 37.4471 344.621 38.0337C344.621 38.6204 344.708 39.1671 344.881 39.6737C345.068 40.1671 345.335 40.5937 345.681 40.9537C346.028 41.3137 346.428 41.5937 346.881 41.7937C347.348 41.9937 347.855 42.0937 348.401 42.0937ZM358.592 45.0938V33.9537C358.592 33.2604 358.738 32.6337 359.032 32.0737C359.338 31.5137 359.758 31.0737 360.292 30.7537C360.838 30.4204 361.472 30.2537 362.192 30.2537C362.698 30.2537 363.165 30.3271 363.592 30.4737C364.018 30.6204 364.398 30.8271 364.732 31.0937L363.812 33.4337C363.638 33.3404 363.472 33.2671 363.312 33.2137C363.152 33.1604 363.005 33.1337 362.872 33.1337C362.632 33.1337 362.432 33.1737 362.272 33.2537C362.112 33.3337 361.992 33.4604 361.912 33.6337C361.845 33.7937 361.812 33.9937 361.812 34.2337V45.0938H360.212C359.852 45.0938 359.532 45.0938 359.252 45.0938C358.985 45.0938 358.765 45.0938 358.592 45.0938ZM357.052 37.4137V34.7737H363.992V37.4137H357.052ZM366.452 45.0938V33.9537C366.452 33.2604 366.598 32.6337 366.892 32.0737C367.198 31.5137 367.618 31.0737 368.152 30.7537C368.698 30.4204 369.332 30.2537 370.052 30.2537C370.558 30.2537 371.025 30.3271 371.452 30.4737C371.878 30.6204 372.258 30.8271 372.592 31.0937L371.672 33.4337C371.498 33.3404 371.332 33.2671 371.172 33.2137C371.012 33.1604 370.865 33.1337 370.732 33.1337C370.492 33.1337 370.292 33.1737 370.132 33.2537C369.972 33.3337 369.852 33.4604 369.772 33.6337C369.705 33.7937 369.672 33.9937 369.672 34.2337V45.0938H368.072C367.712 45.0938 367.392 45.0938 367.112 45.0938C366.845 45.0938 366.625 45.0938 366.452 45.0938ZM364.912 37.4137V34.7737H371.852V37.4137H364.912ZM378.324 45.2938C377.15 45.2938 376.13 45.0604 375.264 44.5937C374.397 44.1137 373.724 43.4671 373.244 42.6537C372.764 41.8271 372.524 40.8871 372.524 39.8337C372.524 39.0204 372.657 38.2737 372.924 37.5937C373.19 36.9137 373.564 36.3271 374.044 35.8337C374.524 35.3271 375.09 34.9404 375.744 34.6737C376.41 34.3937 377.137 34.2537 377.924 34.2537C378.67 34.2537 379.35 34.3871 379.964 34.6537C380.59 34.9204 381.13 35.2937 381.584 35.7737C382.037 36.2537 382.384 36.8204 382.624 37.4737C382.864 38.1271 382.97 38.8404 382.944 39.6137L382.924 40.4737H374.464L374.004 38.6737H380.324L379.984 39.0537V38.6537C379.957 38.3204 379.85 38.0271 379.664 37.7737C379.49 37.5071 379.257 37.3004 378.964 37.1537C378.67 37.0071 378.337 36.9337 377.964 36.9337C377.444 36.9337 376.997 37.0404 376.624 37.2537C376.264 37.4537 375.99 37.7537 375.804 38.1537C375.617 38.5404 375.524 39.0204 375.524 39.5937C375.524 40.1804 375.644 40.6937 375.884 41.1337C376.137 41.5604 376.497 41.8937 376.964 42.1337C377.444 42.3737 378.01 42.4937 378.664 42.4937C379.117 42.4937 379.517 42.4271 379.864 42.2937C380.224 42.1604 380.61 41.9337 381.024 41.6137L382.524 43.7337C382.11 44.0937 381.67 44.3871 381.204 44.6137C380.737 44.8404 380.257 45.0071 379.764 45.1138C379.284 45.2338 378.804 45.2938 378.324 45.2938ZM384.983 45.0938V34.4737H388.023L388.123 36.6337L387.483 36.8737C387.629 36.3937 387.889 35.9604 388.263 35.5737C388.649 35.1737 389.109 34.8537 389.643 34.6137C390.176 34.3737 390.736 34.2537 391.323 34.2537C392.123 34.2537 392.796 34.4204 393.343 34.7537C393.889 35.0737 394.303 35.5604 394.582 36.2137C394.863 36.8537 395.003 37.6404 395.003 38.5737V45.0938H391.783V38.8337C391.783 38.4071 391.723 38.0537 391.603 37.7737C391.483 37.4937 391.296 37.2871 391.043 37.1537C390.803 37.0071 390.503 36.9404 390.143 36.9537C389.863 36.9537 389.603 37.0004 389.363 37.0937C389.123 37.1737 388.916 37.3004 388.743 37.4737C388.569 37.6337 388.429 37.8204 388.323 38.0337C388.229 38.2471 388.183 38.4804 388.183 38.7337V45.0938H386.603C386.229 45.0938 385.909 45.0938 385.643 45.0938C385.376 45.0938 385.156 45.0938 384.983 45.0938ZM401.258 45.2938C400.218 45.2938 399.298 45.1271 398.498 44.7937C397.711 44.4604 397.084 44.0137 396.618 43.4537L398.558 41.7737C398.971 42.1871 399.438 42.4937 399.958 42.6937C400.478 42.8804 400.971 42.9737 401.438 42.9737C401.624 42.9737 401.791 42.9537 401.938 42.9137C402.084 42.8737 402.204 42.8204 402.298 42.7537C402.404 42.6737 402.484 42.5871 402.538 42.4937C402.591 42.3871 402.618 42.2671 402.618 42.1337C402.618 41.8671 402.498 41.6604 402.258 41.5137C402.138 41.4471 401.938 41.3671 401.658 41.2737C401.378 41.1804 401.018 41.0737 400.578 40.9537C399.951 40.7937 399.404 40.6071 398.938 40.3937C398.484 40.1671 398.111 39.9071 397.818 39.6137C397.551 39.3337 397.344 39.0271 397.198 38.6937C397.051 38.3471 396.978 37.9604 396.978 37.5337C396.978 37.0404 397.091 36.5937 397.318 36.1937C397.558 35.7937 397.871 35.4471 398.258 35.1537C398.658 34.8604 399.111 34.6404 399.618 34.4937C400.138 34.3337 400.671 34.2537 401.218 34.2537C401.804 34.2537 402.364 34.3204 402.898 34.4537C403.431 34.5871 403.924 34.7737 404.378 35.0137C404.844 35.2537 405.258 35.5404 405.618 35.8737L403.938 37.7537C403.698 37.5271 403.424 37.3271 403.118 37.1537C402.824 36.9671 402.518 36.8204 402.198 36.7137C401.878 36.6071 401.584 36.5537 401.318 36.5537C401.118 36.5537 400.938 36.5737 400.778 36.6137C400.631 36.6404 400.504 36.6937 400.398 36.7737C400.291 36.8404 400.211 36.9271 400.158 37.0337C400.104 37.1271 400.078 37.2404 400.078 37.3737C400.078 37.5071 400.111 37.6337 400.178 37.7537C400.258 37.8737 400.364 37.9737 400.498 38.0537C400.631 38.1337 400.844 38.2271 401.138 38.3337C401.431 38.4271 401.831 38.5471 402.338 38.6937C402.964 38.8671 403.504 39.0604 403.958 39.2737C404.411 39.4871 404.771 39.7404 405.038 40.0337C405.251 40.2604 405.411 40.5271 405.518 40.8337C405.624 41.1271 405.678 41.4471 405.678 41.7937C405.678 42.4737 405.484 43.0804 405.098 43.6137C404.724 44.1337 404.204 44.5471 403.538 44.8537C402.871 45.1471 402.111 45.2938 401.258 45.2938ZM412.64 45.2938C411.467 45.2938 410.447 45.0604 409.58 44.5937C408.713 44.1137 408.04 43.4671 407.56 42.6537C407.08 41.8271 406.84 40.8871 406.84 39.8337C406.84 39.0204 406.973 38.2737 407.24 37.5937C407.507 36.9137 407.88 36.3271 408.36 35.8337C408.84 35.3271 409.407 34.9404 410.06 34.6737C410.727 34.3937 411.453 34.2537 412.24 34.2537C412.987 34.2537 413.667 34.3871 414.28 34.6537C414.907 34.9204 415.447 35.2937 415.9 35.7737C416.353 36.2537 416.7 36.8204 416.94 37.4737C417.18 38.1271 417.287 38.8404 417.26 39.6137L417.24 40.4737H408.78L408.32 38.6737H414.64L414.3 39.0537V38.6537C414.273 38.3204 414.167 38.0271 413.98 37.7737C413.807 37.5071 413.573 37.3004 413.28 37.1537C412.987 37.0071 412.653 36.9337 412.28 36.9337C411.76 36.9337 411.313 37.0404 410.94 37.2537C410.58 37.4537 410.307 37.7537 410.12 38.1537C409.933 38.5404 409.84 39.0204 409.84 39.5937C409.84 40.1804 409.96 40.6937 410.2 41.1337C410.453 41.5604 410.813 41.8937 411.28 42.1337C411.76 42.3737 412.327 42.4937 412.98 42.4937C413.433 42.4937 413.833 42.4271 414.18 42.2937C414.54 42.1604 414.927 41.9337 415.34 41.6137L416.84 43.7337C416.427 44.0937 415.987 44.3871 415.52 44.6137C415.053 44.8404 414.573 45.0071 414.08 45.1138C413.6 45.2338 413.12 45.2938 412.64 45.2938Z" fill="#05243F"/>
<g opacity="0.8">
<rect x="23.1055" y="83.0034" width="417.956" height="67.3691" rx="18.0086" fill="white"/>
<path d="M63.1786 122.794C62.3142 122.794 61.5254 122.648 60.8123 122.356C60.0991 122.065 59.4778 121.654 58.9484 121.125C58.4189 120.595 58.0083 119.974 57.7166 119.261C57.4248 118.547 57.279 117.764 57.279 116.911C57.279 116.057 57.4248 115.274 57.7166 114.56C58.0083 113.847 58.4189 113.226 58.9484 112.696C59.4778 112.167 60.0991 111.756 60.8123 111.465C61.5254 111.173 62.3088 111.027 63.1624 111.027C64.016 111.027 64.7994 111.173 65.5125 111.465C66.2256 111.756 66.8469 112.167 67.3764 112.696C67.9058 113.226 68.311 113.847 68.592 114.56C68.8837 115.274 69.0296 116.057 69.0296 116.911C69.0296 117.753 68.8837 118.537 68.592 119.261C68.311 119.974 67.9058 120.595 67.3764 121.125C66.8469 121.654 66.2256 122.065 65.5125 122.356C64.7994 122.648 64.0214 122.794 63.1786 122.794ZM63.1624 120.201C63.6054 120.201 64.0106 120.12 64.378 119.958C64.7561 119.795 65.0803 119.569 65.3504 119.277C65.6314 118.974 65.8475 118.623 65.9987 118.223C66.15 117.824 66.2256 117.386 66.2256 116.911C66.2256 116.435 66.15 115.997 65.9987 115.598C65.8475 115.198 65.6314 114.852 65.3504 114.56C65.0803 114.258 64.7561 114.026 64.378 113.863C64.0106 113.701 63.6054 113.62 63.1624 113.62C62.7194 113.62 62.3088 113.701 61.9306 113.863C61.5632 114.026 61.2391 114.258 60.9581 114.56C60.6772 114.852 60.4611 115.198 60.3098 115.598C60.1693 115.997 60.0991 116.435 60.0991 116.911C60.0991 117.386 60.1693 117.829 60.3098 118.24C60.4611 118.639 60.6772 118.985 60.9581 119.277C61.2391 119.569 61.5632 119.795 61.9306 119.958C62.3088 120.12 62.7194 120.201 63.1624 120.201ZM71.4206 122.632V113.604C71.4206 113.042 71.5395 112.534 71.7772 112.081C72.0257 111.627 72.366 111.27 72.7983 111.011C73.2413 110.741 73.7545 110.606 74.338 110.606C74.7486 110.606 75.1268 110.665 75.4725 110.784C75.8183 110.903 76.1262 111.07 76.3964 111.286L75.6508 113.183C75.5103 113.107 75.3753 113.048 75.2456 113.004C75.116 112.961 74.9971 112.94 74.8891 112.94C74.6946 112.94 74.5325 112.972 74.4028 113.037C74.2732 113.102 74.1759 113.204 74.1111 113.345C74.0571 113.474 74.03 113.637 74.03 113.831V122.632H72.7334C72.4417 122.632 72.1824 122.632 71.9555 122.632C71.7393 122.632 71.5611 122.632 71.4206 122.632ZM70.1726 116.408V114.269H75.7967V116.408H70.1726ZM77.7902 122.632V113.604C77.7902 113.042 77.9091 112.534 78.1468 112.081C78.3953 111.627 78.7357 111.27 79.1679 111.011C79.6109 110.741 80.1242 110.606 80.7076 110.606C81.1182 110.606 81.4964 110.665 81.8422 110.784C82.1879 110.903 82.4959 111.07 82.766 111.286L82.0205 113.183C81.88 113.107 81.7449 113.048 81.6153 113.004C81.4856 112.961 81.3667 112.94 81.2587 112.94C81.0642 112.94 80.9021 112.972 80.7725 113.037C80.6428 113.102 80.5456 113.204 80.4807 113.345C80.4267 113.474 80.3997 113.637 80.3997 113.831V122.632H79.1031C78.8113 122.632 78.552 122.632 78.3251 122.632C78.109 122.632 77.9307 122.632 77.7902 122.632ZM76.5422 116.408V114.269H82.1663V116.408H76.5422ZM87.4112 122.794C86.4603 122.794 85.6337 122.605 84.9314 122.227C84.2291 121.838 83.6834 121.314 83.2944 120.654C82.9054 119.985 82.7109 119.223 82.7109 118.369C82.7109 117.71 82.819 117.105 83.0351 116.554C83.2512 116.003 83.5537 115.527 83.9427 115.128C84.3317 114.717 84.7909 114.404 85.3204 114.188C85.8606 113.961 86.4495 113.847 87.087 113.847C87.6921 113.847 88.2432 113.955 88.7402 114.171C89.2481 114.387 89.6857 114.69 90.053 115.079C90.4204 115.468 90.7013 115.927 90.8958 116.457C91.0903 116.986 91.1768 117.564 91.1552 118.191L91.139 118.888H84.2831L83.9103 117.429H89.0319L88.7564 117.737V117.413C88.7348 117.143 88.6484 116.905 88.4971 116.7C88.3566 116.484 88.1675 116.316 87.9298 116.197C87.6921 116.079 87.422 116.019 87.1194 116.019C86.698 116.019 86.3361 116.106 86.0335 116.278C85.7418 116.44 85.5203 116.684 85.369 117.008C85.2177 117.321 85.1421 117.71 85.1421 118.175C85.1421 118.65 85.2393 119.066 85.4338 119.423C85.6391 119.768 85.9309 120.039 86.309 120.233C86.698 120.428 87.1573 120.525 87.6867 120.525C88.0541 120.525 88.3782 120.471 88.6592 120.363C88.9509 120.255 89.2643 120.071 89.5992 119.812L90.8148 121.53C90.4798 121.821 90.1233 122.059 89.7451 122.243C89.3669 122.427 88.9779 122.562 88.5781 122.648C88.1891 122.745 87.8002 122.794 87.4112 122.794ZM92.8073 122.632V114.026H95.2709L95.3519 115.776L94.8333 115.97C94.9522 115.581 95.1629 115.23 95.4654 114.917C95.7788 114.593 96.1515 114.333 96.5837 114.139C97.0159 113.944 97.4698 113.847 97.9452 113.847C98.5935 113.847 99.1392 113.982 99.5822 114.252C100.025 114.512 100.36 114.906 100.587 115.436C100.814 115.954 100.927 116.592 100.927 117.348V122.632H98.318V117.559C98.318 117.213 98.2693 116.927 98.1721 116.7C98.0748 116.473 97.9236 116.305 97.7183 116.197C97.5238 116.079 97.2807 116.024 96.9889 116.035C96.762 116.035 96.5513 116.073 96.3568 116.149C96.1623 116.214 95.9949 116.316 95.8544 116.457C95.7139 116.586 95.6005 116.738 95.514 116.911C95.4384 117.083 95.4006 117.272 95.4006 117.478V122.632H94.1202C93.8176 122.632 93.5583 122.632 93.3422 122.632C93.1261 122.632 92.9478 122.632 92.8073 122.632ZM106.872 122.794C106.04 122.794 105.294 122.599 104.635 122.21C103.976 121.821 103.452 121.292 103.063 120.622C102.685 119.941 102.496 119.174 102.496 118.321C102.496 117.467 102.685 116.705 103.063 116.035C103.452 115.355 103.976 114.82 104.635 114.431C105.294 114.042 106.04 113.847 106.872 113.847C107.639 113.847 108.341 113.982 108.979 114.252C109.627 114.523 110.14 114.901 110.519 115.387L109.109 117.073C108.957 116.9 108.779 116.738 108.574 116.586C108.368 116.435 108.141 116.316 107.893 116.23C107.644 116.143 107.385 116.1 107.115 116.1C106.704 116.1 106.342 116.197 106.029 116.392C105.716 116.576 105.473 116.835 105.3 117.17C105.127 117.505 105.04 117.888 105.04 118.321C105.04 118.731 105.127 119.104 105.3 119.439C105.483 119.774 105.732 120.039 106.045 120.233C106.359 120.428 106.715 120.525 107.115 120.525C107.396 120.525 107.655 120.492 107.893 120.428C108.131 120.352 108.347 120.244 108.541 120.103C108.747 119.963 108.936 119.79 109.109 119.585L110.502 121.287C110.135 121.751 109.622 122.119 108.963 122.389C108.314 122.659 107.617 122.794 106.872 122.794ZM116.028 122.794C115.077 122.794 114.251 122.605 113.548 122.227C112.846 121.838 112.3 121.314 111.911 120.654C111.522 119.985 111.328 119.223 111.328 118.369C111.328 117.71 111.436 117.105 111.652 116.554C111.868 116.003 112.171 115.527 112.56 115.128C112.948 114.717 113.408 114.404 113.937 114.188C114.477 113.961 115.066 113.847 115.704 113.847C116.309 113.847 116.86 113.955 117.357 114.171C117.865 114.387 118.302 114.69 118.67 115.079C119.037 115.468 119.318 115.927 119.513 116.457C119.707 116.986 119.794 117.564 119.772 118.191L119.756 118.888H112.9L112.527 117.429H117.649L117.373 117.737V117.413C117.352 117.143 117.265 116.905 117.114 116.7C116.973 116.484 116.784 116.316 116.547 116.197C116.309 116.079 116.039 116.019 115.736 116.019C115.315 116.019 114.953 116.106 114.65 116.278C114.359 116.44 114.137 116.684 113.986 117.008C113.835 117.321 113.759 117.71 113.759 118.175C113.759 118.65 113.856 119.066 114.051 119.423C114.256 119.768 114.548 120.039 114.926 120.233C115.315 120.428 115.774 120.525 116.303 120.525C116.671 120.525 116.995 120.471 117.276 120.363C117.568 120.255 117.881 120.071 118.216 119.812L119.432 121.53C119.097 121.821 118.74 122.059 118.362 122.243C117.984 122.427 117.595 122.562 117.195 122.648C116.806 122.745 116.417 122.794 116.028 122.794ZM124.325 122.794C123.483 122.794 122.737 122.659 122.089 122.389C121.451 122.119 120.943 121.757 120.565 121.303L122.137 119.941C122.472 120.276 122.85 120.525 123.272 120.687C123.693 120.838 124.093 120.914 124.471 120.914C124.622 120.914 124.758 120.898 124.876 120.865C124.995 120.833 125.092 120.79 125.168 120.736C125.255 120.671 125.319 120.6 125.363 120.525C125.406 120.438 125.427 120.341 125.427 120.233C125.427 120.017 125.33 119.85 125.136 119.731C125.038 119.677 124.876 119.612 124.649 119.536C124.423 119.461 124.131 119.374 123.774 119.277C123.266 119.147 122.823 118.996 122.445 118.823C122.078 118.639 121.775 118.429 121.538 118.191C121.321 117.964 121.154 117.715 121.035 117.445C120.916 117.164 120.857 116.851 120.857 116.505C120.857 116.106 120.949 115.744 121.132 115.419C121.327 115.095 121.581 114.814 121.894 114.577C122.218 114.339 122.586 114.161 122.996 114.042C123.418 113.912 123.85 113.847 124.293 113.847C124.768 113.847 125.222 113.901 125.654 114.009C126.087 114.117 126.486 114.269 126.854 114.463C127.232 114.658 127.567 114.89 127.859 115.16L126.497 116.684C126.303 116.5 126.081 116.338 125.833 116.197C125.595 116.046 125.346 115.927 125.087 115.841C124.828 115.754 124.59 115.711 124.374 115.711C124.212 115.711 124.066 115.727 123.936 115.76C123.817 115.781 123.715 115.825 123.628 115.889C123.542 115.943 123.477 116.014 123.434 116.1C123.391 116.176 123.369 116.268 123.369 116.376C123.369 116.484 123.396 116.586 123.45 116.684C123.515 116.781 123.601 116.862 123.709 116.927C123.817 116.992 123.99 117.067 124.228 117.154C124.466 117.229 124.79 117.327 125.201 117.445C125.708 117.586 126.146 117.743 126.513 117.915C126.881 118.088 127.172 118.294 127.389 118.531C127.561 118.715 127.691 118.931 127.778 119.18C127.864 119.417 127.907 119.677 127.907 119.958C127.907 120.509 127.751 121 127.437 121.432C127.135 121.854 126.713 122.189 126.173 122.437C125.633 122.675 125.017 122.794 124.325 122.794ZM142.89 122.632L141.756 121.465L140.783 120.557L138.401 118.029C137.979 117.575 137.623 117.164 137.331 116.797C137.039 116.419 136.807 116.073 136.634 115.76C136.472 115.436 136.353 115.133 136.277 114.852C136.202 114.571 136.164 114.312 136.164 114.074C136.164 113.491 136.315 112.972 136.618 112.518C136.931 112.054 137.358 111.692 137.898 111.432C138.449 111.162 139.081 111.027 139.794 111.027C140.346 111.027 140.859 111.119 141.334 111.303C141.81 111.476 142.22 111.724 142.566 112.048C142.912 112.372 143.155 112.751 143.295 113.183L141.253 114.398C141.069 113.955 140.87 113.653 140.653 113.491C140.437 113.329 140.183 113.248 139.892 113.248C139.654 113.248 139.454 113.285 139.292 113.361C139.13 113.437 139.006 113.55 138.919 113.701C138.833 113.842 138.79 114.02 138.79 114.236C138.79 114.442 138.871 114.695 139.033 114.998C139.206 115.29 139.422 115.598 139.681 115.922C139.94 116.235 140.205 116.538 140.475 116.829C140.745 117.11 140.988 117.354 141.205 117.559L142.404 118.872L143.522 119.893L146.099 122.632H142.89ZM138.79 122.794C137.936 122.794 137.169 122.632 136.488 122.308C135.818 121.984 135.283 121.541 134.884 120.979C134.495 120.417 134.3 119.79 134.3 119.099C134.3 118.31 134.527 117.602 134.981 116.975C135.445 116.338 136.126 115.857 137.023 115.533L138.644 117.105C138.039 117.235 137.585 117.451 137.282 117.753C136.98 118.056 136.828 118.439 136.828 118.904C136.828 119.271 136.915 119.59 137.088 119.86C137.261 120.13 137.515 120.341 137.85 120.492C138.184 120.633 138.584 120.703 139.049 120.703C139.481 120.703 139.881 120.617 140.248 120.444C140.626 120.26 140.961 120.006 141.253 119.682C141.556 119.358 141.799 118.974 141.982 118.531C142.166 118.077 142.29 117.575 142.355 117.024H144.77C144.673 117.715 144.505 118.358 144.268 118.953C144.03 119.536 143.728 120.066 143.36 120.541C143.004 121.016 142.588 121.422 142.112 121.757C141.648 122.092 141.134 122.351 140.572 122.535C140.021 122.707 139.427 122.794 138.79 122.794ZM152.95 122.632V113.604C152.95 113.042 153.069 112.534 153.307 112.081C153.555 111.627 153.895 111.27 154.328 111.011C154.771 110.741 155.284 110.606 155.867 110.606C156.278 110.606 156.656 110.665 157.002 110.784C157.348 110.903 157.656 111.07 157.926 111.286L157.18 113.183C157.04 113.107 156.905 113.048 156.775 113.004C156.645 112.961 156.526 112.94 156.418 112.94C156.224 112.94 156.062 112.972 155.932 113.037C155.803 113.102 155.705 113.204 155.64 113.345C155.586 113.474 155.559 113.637 155.559 113.831V122.632H154.263C153.971 122.632 153.712 122.632 153.485 122.632C153.269 122.632 153.09 122.632 152.95 122.632ZM151.702 116.408V114.269H157.326V116.408H151.702ZM158.931 122.632V114.026H161.524V122.632H158.931ZM160.227 112.324C159.741 112.324 159.357 112.21 159.076 111.983C158.806 111.746 158.671 111.411 158.671 110.978C158.671 110.589 158.812 110.271 159.093 110.022C159.374 109.774 159.752 109.649 160.227 109.649C160.713 109.649 161.092 109.768 161.362 110.006C161.632 110.233 161.767 110.557 161.767 110.978C161.767 111.378 161.626 111.702 161.346 111.951C161.075 112.199 160.703 112.324 160.227 112.324ZM163.954 122.632V114.026H166.417L166.498 115.776L165.98 115.97C166.098 115.581 166.309 115.23 166.612 114.917C166.925 114.593 167.298 114.333 167.73 114.139C168.162 113.944 168.616 113.847 169.091 113.847C169.74 113.847 170.285 113.982 170.728 114.252C171.171 114.512 171.506 114.906 171.733 115.436C171.96 115.954 172.074 116.592 172.074 117.348V122.632H169.464V117.559C169.464 117.213 169.416 116.927 169.318 116.7C169.221 116.473 169.07 116.305 168.865 116.197C168.67 116.079 168.427 116.024 168.135 116.035C167.908 116.035 167.698 116.073 167.503 116.149C167.309 116.214 167.141 116.316 167.001 116.457C166.86 116.586 166.747 116.738 166.66 116.911C166.585 117.083 166.547 117.272 166.547 117.478V122.632H165.266C164.964 122.632 164.705 122.632 164.488 122.632C164.272 122.632 164.094 122.632 163.954 122.632ZM178.342 122.794C177.391 122.794 176.565 122.605 175.862 122.227C175.16 121.838 174.615 121.314 174.226 120.654C173.837 119.985 173.642 119.223 173.642 118.369C173.642 117.71 173.75 117.105 173.966 116.554C174.182 116.003 174.485 115.527 174.874 115.128C175.263 114.717 175.722 114.404 176.251 114.188C176.792 113.961 177.381 113.847 178.018 113.847C178.623 113.847 179.174 113.955 179.671 114.171C180.179 114.387 180.617 114.69 180.984 115.079C181.352 115.468 181.632 115.927 181.827 116.457C182.021 116.986 182.108 117.564 182.086 118.191L182.07 118.888H175.214L174.841 117.429H179.963L179.688 117.737V117.413C179.666 117.143 179.579 116.905 179.428 116.7C179.288 116.484 179.099 116.316 178.861 116.197C178.623 116.079 178.353 116.019 178.051 116.019C177.629 116.019 177.267 116.106 176.965 116.278C176.673 116.44 176.451 116.684 176.3 117.008C176.149 117.321 176.073 117.71 176.073 118.175C176.073 118.65 176.17 119.066 176.365 119.423C176.57 119.768 176.862 120.039 177.24 120.233C177.629 120.428 178.088 120.525 178.618 120.525C178.985 120.525 179.309 120.471 179.59 120.363C179.882 120.255 180.195 120.071 180.53 119.812L181.746 121.53C181.411 121.821 181.054 122.059 180.676 122.243C180.298 122.427 179.909 122.562 179.509 122.648C179.12 122.745 178.731 122.794 178.342 122.794Z" fill="#05243F"/>
<path d="M319.636 116.122L311.878 108.364C311.763 108.248 311.626 108.157 311.475 108.095C311.325 108.032 311.163 108 311 108C310.837 108 310.675 108.032 310.525 108.095C310.374 108.157 310.237 108.248 310.122 108.364L302.364 116.122C302.248 116.237 302.157 116.374 302.095 116.525C302.032 116.675 302 116.837 302 117C302 117.163 302.032 117.325 302.095 117.475C302.157 117.626 302.248 117.763 302.364 117.878L310.122 125.636C310.237 125.752 310.374 125.843 310.525 125.905C310.675 125.968 310.837 126 311 126C311.163 126 311.325 125.968 311.475 125.905C311.626 125.843 311.763 125.752 311.878 125.636L319.636 117.878C319.752 117.763 319.843 117.626 319.905 117.475C319.968 117.325 320 117.163 320 117C320 116.837 319.968 116.675 319.905 116.525C319.843 116.374 319.752 116.237 319.636 116.122ZM314.424 116.825L312.624 118.624C312.512 118.737 312.359 118.8 312.2 118.8C312.041 118.8 311.888 118.737 311.775 118.624C311.663 118.512 311.6 118.359 311.6 118.2C311.6 118.041 311.663 117.888 311.775 117.775L312.552 117H309.8C309.482 117 309.177 117.126 308.951 117.351C308.726 117.577 308.6 117.882 308.6 118.2V118.8C308.6 118.959 308.537 119.112 308.424 119.224C308.312 119.337 308.159 119.4 308 119.4C307.841 119.4 307.688 119.337 307.576 119.224C307.463 119.112 307.4 118.959 307.4 118.8V118.2C307.4 117.563 307.653 116.953 308.103 116.503C308.553 116.053 309.163 115.8 309.8 115.8H312.552L311.775 115.025C311.663 114.912 311.6 114.759 311.6 114.6C311.6 114.441 311.663 114.288 311.775 114.176C311.888 114.063 312.041 114 312.2 114C312.359 114 312.512 114.063 312.624 114.176L314.424 115.976C314.48 116.031 314.525 116.097 314.555 116.17C314.585 116.243 314.6 116.321 314.6 116.4C314.6 116.479 314.585 116.557 314.555 116.63C314.525 116.703 314.48 116.769 314.424 116.825Z" fill="#FFCC63"/>
<path d="M336.717 122.792C335.864 122.792 335.085 122.648 334.381 122.36C333.677 122.072 333.064 121.667 332.541 121.144C332.018 120.621 331.613 120.008 331.325 119.304C331.037 118.6 330.893 117.827 330.893 116.984C330.893 116.141 331.037 115.368 331.325 114.664C331.613 113.96 332.018 113.347 332.541 112.824C333.064 112.301 333.677 111.896 334.381 111.608C335.085 111.32 335.858 111.176 336.701 111.176C337.544 111.176 338.317 111.32 339.021 111.608C339.725 111.896 340.338 112.301 340.861 112.824C341.384 113.347 341.784 113.96 342.061 114.664C342.349 115.368 342.493 116.141 342.493 116.984C342.493 117.816 342.349 118.589 342.061 119.304C341.784 120.008 341.384 120.621 340.861 121.144C340.338 121.667 339.725 122.072 339.021 122.36C338.317 122.648 337.549 122.792 336.717 122.792ZM336.701 120.232C337.138 120.232 337.538 120.152 337.901 119.992C338.274 119.832 338.594 119.608 338.861 119.32C339.138 119.021 339.352 118.675 339.501 118.28C339.65 117.885 339.725 117.453 339.725 116.984C339.725 116.515 339.65 116.083 339.501 115.688C339.352 115.293 339.138 114.952 338.861 114.664C338.594 114.365 338.274 114.136 337.901 113.976C337.538 113.816 337.138 113.736 336.701 113.736C336.264 113.736 335.858 113.816 335.485 113.976C335.122 114.136 334.802 114.365 334.525 114.664C334.248 114.952 334.034 115.293 333.885 115.688C333.746 116.083 333.677 116.515 333.677 116.984C333.677 117.453 333.746 117.891 333.885 118.296C334.034 118.691 334.248 119.032 334.525 119.32C334.802 119.608 335.122 119.832 335.485 119.992C335.858 120.152 336.264 120.232 336.701 120.232ZM344.853 122.632V113.72C344.853 113.165 344.971 112.664 345.205 112.216C345.451 111.768 345.787 111.416 346.213 111.16C346.651 110.893 347.157 110.76 347.733 110.76C348.139 110.76 348.512 110.819 348.853 110.936C349.195 111.053 349.499 111.219 349.765 111.432L349.029 113.304C348.891 113.229 348.757 113.171 348.629 113.128C348.501 113.085 348.384 113.064 348.277 113.064C348.085 113.064 347.925 113.096 347.797 113.16C347.669 113.224 347.573 113.325 347.509 113.464C347.456 113.592 347.429 113.752 347.429 113.944V122.632H346.149C345.861 122.632 345.605 122.632 345.381 122.632C345.168 122.632 344.992 122.632 344.853 122.632ZM343.621 116.488V114.376H349.173V116.488H343.621ZM351.141 122.632V113.72C351.141 113.165 351.259 112.664 351.493 112.216C351.739 111.768 352.075 111.416 352.501 111.16C352.939 110.893 353.445 110.76 354.021 110.76C354.427 110.76 354.8 110.819 355.141 110.936C355.483 111.053 355.787 111.219 356.053 111.432L355.317 113.304C355.179 113.229 355.045 113.171 354.917 113.128C354.789 113.085 354.672 113.064 354.565 113.064C354.373 113.064 354.213 113.096 354.085 113.16C353.957 113.224 353.861 113.325 353.797 113.464C353.744 113.592 353.717 113.752 353.717 113.944V122.632H352.437C352.149 122.632 351.893 122.632 351.669 122.632C351.456 122.632 351.28 122.632 351.141 122.632ZM349.909 116.488V114.376H355.461V116.488H349.909ZM360.639 122.792C359.7 122.792 358.884 122.605 358.191 122.232C357.498 121.848 356.959 121.331 356.575 120.68C356.191 120.019 355.999 119.267 355.999 118.424C355.999 117.773 356.106 117.176 356.319 116.632C356.532 116.088 356.831 115.619 357.215 115.224C357.599 114.819 358.052 114.509 358.575 114.296C359.108 114.072 359.69 113.96 360.319 113.96C360.916 113.96 361.46 114.067 361.951 114.28C362.452 114.493 362.884 114.792 363.247 115.176C363.61 115.56 363.887 116.013 364.079 116.536C364.271 117.059 364.356 117.629 364.335 118.248L364.319 118.936H357.551L357.183 117.496H362.239L361.967 117.8V117.48C361.946 117.213 361.86 116.979 361.711 116.776C361.572 116.563 361.386 116.397 361.151 116.28C360.916 116.163 360.65 116.104 360.351 116.104C359.935 116.104 359.578 116.189 359.279 116.36C358.991 116.52 358.772 116.76 358.623 117.08C358.474 117.389 358.399 117.773 358.399 118.232C358.399 118.701 358.495 119.112 358.687 119.464C358.89 119.805 359.178 120.072 359.551 120.264C359.935 120.456 360.388 120.552 360.911 120.552C361.274 120.552 361.594 120.499 361.871 120.392C362.159 120.285 362.468 120.104 362.799 119.848L363.999 121.544C363.668 121.832 363.316 122.067 362.943 122.248C362.57 122.429 362.186 122.563 361.791 122.648C361.407 122.744 361.023 122.792 360.639 122.792ZM365.966 122.632V114.136H368.398L368.478 115.864L367.966 116.056C368.083 115.672 368.291 115.325 368.59 115.016C368.899 114.696 369.267 114.44 369.694 114.248C370.121 114.056 370.569 113.96 371.038 113.96C371.678 113.96 372.217 114.093 372.654 114.36C373.091 114.616 373.422 115.005 373.646 115.528C373.87 116.04 373.982 116.669 373.982 117.416V122.632H371.406V117.624C371.406 117.283 371.358 117 371.262 116.776C371.166 116.552 371.017 116.387 370.814 116.28C370.622 116.163 370.382 116.109 370.094 116.12C369.87 116.12 369.662 116.157 369.47 116.232C369.278 116.296 369.113 116.397 368.974 116.536C368.835 116.664 368.723 116.813 368.638 116.984C368.563 117.155 368.526 117.341 368.526 117.544V122.632H367.262C366.963 122.632 366.707 122.632 366.494 122.632C366.281 122.632 366.105 122.632 365.966 122.632ZM378.986 122.792C378.154 122.792 377.418 122.659 376.778 122.392C376.149 122.125 375.648 121.768 375.274 121.32L376.826 119.976C377.157 120.307 377.53 120.552 377.946 120.712C378.362 120.861 378.757 120.936 379.13 120.936C379.28 120.936 379.413 120.92 379.53 120.888C379.648 120.856 379.744 120.813 379.818 120.76C379.904 120.696 379.968 120.627 380.01 120.552C380.053 120.467 380.074 120.371 380.074 120.264C380.074 120.051 379.978 119.885 379.786 119.768C379.69 119.715 379.53 119.651 379.306 119.576C379.082 119.501 378.794 119.416 378.442 119.32C377.941 119.192 377.504 119.043 377.13 118.872C376.768 118.691 376.469 118.483 376.234 118.248C376.021 118.024 375.856 117.779 375.738 117.512C375.621 117.235 375.562 116.925 375.562 116.584C375.562 116.189 375.653 115.832 375.834 115.512C376.026 115.192 376.277 114.915 376.586 114.68C376.906 114.445 377.269 114.269 377.674 114.152C378.09 114.024 378.517 113.96 378.954 113.96C379.424 113.96 379.872 114.013 380.298 114.12C380.725 114.227 381.12 114.376 381.482 114.568C381.856 114.76 382.186 114.989 382.474 115.256L381.13 116.76C380.938 116.579 380.72 116.419 380.474 116.28C380.24 116.131 379.994 116.013 379.738 115.928C379.482 115.843 379.248 115.8 379.034 115.8C378.874 115.8 378.73 115.816 378.602 115.848C378.485 115.869 378.384 115.912 378.298 115.976C378.213 116.029 378.149 116.099 378.106 116.184C378.064 116.259 378.042 116.349 378.042 116.456C378.042 116.563 378.069 116.664 378.122 116.76C378.186 116.856 378.272 116.936 378.378 117C378.485 117.064 378.656 117.139 378.89 117.224C379.125 117.299 379.445 117.395 379.85 117.512C380.352 117.651 380.784 117.805 381.146 117.976C381.509 118.147 381.797 118.349 382.01 118.584C382.181 118.765 382.309 118.979 382.394 119.224C382.48 119.459 382.522 119.715 382.522 119.992C382.522 120.536 382.368 121.021 382.058 121.448C381.76 121.864 381.344 122.195 380.81 122.44C380.277 122.675 379.669 122.792 378.986 122.792ZM388.092 122.792C387.154 122.792 386.338 122.605 385.644 122.232C384.951 121.848 384.412 121.331 384.028 120.68C383.644 120.019 383.452 119.267 383.452 118.424C383.452 117.773 383.559 117.176 383.772 116.632C383.986 116.088 384.284 115.619 384.668 115.224C385.052 114.819 385.506 114.509 386.028 114.296C386.562 114.072 387.143 113.96 387.772 113.96C388.37 113.96 388.914 114.067 389.404 114.28C389.906 114.493 390.338 114.792 390.7 115.176C391.063 115.56 391.34 116.013 391.532 116.536C391.724 117.059 391.81 117.629 391.788 118.248L391.772 118.936H385.004L384.636 117.496H389.692L389.42 117.8V117.48C389.399 117.213 389.314 116.979 389.164 116.776C389.026 116.563 388.839 116.397 388.604 116.28C388.37 116.163 388.103 116.104 387.804 116.104C387.388 116.104 387.031 116.189 386.732 116.36C386.444 116.52 386.226 116.76 386.076 117.08C385.927 117.389 385.852 117.773 385.852 118.232C385.852 118.701 385.948 119.112 386.14 119.464C386.343 119.805 386.631 120.072 387.004 120.264C387.388 120.456 387.842 120.552 388.364 120.552C388.727 120.552 389.047 120.499 389.324 120.392C389.612 120.285 389.922 120.104 390.252 119.848L391.452 121.544C391.122 121.832 390.77 122.067 390.396 122.248C390.023 122.429 389.639 122.563 389.244 122.648C388.86 122.744 388.476 122.792 388.092 122.792Z" fill="#05243F"/>
</g>
<rect opacity="0.4" x="52.3477" y="158.373" width="359.339" height="57.9208" rx="15.4829" fill="white"/>
<path opacity="0.4" d="M87.0407 192.108V182.354H91.4301C92.0525 182.354 92.6146 182.488 93.1162 182.758C93.6271 183.027 94.0266 183.399 94.3146 183.873C94.6026 184.337 94.7466 184.867 94.7466 185.461C94.7466 186.074 94.6026 186.627 94.3146 187.119C94.0266 187.602 93.6318 187.983 93.1301 188.262C92.6285 188.541 92.0618 188.68 91.4301 188.68H89.2981V192.108H87.0407ZM92.4473 192.108L89.967 187.705L92.3916 187.356L95.1507 192.108H92.4473ZM89.2981 186.868H91.2211C91.4626 186.868 91.6717 186.817 91.8482 186.715C92.034 186.604 92.1733 186.45 92.2662 186.255C92.3684 186.06 92.4195 185.837 92.4195 185.586C92.4195 185.336 92.3637 185.117 92.2523 184.932C92.1408 184.736 91.9782 184.588 91.7645 184.486C91.5602 184.383 91.3093 184.332 91.0121 184.332H89.2981V186.868ZM99.7995 192.247C99.0285 192.247 98.341 192.08 97.7372 191.746C97.1426 191.411 96.6689 190.956 96.3158 190.38C95.9721 189.804 95.8003 189.144 95.8003 188.401C95.8003 187.658 95.9721 186.999 96.3158 186.423C96.6689 185.847 97.1426 185.391 97.7372 185.057C98.341 184.723 99.0285 184.555 99.7995 184.555C100.571 184.555 101.253 184.723 101.848 185.057C102.452 185.391 102.926 185.847 103.269 186.423C103.613 186.999 103.785 187.658 103.785 188.401C103.785 189.144 103.613 189.804 103.269 190.38C102.926 190.956 102.452 191.411 101.848 191.746C101.253 192.08 100.571 192.247 99.7995 192.247ZM99.7995 190.324C100.134 190.324 100.431 190.241 100.691 190.073C100.951 189.906 101.156 189.679 101.304 189.391C101.453 189.103 101.523 188.773 101.513 188.401C101.523 188.03 101.453 187.7 101.304 187.412C101.156 187.115 100.951 186.882 100.691 186.715C100.431 186.548 100.134 186.464 99.7995 186.464C99.4651 186.464 99.1632 186.548 98.8938 186.715C98.6336 186.882 98.4293 187.115 98.2806 187.412C98.132 187.7 98.0623 188.03 98.0716 188.401C98.0623 188.773 98.132 189.103 98.2806 189.391C98.4293 189.679 98.6336 189.906 98.8938 190.073C99.1632 190.241 99.4651 190.324 99.7995 190.324ZM107.974 192.233C107.352 192.233 106.794 192.071 106.302 191.746C105.819 191.411 105.433 190.956 105.145 190.38C104.857 189.795 104.713 189.135 104.713 188.401C104.713 187.649 104.857 186.985 105.145 186.409C105.433 185.833 105.828 185.382 106.33 185.057C106.831 184.723 107.403 184.555 108.044 184.555C108.397 184.555 108.717 184.606 109.005 184.709C109.302 184.811 109.562 184.955 109.785 185.141C110.008 185.317 110.199 185.526 110.357 185.768C110.515 186 110.631 186.251 110.705 186.52L110.245 186.464V184.709H112.461V192.108H110.203V190.324L110.705 190.31C110.631 190.57 110.51 190.817 110.343 191.049C110.176 191.281 109.971 191.485 109.73 191.662C109.488 191.839 109.219 191.978 108.921 192.08C108.624 192.182 108.308 192.233 107.974 192.233ZM108.587 190.352C108.931 190.352 109.228 190.273 109.479 190.115C109.73 189.957 109.925 189.734 110.064 189.446C110.203 189.149 110.273 188.801 110.273 188.401C110.273 188.002 110.203 187.658 110.064 187.37C109.925 187.073 109.73 186.845 109.479 186.687C109.228 186.52 108.931 186.437 108.587 186.437C108.253 186.437 107.96 186.52 107.709 186.687C107.468 186.845 107.277 187.073 107.138 187.37C106.998 187.658 106.929 188.002 106.929 188.401C106.929 188.801 106.998 189.149 107.138 189.446C107.277 189.734 107.468 189.957 107.709 190.115C107.96 190.273 108.253 190.352 108.587 190.352ZM117.229 192.261C116.588 192.261 116.017 192.099 115.515 191.773C115.023 191.439 114.633 190.984 114.345 190.408C114.057 189.823 113.913 189.158 113.913 188.415C113.913 187.672 114.057 187.012 114.345 186.437C114.633 185.851 115.027 185.391 115.529 185.057C116.031 184.723 116.607 184.555 117.257 184.555C117.591 184.555 117.912 184.606 118.218 184.709C118.525 184.811 118.804 184.95 119.054 185.127C119.305 185.303 119.51 185.508 119.668 185.74C119.826 185.963 119.918 186.195 119.946 186.437L119.417 186.562V181.796H121.66V192.108H119.584L119.459 190.422L119.904 190.491C119.877 190.724 119.784 190.947 119.626 191.16C119.477 191.374 119.282 191.564 119.041 191.732C118.799 191.89 118.52 192.015 118.204 192.108C117.898 192.21 117.573 192.261 117.229 192.261ZM117.8 190.408C118.144 190.408 118.441 190.324 118.692 190.157C118.943 189.99 119.133 189.758 119.263 189.46C119.403 189.163 119.473 188.815 119.473 188.415C119.473 188.006 119.403 187.653 119.263 187.356C119.133 187.059 118.943 186.827 118.692 186.659C118.441 186.492 118.144 186.409 117.8 186.409C117.457 186.409 117.159 186.492 116.909 186.659C116.667 186.827 116.477 187.059 116.337 187.356C116.198 187.653 116.128 188.006 116.128 188.415C116.128 188.815 116.198 189.163 116.337 189.46C116.477 189.758 116.667 189.99 116.909 190.157C117.159 190.324 117.457 190.408 117.8 190.408ZM130.503 192.247C129.779 192.247 129.138 192.131 128.58 191.899C128.032 191.667 127.596 191.355 127.27 190.965L128.622 189.795C128.91 190.083 129.235 190.296 129.598 190.436C129.96 190.566 130.304 190.631 130.629 190.631C130.759 190.631 130.875 190.617 130.977 190.589C131.079 190.561 131.163 190.524 131.228 190.478C131.302 190.422 131.358 190.361 131.395 190.296C131.432 190.222 131.451 190.138 131.451 190.046C131.451 189.86 131.367 189.716 131.2 189.614C131.116 189.567 130.977 189.511 130.782 189.446C130.587 189.381 130.336 189.307 130.03 189.223C129.593 189.112 129.212 188.982 128.887 188.833C128.571 188.675 128.311 188.494 128.107 188.29C127.921 188.095 127.777 187.881 127.675 187.649C127.572 187.407 127.521 187.138 127.521 186.841C127.521 186.497 127.6 186.186 127.758 185.907C127.925 185.628 128.144 185.387 128.413 185.182C128.692 184.978 129.008 184.825 129.361 184.723C129.723 184.611 130.095 184.555 130.475 184.555C130.884 184.555 131.274 184.602 131.646 184.695C132.018 184.788 132.361 184.918 132.677 185.085C133.002 185.252 133.29 185.452 133.541 185.684L132.371 186.994C132.203 186.836 132.013 186.697 131.799 186.576C131.595 186.446 131.381 186.344 131.158 186.269C130.935 186.195 130.731 186.158 130.545 186.158C130.406 186.158 130.28 186.172 130.169 186.2C130.067 186.218 129.978 186.255 129.904 186.311C129.83 186.358 129.774 186.418 129.737 186.492C129.7 186.557 129.681 186.636 129.681 186.729C129.681 186.822 129.704 186.91 129.751 186.994C129.807 187.078 129.881 187.147 129.974 187.203C130.067 187.259 130.215 187.324 130.42 187.398C130.624 187.463 130.903 187.547 131.256 187.649C131.692 187.77 132.069 187.904 132.384 188.053C132.7 188.202 132.951 188.378 133.137 188.582C133.286 188.74 133.397 188.926 133.471 189.14C133.546 189.344 133.583 189.567 133.583 189.809C133.583 190.282 133.448 190.705 133.179 191.077C132.919 191.439 132.556 191.727 132.092 191.941C131.627 192.145 131.098 192.247 130.503 192.247ZM135.034 192.108V184.709H137.263V192.108H135.034ZM136.148 183.245C135.73 183.245 135.401 183.148 135.159 182.953C134.927 182.748 134.811 182.46 134.811 182.089C134.811 181.754 134.932 181.48 135.173 181.267C135.415 181.053 135.74 180.946 136.148 180.946C136.567 180.946 136.892 181.048 137.124 181.253C137.356 181.448 137.472 181.727 137.472 182.089C137.472 182.433 137.351 182.711 137.11 182.925C136.878 183.139 136.557 183.245 136.148 183.245ZM142.744 195.313C142.14 195.313 141.537 195.225 140.933 195.048C140.338 194.872 139.855 194.644 139.484 194.365L140.264 192.805C140.459 192.935 140.673 193.046 140.905 193.139C141.146 193.241 141.397 193.32 141.657 193.376C141.917 193.432 142.182 193.46 142.452 193.46C142.925 193.46 143.311 193.39 143.608 193.251C143.905 193.111 144.128 192.898 144.277 192.61C144.426 192.331 144.5 191.978 144.5 191.551V190.31L144.932 190.38C144.867 190.687 144.704 190.965 144.444 191.216C144.193 191.467 143.882 191.671 143.511 191.829C143.139 191.978 142.744 192.052 142.326 192.052C141.657 192.052 141.058 191.899 140.529 191.592C140.008 191.276 139.595 190.845 139.288 190.296C138.991 189.739 138.843 189.098 138.843 188.373C138.843 187.63 138.991 186.975 139.288 186.409C139.586 185.833 139.994 185.382 140.515 185.057C141.035 184.723 141.62 184.555 142.27 184.555C142.549 184.555 142.814 184.588 143.065 184.653C143.325 184.718 143.562 184.806 143.775 184.918C143.998 185.02 144.193 185.145 144.361 185.294C144.537 185.433 144.677 185.586 144.779 185.754C144.89 185.921 144.964 186.093 145.002 186.269L144.542 186.381L144.625 184.709H146.743V191.509C146.743 192.113 146.651 192.647 146.465 193.111C146.288 193.585 146.024 193.984 145.671 194.31C145.327 194.644 144.909 194.895 144.416 195.062C143.924 195.229 143.367 195.313 142.744 195.313ZM142.8 190.324C143.162 190.324 143.473 190.245 143.734 190.087C144.003 189.92 144.207 189.693 144.347 189.405C144.495 189.117 144.57 188.778 144.57 188.387C144.57 187.997 144.495 187.658 144.347 187.37C144.207 187.073 144.003 186.845 143.734 186.687C143.473 186.52 143.162 186.437 142.8 186.437C142.447 186.437 142.14 186.52 141.88 186.687C141.62 186.845 141.416 187.073 141.267 187.37C141.128 187.658 141.058 187.997 141.058 188.387C141.058 188.778 141.128 189.117 141.267 189.405C141.416 189.693 141.62 189.92 141.88 190.087C142.14 190.245 142.447 190.324 142.8 190.324ZM148.68 192.108V184.709H150.798L150.867 186.214L150.421 186.381C150.524 186.046 150.705 185.744 150.965 185.475C151.234 185.196 151.555 184.973 151.926 184.806C152.298 184.639 152.688 184.555 153.097 184.555C153.654 184.555 154.123 184.671 154.504 184.904C154.885 185.127 155.173 185.466 155.368 185.921C155.563 186.367 155.661 186.915 155.661 187.565V192.108H153.417V187.746C153.417 187.449 153.376 187.203 153.292 187.008C153.208 186.813 153.078 186.669 152.902 186.576C152.735 186.474 152.526 186.427 152.275 186.437C152.08 186.437 151.899 186.469 151.731 186.534C151.564 186.59 151.42 186.678 151.299 186.799C151.179 186.91 151.081 187.04 151.007 187.189C150.942 187.338 150.909 187.5 150.909 187.677V192.108H149.808C149.548 192.108 149.325 192.108 149.139 192.108C148.954 192.108 148.8 192.108 148.68 192.108ZM160.019 192.247C159.295 192.247 158.654 192.131 158.096 191.899C157.548 191.667 157.111 191.355 156.786 190.965L158.138 189.795C158.426 190.083 158.751 190.296 159.113 190.436C159.476 190.566 159.819 190.631 160.145 190.631C160.275 190.631 160.391 190.617 160.493 190.589C160.595 190.561 160.679 190.524 160.744 190.478C160.818 190.422 160.874 190.361 160.911 190.296C160.948 190.222 160.967 190.138 160.967 190.046C160.967 189.86 160.883 189.716 160.716 189.614C160.632 189.567 160.493 189.511 160.298 189.446C160.103 189.381 159.852 189.307 159.545 189.223C159.109 189.112 158.728 188.982 158.403 188.833C158.087 188.675 157.827 188.494 157.622 188.29C157.437 188.095 157.293 187.881 157.19 187.649C157.088 187.407 157.037 187.138 157.037 186.841C157.037 186.497 157.116 186.186 157.274 185.907C157.441 185.628 157.66 185.387 157.929 185.182C158.208 184.978 158.524 184.825 158.877 184.723C159.239 184.611 159.61 184.555 159.991 184.555C160.4 184.555 160.79 184.602 161.162 184.695C161.533 184.788 161.877 184.918 162.193 185.085C162.518 185.252 162.806 185.452 163.057 185.684L161.886 186.994C161.719 186.836 161.529 186.697 161.315 186.576C161.111 186.446 160.897 186.344 160.674 186.269C160.451 186.195 160.247 186.158 160.061 186.158C159.922 186.158 159.796 186.172 159.685 186.2C159.583 186.218 159.494 186.255 159.42 186.311C159.346 186.358 159.29 186.418 159.253 186.492C159.216 186.557 159.197 186.636 159.197 186.729C159.197 186.822 159.22 186.91 159.267 186.994C159.322 187.078 159.397 187.147 159.49 187.203C159.583 187.259 159.731 187.324 159.936 187.398C160.14 187.463 160.419 187.547 160.772 187.649C161.208 187.77 161.584 187.904 161.9 188.053C162.216 188.202 162.467 188.378 162.653 188.582C162.801 188.74 162.913 188.926 162.987 189.14C163.062 189.344 163.099 189.567 163.099 189.809C163.099 190.282 162.964 190.705 162.695 191.077C162.435 191.439 162.072 191.727 161.608 191.941C161.143 192.145 160.614 192.247 160.019 192.247ZM175.98 192.108L175.005 191.105L174.169 190.324L172.12 188.15C171.758 187.76 171.452 187.407 171.201 187.091C170.95 186.766 170.75 186.469 170.602 186.2C170.462 185.921 170.36 185.661 170.295 185.419C170.23 185.178 170.197 184.955 170.197 184.75C170.197 184.249 170.328 183.803 170.588 183.413C170.857 183.013 171.224 182.702 171.688 182.479C172.162 182.247 172.706 182.131 173.319 182.131C173.793 182.131 174.234 182.21 174.643 182.368C175.051 182.516 175.404 182.73 175.702 183.009C175.999 183.287 176.208 183.612 176.329 183.984L174.573 185.029C174.415 184.648 174.243 184.388 174.057 184.249C173.872 184.109 173.653 184.04 173.402 184.04C173.198 184.04 173.026 184.072 172.887 184.137C172.747 184.202 172.641 184.3 172.566 184.43C172.492 184.551 172.455 184.704 172.455 184.89C172.455 185.066 172.525 185.285 172.664 185.545C172.813 185.796 172.998 186.06 173.221 186.339C173.444 186.608 173.672 186.868 173.904 187.119C174.136 187.361 174.345 187.57 174.531 187.746L175.562 188.875L176.524 189.753L178.739 192.108H175.98ZM172.455 192.247C171.721 192.247 171.061 192.108 170.476 191.829C169.9 191.551 169.44 191.17 169.097 190.687C168.762 190.204 168.595 189.665 168.595 189.07C168.595 188.392 168.79 187.784 169.18 187.245C169.58 186.697 170.165 186.283 170.936 186.005L172.329 187.356C171.809 187.468 171.419 187.653 171.159 187.914C170.899 188.174 170.769 188.503 170.769 188.903C170.769 189.219 170.843 189.493 170.992 189.725C171.14 189.957 171.359 190.138 171.647 190.269C171.935 190.389 172.278 190.45 172.678 190.45C173.049 190.45 173.393 190.375 173.709 190.227C174.034 190.069 174.322 189.85 174.573 189.572C174.833 189.293 175.042 188.963 175.2 188.582C175.358 188.192 175.465 187.76 175.52 187.287H177.597C177.513 187.881 177.369 188.434 177.165 188.945C176.96 189.446 176.7 189.902 176.384 190.31C176.078 190.719 175.72 191.067 175.311 191.355C174.912 191.643 174.471 191.866 173.988 192.024C173.514 192.173 173.003 192.247 172.455 192.247ZM184.406 192.108V182.354H186.524L190.078 188.137L188.559 188.123L192.154 182.354H194.188V192.108H191.889V189.07C191.889 188.234 191.908 187.482 191.945 186.813C191.991 186.144 192.066 185.48 192.168 184.82L192.433 185.545L189.729 189.739H188.81L186.162 185.573L186.427 184.82C186.529 185.443 186.599 186.083 186.636 186.743C186.682 187.393 186.706 188.169 186.706 189.07V192.108H184.406ZM199.134 192.233C198.512 192.233 197.954 192.071 197.462 191.746C196.979 191.411 196.594 190.956 196.306 190.38C196.018 189.795 195.874 189.135 195.874 188.401C195.874 187.649 196.018 186.985 196.306 186.409C196.594 185.833 196.988 185.382 197.49 185.057C197.992 184.723 198.563 184.555 199.204 184.555C199.557 184.555 199.877 184.606 200.165 184.709C200.463 184.811 200.723 184.955 200.946 185.141C201.169 185.317 201.359 185.526 201.517 185.768C201.675 186 201.791 186.251 201.865 186.52L201.406 186.464V184.709H203.621V192.108H201.364V190.324L201.865 190.31C201.791 190.57 201.67 190.817 201.503 191.049C201.336 191.281 201.132 191.485 200.89 191.662C200.648 191.839 200.379 191.978 200.082 192.08C199.785 192.182 199.469 192.233 199.134 192.233ZM199.747 190.352C200.091 190.352 200.388 190.273 200.639 190.115C200.89 189.957 201.085 189.734 201.224 189.446C201.364 189.149 201.433 188.801 201.433 188.401C201.433 188.002 201.364 187.658 201.224 187.37C201.085 187.073 200.89 186.845 200.639 186.687C200.388 186.52 200.091 186.437 199.747 186.437C199.413 186.437 199.12 186.52 198.87 186.687C198.628 186.845 198.438 187.073 198.298 187.37C198.159 187.658 198.089 188.002 198.089 188.401C198.089 188.801 198.159 189.149 198.298 189.446C198.438 189.734 198.628 189.957 198.87 190.115C199.12 190.273 199.413 190.352 199.747 190.352ZM205.589 192.108V184.709H207.707L207.804 187.119L207.386 186.659C207.498 186.26 207.679 185.902 207.93 185.586C208.19 185.271 208.492 185.02 208.835 184.834C209.179 184.648 209.546 184.555 209.936 184.555C210.103 184.555 210.257 184.569 210.396 184.597C210.545 184.625 210.679 184.658 210.8 184.695L210.187 187.161C210.085 187.096 209.945 187.045 209.769 187.008C209.602 186.961 209.425 186.938 209.239 186.938C209.035 186.938 208.845 186.975 208.668 187.05C208.492 187.115 208.343 187.212 208.222 187.342C208.101 187.472 208.004 187.626 207.93 187.802C207.865 187.979 207.832 188.178 207.832 188.401V192.108H205.589ZM214.076 189.934L213.254 188.262L216.709 184.709H219.65L214.076 189.934ZM211.93 192.108V181.796H214.159V192.108H211.93ZM216.946 192.108L214.341 188.736L215.915 187.509L219.58 192.108H216.946ZM220.778 192.108V184.709H223.008V192.108H220.778ZM221.893 183.245C221.475 183.245 221.145 183.148 220.903 182.953C220.671 182.748 220.555 182.46 220.555 182.089C220.555 181.754 220.676 181.48 220.917 181.267C221.159 181.053 221.484 180.946 221.893 180.946C222.311 180.946 222.636 181.048 222.868 181.253C223.1 181.448 223.217 181.727 223.217 182.089C223.217 182.433 223.096 182.711 222.854 182.925C222.622 183.139 222.302 183.245 221.893 183.245ZM225.102 192.108V184.709H227.221L227.29 186.214L226.844 186.381C226.946 186.046 227.128 185.744 227.388 185.475C227.657 185.196 227.978 184.973 228.349 184.806C228.721 184.639 229.111 184.555 229.52 184.555C230.077 184.555 230.546 184.671 230.927 184.904C231.308 185.127 231.596 185.466 231.791 185.921C231.986 186.367 232.084 186.915 232.084 187.565V192.108H229.84V187.746C229.84 187.449 229.798 187.203 229.715 187.008C229.631 186.813 229.501 186.669 229.325 186.576C229.157 186.474 228.948 186.427 228.698 186.437C228.503 186.437 228.321 186.469 228.154 186.534C227.987 186.59 227.843 186.678 227.722 186.799C227.601 186.91 227.504 187.04 227.43 187.189C227.365 187.338 227.332 187.5 227.332 187.677V192.108H226.231C225.971 192.108 225.748 192.108 225.562 192.108C225.377 192.108 225.223 192.108 225.102 192.108ZM237.334 195.313C236.73 195.313 236.126 195.225 235.522 195.048C234.928 194.872 234.445 194.644 234.073 194.365L234.853 192.805C235.049 192.935 235.262 193.046 235.494 193.139C235.736 193.241 235.987 193.32 236.247 193.376C236.507 193.432 236.772 193.46 237.041 193.46C237.515 193.46 237.9 193.39 238.198 193.251C238.495 193.111 238.718 192.898 238.867 192.61C239.015 192.331 239.09 191.978 239.09 191.551V190.31L239.522 190.38C239.457 190.687 239.294 190.965 239.034 191.216C238.783 191.467 238.472 191.671 238.1 191.829C237.729 191.978 237.334 192.052 236.916 192.052C236.247 192.052 235.648 191.899 235.118 191.592C234.598 191.276 234.185 190.845 233.878 190.296C233.581 189.739 233.432 189.098 233.432 188.373C233.432 187.63 233.581 186.975 233.878 186.409C234.175 185.833 234.584 185.382 235.104 185.057C235.624 184.723 236.21 184.555 236.86 184.555C237.139 184.555 237.403 184.588 237.654 184.653C237.914 184.718 238.151 184.806 238.365 184.918C238.588 185.02 238.783 185.145 238.95 185.294C239.127 185.433 239.266 185.586 239.368 185.754C239.48 185.921 239.554 186.093 239.591 186.269L239.131 186.381L239.215 184.709H241.333V191.509C241.333 192.113 241.24 192.647 241.054 193.111C240.878 193.585 240.613 193.984 240.26 194.31C239.916 194.644 239.498 194.895 239.006 195.062C238.514 195.229 237.956 195.313 237.334 195.313ZM237.39 190.324C237.752 190.324 238.063 190.245 238.323 190.087C238.593 189.92 238.797 189.693 238.936 189.405C239.085 189.117 239.159 188.778 239.159 188.387C239.159 187.997 239.085 187.658 238.936 187.37C238.797 187.073 238.593 186.845 238.323 186.687C238.063 186.52 237.752 186.437 237.39 186.437C237.037 186.437 236.73 186.52 236.47 186.687C236.21 186.845 236.005 187.073 235.857 187.37C235.717 187.658 235.648 187.997 235.648 188.387C235.648 188.778 235.717 189.117 235.857 189.405C236.005 189.693 236.21 189.92 236.47 190.087C236.73 190.245 237.037 190.324 237.39 190.324ZM245.627 192.247C244.903 192.247 244.262 192.131 243.704 191.899C243.156 191.667 242.72 191.355 242.395 190.965L243.746 189.795C244.034 190.083 244.359 190.296 244.722 190.436C245.084 190.566 245.428 190.631 245.753 190.631C245.883 190.631 245.999 190.617 246.101 190.589C246.203 190.561 246.287 190.524 246.352 190.478C246.426 190.422 246.482 190.361 246.519 190.296C246.556 190.222 246.575 190.138 246.575 190.046C246.575 189.86 246.491 189.716 246.324 189.614C246.241 189.567 246.101 189.511 245.906 189.446C245.711 189.381 245.46 189.307 245.154 189.223C244.717 189.112 244.336 188.982 244.011 188.833C243.695 188.675 243.435 188.494 243.231 188.29C243.045 188.095 242.901 187.881 242.799 187.649C242.697 187.407 242.645 187.138 242.645 186.841C242.645 186.497 242.724 186.186 242.882 185.907C243.05 185.628 243.268 185.387 243.537 185.182C243.816 184.978 244.132 184.825 244.485 184.723C244.847 184.611 245.219 184.555 245.6 184.555C246.008 184.555 246.398 184.602 246.77 184.695C247.142 184.788 247.485 184.918 247.801 185.085C248.126 185.252 248.414 185.452 248.665 185.684L247.495 186.994C247.327 186.836 247.137 186.697 246.923 186.576C246.719 186.446 246.505 186.344 246.282 186.269C246.059 186.195 245.855 186.158 245.669 186.158C245.53 186.158 245.404 186.172 245.293 186.2C245.191 186.218 245.103 186.255 245.028 186.311C244.954 186.358 244.898 186.418 244.861 186.492C244.824 186.557 244.805 186.636 244.805 186.729C244.805 186.822 244.829 186.91 244.875 186.994C244.931 187.078 245.005 187.147 245.098 187.203C245.191 187.259 245.339 187.324 245.544 187.398C245.748 187.463 246.027 187.547 246.38 187.649C246.817 187.77 247.193 187.904 247.509 188.053C247.824 188.202 248.075 188.378 248.261 188.582C248.41 188.74 248.521 188.926 248.596 189.14C248.67 189.344 248.707 189.567 248.707 189.809C248.707 190.282 248.572 190.705 248.303 191.077C248.043 191.439 247.68 191.727 247.216 191.941C246.751 192.145 246.222 192.247 245.627 192.247Z" fill="#05243F"/>
<path d="M308.931 187.337L301.923 180.329C301.819 180.224 301.695 180.142 301.559 180.085C301.423 180.029 301.277 180 301.13 180C300.983 180 300.837 180.029 300.701 180.085C300.564 180.142 300.441 180.224 300.337 180.329L293.329 187.337C293.224 187.441 293.142 187.564 293.085 187.701C293.029 187.837 293 187.983 293 188.13C293 188.277 293.029 188.423 293.085 188.559C293.142 188.695 293.224 188.819 293.329 188.923L300.337 195.931C300.441 196.035 300.564 196.118 300.701 196.174C300.837 196.231 300.983 196.26 301.13 196.26C301.277 196.26 301.423 196.231 301.559 196.174C301.695 196.118 301.819 196.035 301.923 195.931L308.931 188.923C309.035 188.819 309.118 188.695 309.174 188.559C309.231 188.423 309.26 188.277 309.26 188.13C309.26 187.983 309.231 187.837 309.174 187.701C309.118 187.564 309.035 187.441 308.931 187.337ZM304.223 187.971L302.597 189.597C302.496 189.699 302.358 189.756 302.214 189.756C302.07 189.756 301.932 189.699 301.83 189.597C301.729 189.496 301.672 189.358 301.672 189.214C301.672 189.07 301.729 188.932 301.83 188.83L302.532 188.13H300.046C299.758 188.13 299.483 188.244 299.279 188.447C299.076 188.651 298.962 188.926 298.962 189.214V189.756C298.962 189.9 298.905 190.037 298.803 190.139C298.702 190.241 298.564 190.298 298.42 190.298C298.276 190.298 298.138 190.241 298.037 190.139C297.935 190.037 297.878 189.9 297.878 189.756V189.214C297.878 188.639 298.106 188.087 298.513 187.681C298.919 187.274 299.471 187.046 300.046 187.046H302.532L301.83 186.345C301.729 186.244 301.672 186.106 301.672 185.962C301.672 185.818 301.729 185.68 301.83 185.578C301.932 185.477 302.07 185.42 302.214 185.42C302.358 185.42 302.496 185.477 302.597 185.578L304.223 187.204C304.274 187.255 304.314 187.315 304.341 187.38C304.368 187.446 304.382 187.517 304.382 187.588C304.382 187.659 304.368 187.73 304.341 187.795C304.314 187.861 304.274 187.921 304.223 187.971Z" fill="#E3586B"/>
<path opacity="0.4" d="M325.658 192.506C324.915 192.506 324.237 192.38 323.624 192.129C323.011 191.879 322.477 191.526 322.022 191.071C321.567 190.616 321.214 190.082 320.963 189.469C320.713 188.856 320.587 188.183 320.587 187.449C320.587 186.715 320.713 186.042 320.963 185.429C321.214 184.816 321.567 184.282 322.022 183.827C322.477 183.372 323.011 183.019 323.624 182.768C324.237 182.518 324.91 182.392 325.644 182.392C326.378 182.392 327.051 182.518 327.664 182.768C328.277 183.019 328.811 183.372 329.266 183.827C329.721 184.282 330.069 184.816 330.31 185.429C330.561 186.042 330.687 186.715 330.687 187.449C330.687 188.173 330.561 188.847 330.31 189.469C330.069 190.082 329.721 190.616 329.266 191.071C328.811 191.526 328.277 191.879 327.664 192.129C327.051 192.38 326.382 192.506 325.658 192.506ZM325.644 190.277C326.025 190.277 326.373 190.207 326.689 190.068C327.014 189.928 327.292 189.733 327.524 189.483C327.766 189.223 327.952 188.921 328.082 188.577C328.212 188.234 328.277 187.858 328.277 187.449C328.277 187.04 328.212 186.664 328.082 186.321C327.952 185.977 327.766 185.68 327.524 185.429C327.292 185.169 327.014 184.969 326.689 184.83C326.373 184.691 326.025 184.621 325.644 184.621C325.263 184.621 324.91 184.691 324.585 184.83C324.269 184.969 323.991 185.169 323.749 185.429C323.508 185.68 323.322 185.977 323.192 186.321C323.071 186.664 323.011 187.04 323.011 187.449C323.011 187.858 323.071 188.238 323.192 188.591C323.322 188.935 323.508 189.232 323.749 189.483C323.991 189.733 324.269 189.928 324.585 190.068C324.91 190.207 325.263 190.277 325.644 190.277ZM332.742 192.366V184.607C332.742 184.124 332.844 183.688 333.048 183.298C333.262 182.908 333.554 182.601 333.926 182.378C334.306 182.146 334.747 182.03 335.249 182.03C335.602 182.03 335.927 182.081 336.224 182.183C336.521 182.286 336.786 182.429 337.018 182.615L336.377 184.245C336.257 184.18 336.14 184.129 336.029 184.092C335.918 184.055 335.815 184.036 335.723 184.036C335.555 184.036 335.416 184.064 335.305 184.12C335.193 184.175 335.11 184.264 335.054 184.384C335.007 184.496 334.984 184.635 334.984 184.802V192.366H333.87C333.619 192.366 333.396 192.366 333.201 192.366C333.015 192.366 332.862 192.366 332.742 192.366ZM331.669 187.017V185.178H336.503V187.017H331.669ZM338.216 192.366V184.607C338.216 184.124 338.318 183.688 338.522 183.298C338.736 182.908 339.029 182.601 339.4 182.378C339.781 182.146 340.222 182.03 340.723 182.03C341.076 182.03 341.401 182.081 341.699 182.183C341.996 182.286 342.26 182.429 342.493 182.615L341.852 184.245C341.731 184.18 341.615 184.129 341.503 184.092C341.392 184.055 341.29 184.036 341.197 184.036C341.03 184.036 340.891 184.064 340.779 184.12C340.668 184.175 340.584 184.264 340.528 184.384C340.482 184.496 340.459 184.635 340.459 184.802V192.366H339.344C339.094 192.366 338.871 192.366 338.676 192.366C338.49 192.366 338.337 192.366 338.216 192.366ZM337.143 187.017V185.178H341.977V187.017H337.143ZM346.485 192.506C345.668 192.506 344.957 192.343 344.354 192.018C343.75 191.684 343.281 191.233 342.947 190.667C342.612 190.091 342.445 189.436 342.445 188.703C342.445 188.136 342.538 187.616 342.724 187.142C342.91 186.669 343.17 186.26 343.504 185.917C343.838 185.564 344.233 185.294 344.688 185.109C345.152 184.914 345.658 184.816 346.206 184.816C346.726 184.816 347.2 184.909 347.627 185.095C348.064 185.28 348.44 185.541 348.755 185.875C349.071 186.209 349.313 186.604 349.48 187.059C349.647 187.514 349.721 188.011 349.703 188.549L349.689 189.148H343.796L343.476 187.895H347.878L347.641 188.159V187.881C347.622 187.649 347.548 187.444 347.418 187.268C347.297 187.082 347.135 186.938 346.931 186.836C346.726 186.734 346.494 186.683 346.234 186.683C345.872 186.683 345.561 186.757 345.301 186.906C345.05 187.045 344.86 187.254 344.73 187.533C344.6 187.802 344.535 188.136 344.535 188.535C344.535 188.944 344.618 189.302 344.785 189.608C344.962 189.905 345.213 190.137 345.538 190.305C345.872 190.472 346.267 190.555 346.722 190.555C347.037 190.555 347.316 190.509 347.557 190.416C347.808 190.323 348.078 190.165 348.365 189.942L349.41 191.419C349.122 191.67 348.816 191.874 348.491 192.032C348.166 192.19 347.831 192.306 347.488 192.38C347.154 192.464 346.819 192.506 346.485 192.506ZM351.123 192.366V184.969H353.24L353.31 186.474L352.864 186.641C352.966 186.307 353.147 186.005 353.407 185.736C353.677 185.457 353.997 185.234 354.368 185.067C354.74 184.9 355.13 184.816 355.539 184.816C356.096 184.816 356.565 184.932 356.945 185.164C357.326 185.387 357.614 185.726 357.809 186.181C358.004 186.627 358.102 187.175 358.102 187.825V192.366H355.859V188.006C355.859 187.709 355.817 187.463 355.734 187.268C355.65 187.073 355.52 186.929 355.343 186.836C355.176 186.734 354.967 186.687 354.717 186.697C354.522 186.697 354.341 186.729 354.173 186.794C354.006 186.85 353.862 186.938 353.742 187.059C353.621 187.17 353.523 187.3 353.449 187.449C353.384 187.598 353.352 187.76 353.352 187.936V192.366H352.251C351.991 192.366 351.768 192.366 351.582 192.366C351.397 192.366 351.243 192.366 351.123 192.366ZM362.458 192.506C361.734 192.506 361.093 192.389 360.536 192.157C359.988 191.925 359.552 191.614 359.227 191.224L360.578 190.054C360.866 190.342 361.191 190.555 361.553 190.695C361.915 190.825 362.259 190.89 362.584 190.89C362.714 190.89 362.83 190.876 362.932 190.848C363.034 190.82 363.118 190.783 363.183 190.736C363.257 190.681 363.313 190.62 363.35 190.555C363.387 190.481 363.406 190.397 363.406 190.305C363.406 190.119 363.322 189.975 363.155 189.873C363.071 189.826 362.932 189.771 362.737 189.706C362.542 189.641 362.291 189.566 361.985 189.483C361.548 189.371 361.168 189.241 360.843 189.093C360.527 188.935 360.267 188.754 360.062 188.549C359.877 188.354 359.733 188.141 359.631 187.909C359.529 187.667 359.477 187.398 359.477 187.101C359.477 186.757 359.556 186.446 359.714 186.167C359.881 185.889 360.1 185.647 360.369 185.443C360.648 185.239 360.963 185.085 361.316 184.983C361.678 184.872 362.05 184.816 362.431 184.816C362.839 184.816 363.229 184.863 363.601 184.955C363.972 185.048 364.316 185.178 364.632 185.345C364.957 185.513 365.244 185.712 365.495 185.944L364.325 187.254C364.158 187.096 363.968 186.957 363.754 186.836C363.55 186.706 363.336 186.604 363.113 186.53C362.89 186.455 362.686 186.418 362.5 186.418C362.361 186.418 362.236 186.432 362.124 186.46C362.022 186.478 361.934 186.516 361.859 186.571C361.785 186.618 361.729 186.678 361.692 186.752C361.655 186.817 361.637 186.896 361.637 186.989C361.637 187.082 361.66 187.17 361.706 187.254C361.762 187.337 361.836 187.407 361.929 187.463C362.022 187.519 362.171 187.584 362.375 187.658C362.579 187.723 362.858 187.806 363.211 187.909C363.647 188.029 364.023 188.164 364.339 188.313C364.655 188.461 364.905 188.638 365.091 188.842C365.24 189 365.351 189.186 365.426 189.399C365.5 189.603 365.537 189.826 365.537 190.068C365.537 190.541 365.402 190.964 365.133 191.335C364.873 191.698 364.511 191.985 364.046 192.199C363.582 192.403 363.053 192.506 362.458 192.506ZM370.386 192.506C369.569 192.506 368.859 192.343 368.255 192.018C367.651 191.684 367.182 191.233 366.848 190.667C366.514 190.091 366.347 189.436 366.347 188.703C366.347 188.136 366.439 187.616 366.625 187.142C366.811 186.669 367.071 186.26 367.405 185.917C367.74 185.564 368.134 185.294 368.589 185.109C369.054 184.914 369.56 184.816 370.108 184.816C370.628 184.816 371.101 184.909 371.529 185.095C371.965 185.28 372.341 185.541 372.657 185.875C372.973 186.209 373.214 186.604 373.381 187.059C373.548 187.514 373.623 188.011 373.604 188.549L373.59 189.148H367.698L367.377 187.895H371.779L371.542 188.159V187.881C371.524 187.649 371.45 187.444 371.32 187.268C371.199 187.082 371.036 186.938 370.832 186.836C370.628 186.734 370.396 186.683 370.136 186.683C369.773 186.683 369.462 186.757 369.202 186.906C368.951 187.045 368.761 187.254 368.631 187.533C368.501 187.802 368.436 188.136 368.436 188.535C368.436 188.944 368.52 189.302 368.687 189.608C368.863 189.905 369.114 190.137 369.439 190.305C369.773 190.472 370.168 190.555 370.623 190.555C370.939 190.555 371.217 190.509 371.459 190.416C371.71 190.323 371.979 190.165 372.267 189.942L373.312 191.419C373.024 191.67 372.717 191.874 372.392 192.032C372.067 192.19 371.733 192.306 371.389 192.38C371.055 192.464 370.721 192.506 370.386 192.506Z" fill="#05243F"/>
</svg>
