<svg width="465" height="217" viewBox="0 0 465 217" fill="none" xmlns="http://www.w3.org/2000/svg">
<rect x="0.398438" y="0.18457" width="464.174" height="74.8188" rx="20" fill="white"/>
<path d="M38.987 44.0938L33.947 31.4937H37.133L39.563 37.9197C39.707 38.2917 39.827 38.6157 39.923 38.8917C40.031 39.1677 40.121 39.4257 40.193 39.6657C40.277 39.9057 40.349 40.1517 40.409 40.4037C40.481 40.6437 40.559 40.9197 40.643 41.2317H40.085C40.181 40.8237 40.277 40.4637 40.373 40.1517C40.469 39.8277 40.577 39.4977 40.697 39.1617C40.817 38.8137 40.967 38.3997 41.147 37.9197L43.487 31.4937H46.619L41.543 44.0938H38.987ZM51.4492 44.2738C50.3932 44.2738 49.4752 44.0638 48.6952 43.6437C47.9152 43.2117 47.3092 42.6297 46.8772 41.8977C46.4452 41.1537 46.2292 40.3077 46.2292 39.3597C46.2292 38.6277 46.3492 37.9557 46.5892 37.3437C46.8292 36.7317 47.1652 36.2037 47.5972 35.7597C48.0292 35.3037 48.5392 34.9557 49.1272 34.7157C49.7272 34.4637 50.3812 34.3377 51.0892 34.3377C51.7612 34.3377 52.3732 34.4577 52.9252 34.6977C53.4892 34.9377 53.9752 35.2737 54.3832 35.7057C54.7912 36.1377 55.1032 36.6477 55.3192 37.2357C55.5352 37.8237 55.6312 38.4657 55.6072 39.1617L55.5892 39.9357H47.9752L47.5612 38.3157H53.2492L52.9432 38.6577V38.2977C52.9192 37.9977 52.8232 37.7337 52.6552 37.5057C52.4992 37.2657 52.2892 37.0797 52.0252 36.9477C51.7612 36.8157 51.4612 36.7497 51.1252 36.7497C50.6572 36.7497 50.2552 36.8457 49.9192 37.0377C49.5952 37.2177 49.3492 37.4877 49.1812 37.8477C49.0132 38.1957 48.9292 38.6277 48.9292 39.1437C48.9292 39.6717 49.0372 40.1337 49.2532 40.5297C49.4812 40.9137 49.8052 41.2137 50.2252 41.4297C50.6572 41.6457 51.1672 41.7537 51.7552 41.7537C52.1632 41.7537 52.5232 41.6937 52.8352 41.5737C53.1592 41.4537 53.5072 41.2497 53.8792 40.9617L55.2292 42.8697C54.8572 43.1937 54.4612 43.4577 54.0412 43.6617C53.6212 43.8657 53.1892 44.0157 52.7452 44.1118C52.3132 44.2198 51.8812 44.2738 51.4492 44.2738ZM57.4421 44.0938V30.7737H60.2681V36.4797L59.6921 36.6957C59.8241 36.2637 60.0581 35.8737 60.3941 35.5257C60.7421 35.1657 61.1561 34.8777 61.6361 34.6617C62.1161 34.4457 62.6201 34.3377 63.1481 34.3377C63.8681 34.3377 64.4741 34.4877 64.9661 34.7877C65.4581 35.0757 65.8301 35.5137 66.0821 36.1017C66.3341 36.6777 66.4601 37.3857 66.4601 38.2257V44.0938H63.5621V38.4597C63.5621 38.0757 63.5081 37.7577 63.4001 37.5057C63.2921 37.2537 63.1241 37.0677 62.8961 36.9477C62.6801 36.8157 62.4101 36.7557 62.0861 36.7677C61.8341 36.7677 61.6001 36.8097 61.3841 36.8937C61.1681 36.9657 60.9821 37.0797 60.8261 37.2357C60.6701 37.3797 60.5441 37.5477 60.4481 37.7397C60.3641 37.9317 60.3221 38.1417 60.3221 38.3697V44.0938H58.9001C58.5641 44.0938 58.2761 44.0938 58.0361 44.0938C57.7961 44.0938 57.5981 44.0938 57.4421 44.0938ZM69.0298 44.0938V34.5357H71.9098V44.0938H69.0298ZM70.4698 32.6457C69.9298 32.6457 69.5038 32.5197 69.1918 32.2677C68.8918 32.0037 68.7418 31.6317 68.7418 31.1517C68.7418 30.7197 68.8978 30.3657 69.2098 30.0897C69.5218 29.8137 69.9418 29.6757 70.4698 29.6757C71.0098 29.6757 71.4298 29.8077 71.7298 30.0717C72.0298 30.3237 72.1798 30.6837 72.1798 31.1517C72.1798 31.5957 72.0238 31.9557 71.7118 32.2317C71.4118 32.5077 70.9978 32.6457 70.4698 32.6457ZM78.8099 44.2738C77.8859 44.2738 77.0579 44.0578 76.3259 43.6257C75.5939 43.1937 75.0119 42.6057 74.5799 41.8617C74.1599 41.1057 73.9499 40.2537 73.9499 39.3057C73.9499 38.3577 74.1599 37.5117 74.5799 36.7677C75.0119 36.0117 75.5939 35.4177 76.3259 34.9857C77.0579 34.5537 77.8859 34.3377 78.8099 34.3377C79.6619 34.3377 80.4419 34.4877 81.1499 34.7877C81.8699 35.0877 82.4399 35.5077 82.8599 36.0477L81.2939 37.9197C81.1259 37.7277 80.9279 37.5477 80.6999 37.3797C80.4719 37.2117 80.2199 37.0797 79.9439 36.9837C79.6679 36.8877 79.3799 36.8397 79.0799 36.8397C78.6239 36.8397 78.2219 36.9477 77.8739 37.1637C77.5259 37.3677 77.2559 37.6557 77.0639 38.0277C76.8719 38.3997 76.7759 38.8257 76.7759 39.3057C76.7759 39.7617 76.8719 40.1757 77.0639 40.5477C77.2679 40.9197 77.5439 41.2137 77.8919 41.4297C78.2399 41.6457 78.6359 41.7537 79.0799 41.7537C79.3919 41.7537 79.6799 41.7177 79.9439 41.6457C80.2079 41.5617 80.4479 41.4417 80.6639 41.2857C80.8919 41.1297 81.1019 40.9377 81.2939 40.7097L82.8419 42.5997C82.4339 43.1157 81.8639 43.5237 81.1319 43.8237C80.4119 44.1238 79.6379 44.2738 78.8099 44.2738ZM84.4425 44.0938V30.7737H87.3225V44.0938H84.4425ZM94.2695 44.2738C93.2135 44.2738 92.2955 44.0638 91.5155 43.6437C90.7355 43.2117 90.1295 42.6297 89.6975 41.8977C89.2655 41.1537 89.0495 40.3077 89.0495 39.3597C89.0495 38.6277 89.1695 37.9557 89.4095 37.3437C89.6495 36.7317 89.9855 36.2037 90.4175 35.7597C90.8495 35.3037 91.3595 34.9557 91.9475 34.7157C92.5475 34.4637 93.2015 34.3377 93.9095 34.3377C94.5815 34.3377 95.1935 34.4577 95.7455 34.6977C96.3095 34.9377 96.7955 35.2737 97.2035 35.7057C97.6115 36.1377 97.9235 36.6477 98.1395 37.2357C98.3555 37.8237 98.4515 38.4657 98.4275 39.1617L98.4095 39.9357H90.7955L90.3815 38.3157H96.0695L95.7635 38.6577V38.2977C95.7395 37.9977 95.6435 37.7337 95.4755 37.5057C95.3195 37.2657 95.1095 37.0797 94.8455 36.9477C94.5815 36.8157 94.2815 36.7497 93.9455 36.7497C93.4775 36.7497 93.0755 36.8457 92.7395 37.0377C92.4155 37.2177 92.1695 37.4877 92.0015 37.8477C91.8335 38.1957 91.7495 38.6277 91.7495 39.1437C91.7495 39.6717 91.8575 40.1337 92.0735 40.5297C92.3015 40.9137 92.6255 41.2137 93.0455 41.4297C93.4775 41.6457 93.9875 41.7537 94.5755 41.7537C94.9835 41.7537 95.3435 41.6937 95.6555 41.5737C95.9795 41.4537 96.3275 41.2497 96.6995 40.9617L98.0495 42.8697C97.6775 43.1937 97.2815 43.4577 96.8615 43.6617C96.4415 43.8657 96.0095 44.0157 95.5655 44.1118C95.1335 44.2198 94.7015 44.2738 94.2695 44.2738ZM106.334 44.0938V31.4937H111.77C112.562 31.4937 113.264 31.6737 113.876 32.0337C114.5 32.3937 114.992 32.8857 115.352 33.5098C115.724 34.1337 115.91 34.8357 115.91 35.6157C115.91 36.4317 115.724 37.1637 115.352 37.8117C114.992 38.4477 114.5 38.9517 113.876 39.3237C113.264 39.6957 112.562 39.8817 111.77 39.8817H109.394V44.0938H106.334ZM109.34 37.1997H111.338C111.602 37.1997 111.842 37.1337 112.058 37.0017C112.274 36.8697 112.448 36.6897 112.58 36.4617C112.712 36.2337 112.778 35.9697 112.778 35.6697C112.778 35.3577 112.712 35.0937 112.58 34.8777C112.448 34.6617 112.274 34.4937 112.058 34.3737C111.842 34.2537 111.602 34.1937 111.338 34.1937H109.34V37.1997ZM121.298 44.2558C120.494 44.2558 119.774 44.0458 119.138 43.6257C118.514 43.1937 118.016 42.6057 117.644 41.8617C117.272 41.1057 117.086 40.2537 117.086 39.3057C117.086 38.3337 117.272 37.4757 117.644 36.7317C118.016 35.9877 118.526 35.4057 119.174 34.9857C119.822 34.5537 120.56 34.3377 121.388 34.3377C121.844 34.3377 122.258 34.4037 122.63 34.5357C123.014 34.6677 123.35 34.8537 123.638 35.0938C123.926 35.3217 124.172 35.5917 124.376 35.9037C124.58 36.2037 124.73 36.5277 124.826 36.8757L124.232 36.8037V34.5357H127.094V44.0938H124.178V41.7897L124.826 41.7717C124.73 42.1077 124.574 42.4257 124.358 42.7257C124.142 43.0257 123.878 43.2897 123.566 43.5177C123.254 43.7457 122.906 43.9257 122.522 44.0577C122.138 44.1898 121.73 44.2558 121.298 44.2558ZM122.09 41.8257C122.534 41.8257 122.918 41.7237 123.242 41.5197C123.566 41.3157 123.818 41.0277 123.998 40.6557C124.178 40.2717 124.268 39.8217 124.268 39.3057C124.268 38.7897 124.178 38.3457 123.998 37.9737C123.818 37.5897 123.566 37.2957 123.242 37.0917C122.918 36.8757 122.534 36.7677 122.09 36.7677C121.658 36.7677 121.28 36.8757 120.956 37.0917C120.644 37.2957 120.398 37.5897 120.218 37.9737C120.038 38.3457 119.948 38.7897 119.948 39.3057C119.948 39.8217 120.038 40.2717 120.218 40.6557C120.398 41.0277 120.644 41.3157 120.956 41.5197C121.28 41.7237 121.658 41.8257 122.09 41.8257ZM129.635 48.0538V34.5357H132.371L132.479 36.6777L131.939 36.5157C132.023 36.1197 132.227 35.7597 132.551 35.4357C132.875 35.1117 133.283 34.8537 133.775 34.6617C134.279 34.4577 134.807 34.3557 135.359 34.3557C136.175 34.3557 136.901 34.5717 137.537 35.0038C138.173 35.4237 138.671 36.0057 139.031 36.7497C139.403 37.4817 139.589 38.3337 139.589 39.3057C139.589 40.2657 139.403 41.1177 139.031 41.8617C138.671 42.6057 138.167 43.1937 137.519 43.6257C136.883 44.0458 136.151 44.2558 135.323 44.2558C134.783 44.2558 134.267 44.1538 133.775 43.9497C133.283 43.7457 132.869 43.4697 132.533 43.1217C132.197 42.7737 131.975 42.3957 131.867 41.9877L132.533 41.7357V48.0538H129.635ZM134.621 41.8257C135.053 41.8257 135.431 41.7237 135.755 41.5197C136.079 41.3037 136.331 41.0097 136.511 40.6377C136.691 40.2657 136.781 39.8217 136.781 39.3057C136.781 38.8017 136.691 38.3637 136.511 37.9917C136.331 37.6077 136.079 37.3137 135.755 37.1097C135.443 36.8937 135.065 36.7857 134.621 36.7857C134.177 36.7857 133.793 36.8877 133.469 37.0917C133.145 37.2957 132.893 37.5897 132.713 37.9737C132.533 38.3577 132.443 38.8017 132.443 39.3057C132.443 39.8217 132.533 40.2657 132.713 40.6377C132.893 41.0097 133.145 41.3037 133.469 41.5197C133.793 41.7237 134.177 41.8257 134.621 41.8257ZM146.055 44.2738C144.999 44.2738 144.081 44.0638 143.301 43.6437C142.521 43.2117 141.915 42.6297 141.483 41.8977C141.051 41.1537 140.835 40.3077 140.835 39.3597C140.835 38.6277 140.955 37.9557 141.195 37.3437C141.435 36.7317 141.771 36.2037 142.203 35.7597C142.635 35.3037 143.145 34.9557 143.733 34.7157C144.333 34.4637 144.987 34.3377 145.695 34.3377C146.367 34.3377 146.979 34.4577 147.531 34.6977C148.095 34.9377 148.581 35.2737 148.989 35.7057C149.397 36.1377 149.709 36.6477 149.925 37.2357C150.141 37.8237 150.237 38.4657 150.213 39.1617L150.195 39.9357H142.581L142.167 38.3157H147.855L147.549 38.6577V38.2977C147.525 37.9977 147.429 37.7337 147.261 37.5057C147.105 37.2657 146.895 37.0797 146.631 36.9477C146.367 36.8157 146.067 36.7497 145.731 36.7497C145.263 36.7497 144.861 36.8457 144.525 37.0377C144.201 37.2177 143.955 37.4877 143.787 37.8477C143.619 38.1957 143.535 38.6277 143.535 39.1437C143.535 39.6717 143.643 40.1337 143.859 40.5297C144.087 40.9137 144.411 41.2137 144.831 41.4297C145.263 41.6457 145.773 41.7537 146.361 41.7537C146.769 41.7537 147.129 41.6937 147.441 41.5737C147.765 41.4537 148.113 41.2497 148.485 40.9617L149.835 42.8697C149.463 43.1937 149.067 43.4577 148.647 43.6617C148.227 43.8657 147.795 44.0157 147.351 44.1118C146.919 44.2198 146.487 44.2738 146.055 44.2738ZM152.048 44.0938V34.5357H154.784L154.91 37.6497L154.37 37.0557C154.514 36.5397 154.748 36.0777 155.072 35.6697C155.408 35.2617 155.798 34.9377 156.242 34.6977C156.686 34.4577 157.16 34.3377 157.664 34.3377C157.88 34.3377 158.078 34.3557 158.258 34.3917C158.45 34.4277 158.624 34.4697 158.78 34.5177L157.988 37.7037C157.856 37.6197 157.676 37.5537 157.448 37.5057C157.232 37.4457 157.004 37.4157 156.764 37.4157C156.5 37.4157 156.254 37.4637 156.026 37.5597C155.798 37.6437 155.606 37.7697 155.45 37.9377C155.294 38.1057 155.168 38.3037 155.072 38.5317C154.988 38.7597 154.946 39.0177 154.946 39.3057V44.0938H152.048Z" fill="#05243F"/>
<path fill-rule="evenodd" clip-rule="evenodd" d="M325.898 37.5938C325.898 32.0708 321.421 27.5938 315.898 27.5938C310.375 27.5938 305.898 32.0708 305.898 37.5938C305.898 43.1167 310.375 47.5938 315.898 47.5938C321.421 47.5938 325.898 43.1167 325.898 37.5938ZM315.898 32.5938C316.164 32.5938 316.418 32.6991 316.606 32.8866C316.793 33.0742 316.898 33.3285 316.898 33.5938V38.5938C316.898 38.859 316.793 39.1133 316.606 39.3009C316.418 39.4884 316.164 39.5938 315.898 39.5938C315.633 39.5938 315.379 39.4884 315.191 39.3009C315.004 39.1133 314.898 38.859 314.898 38.5938V33.5938C314.898 33.3285 315.004 33.0742 315.191 32.8866C315.379 32.6991 315.633 32.5938 315.898 32.5938ZM314.898 41.5938C314.898 41.3285 315.004 41.0742 315.191 40.8866C315.379 40.6991 315.633 40.5938 315.898 40.5938H315.906C316.172 40.5938 316.426 40.6991 316.614 40.8866C316.801 41.0742 316.906 41.3285 316.906 41.5938C316.906 41.859 316.801 42.1133 316.614 42.3009C316.426 42.4884 316.172 42.5938 315.906 42.5938H315.898C315.633 42.5938 315.379 42.4884 315.191 42.3009C315.004 42.1133 314.898 41.859 314.898 41.5938Z" fill="#E3586B"/>
<path d="M342.444 45.0938V31.0937H352.204V33.9937H345.744V42.1937H352.404V45.0938H342.444ZM344.044 39.3537V36.5937H351.304V39.3537H344.044ZM361.534 45.0938L359.274 41.6737L358.234 40.2137L354.034 34.4737H357.874L360.054 37.7337L361.194 39.2937L365.334 45.0938H361.534ZM353.934 45.0938L358.214 39.1337L359.934 41.1937L357.714 45.0938H353.934ZM360.954 40.4737L359.254 38.4337L361.354 34.4737H365.134L360.954 40.4737ZM367.123 49.4938V34.4737H370.163L370.283 36.8537L369.683 36.6737C369.776 36.2337 370.003 35.8337 370.363 35.4737C370.723 35.1137 371.176 34.8271 371.723 34.6137C372.283 34.3871 372.87 34.2737 373.483 34.2737C374.39 34.2737 375.196 34.5137 375.903 34.9938C376.61 35.4604 377.163 36.1071 377.563 36.9337C377.976 37.7471 378.183 38.6937 378.183 39.7737C378.183 40.8404 377.976 41.7871 377.563 42.6137C377.163 43.4404 376.603 44.0937 375.883 44.5737C375.176 45.0404 374.363 45.2738 373.443 45.2738C372.843 45.2738 372.27 45.1604 371.723 44.9337C371.176 44.7071 370.716 44.4004 370.343 44.0137C369.97 43.6271 369.723 43.2071 369.603 42.7537L370.343 42.4737V49.4938H367.123ZM372.663 42.5737C373.143 42.5737 373.563 42.4604 373.923 42.2337C374.283 41.9937 374.563 41.6671 374.763 41.2537C374.963 40.8404 375.063 40.3471 375.063 39.7737C375.063 39.2137 374.963 38.7271 374.763 38.3137C374.563 37.8871 374.283 37.5604 373.923 37.3337C373.576 37.0937 373.156 36.9737 372.663 36.9737C372.17 36.9737 371.743 37.0871 371.383 37.3137C371.023 37.5404 370.743 37.8671 370.543 38.2937C370.343 38.7204 370.243 39.2137 370.243 39.7737C370.243 40.3471 370.343 40.8404 370.543 41.2537C370.743 41.6671 371.023 41.9937 371.383 42.2337C371.743 42.4604 372.17 42.5737 372.663 42.5737ZM380.487 45.0938V34.4737H383.687V45.0938H380.487ZM382.087 32.3737C381.487 32.3737 381.013 32.2337 380.667 31.9537C380.333 31.6604 380.167 31.2471 380.167 30.7137C380.167 30.2337 380.34 29.8404 380.687 29.5337C381.033 29.2271 381.5 29.0737 382.087 29.0737C382.687 29.0737 383.153 29.2204 383.487 29.5137C383.82 29.7937 383.987 30.1937 383.987 30.7137C383.987 31.2071 383.813 31.6071 383.467 31.9137C383.133 32.2204 382.673 32.3737 382.087 32.3737ZM386.693 45.0938V34.4737H389.733L389.873 37.9337L389.273 37.2737C389.433 36.7004 389.693 36.1871 390.053 35.7337C390.427 35.2804 390.86 34.9204 391.353 34.6537C391.847 34.3871 392.373 34.2537 392.933 34.2537C393.173 34.2537 393.393 34.2737 393.593 34.3137C393.807 34.3537 394 34.4004 394.173 34.4537L393.293 37.9937C393.147 37.9004 392.947 37.8271 392.693 37.7737C392.453 37.7071 392.2 37.6737 391.933 37.6737C391.64 37.6737 391.367 37.7271 391.113 37.8337C390.86 37.9271 390.647 38.0671 390.473 38.2537C390.3 38.4404 390.16 38.6604 390.053 38.9137C389.96 39.1671 389.913 39.4537 389.913 39.7737V45.0938H386.693ZM400.406 45.2938C399.232 45.2938 398.212 45.0604 397.346 44.5937C396.479 44.1137 395.806 43.4671 395.326 42.6537C394.846 41.8271 394.606 40.8871 394.606 39.8337C394.606 39.0204 394.739 38.2737 395.006 37.5937C395.272 36.9137 395.646 36.3271 396.126 35.8337C396.606 35.3271 397.172 34.9404 397.826 34.6737C398.492 34.3937 399.219 34.2537 400.006 34.2537C400.752 34.2537 401.432 34.3871 402.046 34.6537C402.672 34.9204 403.212 35.2937 403.666 35.7737C404.119 36.2537 404.466 36.8204 404.706 37.4737C404.946 38.1271 405.052 38.8404 405.026 39.6137L405.006 40.4737H396.546L396.086 38.6737H402.406L402.066 39.0537V38.6537C402.039 38.3204 401.932 38.0271 401.746 37.7737C401.572 37.5071 401.339 37.3004 401.046 37.1537C400.752 37.0071 400.419 36.9337 400.046 36.9337C399.526 36.9337 399.079 37.0404 398.706 37.2537C398.346 37.4537 398.072 37.7537 397.886 38.1537C397.699 38.5404 397.606 39.0204 397.606 39.5937C397.606 40.1804 397.726 40.6937 397.966 41.1337C398.219 41.5604 398.579 41.8937 399.046 42.1337C399.526 42.3737 400.092 42.4937 400.746 42.4937C401.199 42.4937 401.599 42.4271 401.946 42.2937C402.306 42.1604 402.692 41.9337 403.106 41.6137L404.606 43.7337C404.192 44.0937 403.752 44.3871 403.286 44.6137C402.819 44.8404 402.339 45.0071 401.846 45.1138C401.366 45.2338 400.886 45.2938 400.406 45.2938ZM411.085 45.3138C410.165 45.3138 409.345 45.0804 408.625 44.6137C407.918 44.1337 407.358 43.4804 406.945 42.6537C406.531 41.8137 406.325 40.8604 406.325 39.7937C406.325 38.7271 406.531 37.7804 406.945 36.9537C407.358 36.1137 407.925 35.4537 408.645 34.9737C409.365 34.4937 410.191 34.2537 411.125 34.2537C411.605 34.2537 412.065 34.3271 412.505 34.4737C412.945 34.6204 413.345 34.8204 413.705 35.0737C414.065 35.3271 414.358 35.6204 414.585 35.9537C414.811 36.2737 414.945 36.6071 414.985 36.9537L414.225 37.1337V30.2937H417.445V45.0938H414.465L414.285 42.6737L414.925 42.7737C414.885 43.1071 414.751 43.4271 414.525 43.7337C414.311 44.0404 414.031 44.3137 413.685 44.5537C413.338 44.7804 412.938 44.9604 412.485 45.0938C412.045 45.2404 411.578 45.3138 411.085 45.3138ZM411.905 42.6537C412.398 42.6537 412.825 42.5337 413.185 42.2937C413.545 42.0537 413.818 41.7204 414.005 41.2937C414.205 40.8671 414.305 40.3671 414.305 39.7937C414.305 39.2071 414.205 38.7004 414.005 38.2737C413.818 37.8471 413.545 37.5137 413.185 37.2737C412.825 37.0337 412.398 36.9137 411.905 36.9137C411.411 36.9137 410.985 37.0337 410.625 37.2737C410.278 37.5137 410.005 37.8471 409.805 38.2737C409.605 38.7004 409.505 39.2071 409.505 39.7937C409.505 40.3671 409.605 40.8671 409.805 41.2937C410.005 41.7204 410.278 42.0537 410.625 42.2937C410.985 42.5337 411.411 42.6537 411.905 42.6537Z" fill="#05243F"/>
<g opacity="0.8">
<rect x="23.5078" y="83.0034" width="417.956" height="67.3691" rx="18.0086" fill="white"/>
<path d="M58.4107 122.632V111.286H63.1595C63.9915 111.286 64.7533 111.427 65.4448 111.708C66.1363 111.978 66.7306 112.367 67.2277 112.875C67.7355 113.383 68.1245 113.982 68.3946 114.674C68.6648 115.365 68.7998 116.127 68.7998 116.959C68.7998 117.791 68.6648 118.558 68.3946 119.261C68.1245 119.952 67.7355 120.552 67.2277 121.06C66.7306 121.557 66.1363 121.946 65.4448 122.227C64.7533 122.497 63.9915 122.632 63.1595 122.632H58.4107ZM61.166 120.752L60.7932 120.201H63.0785C63.5323 120.201 63.9375 120.125 64.2941 119.974C64.6506 119.812 64.9532 119.59 65.2017 119.309C65.461 119.028 65.6609 118.688 65.8014 118.288C65.9419 117.888 66.0121 117.445 66.0121 116.959C66.0121 116.473 65.9419 116.03 65.8014 115.63C65.6609 115.23 65.461 114.89 65.2017 114.609C64.9532 114.328 64.6506 114.112 64.2941 113.961C63.9375 113.799 63.5323 113.718 63.0785 113.718H60.7446L61.166 113.199V120.752ZM70.655 122.632V114.026H73.1185L73.232 116.829L72.7458 116.295C72.8754 115.83 73.0861 115.414 73.3779 115.047C73.6804 114.679 74.0316 114.387 74.4314 114.171C74.8312 113.955 75.258 113.847 75.7118 113.847C75.9063 113.847 76.0846 113.863 76.2466 113.896C76.4195 113.928 76.5762 113.966 76.7167 114.009L76.0035 116.878C75.8847 116.802 75.7226 116.743 75.5173 116.7C75.3228 116.646 75.1175 116.619 74.9014 116.619C74.6637 116.619 74.4422 116.662 74.2369 116.748C74.0316 116.824 73.8587 116.938 73.7182 117.089C73.5778 117.24 73.4643 117.418 73.3779 117.624C73.3022 117.829 73.2644 118.061 73.2644 118.321V122.632H70.655ZM78.1766 122.632V114.026H80.7699V122.632H78.1766ZM79.4732 112.324C78.987 112.324 78.6034 112.21 78.3225 111.983C78.0524 111.746 77.9173 111.411 77.9173 110.978C77.9173 110.589 78.0578 110.271 78.3387 110.022C78.6196 109.774 78.9978 109.649 79.4732 109.649C79.9595 109.649 80.3377 109.768 80.6078 110.006C80.8779 110.233 81.013 110.557 81.013 110.978C81.013 111.378 80.8725 111.702 80.5916 111.951C80.3214 112.199 79.9487 112.324 79.4732 112.324ZM85.8483 122.632L82.2502 114.026H85.119L87.2584 120.46L86.6263 120.525L88.8306 114.026H91.6669L87.8905 122.632H85.8483ZM96.8829 122.794C95.932 122.794 95.1054 122.605 94.4031 122.227C93.7008 121.838 93.1551 121.314 92.7661 120.654C92.3771 119.985 92.1826 119.223 92.1826 118.369C92.1826 117.71 92.2907 117.105 92.5068 116.554C92.7229 116.003 93.0254 115.527 93.4144 115.128C93.8034 114.717 94.2626 114.404 94.7921 114.188C95.3323 113.961 95.9212 113.847 96.5587 113.847C97.1638 113.847 97.7149 113.955 98.2119 114.171C98.7198 114.387 99.1574 114.69 99.5247 115.079C99.8921 115.468 100.173 115.927 100.368 116.457C100.562 116.986 100.648 117.564 100.627 118.191L100.611 118.888H93.7548L93.382 117.429H98.5037L98.2281 117.737V117.413C98.2065 117.143 98.1201 116.905 97.9688 116.7C97.8283 116.484 97.6392 116.316 97.4015 116.197C97.1638 116.079 96.8937 116.019 96.5911 116.019C96.1697 116.019 95.8078 116.106 95.5052 116.278C95.2135 116.44 94.992 116.684 94.8407 117.008C94.6894 117.321 94.6138 117.71 94.6138 118.175C94.6138 118.65 94.7111 119.066 94.9055 119.423C95.1108 119.768 95.4026 120.039 95.7808 120.233C96.1697 120.428 96.629 120.525 97.1584 120.525C97.5258 120.525 97.8499 120.471 98.1309 120.363C98.4226 120.255 98.736 120.071 99.0709 119.812L100.287 121.53C99.9516 121.821 99.595 122.059 99.2168 122.243C98.8386 122.427 98.4496 122.562 98.0498 122.648C97.6609 122.745 97.2719 122.794 96.8829 122.794ZM102.279 122.632V114.026H104.743L104.856 116.829L104.37 116.295C104.5 115.83 104.71 115.414 105.002 115.047C105.304 114.679 105.656 114.387 106.055 114.171C106.455 113.955 106.882 113.847 107.336 113.847C107.53 113.847 107.709 113.863 107.871 113.896C108.044 113.928 108.2 113.966 108.341 114.009L107.628 116.878C107.509 116.802 107.347 116.743 107.141 116.7C106.947 116.646 106.742 116.619 106.525 116.619C106.288 116.619 106.066 116.662 105.861 116.748C105.656 116.824 105.483 116.938 105.342 117.089C105.202 117.24 105.088 117.418 105.002 117.624C104.926 117.829 104.888 118.061 104.888 118.321V122.632H102.279ZM110.478 115.679L109.733 114.771C110.187 114.577 110.549 114.339 110.819 114.058C111.1 113.766 111.24 113.523 111.24 113.329C111.24 113.21 111.197 113.096 111.11 112.988C111.035 112.869 110.916 112.761 110.754 112.664C110.505 112.48 110.332 112.302 110.235 112.129C110.138 111.956 110.089 111.767 110.089 111.562C110.089 111.227 110.208 110.962 110.446 110.768C110.694 110.573 111.013 110.476 111.402 110.476C111.726 110.476 112.018 110.562 112.277 110.735C112.547 110.897 112.758 111.135 112.909 111.448C113.061 111.751 113.136 112.102 113.136 112.502C113.136 112.848 113.072 113.188 112.942 113.523C112.812 113.847 112.623 114.155 112.375 114.447C112.137 114.728 111.856 114.976 111.532 115.192C111.208 115.409 110.856 115.571 110.478 115.679ZM117.843 122.794C117 122.794 116.254 122.659 115.606 122.389C114.968 122.119 114.461 121.757 114.082 121.303L115.654 119.941C115.989 120.276 116.368 120.525 116.789 120.687C117.21 120.838 117.61 120.914 117.988 120.914C118.14 120.914 118.275 120.898 118.394 120.865C118.512 120.833 118.61 120.79 118.685 120.736C118.772 120.671 118.837 120.6 118.88 120.525C118.923 120.438 118.945 120.341 118.945 120.233C118.945 120.017 118.847 119.85 118.653 119.731C118.556 119.677 118.394 119.612 118.167 119.536C117.94 119.461 117.648 119.374 117.291 119.277C116.784 119.147 116.341 118.996 115.962 118.823C115.595 118.639 115.293 118.429 115.055 118.191C114.839 117.964 114.671 117.715 114.552 117.445C114.434 117.164 114.374 116.851 114.374 116.505C114.374 116.106 114.466 115.744 114.65 115.419C114.844 115.095 115.098 114.814 115.411 114.577C115.736 114.339 116.103 114.161 116.513 114.042C116.935 113.912 117.367 113.847 117.81 113.847C118.286 113.847 118.739 113.901 119.172 114.009C119.604 114.117 120.004 114.269 120.371 114.463C120.749 114.658 121.084 114.89 121.376 115.16L120.014 116.684C119.82 116.5 119.598 116.338 119.35 116.197C119.112 116.046 118.864 115.927 118.604 115.841C118.345 115.754 118.107 115.711 117.891 115.711C117.729 115.711 117.583 115.727 117.454 115.76C117.335 115.781 117.232 115.825 117.146 115.889C117.059 115.943 116.994 116.014 116.951 116.1C116.908 116.176 116.886 116.268 116.886 116.376C116.886 116.484 116.913 116.586 116.967 116.684C117.032 116.781 117.119 116.862 117.227 116.927C117.335 116.992 117.508 117.067 117.745 117.154C117.983 117.229 118.307 117.327 118.718 117.445C119.226 117.586 119.663 117.743 120.031 117.915C120.398 118.088 120.69 118.294 120.906 118.531C121.079 118.715 121.208 118.931 121.295 119.18C121.381 119.417 121.424 119.677 121.424 119.958C121.424 120.509 121.268 121 120.954 121.432C120.652 121.854 120.23 122.189 119.69 122.437C119.15 122.675 118.534 122.794 117.843 122.794ZM128.433 122.632V111.286H131.188V120.201H136.245V122.632H128.433ZM138.18 122.632V114.026H140.773V122.632H138.18ZM139.477 112.324C138.99 112.324 138.607 112.21 138.326 111.983C138.056 111.746 137.921 111.411 137.921 110.978C137.921 110.589 138.061 110.271 138.342 110.022C138.623 109.774 139.001 109.649 139.477 109.649C139.963 109.649 140.341 109.768 140.611 110.006C140.881 110.233 141.016 110.557 141.016 110.978C141.016 111.378 140.876 111.702 140.595 111.951C140.325 112.199 139.952 112.324 139.477 112.324ZM146.986 122.794C146.154 122.794 145.409 122.599 144.75 122.21C144.091 121.821 143.566 121.292 143.177 120.622C142.799 119.941 142.61 119.174 142.61 118.321C142.61 117.467 142.799 116.705 143.177 116.035C143.566 115.355 144.091 114.82 144.75 114.431C145.409 114.042 146.154 113.847 146.986 113.847C147.753 113.847 148.456 113.982 149.093 114.252C149.742 114.523 150.255 114.901 150.633 115.387L149.223 117.073C149.072 116.9 148.893 116.738 148.688 116.586C148.483 116.435 148.256 116.316 148.007 116.23C147.759 116.143 147.5 116.1 147.229 116.1C146.819 116.1 146.457 116.197 146.144 116.392C145.83 116.576 145.587 116.835 145.414 117.17C145.241 117.505 145.155 117.888 145.155 118.321C145.155 118.731 145.241 119.104 145.414 119.439C145.598 119.774 145.846 120.039 146.16 120.233C146.473 120.428 146.83 120.525 147.229 120.525C147.51 120.525 147.77 120.492 148.007 120.428C148.245 120.352 148.461 120.244 148.656 120.103C148.861 119.963 149.05 119.79 149.223 119.585L150.617 121.287C150.249 121.751 149.736 122.119 149.077 122.389C148.429 122.659 147.732 122.794 146.986 122.794ZM156.142 122.794C155.192 122.794 154.365 122.605 153.663 122.227C152.96 121.838 152.415 121.314 152.026 120.654C151.637 119.985 151.442 119.223 151.442 118.369C151.442 117.71 151.55 117.105 151.766 116.554C151.982 116.003 152.285 115.527 152.674 115.128C153.063 114.717 153.522 114.404 154.052 114.188C154.592 113.961 155.181 113.847 155.818 113.847C156.423 113.847 156.974 113.955 157.471 114.171C157.979 114.387 158.417 114.69 158.784 115.079C159.152 115.468 159.433 115.927 159.627 116.457C159.822 116.986 159.908 117.564 159.886 118.191L159.87 118.888H153.014L152.642 117.429H157.763L157.488 117.737V117.413C157.466 117.143 157.38 116.905 157.228 116.7C157.088 116.484 156.899 116.316 156.661 116.197C156.423 116.079 156.153 116.019 155.851 116.019C155.429 116.019 155.067 116.106 154.765 116.278C154.473 116.44 154.252 116.684 154.1 117.008C153.949 117.321 153.873 117.71 153.873 118.175C153.873 118.65 153.971 119.066 154.165 119.423C154.37 119.768 154.662 120.039 155.04 120.233C155.429 120.428 155.889 120.525 156.418 120.525C156.785 120.525 157.109 120.471 157.39 120.363C157.682 120.255 157.996 120.071 158.33 119.812L159.546 121.53C159.211 121.821 158.855 122.059 158.476 122.243C158.098 122.427 157.709 122.562 157.309 122.648C156.92 122.745 156.531 122.794 156.142 122.794ZM161.539 122.632V114.026H164.002L164.083 115.776L163.565 115.97C163.683 115.581 163.894 115.23 164.197 114.917C164.51 114.593 164.883 114.333 165.315 114.139C165.747 113.944 166.201 113.847 166.676 113.847C167.325 113.847 167.87 113.982 168.313 114.252C168.756 114.512 169.091 114.906 169.318 115.436C169.545 115.954 169.659 116.592 169.659 117.348V122.632H167.049V117.559C167.049 117.213 167.001 116.927 166.903 116.7C166.806 116.473 166.655 116.305 166.45 116.197C166.255 116.079 166.012 116.024 165.72 116.035C165.493 116.035 165.283 116.073 165.088 116.149C164.894 116.214 164.726 116.316 164.586 116.457C164.445 116.586 164.332 116.738 164.245 116.911C164.17 117.083 164.132 117.272 164.132 117.478V122.632H162.851C162.549 122.632 162.29 122.632 162.073 122.632C161.857 122.632 161.679 122.632 161.539 122.632ZM174.728 122.794C173.885 122.794 173.14 122.659 172.491 122.389C171.854 122.119 171.346 121.757 170.968 121.303L172.54 119.941C172.875 120.276 173.253 120.525 173.674 120.687C174.096 120.838 174.496 120.914 174.874 120.914C175.025 120.914 175.16 120.898 175.279 120.865C175.398 120.833 175.495 120.79 175.571 120.736C175.657 120.671 175.722 120.6 175.765 120.525C175.808 120.438 175.83 120.341 175.83 120.233C175.83 120.017 175.733 119.85 175.538 119.731C175.441 119.677 175.279 119.612 175.052 119.536C174.825 119.461 174.533 119.374 174.177 119.277C173.669 119.147 173.226 118.996 172.848 118.823C172.48 118.639 172.178 118.429 171.94 118.191C171.724 117.964 171.557 117.715 171.438 117.445C171.319 117.164 171.259 116.851 171.259 116.505C171.259 116.106 171.351 115.744 171.535 115.419C171.729 115.095 171.983 114.814 172.297 114.577C172.621 114.339 172.988 114.161 173.399 114.042C173.82 113.912 174.252 113.847 174.695 113.847C175.171 113.847 175.625 113.901 176.057 114.009C176.489 114.117 176.889 114.269 177.256 114.463C177.634 114.658 177.969 114.89 178.261 115.16L176.9 116.684C176.705 116.5 176.484 116.338 176.235 116.197C175.997 116.046 175.749 115.927 175.49 115.841C175.23 115.754 174.993 115.711 174.777 115.711C174.614 115.711 174.469 115.727 174.339 115.76C174.22 115.781 174.117 115.825 174.031 115.889C173.945 115.943 173.88 116.014 173.836 116.1C173.793 116.176 173.772 116.268 173.772 116.376C173.772 116.484 173.799 116.586 173.853 116.684C173.918 116.781 174.004 116.862 174.112 116.927C174.22 116.992 174.393 117.067 174.631 117.154C174.868 117.229 175.193 117.327 175.603 117.445C176.111 117.586 176.549 117.743 176.916 117.915C177.283 118.088 177.575 118.294 177.791 118.531C177.964 118.715 178.094 118.931 178.18 119.18C178.267 119.417 178.31 119.677 178.31 119.958C178.31 120.509 178.153 121 177.84 121.432C177.537 121.854 177.116 122.189 176.576 122.437C176.035 122.675 175.419 122.794 174.728 122.794ZM183.952 122.794C183.001 122.794 182.175 122.605 181.472 122.227C180.77 121.838 180.224 121.314 179.835 120.654C179.446 119.985 179.252 119.223 179.252 118.369C179.252 117.71 179.36 117.105 179.576 116.554C179.792 116.003 180.095 115.527 180.484 115.128C180.873 114.717 181.332 114.404 181.861 114.188C182.401 113.961 182.99 113.847 183.628 113.847C184.233 113.847 184.784 113.955 185.281 114.171C185.789 114.387 186.226 114.69 186.594 115.079C186.961 115.468 187.242 115.927 187.437 116.457C187.631 116.986 187.718 117.564 187.696 118.191L187.68 118.888H180.824L180.451 117.429H185.573L185.297 117.737V117.413C185.276 117.143 185.189 116.905 185.038 116.7C184.897 116.484 184.708 116.316 184.471 116.197C184.233 116.079 183.963 116.019 183.66 116.019C183.239 116.019 182.877 116.106 182.574 116.278C182.283 116.44 182.061 116.684 181.91 117.008C181.759 117.321 181.683 117.71 181.683 118.175C181.683 118.65 181.78 119.066 181.975 119.423C182.18 119.768 182.472 120.039 182.85 120.233C183.239 120.428 183.698 120.525 184.228 120.525C184.595 120.525 184.919 120.471 185.2 120.363C185.492 120.255 185.805 120.071 186.14 119.812L187.356 121.53C187.021 121.821 186.664 122.059 186.286 122.243C185.908 122.427 185.519 122.562 185.119 122.648C184.73 122.745 184.341 122.794 183.952 122.794Z" fill="#05243F"/>
<path fill-rule="evenodd" clip-rule="evenodd" d="M252.721 117.132C252.721 111.609 248.244 107.132 242.721 107.132C237.198 107.132 232.721 111.609 232.721 117.132C232.721 122.655 237.198 127.132 242.721 127.132C248.244 127.132 252.721 122.655 252.721 117.132ZM242.721 112.132C242.986 112.132 243.24 112.237 243.428 112.425C243.615 112.612 243.721 112.867 243.721 113.132V118.132C243.721 118.397 243.615 118.651 243.428 118.839C243.24 119.026 242.986 119.132 242.721 119.132C242.455 119.132 242.201 119.026 242.014 118.839C241.826 118.651 241.721 118.397 241.721 118.132V113.132C241.721 112.867 241.826 112.612 242.014 112.425C242.201 112.237 242.455 112.132 242.721 112.132ZM241.721 121.132C241.721 120.867 241.826 120.612 242.014 120.425C242.201 120.237 242.455 120.132 242.721 120.132H242.729C242.994 120.132 243.248 120.237 243.436 120.425C243.623 120.612 243.729 120.867 243.729 121.132C243.729 121.397 243.623 121.651 243.436 121.839C243.248 122.026 242.994 122.132 242.729 122.132H242.721C242.455 122.132 242.201 122.026 242.014 121.839C241.826 121.651 241.721 121.397 241.721 121.132Z" fill="#FFCC63"/>
<path d="M268.015 122.632V111.432H275.823V113.752H270.655V120.312H275.983V122.632H268.015ZM269.295 118.04V115.832H275.103V118.04H269.295ZM283.288 122.632L281.48 119.896L280.648 118.728L277.288 114.136H280.36L282.104 116.744L283.016 117.992L286.328 122.632H283.288ZM277.208 122.632L280.632 117.864L282.008 119.512L280.232 122.632H277.208ZM282.824 118.936L281.464 117.304L283.144 114.136H286.168L282.824 118.936ZM287.759 126.152V114.136H290.191L290.287 116.04L289.807 115.896C289.882 115.544 290.063 115.224 290.351 114.936C290.639 114.648 291.002 114.419 291.439 114.248C291.887 114.067 292.356 113.976 292.847 113.976C293.572 113.976 294.218 114.168 294.783 114.552C295.348 114.925 295.791 115.443 296.111 116.104C296.442 116.755 296.607 117.512 296.607 118.376C296.607 119.229 296.442 119.987 296.111 120.648C295.791 121.309 295.343 121.832 294.767 122.216C294.202 122.589 293.551 122.776 292.815 122.776C292.335 122.776 291.876 122.685 291.439 122.504C291.002 122.323 290.634 122.077 290.335 121.768C290.036 121.459 289.839 121.123 289.743 120.76L290.335 120.536V126.152H287.759ZM292.191 120.616C292.575 120.616 292.911 120.525 293.199 120.344C293.487 120.152 293.711 119.891 293.871 119.56C294.031 119.229 294.111 118.835 294.111 118.376C294.111 117.928 294.031 117.539 293.871 117.208C293.711 116.867 293.487 116.605 293.199 116.424C292.922 116.232 292.586 116.136 292.191 116.136C291.796 116.136 291.455 116.227 291.167 116.408C290.879 116.589 290.655 116.851 290.495 117.192C290.335 117.533 290.255 117.928 290.255 118.376C290.255 118.835 290.335 119.229 290.495 119.56C290.655 119.891 290.879 120.152 291.167 120.344C291.455 120.525 291.796 120.616 292.191 120.616ZM298.45 122.632V114.136H301.01V122.632H298.45ZM299.73 112.456C299.25 112.456 298.871 112.344 298.594 112.12C298.327 111.885 298.194 111.555 298.194 111.128C298.194 110.744 298.333 110.429 298.61 110.184C298.887 109.939 299.261 109.816 299.73 109.816C300.21 109.816 300.583 109.933 300.85 110.168C301.117 110.392 301.25 110.712 301.25 111.128C301.25 111.523 301.111 111.843 300.834 112.088C300.567 112.333 300.199 112.456 299.73 112.456ZM303.415 122.632V114.136H305.847L305.959 116.904L305.479 116.376C305.607 115.917 305.815 115.507 306.103 115.144C306.402 114.781 306.749 114.493 307.143 114.28C307.538 114.067 307.959 113.96 308.407 113.96C308.599 113.96 308.775 113.976 308.935 114.008C309.106 114.04 309.261 114.077 309.399 114.12L308.695 116.952C308.578 116.877 308.418 116.819 308.215 116.776C308.023 116.723 307.821 116.696 307.607 116.696C307.373 116.696 307.154 116.739 306.951 116.824C306.749 116.899 306.578 117.011 306.439 117.16C306.301 117.309 306.189 117.485 306.103 117.688C306.029 117.891 305.991 118.12 305.991 118.376V122.632H303.415ZM314.385 122.792C313.447 122.792 312.631 122.605 311.937 122.232C311.244 121.848 310.705 121.331 310.321 120.68C309.937 120.019 309.745 119.267 309.745 118.424C309.745 117.773 309.852 117.176 310.065 116.632C310.279 116.088 310.577 115.619 310.961 115.224C311.345 114.819 311.799 114.509 312.321 114.296C312.855 114.072 313.436 113.96 314.065 113.96C314.663 113.96 315.207 114.067 315.697 114.28C316.199 114.493 316.631 114.792 316.993 115.176C317.356 115.56 317.633 116.013 317.825 116.536C318.017 117.059 318.103 117.629 318.081 118.248L318.065 118.936H311.297L310.929 117.496H315.985L315.713 117.8V117.48C315.692 117.213 315.607 116.979 315.457 116.776C315.319 116.563 315.132 116.397 314.897 116.28C314.663 116.163 314.396 116.104 314.097 116.104C313.681 116.104 313.324 116.189 313.025 116.36C312.737 116.52 312.519 116.76 312.369 117.08C312.22 117.389 312.145 117.773 312.145 118.232C312.145 118.701 312.241 119.112 312.433 119.464C312.636 119.805 312.924 120.072 313.297 120.264C313.681 120.456 314.135 120.552 314.657 120.552C315.02 120.552 315.34 120.499 315.617 120.392C315.905 120.285 316.215 120.104 316.545 119.848L317.745 121.544C317.415 121.832 317.063 122.067 316.689 122.248C316.316 122.429 315.932 122.563 315.537 122.648C315.153 122.744 314.769 122.792 314.385 122.792ZM322.576 122.792C321.744 122.792 321.008 122.659 320.368 122.392C319.739 122.125 319.238 121.768 318.864 121.32L320.416 119.976C320.747 120.307 321.12 120.552 321.536 120.712C321.952 120.861 322.347 120.936 322.72 120.936C322.87 120.936 323.003 120.92 323.12 120.888C323.238 120.856 323.334 120.813 323.408 120.76C323.494 120.696 323.558 120.627 323.6 120.552C323.643 120.467 323.664 120.371 323.664 120.264C323.664 120.051 323.568 119.885 323.376 119.768C323.28 119.715 323.12 119.651 322.896 119.576C322.672 119.501 322.384 119.416 322.032 119.32C321.531 119.192 321.094 119.043 320.72 118.872C320.358 118.691 320.059 118.483 319.824 118.248C319.611 118.024 319.446 117.779 319.328 117.512C319.211 117.235 319.152 116.925 319.152 116.584C319.152 116.189 319.243 115.832 319.424 115.512C319.616 115.192 319.867 114.915 320.176 114.68C320.496 114.445 320.859 114.269 321.264 114.152C321.68 114.024 322.107 113.96 322.544 113.96C323.014 113.96 323.462 114.013 323.888 114.12C324.315 114.227 324.71 114.376 325.072 114.568C325.446 114.76 325.776 114.989 326.064 115.256L324.72 116.76C324.528 116.579 324.31 116.419 324.064 116.28C323.83 116.131 323.584 116.013 323.328 115.928C323.072 115.843 322.838 115.8 322.624 115.8C322.464 115.8 322.32 115.816 322.192 115.848C322.075 115.869 321.974 115.912 321.888 115.976C321.803 116.029 321.739 116.099 321.696 116.184C321.654 116.259 321.632 116.349 321.632 116.456C321.632 116.563 321.659 116.664 321.712 116.76C321.776 116.856 321.862 116.936 321.968 117C322.075 117.064 322.246 117.139 322.48 117.224C322.715 117.299 323.035 117.395 323.44 117.512C323.942 117.651 324.374 117.805 324.736 117.976C325.099 118.147 325.387 118.349 325.6 118.584C325.771 118.765 325.899 118.979 325.984 119.224C326.07 119.459 326.112 119.715 326.112 119.992C326.112 120.536 325.958 121.021 325.648 121.448C325.35 121.864 324.934 122.195 324.4 122.44C323.867 122.675 323.259 122.792 322.576 122.792ZM332.903 122.632V114.136H335.463V122.632H332.903ZM334.183 112.456C333.703 112.456 333.324 112.344 333.047 112.12C332.78 111.885 332.647 111.555 332.647 111.128C332.647 110.744 332.786 110.429 333.063 110.184C333.34 109.939 333.714 109.816 334.183 109.816C334.663 109.816 335.036 109.933 335.303 110.168C335.57 110.392 335.703 110.712 335.703 111.128C335.703 111.523 335.564 111.843 335.287 112.088C335.02 112.333 334.652 112.456 334.183 112.456ZM337.868 122.632V114.136H340.3L340.38 115.864L339.868 116.056C339.986 115.672 340.194 115.325 340.492 115.016C340.802 114.696 341.17 114.44 341.596 114.248C342.023 114.056 342.471 113.96 342.94 113.96C343.58 113.96 344.119 114.093 344.556 114.36C344.994 114.616 345.324 115.005 345.548 115.528C345.772 116.04 345.884 116.669 345.884 117.416V122.632H343.308V117.624C343.308 117.283 343.26 117 343.164 116.776C343.068 116.552 342.919 116.387 342.716 116.28C342.524 116.163 342.284 116.109 341.996 116.12C341.772 116.12 341.564 116.157 341.372 116.232C341.18 116.296 341.015 116.397 340.876 116.536C340.738 116.664 340.626 116.813 340.54 116.984C340.466 117.155 340.428 117.341 340.428 117.544V122.632H339.164C338.866 122.632 338.61 122.632 338.396 122.632C338.183 122.632 338.007 122.632 337.868 122.632ZM356.606 122.792C355.699 122.792 354.904 122.605 354.222 122.232C353.55 121.848 352.936 121.192 352.382 120.264L354.334 119C354.568 119.373 354.808 119.672 355.054 119.896C355.31 120.12 355.571 120.285 355.838 120.392C356.115 120.488 356.403 120.536 356.702 120.536C357 120.536 357.272 120.472 357.518 120.344C357.774 120.205 357.976 120.013 358.126 119.768C358.286 119.523 358.366 119.245 358.366 118.936C358.366 118.605 358.296 118.328 358.158 118.104C358.03 117.869 357.838 117.693 357.582 117.576C357.336 117.459 357.038 117.4 356.686 117.4C356.526 117.4 356.355 117.421 356.174 117.464C355.992 117.496 355.8 117.544 355.598 117.608C355.395 117.672 355.187 117.757 354.974 117.864L354.382 116.28L357.102 113.32L357.838 113.72L353.166 113.624V111.336H360.046L360.542 112.328L356.846 116.296L356.206 115.544C356.291 115.501 356.43 115.464 356.622 115.432C356.824 115.389 357.016 115.368 357.198 115.368C357.699 115.368 358.168 115.459 358.606 115.64C359.043 115.821 359.432 116.072 359.774 116.392C360.115 116.712 360.382 117.091 360.574 117.528C360.766 117.955 360.862 118.413 360.862 118.904C360.862 119.651 360.67 120.317 360.286 120.904C359.912 121.48 359.4 121.939 358.75 122.28C358.11 122.621 357.395 122.792 356.606 122.792ZM370.944 122.808C370.208 122.808 369.552 122.621 368.976 122.248C368.41 121.864 367.962 121.341 367.632 120.68C367.301 120.008 367.136 119.245 367.136 118.392C367.136 117.539 367.301 116.781 367.632 116.12C367.962 115.448 368.416 114.92 368.992 114.536C369.568 114.152 370.229 113.96 370.976 113.96C371.36 113.96 371.728 114.019 372.08 114.136C372.432 114.253 372.752 114.413 373.04 114.616C373.328 114.819 373.562 115.053 373.744 115.32C373.925 115.576 374.032 115.843 374.064 116.12L373.456 116.264V110.792H376.032V122.632H373.648L373.504 120.696L374.016 120.776C373.984 121.043 373.877 121.299 373.696 121.544C373.525 121.789 373.301 122.008 373.024 122.2C372.746 122.381 372.426 122.525 372.064 122.632C371.712 122.749 371.338 122.808 370.944 122.808ZM371.6 120.68C371.994 120.68 372.336 120.584 372.624 120.392C372.912 120.2 373.13 119.933 373.28 119.592C373.44 119.251 373.52 118.851 373.52 118.392C373.52 117.923 373.44 117.517 373.28 117.176C373.13 116.835 372.912 116.568 372.624 116.376C372.336 116.184 371.994 116.088 371.6 116.088C371.205 116.088 370.864 116.184 370.576 116.376C370.298 116.568 370.08 116.835 369.92 117.176C369.76 117.517 369.68 117.923 369.68 118.392C369.68 118.851 369.76 119.251 369.92 119.592C370.08 119.933 370.298 120.2 370.576 120.392C370.864 120.584 371.205 120.68 371.6 120.68ZM381.333 122.776C380.618 122.776 379.978 122.589 379.413 122.216C378.858 121.832 378.415 121.309 378.085 120.648C377.754 119.976 377.589 119.219 377.589 118.376C377.589 117.512 377.754 116.749 378.085 116.088C378.415 115.427 378.869 114.909 379.445 114.536C380.021 114.152 380.677 113.96 381.413 113.96C381.818 113.96 382.186 114.019 382.517 114.136C382.858 114.253 383.157 114.419 383.413 114.632C383.669 114.835 383.887 115.075 384.069 115.352C384.25 115.619 384.383 115.907 384.469 116.216L383.941 116.152V114.136H386.485V122.632H383.893V120.584L384.469 120.568C384.383 120.867 384.245 121.149 384.053 121.416C383.861 121.683 383.626 121.917 383.349 122.12C383.071 122.323 382.762 122.483 382.421 122.6C382.079 122.717 381.717 122.776 381.333 122.776ZM382.037 120.616C382.431 120.616 382.773 120.525 383.061 120.344C383.349 120.163 383.573 119.907 383.733 119.576C383.893 119.235 383.973 118.835 383.973 118.376C383.973 117.917 383.893 117.523 383.733 117.192C383.573 116.851 383.349 116.589 383.061 116.408C382.773 116.216 382.431 116.12 382.037 116.12C381.653 116.12 381.317 116.216 381.029 116.408C380.751 116.589 380.533 116.851 380.373 117.192C380.213 117.523 380.133 117.917 380.133 118.376C380.133 118.835 380.213 119.235 380.373 119.576C380.533 119.907 380.751 120.163 381.029 120.344C381.317 120.525 381.653 120.616 382.037 120.616ZM389.628 126.312L391.564 121.752L391.596 123.064L387.5 114.136H390.396L392.188 118.408C392.284 118.621 392.375 118.851 392.46 119.096C392.545 119.341 392.609 119.576 392.652 119.8L392.3 120.008C392.364 119.848 392.433 119.651 392.508 119.416C392.593 119.171 392.684 118.909 392.78 118.632L394.348 114.136H397.26L393.644 122.632L392.172 126.312H389.628ZM401.186 122.792C400.354 122.792 399.618 122.659 398.978 122.392C398.348 122.125 397.847 121.768 397.474 121.32L399.026 119.976C399.356 120.307 399.73 120.552 400.146 120.712C400.562 120.861 400.956 120.936 401.33 120.936C401.479 120.936 401.612 120.92 401.73 120.888C401.847 120.856 401.943 120.813 402.018 120.76C402.103 120.696 402.167 120.627 402.21 120.552C402.252 120.467 402.274 120.371 402.274 120.264C402.274 120.051 402.178 119.885 401.986 119.768C401.89 119.715 401.73 119.651 401.506 119.576C401.282 119.501 400.994 119.416 400.642 119.32C400.14 119.192 399.703 119.043 399.33 118.872C398.967 118.691 398.668 118.483 398.434 118.248C398.22 118.024 398.055 117.779 397.938 117.512C397.82 117.235 397.762 116.925 397.762 116.584C397.762 116.189 397.852 115.832 398.034 115.512C398.226 115.192 398.476 114.915 398.786 114.68C399.106 114.445 399.468 114.269 399.874 114.152C400.29 114.024 400.716 113.96 401.154 113.96C401.623 113.96 402.071 114.013 402.498 114.12C402.924 114.227 403.319 114.376 403.682 114.568C404.055 114.76 404.386 114.989 404.674 115.256L403.33 116.76C403.138 116.579 402.919 116.419 402.674 116.28C402.439 116.131 402.194 116.013 401.938 115.928C401.682 115.843 401.447 115.8 401.234 115.8C401.074 115.8 400.93 115.816 400.802 115.848C400.684 115.869 400.583 115.912 400.498 115.976C400.412 116.029 400.348 116.099 400.306 116.184C400.263 116.259 400.242 116.349 400.242 116.456C400.242 116.563 400.268 116.664 400.322 116.76C400.386 116.856 400.471 116.936 400.578 117C400.684 117.064 400.855 117.139 401.09 117.224C401.324 117.299 401.644 117.395 402.05 117.512C402.551 117.651 402.983 117.805 403.346 117.976C403.708 118.147 403.996 118.349 404.21 118.584C404.38 118.765 404.508 118.979 404.594 119.224C404.679 119.459 404.722 119.715 404.722 119.992C404.722 120.536 404.567 121.021 404.258 121.448C403.959 121.864 403.543 122.195 403.01 122.44C402.476 122.675 401.868 122.792 401.186 122.792Z" fill="#05243F"/>
</g>
<rect opacity="0.4" x="52.75" y="158.373" width="359.339" height="57.9208" rx="15.4829" fill="white"/>
<path fill-rule="evenodd" clip-rule="evenodd" d="M255.758 187.671C255.758 184.071 252.839 181.153 249.239 181.153C245.639 181.153 242.721 184.071 242.721 187.671C242.721 191.272 245.639 194.19 249.239 194.19C252.839 194.19 255.758 191.272 255.758 187.671ZM249.239 184.412C249.412 184.412 249.578 184.481 249.7 184.603C249.822 184.725 249.891 184.891 249.891 185.064V188.323C249.891 188.496 249.822 188.662 249.7 188.784C249.578 188.906 249.412 188.975 249.239 188.975C249.066 188.975 248.901 188.906 248.778 188.784C248.656 188.662 248.587 188.496 248.587 188.323V185.064C248.587 184.891 248.656 184.725 248.778 184.603C248.901 184.481 249.066 184.412 249.239 184.412ZM248.587 190.279C248.587 190.106 248.656 189.94 248.778 189.818C248.901 189.696 249.066 189.627 249.239 189.627H249.244C249.417 189.627 249.583 189.696 249.705 189.818C249.828 189.94 249.896 190.106 249.896 190.279C249.896 190.452 249.828 190.617 249.705 190.74C249.583 190.862 249.417 190.931 249.244 190.931H249.239C249.066 190.931 248.901 190.862 248.778 190.74C248.656 190.617 248.587 190.452 248.587 190.279Z" fill="#FFCC63"/>
<path opacity="0.4" d="M274.124 193.108V183.357H278.206C278.921 183.357 279.576 183.478 280.17 183.719C280.764 183.951 281.275 184.286 281.702 184.722C282.139 185.159 282.473 185.674 282.705 186.268C282.937 186.863 283.053 187.517 283.053 188.232C283.053 188.947 282.937 189.607 282.705 190.21C282.473 190.805 282.139 191.32 281.702 191.757C281.275 192.184 280.764 192.518 280.17 192.76C279.576 192.992 278.921 193.108 278.206 193.108H274.124ZM276.492 191.492L276.172 191.018H278.136C278.526 191.018 278.874 190.953 279.181 190.823C279.487 190.684 279.747 190.494 279.961 190.252C280.184 190.011 280.356 189.718 280.476 189.375C280.597 189.031 280.657 188.65 280.657 188.232C280.657 187.815 280.597 187.434 280.476 187.09C280.356 186.747 280.184 186.454 279.961 186.213C279.747 185.971 279.487 185.785 279.181 185.655C278.874 185.516 278.526 185.446 278.136 185.446H276.13L276.492 185.001V191.492ZM287.169 193.261C286.621 193.261 286.152 193.145 285.762 192.913C285.381 192.671 285.084 192.328 284.871 191.882C284.666 191.436 284.564 190.902 284.564 190.28V185.711H286.807V189.974C286.807 190.271 286.853 190.526 286.946 190.74C287.039 190.953 287.178 191.121 287.364 191.241C287.55 191.353 287.773 191.408 288.033 191.408C288.228 191.408 288.404 191.376 288.562 191.311C288.729 191.246 288.869 191.158 288.98 191.046C289.101 190.926 289.194 190.791 289.259 190.642C289.324 190.484 289.356 190.313 289.356 190.127V185.711H291.599V193.108H289.495L289.398 191.59L289.816 191.422C289.704 191.775 289.519 192.091 289.259 192.37C288.999 192.639 288.688 192.857 288.325 193.024C287.963 193.182 287.578 193.261 287.169 193.261ZM297.11 193.247C296.292 193.247 295.582 193.085 294.978 192.76C294.375 192.425 293.906 191.975 293.571 191.408C293.237 190.833 293.07 190.178 293.07 189.444C293.07 188.878 293.163 188.358 293.349 187.884C293.534 187.411 293.794 187.002 294.129 186.658C294.463 186.305 294.858 186.036 295.313 185.85C295.777 185.655 296.283 185.558 296.831 185.558C297.351 185.558 297.825 185.651 298.252 185.836C298.688 186.022 299.064 186.282 299.38 186.617C299.696 186.951 299.937 187.346 300.105 187.801C300.272 188.256 300.346 188.752 300.327 189.291L300.314 189.89H294.421L294.101 188.636H298.503L298.266 188.901V188.622C298.247 188.39 298.173 188.186 298.043 188.01C297.922 187.824 297.76 187.68 297.555 187.578C297.351 187.476 297.119 187.424 296.859 187.424C296.497 187.424 296.186 187.499 295.926 187.647C295.675 187.787 295.484 187.996 295.354 188.274C295.224 188.544 295.159 188.878 295.159 189.277C295.159 189.686 295.243 190.043 295.41 190.35C295.587 190.647 295.837 190.879 296.162 191.046C296.497 191.213 296.891 191.297 297.346 191.297C297.662 191.297 297.941 191.251 298.182 191.158C298.433 191.065 298.702 190.907 298.99 190.684L300.035 192.161C299.747 192.411 299.441 192.616 299.116 192.774C298.791 192.931 298.456 193.048 298.113 193.122C297.778 193.205 297.444 193.247 297.11 193.247ZM306.335 193.108V185.711H308.564V193.108H306.335ZM307.449 184.248C307.031 184.248 306.702 184.151 306.46 183.956C306.228 183.752 306.112 183.464 306.112 183.092C306.112 182.758 306.233 182.484 306.474 182.27C306.716 182.057 307.041 181.95 307.449 181.95C307.867 181.95 308.192 182.052 308.424 182.256C308.656 182.451 308.773 182.73 308.773 183.092C308.773 183.436 308.652 183.714 308.41 183.928C308.178 184.142 307.858 184.248 307.449 184.248ZM310.658 193.108V185.711H312.775L312.845 187.216L312.399 187.383C312.501 187.048 312.682 186.747 312.942 186.477C313.212 186.199 313.532 185.976 313.903 185.809C314.275 185.641 314.665 185.558 315.074 185.558C315.631 185.558 316.1 185.674 316.481 185.906C316.861 186.129 317.149 186.468 317.344 186.923C317.539 187.369 317.637 187.917 317.637 188.567V193.108H315.394V188.748C315.394 188.451 315.352 188.205 315.269 188.01C315.185 187.815 315.055 187.671 314.879 187.578C314.711 187.476 314.502 187.429 314.252 187.438C314.057 187.438 313.876 187.471 313.708 187.536C313.541 187.592 313.397 187.68 313.277 187.801C313.156 187.912 313.058 188.042 312.984 188.191C312.919 188.339 312.887 188.502 312.887 188.678V193.108H311.786C311.526 193.108 311.303 193.108 311.117 193.108C310.932 193.108 310.778 193.108 310.658 193.108ZM325.912 192.425V184.513L326.428 185.697L324.338 186.686L323.934 184.569L326.706 183.218H328.239V192.425H325.912ZM324.129 193.108V191.018H330.063V193.108H324.129ZM335.643 193.108V185.224L336.911 185.251L333.386 189.57L333.052 189.152H339.516V191.102H331.993L331.046 189.277L336.019 183.273H337.927V193.108H335.643ZM348.255 193.261C347.615 193.261 347.044 193.099 346.542 192.774C346.05 192.439 345.66 191.984 345.372 191.408C345.084 190.823 344.94 190.159 344.94 189.416C344.94 188.674 345.084 188.014 345.372 187.438C345.66 186.853 346.055 186.394 346.556 186.059C347.058 185.725 347.633 185.558 348.283 185.558C348.618 185.558 348.938 185.609 349.245 185.711C349.551 185.813 349.83 185.953 350.08 186.129C350.331 186.305 350.535 186.51 350.693 186.742C350.851 186.965 350.944 187.197 350.972 187.438L350.443 187.564V182.8H352.685V193.108H350.61L350.484 191.422L350.93 191.492C350.902 191.724 350.809 191.947 350.651 192.161C350.503 192.374 350.308 192.565 350.066 192.732C349.825 192.89 349.546 193.015 349.231 193.108C348.924 193.21 348.599 193.261 348.255 193.261ZM348.827 191.408C349.17 191.408 349.467 191.325 349.718 191.158C349.969 190.991 350.159 190.758 350.289 190.461C350.429 190.164 350.498 189.816 350.498 189.416C350.498 189.008 350.429 188.655 350.289 188.358C350.159 188.061 349.969 187.828 349.718 187.661C349.467 187.494 349.17 187.411 348.827 187.411C348.483 187.411 348.186 187.494 347.935 187.661C347.694 187.828 347.503 188.061 347.364 188.358C347.225 188.655 347.155 189.008 347.155 189.416C347.155 189.816 347.225 190.164 347.364 190.461C347.503 190.758 347.694 190.991 347.935 191.158C348.186 191.325 348.483 191.408 348.827 191.408ZM357.3 193.233C356.678 193.233 356.121 193.071 355.629 192.746C355.146 192.411 354.76 191.956 354.472 191.381C354.185 190.796 354.041 190.136 354.041 189.403C354.041 188.65 354.185 187.986 354.472 187.411C354.76 186.835 355.155 186.384 355.656 186.059C356.158 185.725 356.729 185.558 357.37 185.558C357.723 185.558 358.043 185.609 358.331 185.711C358.628 185.813 358.888 185.957 359.111 186.143C359.334 186.319 359.524 186.528 359.682 186.77C359.84 187.002 359.956 187.253 360.03 187.522L359.571 187.466V185.711H361.786V193.108H359.529V191.325L360.03 191.311C359.956 191.571 359.835 191.817 359.668 192.049C359.501 192.281 359.297 192.486 359.055 192.662C358.814 192.839 358.545 192.978 358.247 193.08C357.95 193.182 357.635 193.233 357.3 193.233ZM357.913 191.353C358.257 191.353 358.554 191.274 358.805 191.116C359.055 190.958 359.25 190.735 359.39 190.447C359.529 190.15 359.599 189.802 359.599 189.403C359.599 189.003 359.529 188.66 359.39 188.372C359.25 188.075 359.055 187.847 358.805 187.689C358.554 187.522 358.257 187.438 357.913 187.438C357.579 187.438 357.286 187.522 357.036 187.689C356.794 187.847 356.604 188.075 356.464 188.372C356.325 188.66 356.255 189.003 356.255 189.403C356.255 189.802 356.325 190.15 356.464 190.447C356.604 190.735 356.794 190.958 357.036 191.116C357.286 191.274 357.579 191.353 357.913 191.353ZM364.522 196.312L366.208 192.342L366.236 193.484L362.67 185.711H365.191L366.751 189.43C366.835 189.616 366.914 189.816 366.988 190.029C367.062 190.243 367.118 190.447 367.155 190.642L366.849 190.823C366.904 190.684 366.965 190.512 367.03 190.308C367.104 190.094 367.183 189.867 367.267 189.625L368.632 185.711H371.167L368.019 193.108L366.737 196.312H364.522ZM374.585 193.247C373.86 193.247 373.22 193.131 372.662 192.899C372.114 192.667 371.678 192.356 371.353 191.966L372.704 190.796C372.992 191.083 373.317 191.297 373.679 191.436C374.041 191.566 374.385 191.631 374.71 191.631C374.84 191.631 374.956 191.617 375.058 191.59C375.16 191.562 375.244 191.525 375.309 191.478C375.383 191.422 375.439 191.362 375.476 191.297C375.513 191.223 375.532 191.139 375.532 191.046C375.532 190.861 375.448 190.717 375.281 190.614C375.198 190.568 375.058 190.512 374.863 190.447C374.668 190.382 374.418 190.308 374.111 190.224C373.675 190.113 373.294 189.983 372.969 189.834C372.653 189.676 372.393 189.495 372.189 189.291C372.003 189.096 371.859 188.882 371.757 188.65C371.655 188.409 371.604 188.14 371.604 187.842C371.604 187.499 371.683 187.188 371.841 186.909C372.008 186.63 372.226 186.389 372.495 186.185C372.774 185.98 373.09 185.827 373.442 185.725C373.805 185.614 374.176 185.558 374.557 185.558C374.965 185.558 375.356 185.604 375.727 185.697C376.098 185.79 376.442 185.92 376.758 186.087C377.083 186.254 377.371 186.454 377.621 186.686L376.451 187.996C376.284 187.838 376.094 187.698 375.88 187.578C375.676 187.448 375.462 187.346 375.239 187.271C375.017 187.197 374.812 187.16 374.627 187.16C374.487 187.16 374.362 187.174 374.25 187.202C374.148 187.22 374.06 187.257 373.986 187.313C373.911 187.359 373.856 187.42 373.819 187.494C373.781 187.559 373.763 187.638 373.763 187.731C373.763 187.824 373.786 187.912 373.832 187.996C373.888 188.079 373.963 188.149 374.055 188.205C374.148 188.26 374.297 188.325 374.501 188.4C374.705 188.465 374.984 188.548 375.337 188.65C375.773 188.771 376.15 188.906 376.465 189.054C376.781 189.203 377.032 189.379 377.217 189.584C377.366 189.741 377.478 189.927 377.552 190.141C377.626 190.345 377.663 190.568 377.663 190.809C377.663 191.283 377.529 191.706 377.259 192.077C376.999 192.439 376.637 192.727 376.173 192.941C375.708 193.145 375.179 193.247 374.585 193.247Z" fill="#05243F"/>
<path opacity="0.4" d="M90.1742 192.108L86.2725 182.354H88.739L90.6201 187.328C90.7316 187.616 90.8245 187.867 90.8988 188.081C90.9824 188.294 91.0521 188.494 91.1079 188.68C91.1729 188.866 91.2286 189.056 91.2751 189.251C91.3308 189.437 91.3912 189.651 91.4562 189.892H91.0243C91.0986 189.576 91.1729 189.298 91.2472 189.056C91.3215 188.805 91.4051 188.55 91.498 188.29C91.5909 188.02 91.707 187.7 91.8464 187.328L93.6579 182.354H96.0825L92.153 192.108H90.1742ZM99.8218 192.247C99.0043 192.247 98.2936 192.085 97.6898 191.76C97.086 191.425 96.6168 190.975 96.2824 190.408C95.948 189.832 95.7808 189.177 95.7808 188.443C95.7808 187.876 95.8737 187.356 96.0594 186.882C96.2452 186.409 96.5054 186 96.8398 185.656C97.1742 185.303 97.569 185.034 98.0242 184.848C98.4887 184.653 98.995 184.555 99.5431 184.555C100.063 184.555 100.537 184.648 100.964 184.834C101.401 185.02 101.777 185.28 102.093 185.614C102.409 185.949 102.651 186.344 102.818 186.799C102.985 187.254 103.059 187.751 103.041 188.29L103.027 188.889H97.1324L96.8119 187.635H101.215L100.978 187.9V187.621C100.96 187.389 100.885 187.184 100.755 187.008C100.635 186.822 100.472 186.678 100.268 186.576C100.063 186.474 99.8311 186.423 99.571 186.423C99.2087 186.423 98.8975 186.497 98.6374 186.646C98.3865 186.785 98.1961 186.994 98.066 187.273C97.936 187.542 97.871 187.876 97.871 188.276C97.871 188.685 97.9546 189.042 98.1218 189.349C98.2983 189.646 98.5491 189.878 98.8742 190.046C99.2087 190.213 99.6035 190.296 100.059 190.296C100.375 190.296 100.653 190.25 100.895 190.157C101.146 190.064 101.415 189.906 101.703 189.683L102.748 191.16C102.46 191.411 102.154 191.616 101.828 191.773C101.503 191.931 101.169 192.048 100.825 192.122C100.491 192.205 100.156 192.247 99.8218 192.247ZM104.461 192.108V181.796H106.649V186.214L106.203 186.381C106.305 186.046 106.486 185.744 106.746 185.475C107.016 185.196 107.336 184.973 107.708 184.806C108.08 184.639 108.47 184.555 108.878 184.555C109.436 184.555 109.905 184.671 110.286 184.904C110.667 185.127 110.955 185.466 111.15 185.921C111.345 186.367 111.442 186.915 111.442 187.565V192.108H109.199V187.746C109.199 187.449 109.157 187.203 109.074 187.008C108.99 186.813 108.86 186.669 108.683 186.576C108.516 186.474 108.307 186.427 108.056 186.437C107.861 186.437 107.68 186.469 107.513 186.534C107.346 186.59 107.202 186.678 107.081 186.799C106.96 186.91 106.863 187.04 106.788 187.189C106.723 187.338 106.691 187.5 106.691 187.677V192.108H105.59C105.33 192.108 105.107 192.108 104.921 192.108C104.735 192.108 104.582 192.108 104.461 192.108ZM113.432 192.108V184.709H115.661V192.108H113.432ZM114.547 183.245C114.129 183.245 113.799 183.148 113.557 182.953C113.325 182.748 113.209 182.46 113.209 182.089C113.209 181.754 113.33 181.48 113.571 181.267C113.813 181.053 114.138 180.946 114.547 180.946C114.965 180.946 115.29 181.048 115.522 181.253C115.754 181.448 115.87 181.727 115.87 182.089C115.87 182.433 115.75 182.711 115.508 182.925C115.276 183.139 114.955 183.245 114.547 183.245ZM121.003 192.247C120.288 192.247 119.647 192.08 119.08 191.746C118.513 191.411 118.063 190.956 117.728 190.38C117.403 189.795 117.241 189.135 117.241 188.401C117.241 187.667 117.403 187.012 117.728 186.437C118.063 185.851 118.513 185.391 119.08 185.057C119.647 184.723 120.288 184.555 121.003 184.555C121.663 184.555 122.266 184.671 122.815 184.904C123.372 185.136 123.813 185.461 124.138 185.879L122.926 187.328C122.796 187.18 122.643 187.04 122.466 186.91C122.29 186.78 122.095 186.678 121.881 186.604C121.667 186.529 121.444 186.492 121.212 186.492C120.859 186.492 120.548 186.576 120.278 186.743C120.009 186.901 119.8 187.124 119.651 187.412C119.503 187.7 119.428 188.03 119.428 188.401C119.428 188.754 119.503 189.075 119.651 189.363C119.809 189.651 120.023 189.878 120.292 190.046C120.562 190.213 120.868 190.296 121.212 190.296C121.454 190.296 121.677 190.269 121.881 190.213C122.085 190.148 122.271 190.055 122.438 189.934C122.615 189.813 122.777 189.665 122.926 189.488L124.124 190.951C123.809 191.351 123.367 191.667 122.801 191.899C122.243 192.131 121.644 192.247 121.003 192.247ZM125.363 192.108V181.796H127.593V192.108H125.363ZM132.971 192.247C132.154 192.247 131.443 192.085 130.839 191.76C130.235 191.425 129.766 190.975 129.432 190.408C129.097 189.832 128.93 189.177 128.93 188.443C128.93 187.876 129.023 187.356 129.209 186.882C129.394 186.409 129.655 186 129.989 185.656C130.323 185.303 130.718 185.034 131.173 184.848C131.638 184.653 132.144 184.555 132.692 184.555C133.213 184.555 133.686 184.648 134.114 184.834C134.55 185.02 134.927 185.28 135.242 185.614C135.558 185.949 135.8 186.344 135.967 186.799C136.134 187.254 136.209 187.751 136.19 188.29L136.176 188.889H130.282L129.961 187.635H134.364L134.128 187.9V187.621C134.109 187.389 134.035 187.184 133.905 187.008C133.784 186.822 133.621 186.678 133.417 186.576C133.213 186.474 132.98 186.423 132.72 186.423C132.358 186.423 132.047 186.497 131.787 186.646C131.536 186.785 131.345 186.994 131.215 187.273C131.085 187.542 131.02 187.876 131.02 188.276C131.02 188.685 131.104 189.042 131.271 189.349C131.448 189.646 131.698 189.878 132.023 190.046C132.358 190.213 132.753 190.296 133.208 190.296C133.524 190.296 133.802 190.25 134.044 190.157C134.295 190.064 134.564 189.906 134.852 189.683L135.897 191.16C135.609 191.411 135.303 191.616 134.978 191.773C134.652 191.931 134.318 192.048 133.974 192.122C133.64 192.205 133.305 192.247 132.971 192.247ZM145.544 192.247C144.903 192.247 144.322 192.173 143.802 192.024C143.291 191.866 142.836 191.643 142.436 191.355C142.037 191.058 141.679 190.71 141.363 190.31L142.798 188.68C143.263 189.302 143.727 189.72 144.192 189.934C144.666 190.148 145.153 190.255 145.655 190.255C145.906 190.255 146.133 190.222 146.338 190.157C146.542 190.092 146.7 189.999 146.812 189.878C146.923 189.748 146.979 189.59 146.979 189.405C146.979 189.265 146.942 189.14 146.867 189.028C146.802 188.917 146.709 188.819 146.589 188.736C146.468 188.652 146.324 188.578 146.157 188.513C145.989 188.438 145.813 188.378 145.627 188.332C145.441 188.276 145.251 188.229 145.056 188.192C144.517 188.072 144.048 187.923 143.648 187.746C143.249 187.57 142.915 187.356 142.645 187.105C142.385 186.845 142.19 186.553 142.06 186.227C141.93 185.893 141.865 185.521 141.865 185.113C141.865 184.676 141.962 184.277 142.157 183.914C142.362 183.543 142.631 183.227 142.966 182.967C143.309 182.697 143.704 182.493 144.15 182.354C144.596 182.205 145.06 182.131 145.544 182.131C146.185 182.131 146.733 182.2 147.188 182.34C147.652 182.47 148.047 182.66 148.372 182.911C148.707 183.162 148.99 183.464 149.222 183.817L147.759 185.224C147.564 184.983 147.35 184.783 147.118 184.625C146.895 184.467 146.654 184.346 146.394 184.263C146.143 184.179 145.883 184.137 145.613 184.137C145.335 184.137 145.093 184.174 144.889 184.249C144.694 184.314 144.54 184.411 144.429 184.541C144.317 184.662 144.262 184.811 144.262 184.987C144.262 185.145 144.308 185.28 144.401 185.391C144.494 185.503 144.619 185.605 144.777 185.698C144.935 185.782 145.116 185.856 145.321 185.921C145.525 185.977 145.739 186.023 145.962 186.06C146.473 186.162 146.932 186.297 147.341 186.464C147.759 186.632 148.117 186.836 148.414 187.078C148.721 187.319 148.953 187.607 149.111 187.941C149.278 188.267 149.362 188.647 149.362 189.084C149.362 189.762 149.194 190.338 148.86 190.812C148.535 191.276 148.084 191.634 147.508 191.885C146.942 192.126 146.287 192.247 145.544 192.247ZM154.431 192.247C153.613 192.247 152.903 192.085 152.299 191.76C151.695 191.425 151.226 190.975 150.892 190.408C150.557 189.832 150.39 189.177 150.39 188.443C150.39 187.876 150.483 187.356 150.669 186.882C150.854 186.409 151.114 186 151.449 185.656C151.783 185.303 152.178 185.034 152.633 184.848C153.098 184.653 153.604 184.555 154.152 184.555C154.672 184.555 155.146 184.648 155.574 184.834C156.01 185.02 156.386 185.28 156.702 185.614C157.018 185.949 157.26 186.344 157.427 186.799C157.594 187.254 157.668 187.751 157.65 188.29L157.636 188.889H151.742L151.421 187.635H155.824L155.587 187.9V187.621C155.569 187.389 155.495 187.184 155.365 187.008C155.244 186.822 155.081 186.678 154.877 186.576C154.672 186.474 154.44 186.423 154.18 186.423C153.818 186.423 153.507 186.497 153.246 186.646C152.996 186.785 152.805 186.994 152.675 187.273C152.545 187.542 152.48 187.876 152.48 188.276C152.48 188.685 152.564 189.042 152.731 189.349C152.907 189.646 153.158 189.878 153.483 190.046C153.818 190.213 154.213 190.296 154.668 190.296C154.984 190.296 155.262 190.25 155.504 190.157C155.755 190.064 156.024 189.906 156.312 189.683L157.357 191.16C157.069 191.411 156.763 191.616 156.438 191.773C156.112 191.931 155.778 192.048 155.434 192.122C155.1 192.205 154.765 192.247 154.431 192.247ZM159.07 192.108V184.709H161.188L161.286 187.119L160.868 186.659C160.979 186.26 161.16 185.902 161.411 185.586C161.671 185.271 161.973 185.02 162.317 184.834C162.661 184.648 163.028 184.555 163.418 184.555C163.585 184.555 163.738 184.569 163.878 184.597C164.026 184.625 164.161 184.658 164.282 184.695L163.669 187.161C163.567 187.096 163.427 187.045 163.251 187.008C163.083 186.961 162.907 186.938 162.721 186.938C162.517 186.938 162.326 186.975 162.15 187.05C161.973 187.115 161.825 187.212 161.704 187.342C161.583 187.472 161.486 187.626 161.411 187.802C161.346 187.979 161.314 188.178 161.314 188.401V192.108H159.07ZM168.377 192.108L165.284 184.709H167.75L169.589 190.241L169.046 190.296L170.941 184.709H173.38L170.133 192.108H168.377ZM174.668 192.108V184.709H176.898V192.108H174.668ZM175.783 183.245C175.365 183.245 175.035 183.148 174.793 182.953C174.561 182.748 174.445 182.46 174.445 182.089C174.445 181.754 174.566 181.48 174.807 181.267C175.049 181.053 175.374 180.946 175.783 180.946C176.201 180.946 176.526 181.048 176.758 181.253C176.99 181.448 177.107 181.727 177.107 182.089C177.107 182.433 176.986 182.711 176.744 182.925C176.512 183.139 176.192 183.245 175.783 183.245ZM182.239 192.247C181.524 192.247 180.883 192.08 180.316 191.746C179.75 191.411 179.299 190.956 178.965 190.38C178.639 189.795 178.477 189.135 178.477 188.401C178.477 187.667 178.639 187.012 178.965 186.437C179.299 185.851 179.75 185.391 180.316 185.057C180.883 184.723 181.524 184.555 182.239 184.555C182.899 184.555 183.503 184.671 184.051 184.904C184.608 185.136 185.049 185.461 185.375 185.879L184.162 187.328C184.032 187.18 183.879 187.04 183.702 186.91C183.526 186.78 183.331 186.678 183.117 186.604C182.903 186.529 182.681 186.492 182.448 186.492C182.095 186.492 181.784 186.576 181.515 186.743C181.245 186.901 181.036 187.124 180.888 187.412C180.739 187.7 180.665 188.03 180.665 188.401C180.665 188.754 180.739 189.075 180.888 189.363C181.046 189.651 181.259 189.878 181.529 190.046C181.798 190.213 182.105 190.296 182.448 190.296C182.69 190.296 182.913 190.269 183.117 190.213C183.322 190.148 183.507 190.055 183.675 189.934C183.851 189.813 184.014 189.665 184.162 189.488L185.361 190.951C185.045 191.351 184.603 191.667 184.037 191.899C183.479 192.131 182.88 192.247 182.239 192.247ZM190.111 192.247C189.294 192.247 188.583 192.085 187.979 191.76C187.375 191.425 186.906 190.975 186.572 190.408C186.237 189.832 186.07 189.177 186.07 188.443C186.07 187.876 186.163 187.356 186.349 186.882C186.535 186.409 186.795 186 187.129 185.656C187.464 185.303 187.858 185.034 188.314 184.848C188.778 184.653 189.284 184.555 189.833 184.555C190.353 184.555 190.827 184.648 191.254 184.834C191.69 185.02 192.067 185.28 192.383 185.614C192.698 185.949 192.94 186.344 193.107 186.799C193.274 187.254 193.349 187.751 193.33 188.29L193.316 188.889H187.422L187.101 187.635H191.505L191.268 187.9V187.621C191.249 187.389 191.175 187.184 191.045 187.008C190.924 186.822 190.762 186.678 190.557 186.576C190.353 186.474 190.121 186.423 189.86 186.423C189.498 186.423 189.187 186.497 188.927 186.646C188.676 186.785 188.486 186.994 188.355 187.273C188.225 187.542 188.16 187.876 188.16 188.276C188.16 188.685 188.244 189.042 188.411 189.349C188.588 189.646 188.839 189.878 189.164 190.046C189.498 190.213 189.893 190.296 190.348 190.296C190.664 190.296 190.943 190.25 191.184 190.157C191.435 190.064 191.704 189.906 191.992 189.683L193.038 191.16C192.75 191.411 192.443 191.616 192.118 191.773C191.793 191.931 191.458 192.048 191.115 192.122C190.78 192.205 190.446 192.247 190.111 192.247Z" fill="#05243F"/>
</svg>
