<svg width="90" height="27" viewBox="0 0 90 27" fill="none" xmlns="http://www.w3.org/2000/svg">
<g filter="url(#filter0_ii_2812_1484)">
<path fill-rule="evenodd" clip-rule="evenodd" d="M11 24.4324C17.0751 24.4324 22 19.5662 22 13.5634C22 7.56057 17.0751 2.69434 11 2.69434C4.92487 2.69434 0 7.56057 0 13.5634C0 19.5662 4.92487 24.4324 11 24.4324ZM6.89133 5.55464C9.43228 4.20272 12.4907 4.20272 15.0316 5.55464C17.0646 6.63631 18.6382 8.40187 19.4671 10.5313L19.6071 10.891C20.1465 12.277 18.8107 13.6582 17.385 13.1887L13.4206 11.8829C11.8244 11.3572 10.0986 11.3572 8.50235 11.8829L4.53791 13.1887C3.11221 13.6582 1.77639 12.277 2.31587 10.891L2.45589 10.5313C3.28477 8.40187 4.85832 6.63631 6.89133 5.55464ZM5.10166 16.5075H6.40421C7.94014 16.5075 9.24474 17.6182 9.47173 19.1192L9.64927 20.2933C9.81514 21.3901 8.6783 22.2278 7.66167 21.758C6.21448 21.0891 4.93962 20.0641 3.97401 18.8064C3.25641 17.8717 3.91435 16.5075 5.10166 16.5075ZM16.1063 16.5075H17.1309C18.3413 16.5075 19.0292 17.8761 18.2976 18.829L18.1948 18.9629C17.2978 20.1312 16.1371 21.0765 14.8052 21.7233C13.8196 22.202 12.6954 21.3902 12.8577 20.3169L13.0388 19.1192C13.2658 17.6182 14.5704 16.5075 16.1063 16.5075Z" fill="#2389E3"/>
</g>
<rect x="2.88086" y="0.0751953" width="16.2381" height="14.4048" rx="0.817317" fill="url(#paint0_linear_2812_1484)"/>
<mask id="mask0_2812_1484" style="mask-type:alpha" maskUnits="userSpaceOnUse" x="0" y="10" width="22" height="15">
<rect width="22" height="13.881" transform="matrix(1 0 0 -1 0 24.6943)" fill="#D9D9D9"/>
</mask>
<g mask="url(#mask0_2812_1484)">
<g filter="url(#filter1_ii_2812_1484)">
<path fill-rule="evenodd" clip-rule="evenodd" d="M11.0154 24.5338C17.0786 24.5338 21.9937 19.6186 21.9937 13.5555C21.9937 7.49231 17.0786 2.57715 11.0154 2.57715C4.95227 2.57715 0.0371094 7.49231 0.0371094 13.5555C0.0371094 19.6186 4.95227 24.5338 11.0154 24.5338ZM6.91485 5.46621C9.4508 4.1007 12.5031 4.1007 15.0391 5.46621C17.0681 6.55875 18.6385 8.34206 19.4658 10.4929L19.6055 10.8562C20.1439 12.2561 18.8108 13.6513 17.3879 13.177L13.4312 11.8581C11.8381 11.3271 10.1158 11.3271 8.5227 11.8581L4.56607 13.177C3.14318 13.6513 1.81 12.2561 2.34842 10.8562L2.48815 10.4929C3.3154 8.34206 4.88585 6.55875 6.91485 5.46621ZM5.12871 16.5292H6.42869C7.96159 16.5292 9.26362 17.6511 9.49016 19.1672L9.66736 20.353C9.8329 21.4608 8.6983 22.307 7.68368 21.8324C6.23933 21.1569 4.96699 20.1215 4.00328 18.8512C3.2871 17.9071 3.94374 16.5292 5.12871 16.5292ZM16.1117 16.5292H17.1342C18.3423 16.5292 19.0288 17.9116 18.2986 18.8741L18.196 19.0093C17.3008 20.1894 16.1424 21.1441 14.8131 21.7975C13.8294 22.281 12.7074 21.4609 12.8694 20.3769L13.0502 19.1672C13.2767 17.6511 14.5788 16.5292 16.1117 16.5292Z" fill="#2389E3"/>
</g>
</g>
<path d="M6.02344 3.69141H16.2377M6.02344 6.31045H16.2377M6.02344 8.92949H16.2377" stroke="#05243F" stroke-width="1.14788" stroke-linecap="round"/>
<path d="M28.5144 20V8.35094H30.7943L35.0378 15.2572L33.5401 15.2405L37.8336 8.35094H40.0137V20H37.5674V16.006C37.5674 15.0075 37.5895 14.1089 37.6339 13.3101C37.6894 12.5113 37.7782 11.7181 37.9002 10.9304L38.1997 11.7125L34.7882 17.0045H33.6899L30.3449 11.7458L30.6278 10.9304C30.7499 11.6737 30.8331 12.4392 30.8775 13.2269C30.9329 14.0035 30.9607 14.9299 30.9607 16.006V20H28.5144ZM46.8042 20.1664C45.9055 20.1664 45.1012 19.9723 44.3912 19.584C43.6922 19.1846 43.1375 18.6409 42.727 17.9531C42.3276 17.2652 42.1279 16.4775 42.1279 15.59C42.1279 14.7025 42.3276 13.9203 42.727 13.2435C43.1375 12.5557 43.6922 12.0121 44.3912 11.6127C45.1012 11.2133 45.9055 11.0136 46.8042 11.0136C47.6917 11.0136 48.485 11.2133 49.1839 11.6127C49.894 12.0121 50.4487 12.5557 50.8481 13.2435C51.2475 13.9203 51.4472 14.7025 51.4472 15.59C51.4472 16.4775 51.2475 17.2652 50.8481 17.9531C50.4487 18.6409 49.894 19.1846 49.1839 19.584C48.485 19.9723 47.6917 20.1664 46.8042 20.1664ZM46.8042 18.1029C47.2369 18.1029 47.6252 17.9975 47.9691 17.7867C48.313 17.5648 48.5793 17.2652 48.7679 16.888C48.9676 16.4997 49.0674 16.0671 49.0674 15.59C49.0674 15.1018 48.9676 14.6692 48.7679 14.292C48.5793 13.9037 48.313 13.6041 47.9691 13.3933C47.6252 13.1714 47.2369 13.0605 46.8042 13.0605C46.3604 13.0605 45.9666 13.1714 45.6226 13.3933C45.2787 13.6152 45.0069 13.9148 44.8072 14.292C44.6075 14.6692 44.5132 15.1018 44.5243 15.59C44.5132 16.0671 44.6075 16.4997 44.8072 16.888C45.0069 17.2652 45.2787 17.5648 45.6226 17.7867C45.9666 17.9975 46.3604 18.1029 46.8042 18.1029ZM54.0738 20V8.96668H56.4369V20H54.0738ZM52.4263 13.3101V11.1966H58.2342V13.3101H52.4263ZM63.787 20.1664C62.8883 20.1664 62.084 19.9723 61.3739 19.584C60.675 19.1846 60.1203 18.6409 59.7098 17.9531C59.3104 17.2652 59.1107 16.4775 59.1107 15.59C59.1107 14.7025 59.3104 13.9203 59.7098 13.2435C60.1203 12.5557 60.675 12.0121 61.3739 11.6127C62.084 11.2133 62.8883 11.0136 63.787 11.0136C64.6745 11.0136 65.4678 11.2133 66.1667 11.6127C66.8767 12.0121 67.4315 12.5557 67.8309 13.2435C68.2303 13.9203 68.4299 14.7025 68.4299 15.59C68.4299 16.4775 68.2303 17.2652 67.8309 17.9531C67.4315 18.6409 66.8767 19.1846 66.1667 19.584C65.4678 19.9723 64.6745 20.1664 63.787 20.1664ZM63.787 18.1029C64.2196 18.1029 64.6079 17.9975 64.9519 17.7867C65.2958 17.5648 65.5621 17.2652 65.7507 16.888C65.9504 16.4997 66.0502 16.0671 66.0502 15.59C66.0502 15.1018 65.9504 14.6692 65.7507 14.292C65.5621 13.9037 65.2958 13.6041 64.9519 13.3933C64.6079 13.1714 64.2196 13.0605 63.787 13.0605C63.3432 13.0605 62.9493 13.1714 62.6054 13.3933C62.2615 13.6152 61.9897 13.9148 61.79 14.292C61.5903 14.6692 61.496 15.1018 61.5071 15.59C61.496 16.0671 61.5903 16.4997 61.79 16.888C61.9897 17.2652 62.2615 17.5648 62.6054 17.7867C62.9493 17.9975 63.3432 18.1029 63.787 18.1029ZM72.4545 17.354L71.7555 15.4069L75.9159 11.1966H79.0279L72.4545 17.354ZM70.2079 20V7.68528H72.571V20H70.2079ZM76.1655 20L73.0036 16.0227L74.6678 14.6914L79.0112 20H76.1655ZM83.2375 20.1664C82.5053 20.1664 81.8452 19.9667 81.2572 19.5673C80.6692 19.1679 80.2032 18.6243 79.8593 17.9365C79.5154 17.2486 79.3434 16.4609 79.3434 15.5734C79.3434 14.6858 79.5154 13.9037 79.8593 13.2269C80.2143 12.5391 80.6914 12.001 81.2905 11.6127C81.8895 11.2133 82.5719 11.0136 83.3374 11.0136C83.77 11.0136 84.1639 11.0802 84.5189 11.2133C84.885 11.3353 85.2012 11.5073 85.4675 11.7292C85.7448 11.9511 85.9778 12.2062 86.1664 12.4947C86.355 12.7831 86.4882 13.0938 86.5658 13.4266L86.0666 13.3434V11.1966H88.413V20H86.0333V17.8865L86.5658 17.8366C86.4771 18.1472 86.3328 18.4412 86.1331 18.7186C85.9334 18.996 85.6838 19.2456 85.3843 19.4675C85.0958 19.6783 84.7685 19.8502 84.4024 19.9834C84.0363 20.1054 83.648 20.1664 83.2375 20.1664ZM83.8865 18.1195C84.3303 18.1195 84.7186 18.0141 85.0514 17.8033C85.3843 17.5925 85.6394 17.2985 85.8169 16.9213C86.0055 16.533 86.0999 16.0837 86.0999 15.5734C86.0999 15.0741 86.0055 14.6359 85.8169 14.2587C85.6394 13.8815 85.3843 13.5875 85.0514 13.3767C84.7186 13.1548 84.3303 13.0438 83.8865 13.0438C83.4539 13.0438 83.0711 13.1548 82.7383 13.3767C82.4165 13.5875 82.1614 13.8815 81.9728 14.2587C81.7842 14.6359 81.6899 15.0741 81.6899 15.5734C81.6899 16.0837 81.7842 16.533 81.9728 16.9213C82.1614 17.2985 82.4165 17.5925 82.7383 17.8033C83.0711 18.0141 83.4539 18.1195 83.8865 18.1195Z" fill="#05243F"/>
<defs>
<filter id="filter0_ii_2812_1484" x="0" y="2.69434" width="22" height="22.5556" filterUnits="userSpaceOnUse" color-interpolation-filters="sRGB">
<feFlood flood-opacity="0" result="BackgroundImageFix"/>
<feBlend mode="normal" in="SourceGraphic" in2="BackgroundImageFix" result="shape"/>
<feColorMatrix in="SourceAlpha" type="matrix" values="0 0 0 0 0 0 0 0 0 0 0 0 0 0 0 0 0 0 127 0" result="hardAlpha"/>
<feOffset/>
<feGaussianBlur stdDeviation="1.8594"/>
<feComposite in2="hardAlpha" operator="arithmetic" k2="-1" k3="1"/>
<feColorMatrix type="matrix" values="0 0 0 0 0 0 0 0 0 0 0 0 0 0 0 0 0 0 0.25 0"/>
<feBlend mode="normal" in2="shape" result="effect1_innerShadow_2812_1484"/>
<feColorMatrix in="SourceAlpha" type="matrix" values="0 0 0 0 0 0 0 0 0 0 0 0 0 0 0 0 0 0 127 0" result="hardAlpha"/>
<feOffset dy="0.817317"/>
<feGaussianBlur stdDeviation="0.888832"/>
<feComposite in2="hardAlpha" operator="arithmetic" k2="-1" k3="1"/>
<feColorMatrix type="matrix" values="0 0 0 0 0.27144 0 0 0 0 0.63318 0 0 0 0 0.949702 0 0 0 1 0"/>
<feBlend mode="normal" in2="effect1_innerShadow_2812_1484" result="effect2_innerShadow_2812_1484"/>
</filter>
<filter id="filter1_ii_2812_1484" x="0.0371094" y="2.57715" width="21.957" height="22.7739" filterUnits="userSpaceOnUse" color-interpolation-filters="sRGB">
<feFlood flood-opacity="0" result="BackgroundImageFix"/>
<feBlend mode="normal" in="SourceGraphic" in2="BackgroundImageFix" result="shape"/>
<feColorMatrix in="SourceAlpha" type="matrix" values="0 0 0 0 0 0 0 0 0 0 0 0 0 0 0 0 0 0 127 0" result="hardAlpha"/>
<feOffset/>
<feGaussianBlur stdDeviation="1.8594"/>
<feComposite in2="hardAlpha" operator="arithmetic" k2="-1" k3="1"/>
<feColorMatrix type="matrix" values="0 0 0 0 0 0 0 0 0 0 0 0 0 0 0 0 0 0 0.25 0"/>
<feBlend mode="normal" in2="shape" result="effect1_innerShadow_2812_1484"/>
<feColorMatrix in="SourceAlpha" type="matrix" values="0 0 0 0 0 0 0 0 0 0 0 0 0 0 0 0 0 0 127 0" result="hardAlpha"/>
<feOffset dy="0.817317"/>
<feGaussianBlur stdDeviation="0.888832"/>
<feComposite in2="hardAlpha" operator="arithmetic" k2="-1" k3="1"/>
<feColorMatrix type="matrix" values="0 0 0 0 0.27144 0 0 0 0 0.63318 0 0 0 0 0.949702 0 0 0 1 0"/>
<feBlend mode="normal" in2="effect1_innerShadow_2812_1484" result="effect2_innerShadow_2812_1484"/>
</filter>
<linearGradient id="paint0_linear_2812_1484" x1="10.9999" y1="0.0751953" x2="10.9999" y2="14.48" gradientUnits="userSpaceOnUse">
<stop stop-color="#D9D9D9"/>
<stop offset="1" stop-color="#A3B0D4"/>
</linearGradient>
</defs>
</svg>
