<svg width="420" height="105" viewBox="0 0 420 105" fill="none" xmlns="http://www.w3.org/2000/svg">
<rect width="419.57" height="104.633" rx="15.4829" fill="#2389E3"/>
<path d="M73.9095 71.6005C71.6271 73.813 69.1352 73.4637 66.7364 72.4156C64.1978 71.3443 61.8689 71.2977 59.1906 72.4156C55.8369 73.8596 54.0669 73.4404 52.0641 71.6005C40.6988 59.8859 42.3757 42.0463 55.278 41.3942C58.4221 41.5572 60.6113 43.1176 62.4511 43.2573C65.1993 42.6984 67.831 41.0914 70.7654 41.301C74.2821 41.5805 76.9371 42.9778 78.6838 45.4931C71.4175 49.8482 73.1409 59.4202 79.8017 62.0984C78.4742 65.5918 76.7508 69.062 73.8862 71.6238L73.9095 71.6005ZM62.2182 41.2544C61.8689 36.0609 66.0843 31.7757 70.9285 31.3564C71.6038 37.3651 65.4787 41.8367 62.2182 41.2544Z" fill="white"/>
<path d="M94.6369 59.3203L99.0049 48.1203H100.957L105.293 59.3203H103.133L100.733 52.9523C100.68 52.8243 100.605 52.6216 100.509 52.3443C100.424 52.067 100.328 51.7683 100.221 51.4483C100.114 51.1176 100.018 50.8136 99.9329 50.5363C99.8475 50.2483 99.7835 50.0403 99.7409 49.9123L100.141 49.8963C100.077 50.1096 100.002 50.3496 99.9169 50.6163C99.8315 50.883 99.7409 51.1603 99.6449 51.4483C99.5489 51.7363 99.4529 52.0136 99.3569 52.2803C99.2715 52.547 99.1915 52.787 99.1169 53.0003L96.7169 59.3203H94.6369ZM96.6209 56.7603L97.3409 54.9523H102.445L103.213 56.7603H96.6209ZM106.705 62.8403V50.8883H108.641L108.673 52.8083L108.337 52.6643C108.401 52.3336 108.582 52.0243 108.881 51.7363C109.179 51.4376 109.542 51.1976 109.969 51.0163C110.406 50.835 110.859 50.7443 111.329 50.7443C112.075 50.7443 112.737 50.931 113.313 51.3043C113.899 51.6776 114.358 52.1896 114.689 52.8403C115.03 53.491 115.201 54.243 115.201 55.0963C115.201 55.939 115.03 56.691 114.689 57.3523C114.358 58.003 113.899 58.5203 113.313 58.9043C112.737 59.2776 112.086 59.4643 111.361 59.4643C110.87 59.4643 110.395 59.3683 109.937 59.1763C109.489 58.9843 109.105 58.7336 108.785 58.4243C108.475 58.115 108.283 57.7896 108.209 57.4483L108.689 57.2243V62.8403H106.705ZM110.961 57.7203C111.409 57.7203 111.809 57.6083 112.161 57.3843C112.513 57.1603 112.785 56.851 112.977 56.4563C113.179 56.0616 113.281 55.6083 113.281 55.0963C113.281 54.5843 113.185 54.1363 112.993 53.7523C112.801 53.3576 112.529 53.0483 112.177 52.8243C111.825 52.6003 111.419 52.4883 110.961 52.4883C110.491 52.4883 110.081 52.6003 109.729 52.8243C109.387 53.0376 109.115 53.3416 108.913 53.7363C108.71 54.131 108.609 54.5843 108.609 55.0963C108.609 55.6083 108.71 56.0616 108.913 56.4563C109.115 56.851 109.387 57.1603 109.729 57.3843C110.081 57.6083 110.491 57.7203 110.961 57.7203ZM116.955 62.8403V50.8883H118.891L118.923 52.8083L118.587 52.6643C118.651 52.3336 118.832 52.0243 119.131 51.7363C119.429 51.4376 119.792 51.1976 120.219 51.0163C120.656 50.835 121.109 50.7443 121.579 50.7443C122.325 50.7443 122.987 50.931 123.563 51.3043C124.149 51.6776 124.608 52.1896 124.939 52.8403C125.28 53.491 125.451 54.243 125.451 55.0963C125.451 55.939 125.28 56.691 124.939 57.3523C124.608 58.003 124.149 58.5203 123.563 58.9043C122.987 59.2776 122.336 59.4643 121.611 59.4643C121.12 59.4643 120.645 59.3683 120.187 59.1763C119.739 58.9843 119.355 58.7336 119.035 58.4243C118.725 58.115 118.533 57.7896 118.459 57.4483L118.939 57.2243V62.8403H116.955ZM121.211 57.7203C121.659 57.7203 122.059 57.6083 122.411 57.3843C122.763 57.1603 123.035 56.851 123.227 56.4563C123.429 56.0616 123.531 55.6083 123.531 55.0963C123.531 54.5843 123.435 54.1363 123.243 53.7523C123.051 53.3576 122.779 53.0483 122.427 52.8243C122.075 52.6003 121.669 52.4883 121.211 52.4883C120.741 52.4883 120.331 52.6003 119.979 52.8243C119.637 53.0376 119.365 53.3416 119.163 53.7363C118.96 54.131 118.859 54.5843 118.859 55.0963C118.859 55.6083 118.96 56.0616 119.163 56.4563C119.365 56.851 119.637 57.1603 119.979 57.3843C120.331 57.6083 120.741 57.7203 121.211 57.7203ZM135.812 59.4803C135.161 59.4803 134.564 59.4003 134.02 59.2403C133.476 59.0696 132.985 58.819 132.548 58.4883C132.111 58.1576 131.721 57.7576 131.38 57.2883L132.74 55.7523C133.263 56.4776 133.775 56.979 134.276 57.2563C134.777 57.5336 135.343 57.6723 135.972 57.6723C136.335 57.6723 136.665 57.619 136.964 57.5123C137.263 57.395 137.497 57.2403 137.668 57.0483C137.839 56.8456 137.924 56.6163 137.924 56.3603C137.924 56.179 137.887 56.0136 137.812 55.8643C137.748 55.7043 137.647 55.5656 137.508 55.4483C137.369 55.3203 137.199 55.203 136.996 55.0963C136.793 54.9896 136.564 54.899 136.308 54.8243C136.052 54.7496 135.769 54.6803 135.46 54.6163C134.873 54.499 134.361 54.3443 133.924 54.1523C133.487 53.9496 133.119 53.7043 132.82 53.4163C132.521 53.1176 132.303 52.787 132.164 52.4243C132.025 52.051 131.956 51.6296 131.956 51.1603C131.956 50.691 132.057 50.259 132.26 49.8643C132.473 49.4696 132.761 49.1283 133.124 48.8403C133.487 48.5523 133.908 48.3283 134.388 48.1683C134.868 48.0083 135.385 47.9283 135.94 47.9283C136.569 47.9283 137.129 48.003 137.62 48.1523C138.121 48.3016 138.559 48.5256 138.932 48.8243C139.316 49.1123 139.631 49.4643 139.876 49.8803L138.5 51.2403C138.287 50.9096 138.047 50.6376 137.78 50.4243C137.513 50.2003 137.225 50.035 136.916 49.9283C136.607 49.811 136.281 49.7523 135.94 49.7523C135.556 49.7523 135.22 49.8056 134.932 49.9123C134.655 50.019 134.436 50.1736 134.276 50.3763C134.116 50.5683 134.036 50.803 134.036 51.0803C134.036 51.2936 134.084 51.4856 134.18 51.6563C134.276 51.8163 134.409 51.9603 134.58 52.0883C134.761 52.2163 134.991 52.3283 135.268 52.4243C135.545 52.5203 135.86 52.6056 136.212 52.6803C136.799 52.7976 137.327 52.9576 137.796 53.1603C138.265 53.3523 138.665 53.587 138.996 53.8643C139.327 54.131 139.577 54.4403 139.748 54.7923C139.919 55.1336 140.004 55.5176 140.004 55.9443C140.004 56.6803 139.828 57.315 139.476 57.8483C139.135 58.371 138.649 58.7763 138.02 59.0643C137.391 59.3416 136.655 59.4803 135.812 59.4803ZM142.851 59.3203V48.7443H144.819V59.3203H142.851ZM141.187 52.7123V50.8883H146.659V52.7123H141.187ZM151.936 59.4803C151.093 59.4803 150.341 59.2936 149.68 58.9203C149.018 58.5363 148.496 58.0136 148.112 57.3523C147.728 56.691 147.536 55.939 147.536 55.0963C147.536 54.2536 147.728 53.5016 148.112 52.8403C148.496 52.179 149.018 51.6616 149.68 51.2883C150.341 50.9043 151.093 50.7123 151.936 50.7123C152.768 50.7123 153.514 50.9043 154.176 51.2883C154.837 51.6616 155.354 52.179 155.728 52.8403C156.112 53.5016 156.304 54.2536 156.304 55.0963C156.304 55.939 156.112 56.691 155.728 57.3523C155.354 58.0136 154.837 58.5363 154.176 58.9203C153.514 59.2936 152.768 59.4803 151.936 59.4803ZM151.936 57.7363C152.394 57.7363 152.8 57.619 153.152 57.3843C153.514 57.1496 153.797 56.835 154 56.4403C154.213 56.0456 154.314 55.5976 154.304 55.0963C154.314 54.5843 154.213 54.131 154 53.7363C153.797 53.3416 153.514 53.0323 153.152 52.8083C152.8 52.5736 152.394 52.4563 151.936 52.4563C151.477 52.4563 151.061 52.5736 150.688 52.8083C150.325 53.0323 150.042 53.347 149.84 53.7523C149.637 54.147 149.536 54.595 149.536 55.0963C149.536 55.5976 149.637 56.0456 149.84 56.4403C150.042 56.835 150.325 57.1496 150.688 57.3843C151.061 57.619 151.477 57.7363 151.936 57.7363ZM158.064 59.3203V50.8883H160L160.032 53.5763L159.76 52.9683C159.877 52.5416 160.08 52.1576 160.368 51.8163C160.656 51.475 160.987 51.2083 161.36 51.0163C161.744 50.8136 162.144 50.7123 162.56 50.7123C162.741 50.7123 162.912 50.7283 163.072 50.7603C163.243 50.7923 163.381 50.8296 163.488 50.8723L162.96 53.0323C162.843 52.9683 162.699 52.915 162.528 52.8723C162.357 52.8296 162.187 52.8083 162.016 52.8083C161.749 52.8083 161.493 52.8616 161.248 52.9683C161.013 53.0643 160.805 53.203 160.624 53.3843C160.443 53.5656 160.299 53.779 160.192 54.0243C160.096 54.259 160.048 54.5256 160.048 54.8243V59.3203H158.064ZM168.391 59.4803C167.506 59.4803 166.722 59.2936 166.039 58.9203C165.367 58.547 164.839 58.0403 164.455 57.4003C164.082 56.7496 163.895 56.0083 163.895 55.1763C163.895 54.515 164.002 53.9123 164.215 53.3683C164.428 52.8243 164.722 52.355 165.095 51.9603C165.479 51.555 165.932 51.2456 166.455 51.0323C166.988 50.8083 167.57 50.6963 168.199 50.6963C168.754 50.6963 169.271 50.803 169.751 51.0163C170.231 51.2296 170.647 51.523 170.999 51.8963C171.351 52.259 171.618 52.6963 171.799 53.2083C171.991 53.7096 172.082 54.259 172.071 54.8563L172.055 55.5443H165.223L164.855 54.2003H170.407L170.151 54.4723V54.1203C170.119 53.7896 170.012 53.5016 169.831 53.2563C169.65 53.0003 169.415 52.803 169.127 52.6643C168.85 52.515 168.54 52.4403 168.199 52.4403C167.676 52.4403 167.234 52.5416 166.871 52.7443C166.519 52.947 166.252 53.2403 166.071 53.6243C165.89 53.9976 165.799 54.467 165.799 55.0323C165.799 55.5763 165.911 56.051 166.135 56.4563C166.37 56.8616 166.695 57.1763 167.111 57.4003C167.538 57.6136 168.034 57.7203 168.599 57.7203C168.994 57.7203 169.356 57.6563 169.687 57.5283C170.018 57.4003 170.375 57.171 170.759 56.8403L171.735 58.2003C171.447 58.467 171.116 58.6963 170.743 58.8883C170.38 59.0696 169.996 59.2136 169.591 59.3203C169.186 59.427 168.786 59.4803 168.391 59.4803Z" fill="white"/>
<path d="M253.532 32.3662L273.887 52.3276L253.683 72.4729C253.353 72.0424 253.096 71.56 252.924 71.0453C252.835 70.4625 252.835 69.8697 252.924 69.2869V35.0049C252.864 34.085 253.076 33.1651 253.53 32.3662M282.655 43.622L276.011 50.2036L255.898 30.4239C256.55 30.198 257.249 30.1351 257.931 30.2423C259.003 30.5357 260.025 30.9875 260.964 31.5767L279.167 41.6494C280.35 42.2852 281.503 42.9536 282.655 43.622ZM276.013 54.4819L282.625 60.9749L277.832 63.6439L263.209 71.7719C261.998 72.4403 260.782 73.0784 259.599 73.8074C259.093 74.1226 258.525 74.3261 257.934 74.4044C257.343 74.4827 256.742 74.434 256.171 74.2615L276.013 54.4819ZM293.154 52.3276C293.171 53.142 292.965 53.9455 292.559 54.6515C292.153 55.3574 291.561 55.939 290.849 56.3334L285.385 59.3656L278.195 52.3276L285.415 45.1684C287.267 46.2001 289.088 47.2319 290.907 48.203C291.632 48.6085 292.228 49.211 292.625 49.9409C293.023 50.6708 293.208 51.4983 293.154 52.3276Z" fill="white"/>
<path d="M306.746 59.3193V48.1193H311.402C312.042 48.1193 312.618 48.274 313.13 48.5833C313.653 48.8927 314.069 49.314 314.378 49.8473C314.688 50.3807 314.842 50.978 314.842 51.6393C314.842 52.3113 314.688 52.9193 314.378 53.4633C314.069 53.9967 313.653 54.4233 313.13 54.7433C312.618 55.0633 312.042 55.2233 311.402 55.2233H308.826V59.3193H306.746ZM308.826 53.3033H311.258C311.525 53.3033 311.765 53.2287 311.978 53.0793C312.202 52.93 312.378 52.7327 312.506 52.4873C312.645 52.242 312.714 51.9647 312.714 51.6553C312.714 51.346 312.645 51.074 312.506 50.8393C312.378 50.594 312.202 50.402 311.978 50.2633C311.765 50.114 311.525 50.0393 311.258 50.0393H308.826V53.3033ZM316.707 59.3193V47.4793H318.691V59.3193H316.707ZM324.031 59.4793C323.338 59.4793 322.709 59.2873 322.143 58.9033C321.578 58.5193 321.125 57.9967 320.783 57.3353C320.442 56.674 320.271 55.922 320.271 55.0793C320.271 54.2367 320.442 53.4847 320.783 52.8233C321.125 52.162 321.589 51.6447 322.175 51.2713C322.762 50.898 323.423 50.7113 324.159 50.7113C324.586 50.7113 324.975 50.7753 325.327 50.9033C325.679 51.0207 325.989 51.1913 326.255 51.4153C326.522 51.6393 326.741 51.8953 326.911 52.1833C327.093 52.4713 327.215 52.7807 327.279 53.1113L326.847 52.9993V50.8873H328.831V59.3193H326.831V57.3033L327.295 57.2233C327.221 57.5113 327.082 57.794 326.879 58.0713C326.687 58.338 326.442 58.578 326.143 58.7913C325.855 58.994 325.53 59.1593 325.167 59.2873C324.815 59.4153 324.437 59.4793 324.031 59.4793ZM324.575 57.7353C325.034 57.7353 325.439 57.6233 325.791 57.3993C326.143 57.1753 326.415 56.866 326.607 56.4713C326.81 56.066 326.911 55.602 326.911 55.0793C326.911 54.5673 326.81 54.114 326.607 53.7193C326.415 53.3247 326.143 53.0153 325.791 52.7913C325.439 52.5673 325.034 52.4553 324.575 52.4553C324.117 52.4553 323.711 52.5673 323.359 52.7913C323.018 53.0153 322.751 53.3247 322.559 53.7193C322.367 54.114 322.271 54.5673 322.271 55.0793C322.271 55.602 322.367 56.066 322.559 56.4713C322.751 56.866 323.018 57.1753 323.359 57.3993C323.711 57.6233 324.117 57.7353 324.575 57.7353ZM332.205 62.9993L333.997 58.8553L334.013 60.1673L329.853 50.8873H332.125L334.445 56.3913C334.52 56.53 334.595 56.7167 334.669 56.9513C334.744 57.1753 334.808 57.3993 334.861 57.6233L334.461 57.7513C334.536 57.5487 334.616 57.3353 334.701 57.1113C334.787 56.8767 334.867 56.6367 334.941 56.3913L336.925 50.8873H339.213L335.693 59.3193L334.253 62.9993H332.205ZM349.048 59.4793C348.398 59.4793 347.8 59.3993 347.256 59.2393C346.712 59.0687 346.222 58.818 345.784 58.4873C345.347 58.1567 344.958 57.7567 344.616 57.2873L345.976 55.7513C346.499 56.4767 347.011 56.978 347.512 57.2553C348.014 57.5327 348.579 57.6713 349.208 57.6713C349.571 57.6713 349.902 57.618 350.2 57.5113C350.499 57.394 350.734 57.2393 350.904 57.0473C351.075 56.8447 351.16 56.6153 351.16 56.3593C351.16 56.178 351.123 56.0127 351.048 55.8633C350.984 55.7033 350.883 55.5647 350.744 55.4473C350.606 55.3193 350.435 55.202 350.232 55.0953C350.03 54.9887 349.8 54.898 349.544 54.8233C349.288 54.7487 349.006 54.6793 348.696 54.6153C348.11 54.498 347.598 54.3433 347.16 54.1513C346.723 53.9487 346.355 53.7033 346.056 53.4153C345.758 53.1167 345.539 52.786 345.4 52.4233C345.262 52.05 345.192 51.6287 345.192 51.1593C345.192 50.69 345.294 50.258 345.496 49.8633C345.71 49.4687 345.998 49.1273 346.36 48.8393C346.723 48.5513 347.144 48.3273 347.624 48.1673C348.104 48.0073 348.622 47.9273 349.176 47.9273C349.806 47.9273 350.366 48.002 350.856 48.1513C351.358 48.3007 351.795 48.5247 352.168 48.8233C352.552 49.1113 352.867 49.4633 353.112 49.8793L351.736 51.2393C351.523 50.9087 351.283 50.6367 351.016 50.4233C350.75 50.1993 350.462 50.034 350.152 49.9273C349.843 49.81 349.518 49.7513 349.176 49.7513C348.792 49.7513 348.456 49.8047 348.168 49.9113C347.891 50.018 347.672 50.1727 347.512 50.3753C347.352 50.5673 347.272 50.802 347.272 51.0793C347.272 51.2927 347.32 51.4847 347.416 51.6553C347.512 51.8153 347.646 51.9593 347.816 52.0873C347.998 52.2153 348.227 52.3273 348.504 52.4233C348.782 52.5193 349.096 52.6047 349.448 52.6793C350.035 52.7967 350.563 52.9567 351.032 53.1593C351.502 53.3513 351.902 53.586 352.232 53.8633C352.563 54.13 352.814 54.4393 352.984 54.7913C353.155 55.1327 353.24 55.5167 353.24 55.9433C353.24 56.6793 353.064 57.314 352.712 57.8473C352.371 58.37 351.886 58.7753 351.256 59.0633C350.627 59.3407 349.891 59.4793 349.048 59.4793ZM356.087 59.3193V48.7433H358.055V59.3193H356.087ZM354.423 52.7113V50.8873H359.895V52.7113H354.423ZM365.172 59.4793C364.329 59.4793 363.577 59.2927 362.916 58.9193C362.255 58.5353 361.732 58.0127 361.348 57.3513C360.964 56.69 360.772 55.938 360.772 55.0953C360.772 54.2527 360.964 53.5007 361.348 52.8393C361.732 52.178 362.255 51.6607 362.916 51.2873C363.577 50.9033 364.329 50.7113 365.172 50.7113C366.004 50.7113 366.751 50.9033 367.412 51.2873C368.073 51.6607 368.591 52.178 368.964 52.8393C369.348 53.5007 369.54 54.2527 369.54 55.0953C369.54 55.938 369.348 56.69 368.964 57.3513C368.591 58.0127 368.073 58.5353 367.412 58.9193C366.751 59.2927 366.004 59.4793 365.172 59.4793ZM365.172 57.7353C365.631 57.7353 366.036 57.618 366.388 57.3833C366.751 57.1487 367.033 56.834 367.236 56.4393C367.449 56.0447 367.551 55.5967 367.54 55.0953C367.551 54.5833 367.449 54.13 367.236 53.7353C367.033 53.3407 366.751 53.0313 366.388 52.8073C366.036 52.5727 365.631 52.4553 365.172 52.4553C364.713 52.4553 364.297 52.5727 363.924 52.8073C363.561 53.0313 363.279 53.346 363.076 53.7513C362.873 54.146 362.772 54.594 362.772 55.0953C362.772 55.5967 362.873 56.0447 363.076 56.4393C363.279 56.834 363.561 57.1487 363.924 57.3833C364.297 57.618 364.713 57.7353 365.172 57.7353ZM371.3 59.3193V50.8873H373.236L373.268 53.5753L372.996 52.9673C373.114 52.5407 373.316 52.1567 373.604 51.8153C373.892 51.474 374.223 51.2073 374.596 51.0153C374.98 50.8127 375.38 50.7113 375.796 50.7113C375.978 50.7113 376.148 50.7273 376.308 50.7593C376.479 50.7913 376.618 50.8287 376.724 50.8713L376.196 53.0313C376.079 52.9673 375.935 52.914 375.764 52.8713C375.594 52.8287 375.423 52.8073 375.252 52.8073C374.986 52.8073 374.73 52.8607 374.484 52.9673C374.25 53.0633 374.042 53.202 373.86 53.3833C373.679 53.5647 373.535 53.778 373.428 54.0233C373.332 54.258 373.284 54.5247 373.284 54.8233V59.3193H371.3ZM381.627 59.4793C380.742 59.4793 379.958 59.2927 379.275 58.9193C378.603 58.546 378.075 58.0393 377.691 57.3993C377.318 56.7487 377.131 56.0073 377.131 55.1753C377.131 54.514 377.238 53.9113 377.451 53.3673C377.665 52.8233 377.958 52.354 378.331 51.9593C378.715 51.554 379.169 51.2447 379.691 51.0313C380.225 50.8073 380.806 50.6953 381.435 50.6953C381.99 50.6953 382.507 50.802 382.987 51.0153C383.467 51.2287 383.883 51.522 384.235 51.8953C384.587 52.258 384.854 52.6953 385.035 53.2073C385.227 53.7087 385.318 54.258 385.307 54.8553L385.291 55.5433H378.459L378.091 54.1993H383.643L383.387 54.4713V54.1193C383.355 53.7887 383.249 53.5007 383.067 53.2553C382.886 52.9993 382.651 52.802 382.363 52.6633C382.086 52.514 381.777 52.4393 381.435 52.4393C380.913 52.4393 380.47 52.5407 380.107 52.7433C379.755 52.946 379.489 53.2393 379.307 53.6233C379.126 53.9967 379.035 54.466 379.035 55.0313C379.035 55.5753 379.147 56.05 379.371 56.4553C379.606 56.8607 379.931 57.1753 380.347 57.3993C380.774 57.6127 381.27 57.7193 381.835 57.7193C382.23 57.7193 382.593 57.6553 382.923 57.5273C383.254 57.3993 383.611 57.17 383.995 56.8393L384.971 58.1993C384.683 58.466 384.353 58.6953 383.979 58.8873C383.617 59.0687 383.233 59.2127 382.827 59.3193C382.422 59.426 382.022 59.4793 381.627 59.4793Z" fill="white"/>
<line x1="213.924" y1="-2.18557e-08" x2="213.924" y2="104.633" stroke="black" stroke-opacity="0.25"/>
</svg>
