<svg width="465" height="217" viewBox="0 0 465 217" fill="none" xmlns="http://www.w3.org/2000/svg">
<rect x="0.546875" y="0.18457" width="464.174" height="74.8188" rx="20" fill="white"/>
<path d="M35.6074 44.0938V31.4937H38.3434L42.9334 38.9637L40.9714 38.9457L45.6154 31.4937H48.2434V44.0938H45.2734V40.1697C45.2734 39.0897 45.2974 38.1177 45.3454 37.2537C45.4054 36.3897 45.5014 35.5317 45.6334 34.6797L45.9754 35.6157L42.4834 41.0337H41.2954L37.8754 35.6517L38.2174 34.6797C38.3494 35.4837 38.4394 36.3117 38.4874 37.1637C38.5474 38.0037 38.5774 39.0057 38.5774 40.1697V44.0938H35.6074ZM55.6582 44.2738C54.6022 44.2738 53.6842 44.0638 52.9042 43.6437C52.1242 43.2117 51.5182 42.6297 51.0862 41.8977C50.6542 41.1537 50.4382 40.3077 50.4382 39.3597C50.4382 38.6277 50.5582 37.9557 50.7982 37.3437C51.0382 36.7317 51.3742 36.2037 51.8062 35.7597C52.2382 35.3037 52.7482 34.9557 53.3362 34.7157C53.9362 34.4637 54.5902 34.3377 55.2982 34.3377C55.9702 34.3377 56.5822 34.4577 57.1342 34.6977C57.6982 34.9377 58.1842 35.2737 58.5922 35.7057C59.0002 36.1377 59.3122 36.6477 59.5282 37.2357C59.7442 37.8237 59.8402 38.4657 59.8162 39.1617L59.7982 39.9357H52.1842L51.7702 38.3157H57.4582L57.1522 38.6577V38.2977C57.1282 37.9977 57.0322 37.7337 56.8642 37.5057C56.7082 37.2657 56.4982 37.0797 56.2342 36.9477C55.9702 36.8157 55.6702 36.7497 55.3342 36.7497C54.8662 36.7497 54.4642 36.8457 54.1282 37.0377C53.8042 37.2177 53.5582 37.4877 53.3902 37.8477C53.2222 38.1957 53.1382 38.6277 53.1382 39.1437C53.1382 39.6717 53.2462 40.1337 53.4622 40.5297C53.6902 40.9137 54.0142 41.2137 54.4342 41.4297C54.8662 41.6457 55.3762 41.7537 55.9642 41.7537C56.3722 41.7537 56.7322 41.6937 57.0442 41.5737C57.3682 41.4537 57.7162 41.2497 58.0882 40.9617L59.4382 42.8697C59.0662 43.1937 58.6702 43.4577 58.2502 43.6617C57.8302 43.8657 57.3982 44.0157 56.9542 44.1118C56.5222 44.2198 56.0902 44.2738 55.6582 44.2738ZM65.845 44.2738C64.921 44.2738 64.093 44.0578 63.361 43.6257C62.629 43.1937 62.047 42.6057 61.615 41.8617C61.195 41.1057 60.985 40.2537 60.985 39.3057C60.985 38.3577 61.195 37.5117 61.615 36.7677C62.047 36.0117 62.629 35.4177 63.361 34.9857C64.093 34.5537 64.921 34.3377 65.845 34.3377C66.697 34.3377 67.477 34.4877 68.185 34.7877C68.905 35.0877 69.475 35.5077 69.895 36.0477L68.329 37.9197C68.161 37.7277 67.963 37.5477 67.735 37.3797C67.507 37.2117 67.255 37.0797 66.979 36.9837C66.703 36.8877 66.415 36.8397 66.115 36.8397C65.659 36.8397 65.257 36.9477 64.909 37.1637C64.561 37.3677 64.291 37.6557 64.099 38.0277C63.907 38.3997 63.811 38.8257 63.811 39.3057C63.811 39.7617 63.907 40.1757 64.099 40.5477C64.303 40.9197 64.579 41.2137 64.927 41.4297C65.275 41.6457 65.671 41.7537 66.115 41.7537C66.427 41.7537 66.715 41.7177 66.979 41.6457C67.243 41.5617 67.483 41.4417 67.699 41.2857C67.927 41.1297 68.137 40.9377 68.329 40.7097L69.877 42.5997C69.469 43.1157 68.899 43.5237 68.167 43.8237C67.447 44.1238 66.673 44.2738 65.845 44.2738ZM71.4596 44.0938V30.7737H74.2856V36.4797L73.7096 36.6957C73.8416 36.2637 74.0756 35.8737 74.4116 35.5257C74.7596 35.1657 75.1736 34.8777 75.6536 34.6617C76.1336 34.4457 76.6376 34.3377 77.1656 34.3377C77.8856 34.3377 78.4916 34.4877 78.9836 34.7877C79.4756 35.0757 79.8476 35.5137 80.0996 36.1017C80.3516 36.6777 80.4776 37.3857 80.4776 38.2257V44.0938H77.5796V38.4597C77.5796 38.0757 77.5256 37.7577 77.4176 37.5057C77.3096 37.2537 77.1416 37.0677 76.9136 36.9477C76.6976 36.8157 76.4276 36.7557 76.1036 36.7677C75.8516 36.7677 75.6176 36.8097 75.4016 36.8937C75.1856 36.9657 74.9996 37.0797 74.8436 37.2357C74.6876 37.3797 74.5616 37.5477 74.4656 37.7397C74.3816 37.9317 74.3396 38.1417 74.3396 38.3697V44.0938H72.9176C72.5816 44.0938 72.2936 44.0938 72.0536 44.0938C71.8136 44.0938 71.6156 44.0938 71.4596 44.0938ZM86.4134 44.2558C85.6094 44.2558 84.8894 44.0458 84.2534 43.6257C83.6294 43.1937 83.1314 42.6057 82.7594 41.8617C82.3874 41.1057 82.2014 40.2537 82.2014 39.3057C82.2014 38.3337 82.3874 37.4757 82.7594 36.7317C83.1314 35.9877 83.6414 35.4057 84.2894 34.9857C84.9374 34.5537 85.6754 34.3377 86.5034 34.3377C86.9594 34.3377 87.3734 34.4037 87.7454 34.5357C88.1294 34.6677 88.4654 34.8537 88.7534 35.0938C89.0414 35.3217 89.2874 35.5917 89.4914 35.9037C89.6954 36.2037 89.8454 36.5277 89.9414 36.8757L89.3474 36.8037V34.5357H92.2094V44.0938H89.2934V41.7897L89.9414 41.7717C89.8454 42.1077 89.6894 42.4257 89.4734 42.7257C89.2574 43.0257 88.9934 43.2897 88.6814 43.5177C88.3694 43.7457 88.0214 43.9257 87.6374 44.0577C87.2534 44.1898 86.8454 44.2558 86.4134 44.2558ZM87.2054 41.8257C87.6494 41.8257 88.0334 41.7237 88.3574 41.5197C88.6814 41.3157 88.9334 41.0277 89.1134 40.6557C89.2934 40.2717 89.3834 39.8217 89.3834 39.3057C89.3834 38.7897 89.2934 38.3457 89.1134 37.9737C88.9334 37.5897 88.6814 37.2957 88.3574 37.0917C88.0334 36.8757 87.6494 36.7677 87.2054 36.7677C86.7734 36.7677 86.3954 36.8757 86.0714 37.0917C85.7594 37.2957 85.5134 37.5897 85.3334 37.9737C85.1534 38.3457 85.0634 38.7897 85.0634 39.3057C85.0634 39.8217 85.1534 40.2717 85.3334 40.6557C85.5134 41.0277 85.7594 41.3157 86.0714 41.5197C86.3954 41.7237 86.7734 41.8257 87.2054 41.8257ZM94.7507 44.0938V34.5357H97.4867L97.5767 36.4797L97.0007 36.6957C97.1327 36.2637 97.3667 35.8737 97.7027 35.5257C98.0507 35.1657 98.4647 34.8777 98.9447 34.6617C99.4247 34.4457 99.9287 34.3377 100.457 34.3377C101.177 34.3377 101.783 34.4877 102.275 34.7877C102.767 35.0757 103.139 35.5137 103.391 36.1017C103.643 36.6777 103.769 37.3857 103.769 38.2257V44.0938H100.871V38.4597C100.871 38.0757 100.817 37.7577 100.709 37.5057C100.601 37.2537 100.433 37.0677 100.205 36.9477C99.9887 36.8157 99.7187 36.7557 99.3947 36.7677C99.1427 36.7677 98.9087 36.8097 98.6927 36.8937C98.4767 36.9657 98.2907 37.0797 98.1347 37.2357C97.9787 37.3797 97.8527 37.5477 97.7567 37.7397C97.6727 37.9317 97.6307 38.1417 97.6307 38.3697V44.0938H96.2087C95.8727 44.0938 95.5847 44.0938 95.3447 44.0938C95.1047 44.0938 94.9067 44.0938 94.7507 44.0938ZM106.338 44.0938V34.5357H109.218V44.0938H106.338ZM107.778 32.6457C107.238 32.6457 106.812 32.5197 106.5 32.2677C106.2 32.0037 106.05 31.6317 106.05 31.1517C106.05 30.7197 106.206 30.3657 106.518 30.0897C106.83 29.8137 107.25 29.6757 107.778 29.6757C108.318 29.6757 108.738 29.8077 109.038 30.0717C109.338 30.3237 109.488 30.6837 109.488 31.1517C109.488 31.5957 109.332 31.9557 109.02 32.2317C108.72 32.5077 108.306 32.6457 107.778 32.6457ZM116.118 44.2738C115.194 44.2738 114.366 44.0578 113.634 43.6257C112.902 43.1937 112.32 42.6057 111.888 41.8617C111.468 41.1057 111.258 40.2537 111.258 39.3057C111.258 38.3577 111.468 37.5117 111.888 36.7677C112.32 36.0117 112.902 35.4177 113.634 34.9857C114.366 34.5537 115.194 34.3377 116.118 34.3377C116.97 34.3377 117.75 34.4877 118.458 34.7877C119.178 35.0877 119.748 35.5077 120.168 36.0477L118.602 37.9197C118.434 37.7277 118.236 37.5477 118.008 37.3797C117.78 37.2117 117.528 37.0797 117.252 36.9837C116.976 36.8877 116.688 36.8397 116.388 36.8397C115.932 36.8397 115.53 36.9477 115.182 37.1637C114.834 37.3677 114.564 37.6557 114.372 38.0277C114.18 38.3997 114.084 38.8257 114.084 39.3057C114.084 39.7617 114.18 40.1757 114.372 40.5477C114.576 40.9197 114.852 41.2137 115.2 41.4297C115.548 41.6457 115.944 41.7537 116.388 41.7537C116.7 41.7537 116.988 41.7177 117.252 41.6457C117.516 41.5617 117.756 41.4417 117.972 41.2857C118.2 41.1297 118.41 40.9377 118.602 40.7097L120.15 42.5997C119.742 43.1157 119.172 43.5237 118.44 43.8237C117.72 44.1238 116.946 44.2738 116.118 44.2738ZM125.261 44.2558C124.457 44.2558 123.737 44.0458 123.101 43.6257C122.477 43.1937 121.979 42.6057 121.607 41.8617C121.235 41.1057 121.049 40.2537 121.049 39.3057C121.049 38.3337 121.235 37.4757 121.607 36.7317C121.979 35.9877 122.489 35.4057 123.137 34.9857C123.785 34.5537 124.523 34.3377 125.351 34.3377C125.807 34.3377 126.221 34.4037 126.593 34.5357C126.977 34.6677 127.313 34.8537 127.601 35.0938C127.889 35.3217 128.135 35.5917 128.339 35.9037C128.543 36.2037 128.693 36.5277 128.789 36.8757L128.195 36.8037V34.5357H131.057V44.0938H128.141V41.7897L128.789 41.7717C128.693 42.1077 128.537 42.4257 128.321 42.7257C128.105 43.0257 127.841 43.2897 127.529 43.5177C127.217 43.7457 126.869 43.9257 126.485 44.0577C126.101 44.1898 125.693 44.2558 125.261 44.2558ZM126.053 41.8257C126.497 41.8257 126.881 41.7237 127.205 41.5197C127.529 41.3157 127.781 41.0277 127.961 40.6557C128.141 40.2717 128.231 39.8217 128.231 39.3057C128.231 38.7897 128.141 38.3457 127.961 37.9737C127.781 37.5897 127.529 37.2957 127.205 37.0917C126.881 36.8757 126.497 36.7677 126.053 36.7677C125.621 36.7677 125.243 36.8757 124.919 37.0917C124.607 37.2957 124.361 37.5897 124.181 37.9737C124.001 38.3457 123.911 38.7897 123.911 39.3057C123.911 39.8217 124.001 40.2717 124.181 40.6557C124.361 41.0277 124.607 41.3157 124.919 41.5197C125.243 41.7237 125.621 41.8257 126.053 41.8257ZM133.616 44.0938V30.7737H136.496V44.0938H133.616ZM144.885 44.0938V41.5197H147.009V34.0677H144.885V31.4937H152.211V34.0677H150.069V41.5197H152.211V44.0938H144.885ZM154.815 44.0938V34.5357H157.551L157.641 36.4797L157.065 36.6957C157.197 36.2637 157.431 35.8737 157.767 35.5257C158.115 35.1657 158.529 34.8777 159.009 34.6617C159.489 34.4457 159.993 34.3377 160.521 34.3377C161.241 34.3377 161.847 34.4877 162.339 34.7877C162.831 35.0757 163.203 35.5137 163.455 36.1017C163.707 36.6777 163.833 37.3857 163.833 38.2257V44.0938H160.935V38.4597C160.935 38.0757 160.881 37.7577 160.773 37.5057C160.665 37.2537 160.497 37.0677 160.269 36.9477C160.053 36.8157 159.783 36.7557 159.459 36.7677C159.207 36.7677 158.973 36.8097 158.757 36.8937C158.541 36.9657 158.355 37.0797 158.199 37.2357C158.043 37.3797 157.917 37.5477 157.821 37.7397C157.737 37.9317 157.695 38.1417 157.695 38.3697V44.0938H156.273C155.937 44.0938 155.649 44.0938 155.409 44.0938C155.169 44.0938 154.971 44.0938 154.815 44.0938ZM169.463 44.2738C168.527 44.2738 167.699 44.1238 166.979 43.8237C166.271 43.5237 165.707 43.1217 165.287 42.6177L167.033 41.1057C167.405 41.4777 167.825 41.7537 168.293 41.9337C168.761 42.1017 169.205 42.1857 169.625 42.1857C169.793 42.1857 169.943 42.1677 170.075 42.1317C170.207 42.0957 170.315 42.0477 170.399 41.9877C170.495 41.9157 170.567 41.8377 170.615 41.7537C170.663 41.6577 170.687 41.5497 170.687 41.4297C170.687 41.1897 170.579 41.0037 170.363 40.8717C170.255 40.8117 170.075 40.7397 169.823 40.6557C169.571 40.5717 169.247 40.4757 168.851 40.3677C168.287 40.2237 167.795 40.0557 167.375 39.8637C166.967 39.6597 166.631 39.4257 166.367 39.1617C166.127 38.9097 165.941 38.6337 165.809 38.3337C165.677 38.0217 165.611 37.6737 165.611 37.2897C165.611 36.8457 165.713 36.4437 165.917 36.0837C166.133 35.7237 166.415 35.4117 166.763 35.1477C167.123 34.8837 167.531 34.6857 167.987 34.5537C168.455 34.4097 168.935 34.3377 169.427 34.3377C169.955 34.3377 170.459 34.3977 170.939 34.5177C171.419 34.6377 171.863 34.8057 172.271 35.0217C172.691 35.2377 173.063 35.4957 173.387 35.7957L171.875 37.4877C171.659 37.2837 171.413 37.1037 171.137 36.9477C170.873 36.7797 170.597 36.6477 170.309 36.5517C170.021 36.4557 169.757 36.4077 169.517 36.4077C169.337 36.4077 169.175 36.4257 169.031 36.4617C168.899 36.4857 168.785 36.5337 168.689 36.6057C168.593 36.6657 168.521 36.7437 168.473 36.8397C168.425 36.9237 168.401 37.0257 168.401 37.1457C168.401 37.2657 168.431 37.3797 168.491 37.4877C168.563 37.5957 168.659 37.6857 168.779 37.7577C168.899 37.8297 169.091 37.9137 169.355 38.0097C169.619 38.0937 169.979 38.2017 170.435 38.3337C170.999 38.4897 171.485 38.6637 171.893 38.8557C172.301 39.0477 172.625 39.2757 172.865 39.5397C173.057 39.7437 173.201 39.9837 173.297 40.2597C173.393 40.5237 173.441 40.8117 173.441 41.1237C173.441 41.7357 173.267 42.2817 172.919 42.7617C172.583 43.2297 172.115 43.6017 171.515 43.8777C170.915 44.1418 170.231 44.2738 169.463 44.2738ZM175.153 48.0538V34.5357H177.889L177.997 36.6777L177.457 36.5157C177.541 36.1197 177.745 35.7597 178.069 35.4357C178.393 35.1117 178.801 34.8537 179.293 34.6617C179.797 34.4577 180.325 34.3557 180.877 34.3557C181.693 34.3557 182.419 34.5717 183.055 35.0038C183.691 35.4237 184.189 36.0057 184.549 36.7497C184.921 37.4817 185.107 38.3337 185.107 39.3057C185.107 40.2657 184.921 41.1177 184.549 41.8617C184.189 42.6057 183.685 43.1937 183.037 43.6257C182.401 44.0458 181.669 44.2558 180.841 44.2558C180.301 44.2558 179.785 44.1538 179.293 43.9497C178.801 43.7457 178.387 43.4697 178.051 43.1217C177.715 42.7737 177.493 42.3957 177.385 41.9877L178.051 41.7357V48.0538H175.153ZM180.139 41.8257C180.571 41.8257 180.949 41.7237 181.273 41.5197C181.597 41.3037 181.849 41.0097 182.029 40.6377C182.209 40.2657 182.299 39.8217 182.299 39.3057C182.299 38.8017 182.209 38.3637 182.029 37.9917C181.849 37.6077 181.597 37.3137 181.273 37.1097C180.961 36.8937 180.583 36.7857 180.139 36.7857C179.695 36.7857 179.311 36.8877 178.987 37.0917C178.663 37.2957 178.411 37.5897 178.231 37.9737C178.051 38.3577 177.961 38.8017 177.961 39.3057C177.961 39.8217 178.051 40.2657 178.231 40.6377C178.411 41.0097 178.663 41.3037 178.987 41.5197C179.311 41.7237 179.695 41.8257 180.139 41.8257ZM191.572 44.2738C190.516 44.2738 189.598 44.0638 188.818 43.6437C188.038 43.2117 187.432 42.6297 187 41.8977C186.568 41.1537 186.352 40.3077 186.352 39.3597C186.352 38.6277 186.472 37.9557 186.712 37.3437C186.952 36.7317 187.288 36.2037 187.72 35.7597C188.152 35.3037 188.662 34.9557 189.25 34.7157C189.85 34.4637 190.504 34.3377 191.212 34.3377C191.884 34.3377 192.496 34.4577 193.048 34.6977C193.612 34.9377 194.098 35.2737 194.506 35.7057C194.914 36.1377 195.226 36.6477 195.442 37.2357C195.658 37.8237 195.754 38.4657 195.73 39.1617L195.712 39.9357H188.098L187.684 38.3157H193.372L193.066 38.6577V38.2977C193.042 37.9977 192.946 37.7337 192.778 37.5057C192.622 37.2657 192.412 37.0797 192.148 36.9477C191.884 36.8157 191.584 36.7497 191.248 36.7497C190.78 36.7497 190.378 36.8457 190.042 37.0377C189.718 37.2177 189.472 37.4877 189.304 37.8477C189.136 38.1957 189.052 38.6277 189.052 39.1437C189.052 39.6717 189.16 40.1337 189.376 40.5297C189.604 40.9137 189.928 41.2137 190.348 41.4297C190.78 41.6457 191.29 41.7537 191.878 41.7537C192.286 41.7537 192.646 41.6937 192.958 41.5737C193.282 41.4537 193.63 41.2497 194.002 40.9617L195.352 42.8697C194.98 43.1937 194.584 43.4577 194.164 43.6617C193.744 43.8657 193.312 44.0157 192.868 44.1118C192.436 44.2198 192.004 44.2738 191.572 44.2738ZM201.759 44.2738C200.835 44.2738 200.007 44.0578 199.275 43.6257C198.543 43.1937 197.961 42.6057 197.529 41.8617C197.109 41.1057 196.899 40.2537 196.899 39.3057C196.899 38.3577 197.109 37.5117 197.529 36.7677C197.961 36.0117 198.543 35.4177 199.275 34.9857C200.007 34.5537 200.835 34.3377 201.759 34.3377C202.611 34.3377 203.391 34.4877 204.099 34.7877C204.819 35.0877 205.389 35.5077 205.809 36.0477L204.243 37.9197C204.075 37.7277 203.877 37.5477 203.649 37.3797C203.421 37.2117 203.169 37.0797 202.893 36.9837C202.617 36.8877 202.329 36.8397 202.029 36.8397C201.573 36.8397 201.171 36.9477 200.823 37.1637C200.475 37.3677 200.205 37.6557 200.013 38.0277C199.821 38.3997 199.725 38.8257 199.725 39.3057C199.725 39.7617 199.821 40.1757 200.013 40.5477C200.217 40.9197 200.493 41.2137 200.841 41.4297C201.189 41.6457 201.585 41.7537 202.029 41.7537C202.341 41.7537 202.629 41.7177 202.893 41.6457C203.157 41.5617 203.397 41.4417 203.613 41.2857C203.841 41.1297 204.051 40.9377 204.243 40.7097L205.791 42.5997C205.383 43.1157 204.813 43.5237 204.081 43.8237C203.361 44.1238 202.587 44.2738 201.759 44.2738ZM208.166 44.0938V32.1237H211.046V44.0938H208.166ZM206.474 37.0557V34.5357H212.9V37.0557H206.474ZM214.708 44.0938V34.5357H217.588V44.0938H214.708ZM216.148 32.6457C215.608 32.6457 215.182 32.5197 214.87 32.2677C214.57 32.0037 214.42 31.6317 214.42 31.1517C214.42 30.7197 214.576 30.3657 214.888 30.0897C215.2 29.8137 215.62 29.6757 216.148 29.6757C216.688 29.6757 217.108 29.8077 217.408 30.0717C217.708 30.3237 217.858 30.6837 217.858 31.1517C217.858 31.5957 217.702 31.9557 217.39 32.2317C217.09 32.5077 216.676 32.6457 216.148 32.6457ZM224.794 44.2738C223.798 44.2738 222.91 44.0578 222.13 43.6257C221.362 43.1937 220.75 42.6057 220.294 41.8617C219.85 41.1177 219.628 40.2657 219.628 39.3057C219.628 38.3457 219.85 37.4937 220.294 36.7497C220.75 36.0057 221.362 35.4177 222.13 34.9857C222.91 34.5537 223.798 34.3377 224.794 34.3377C225.79 34.3377 226.672 34.5537 227.44 34.9857C228.22 35.4177 228.832 36.0057 229.276 36.7497C229.72 37.4937 229.942 38.3457 229.942 39.3057C229.942 40.2657 229.72 41.1177 229.276 41.8617C228.832 42.6057 228.22 43.1937 227.44 43.6257C226.672 44.0578 225.79 44.2738 224.794 44.2738ZM224.794 41.7897C225.226 41.7897 225.61 41.6817 225.946 41.4657C226.282 41.2497 226.546 40.9557 226.738 40.5837C226.93 40.2117 227.02 39.7857 227.008 39.3057C227.02 38.8257 226.93 38.3997 226.738 38.0277C226.546 37.6437 226.282 37.3437 225.946 37.1277C225.61 36.9117 225.226 36.8037 224.794 36.8037C224.362 36.8037 223.972 36.9117 223.624 37.1277C223.288 37.3437 223.024 37.6437 222.832 38.0277C222.64 38.3997 222.55 38.8257 222.562 39.3057C222.55 39.7857 222.64 40.2117 222.832 40.5837C223.024 40.9557 223.288 41.2497 223.624 41.4657C223.972 41.6817 224.362 41.7897 224.794 41.7897ZM231.825 44.0938V34.5357H234.561L234.651 36.4797L234.075 36.6957C234.207 36.2637 234.441 35.8737 234.777 35.5257C235.125 35.1657 235.539 34.8777 236.019 34.6617C236.499 34.4457 237.003 34.3377 237.531 34.3377C238.251 34.3377 238.857 34.4877 239.349 34.7877C239.841 35.0757 240.213 35.5137 240.465 36.1017C240.717 36.6777 240.843 37.3857 240.843 38.2257V44.0938H237.945V38.4597C237.945 38.0757 237.891 37.7577 237.783 37.5057C237.675 37.2537 237.507 37.0677 237.279 36.9477C237.063 36.8157 236.793 36.7557 236.469 36.7677C236.217 36.7677 235.983 36.8097 235.767 36.8937C235.551 36.9657 235.365 37.0797 235.209 37.2357C235.053 37.3797 234.927 37.5477 234.831 37.7397C234.747 37.9317 234.705 38.1417 234.705 38.3697V44.0938H233.283C232.947 44.0938 232.659 44.0938 232.419 44.0938C232.179 44.0938 231.981 44.0938 231.825 44.0938ZM246.473 44.2738C245.537 44.2738 244.709 44.1238 243.989 43.8237C243.281 43.5237 242.717 43.1217 242.297 42.6177L244.043 41.1057C244.415 41.4777 244.835 41.7537 245.303 41.9337C245.771 42.1017 246.215 42.1857 246.635 42.1857C246.803 42.1857 246.953 42.1677 247.085 42.1317C247.217 42.0957 247.325 42.0477 247.409 41.9877C247.505 41.9157 247.577 41.8377 247.625 41.7537C247.673 41.6577 247.697 41.5497 247.697 41.4297C247.697 41.1897 247.589 41.0037 247.373 40.8717C247.265 40.8117 247.085 40.7397 246.833 40.6557C246.581 40.5717 246.257 40.4757 245.861 40.3677C245.297 40.2237 244.805 40.0557 244.385 39.8637C243.977 39.6597 243.641 39.4257 243.377 39.1617C243.137 38.9097 242.951 38.6337 242.819 38.3337C242.687 38.0217 242.621 37.6737 242.621 37.2897C242.621 36.8457 242.723 36.4437 242.927 36.0837C243.143 35.7237 243.425 35.4117 243.773 35.1477C244.133 34.8837 244.541 34.6857 244.997 34.5537C245.465 34.4097 245.945 34.3377 246.437 34.3377C246.965 34.3377 247.469 34.3977 247.949 34.5177C248.429 34.6377 248.873 34.8057 249.281 35.0217C249.701 35.2377 250.073 35.4957 250.397 35.7957L248.885 37.4877C248.669 37.2837 248.423 37.1037 248.147 36.9477C247.883 36.7797 247.607 36.6477 247.319 36.5517C247.031 36.4557 246.767 36.4077 246.527 36.4077C246.347 36.4077 246.185 36.4257 246.041 36.4617C245.909 36.4857 245.795 36.5337 245.699 36.6057C245.603 36.6657 245.531 36.7437 245.483 36.8397C245.435 36.9237 245.411 37.0257 245.411 37.1457C245.411 37.2657 245.441 37.3797 245.501 37.4877C245.573 37.5957 245.669 37.6857 245.789 37.7577C245.909 37.8297 246.101 37.9137 246.365 38.0097C246.629 38.0937 246.989 38.2017 247.445 38.3337C248.009 38.4897 248.495 38.6637 248.903 38.8557C249.311 39.0477 249.635 39.2757 249.875 39.5397C250.067 39.7437 250.211 39.9837 250.307 40.2597C250.403 40.5237 250.451 40.8117 250.451 41.1237C250.451 41.7357 250.277 42.2817 249.929 42.7617C249.593 43.2297 249.125 43.6017 248.525 43.8777C247.925 44.1418 247.241 44.2738 246.473 44.2738Z" fill="#05243F"/>
<path d="M328.647 38.9937L326.497 36.8438C326.314 36.6604 326.08 36.5688 325.797 36.5688C325.514 36.5688 325.28 36.6604 325.097 36.8438C324.914 37.0271 324.822 37.2604 324.822 37.5437C324.822 37.8271 324.914 38.0604 325.097 38.2437L327.947 41.0938C328.147 41.2937 328.38 41.3938 328.647 41.3938C328.914 41.3938 329.147 41.2937 329.347 41.0938L334.997 35.4438C335.18 35.2604 335.272 35.0271 335.272 34.7437C335.272 34.4604 335.18 34.2271 334.997 34.0437C334.814 33.8604 334.58 33.7688 334.297 33.7688C334.014 33.7688 333.78 33.8604 333.597 34.0437L328.647 38.9937ZM323.047 46.5938C322.497 46.5938 322.026 46.3981 321.635 46.0068C321.244 45.6154 321.048 45.1444 321.047 44.5938V30.5938C321.047 30.0438 321.243 29.5731 321.635 29.1818C322.027 28.7904 322.498 28.5944 323.047 28.5938H337.047C337.597 28.5938 338.068 28.7898 338.46 29.1818C338.852 29.5738 339.048 30.0444 339.047 30.5938V44.5938C339.047 45.1437 338.851 45.6147 338.46 46.0068C338.069 46.3988 337.598 46.5944 337.047 46.5938H323.047Z" fill="#2389E3"/>
<path d="M356.607 49.0938L355.614 46.6272L361.75 39.9193C362.091 39.5383 362.462 39.1072 362.863 38.6259C363.264 38.1446 363.655 37.6533 364.037 37.152C364.418 36.6306 364.718 36.1293 364.939 35.648C365.18 35.1667 365.3 34.7255 365.3 34.3245C365.3 33.9234 365.21 33.5725 365.029 33.2717C364.849 32.9709 364.588 32.7403 364.247 32.5798C363.906 32.3993 363.475 32.3091 362.954 32.3091C362.492 32.3091 362.051 32.4294 361.63 32.6701C361.209 32.8907 360.808 33.2416 360.427 33.7229C360.066 34.2041 359.725 34.7957 359.404 35.4976L355.614 33.4521C356.035 32.2891 356.627 31.2663 357.389 30.384C358.171 29.4816 359.083 28.7897 360.126 28.3085C361.169 27.8071 362.282 27.5565 363.465 27.5565C364.708 27.5765 365.831 27.8472 366.834 28.3686C367.837 28.87 368.629 29.5819 369.21 30.5043C369.812 31.4067 370.113 32.4695 370.113 33.6928C370.113 34.1139 370.063 34.5551 369.962 35.0163C369.862 35.4775 369.712 35.9588 369.511 36.4601C369.311 36.9414 369.04 37.4628 368.699 38.0243C368.378 38.5657 367.987 39.1373 367.526 39.7389C367.065 40.3405 366.523 40.9822 365.901 41.664L361.119 46.8678L360.517 44.5817H371.045V49.0938H356.607ZM381.448 49.3946C379.563 49.3946 377.949 48.9634 376.605 48.1011C375.282 47.2388 374.269 46.0055 373.567 44.4013C372.866 42.7769 372.515 40.8318 372.515 38.5657C372.515 36.2997 372.866 34.3646 373.567 32.7603C374.269 31.136 375.282 29.8927 376.605 29.0304C377.949 28.1681 379.563 27.7369 381.448 27.7369C383.333 27.7369 384.948 28.1681 386.291 29.0304C387.635 29.8927 388.658 31.136 389.359 32.7603C390.061 34.3646 390.412 36.2997 390.412 38.5657C390.412 40.8318 390.061 42.7769 389.359 44.4013C388.658 46.0055 387.635 47.2388 386.291 48.1011C384.948 48.9634 383.333 49.3946 381.448 49.3946ZM381.448 45.063C382.752 45.063 383.755 44.5015 384.456 43.3785C385.178 42.2556 385.539 40.6513 385.539 38.5657C385.539 36.42 385.178 34.7757 384.456 33.6326C383.755 32.4695 382.752 31.888 381.448 31.888C380.145 31.888 379.132 32.4695 378.41 33.6326C377.708 34.7757 377.357 36.42 377.357 38.5657C377.357 40.6513 377.708 42.2556 378.41 43.3785C379.132 44.5015 380.145 45.063 381.448 45.063ZM393.384 49.0938L392.392 46.6272L398.528 39.9193C398.869 39.5383 399.24 39.1072 399.641 38.6259C400.042 38.1446 400.433 37.6533 400.814 37.152C401.195 36.6306 401.496 36.1293 401.716 35.648C401.957 35.1667 402.077 34.7255 402.077 34.3245C402.077 33.9234 401.987 33.5725 401.807 33.2717C401.626 32.9709 401.365 32.7403 401.025 32.5798C400.684 32.3993 400.253 32.3091 399.731 32.3091C399.27 32.3091 398.829 32.4294 398.408 32.6701C397.986 32.8907 397.585 33.2416 397.204 33.7229C396.843 34.2041 396.503 34.7957 396.182 35.4976L392.392 33.4521C392.813 32.2891 393.404 31.2663 394.166 30.384C394.948 29.4816 395.861 28.7897 396.904 28.3085C397.946 27.8071 399.059 27.5565 400.242 27.5565C401.486 27.5765 402.609 27.8472 403.611 28.3686C404.614 28.87 405.406 29.5819 405.988 30.5043C406.589 31.4067 406.89 32.4695 406.89 33.6928C406.89 34.1139 406.84 34.5551 406.74 35.0163C406.64 35.4775 406.489 35.9588 406.289 36.4601C406.088 36.9414 405.817 37.4628 405.476 38.0243C405.156 38.5657 404.765 39.1373 404.303 39.7389C403.842 40.3405 403.301 40.9822 402.679 41.664L397.896 46.8678L397.295 44.5817H407.823V49.0938H393.384ZM416.571 49.3043C414.987 49.3043 413.543 48.9835 412.24 48.3417C410.957 47.7 409.894 46.7776 409.051 45.5744L411.789 42.5664C412.611 43.4688 413.373 44.0904 414.075 44.4313C414.777 44.7522 415.559 44.9126 416.421 44.9126C417.063 44.9126 417.634 44.7823 418.136 44.5216C418.637 44.2609 419.028 43.8999 419.309 43.4387C419.61 42.9574 419.76 42.426 419.76 41.8445C419.76 41.2429 419.61 40.7115 419.309 40.2502C419.028 39.7689 418.637 39.3879 418.136 39.1072C417.654 38.8264 417.093 38.6861 416.451 38.6861C415.99 38.6861 415.559 38.7262 415.158 38.8064C414.757 38.8866 414.325 39.027 413.864 39.2275C413.423 39.408 412.892 39.6787 412.27 40.0397L410.104 37.152L411.398 27.8573H423.49V32.1587H413.834L415.158 30.4742L414.165 37.152L412.36 36.5504C412.741 36.2095 413.203 35.9087 413.744 35.648C414.305 35.3873 414.907 35.1767 415.549 35.0163C416.19 34.8358 416.832 34.7456 417.474 34.7456C418.797 34.7456 419.981 35.0564 421.023 35.6781C422.086 36.2797 422.928 37.1219 423.55 38.2048C424.172 39.2877 424.483 40.531 424.483 41.9347C424.483 43.3184 424.132 44.5717 423.43 45.6947C422.728 46.7976 421.785 47.68 420.602 48.3417C419.419 48.9835 418.075 49.3043 416.571 49.3043Z" fill="#05243F"/>
<g opacity="0.8">
<rect x="23.6562" y="83.0034" width="417.956" height="67.3691" rx="18.0086" fill="white"/>
<path d="M58.5591 122.632V111.286H63.6645C64.3885 111.286 65.0422 111.443 65.6257 111.756C66.22 112.07 66.6846 112.502 67.0195 113.053C67.3545 113.593 67.522 114.209 67.522 114.901C67.522 115.614 67.3545 116.257 67.0195 116.829C66.6846 117.391 66.2254 117.834 65.6419 118.159C65.0584 118.483 64.3993 118.645 63.6645 118.645H61.1847V122.632H58.5591ZM64.8477 122.632L61.9627 117.51L64.7829 117.105L67.992 122.632H64.8477ZM61.1847 116.538H63.4214C63.7023 116.538 63.9455 116.478 64.1508 116.359C64.3669 116.23 64.5289 116.051 64.637 115.825C64.7559 115.598 64.8153 115.338 64.8153 115.047C64.8153 114.755 64.7504 114.501 64.6208 114.285C64.4911 114.058 64.302 113.885 64.0535 113.766C63.8158 113.647 63.5241 113.588 63.1783 113.588H61.1847V116.538ZM73.4478 122.794C72.4969 122.794 71.6704 122.605 70.968 122.227C70.2657 121.838 69.72 121.314 69.331 120.654C68.942 119.985 68.7476 119.223 68.7476 118.369C68.7476 117.71 68.8556 117.105 69.0717 116.554C69.2878 116.003 69.5904 115.527 69.9793 115.128C70.3683 114.717 70.8275 114.404 71.357 114.188C71.8973 113.961 72.4861 113.847 73.1236 113.847C73.7287 113.847 74.2798 113.955 74.7768 114.171C75.2847 114.387 75.7223 114.69 76.0897 115.079C76.457 115.468 76.738 115.927 76.9325 116.457C77.127 116.986 77.2134 117.564 77.1918 118.191L77.1756 118.888H70.3197L69.9469 117.429H75.0686L74.793 117.737V117.413C74.7714 117.143 74.685 116.905 74.5337 116.7C74.3933 116.484 74.2042 116.316 73.9664 116.197C73.7287 116.079 73.4586 116.019 73.1561 116.019C72.7347 116.019 72.3727 116.106 72.0701 116.278C71.7784 116.44 71.5569 116.684 71.4056 117.008C71.2544 117.321 71.1787 117.71 71.1787 118.175C71.1787 118.65 71.276 119.066 71.4705 119.423C71.6758 119.768 71.9675 120.039 72.3457 120.233C72.7347 120.428 73.1939 120.525 73.7233 120.525C74.0907 120.525 74.4149 120.471 74.6958 120.363C74.9875 120.255 75.3009 120.071 75.6358 119.812L76.8514 121.53C76.5165 121.821 76.1599 122.059 75.7817 122.243C75.4035 122.427 75.0145 122.562 74.6148 122.648C74.2258 122.745 73.8368 122.794 73.4478 122.794ZM82.7033 126.36C82.001 126.36 81.2986 126.257 80.5963 126.052C79.9048 125.846 79.3429 125.582 78.9107 125.257L79.8183 123.442C80.0452 123.593 80.2938 123.723 80.5639 123.831C80.8448 123.95 81.1366 124.042 81.4391 124.107C81.7416 124.172 82.0496 124.204 82.3629 124.204C82.914 124.204 83.3624 124.123 83.7082 123.961C84.0539 123.799 84.3133 123.55 84.4862 123.215C84.659 122.891 84.7455 122.481 84.7455 121.984V120.541L85.2479 120.622C85.1723 120.979 84.9832 121.303 84.6806 121.595C84.3889 121.886 84.0269 122.124 83.5947 122.308C83.1625 122.481 82.7033 122.567 82.2171 122.567C81.4391 122.567 80.7422 122.389 80.1263 122.032C79.5212 121.665 79.0404 121.162 78.6838 120.525C78.338 119.877 78.1651 119.131 78.1651 118.288C78.1651 117.424 78.338 116.662 78.6838 116.003C79.0296 115.333 79.505 114.809 80.1101 114.431C80.7152 114.042 81.3959 113.847 82.1522 113.847C82.4764 113.847 82.7843 113.885 83.0761 113.961C83.3786 114.036 83.6542 114.139 83.9027 114.269C84.162 114.388 84.3889 114.533 84.5834 114.706C84.7887 114.868 84.9508 115.047 85.0696 115.241C85.1993 115.436 85.2857 115.635 85.329 115.841L84.7941 115.97L84.8913 114.026H87.3549V121.935C87.3549 122.637 87.2469 123.259 87.0308 123.799C86.8255 124.35 86.5175 124.814 86.1069 125.193C85.7071 125.582 85.2209 125.873 84.6482 126.068C84.0756 126.262 83.4272 126.36 82.7033 126.36ZM82.7681 120.557C83.1895 120.557 83.5515 120.465 83.8541 120.282C84.1674 120.087 84.4051 119.822 84.5672 119.488C84.7401 119.153 84.8265 118.758 84.8265 118.304C84.8265 117.851 84.7401 117.456 84.5672 117.121C84.4051 116.775 84.1674 116.511 83.8541 116.327C83.5515 116.133 83.1895 116.035 82.7681 116.035C82.3575 116.035 82.001 116.133 81.6984 116.327C81.3959 116.511 81.1582 116.775 80.9853 117.121C80.8232 117.456 80.7422 117.851 80.7422 118.304C80.7422 118.758 80.8232 119.153 80.9853 119.488C81.1582 119.822 81.3959 120.087 81.6984 120.282C82.001 120.465 82.3575 120.557 82.7681 120.557ZM92.4139 122.81C91.7764 122.81 91.2307 122.675 90.7769 122.405C90.3339 122.124 89.9881 121.724 89.7396 121.206C89.5019 120.687 89.383 120.066 89.383 119.342V114.026H91.9925V118.985C91.9925 119.331 92.0465 119.628 92.1546 119.877C92.2626 120.125 92.4247 120.32 92.6408 120.46C92.8569 120.59 93.1162 120.654 93.4188 120.654C93.6457 120.654 93.851 120.617 94.0347 120.541C94.2292 120.465 94.3912 120.363 94.5209 120.233C94.6614 120.093 94.7694 119.936 94.8451 119.763C94.9207 119.579 94.9585 119.379 94.9585 119.163V114.026H97.568V122.632H95.1206L95.0071 120.865L95.4934 120.671C95.3637 121.081 95.1476 121.449 94.8451 121.773C94.5425 122.086 94.1805 122.34 93.7591 122.535C93.3377 122.718 92.8893 122.81 92.4139 122.81ZM99.8954 122.632V110.638H102.489V122.632H99.8954ZM107.82 122.778C107.096 122.778 106.448 122.589 105.875 122.21C105.313 121.821 104.865 121.292 104.53 120.622C104.195 119.941 104.027 119.174 104.027 118.321C104.027 117.445 104.195 116.673 104.53 116.003C104.865 115.333 105.324 114.809 105.908 114.431C106.491 114.042 107.156 113.847 107.901 113.847C108.312 113.847 108.685 113.907 109.019 114.026C109.365 114.144 109.668 114.312 109.927 114.528C110.186 114.733 110.408 114.976 110.592 115.257C110.775 115.527 110.91 115.819 110.997 116.133L110.462 116.068V114.026H113.039V122.632H110.413V120.557L110.997 120.541C110.91 120.844 110.77 121.13 110.575 121.4C110.381 121.67 110.143 121.908 109.862 122.113C109.581 122.318 109.268 122.481 108.922 122.599C108.576 122.718 108.209 122.778 107.82 122.778ZM108.533 120.59C108.933 120.59 109.279 120.498 109.571 120.314C109.862 120.13 110.089 119.871 110.251 119.536C110.413 119.19 110.494 118.785 110.494 118.321C110.494 117.856 110.413 117.456 110.251 117.121C110.089 116.775 109.862 116.511 109.571 116.327C109.279 116.133 108.933 116.035 108.533 116.035C108.144 116.035 107.804 116.133 107.512 116.327C107.231 116.511 107.01 116.775 106.848 117.121C106.686 117.456 106.605 117.856 106.605 118.321C106.605 118.785 106.686 119.19 106.848 119.536C107.01 119.871 107.231 120.13 107.512 120.314C107.804 120.498 108.144 120.59 108.533 120.59ZM115.327 122.632V114.026H117.791L117.904 116.829L117.418 116.295C117.548 115.83 117.758 115.414 118.05 115.047C118.353 114.679 118.704 114.387 119.104 114.171C119.503 113.955 119.93 113.847 120.384 113.847C120.579 113.847 120.757 113.863 120.919 113.896C121.092 113.928 121.248 113.966 121.389 114.009L120.676 116.878C120.557 116.802 120.395 116.743 120.19 116.7C119.995 116.646 119.79 116.619 119.574 116.619C119.336 116.619 119.114 116.662 118.909 116.748C118.704 116.824 118.531 116.938 118.39 117.089C118.25 117.24 118.137 117.418 118.05 117.624C117.974 117.829 117.937 118.061 117.937 118.321V122.632H115.327ZM131.93 122.794C131.185 122.794 130.509 122.707 129.904 122.535C129.31 122.351 128.781 122.092 128.316 121.757C127.851 121.411 127.435 121.006 127.068 120.541L128.737 118.645C129.278 119.369 129.818 119.855 130.358 120.103C130.909 120.352 131.476 120.476 132.06 120.476C132.352 120.476 132.616 120.438 132.854 120.363C133.092 120.287 133.275 120.179 133.405 120.039C133.535 119.887 133.6 119.704 133.6 119.488C133.6 119.325 133.556 119.18 133.47 119.05C133.394 118.92 133.286 118.807 133.146 118.71C133.005 118.612 132.838 118.526 132.643 118.45C132.449 118.364 132.244 118.294 132.027 118.24C131.811 118.175 131.59 118.121 131.363 118.077C130.736 117.937 130.191 117.764 129.726 117.559C129.261 117.354 128.872 117.105 128.559 116.813C128.256 116.511 128.03 116.17 127.878 115.792C127.727 115.403 127.651 114.971 127.651 114.496C127.651 113.988 127.765 113.523 127.992 113.102C128.229 112.669 128.543 112.302 128.932 112C129.332 111.686 129.791 111.448 130.309 111.286C130.828 111.114 131.368 111.027 131.93 111.027C132.676 111.027 133.313 111.108 133.843 111.27C134.383 111.421 134.842 111.643 135.22 111.935C135.609 112.226 135.939 112.578 136.209 112.988L134.507 114.625C134.28 114.344 134.032 114.112 133.762 113.928C133.502 113.745 133.221 113.604 132.919 113.507C132.627 113.41 132.325 113.361 132.011 113.361C131.687 113.361 131.406 113.404 131.168 113.491C130.942 113.566 130.763 113.68 130.634 113.831C130.504 113.972 130.439 114.144 130.439 114.35C130.439 114.533 130.493 114.69 130.601 114.82C130.709 114.949 130.855 115.068 131.039 115.176C131.223 115.274 131.433 115.36 131.671 115.436C131.909 115.5 132.157 115.554 132.416 115.598C133.011 115.717 133.546 115.873 134.021 116.068C134.507 116.262 134.923 116.5 135.269 116.781C135.626 117.062 135.896 117.397 136.079 117.786C136.274 118.164 136.371 118.607 136.371 119.115C136.371 119.904 136.177 120.573 135.788 121.125C135.41 121.665 134.885 122.081 134.216 122.373C133.556 122.653 132.795 122.794 131.93 122.794ZM142.267 122.794C141.317 122.794 140.49 122.605 139.788 122.227C139.085 121.838 138.54 121.314 138.151 120.654C137.762 119.985 137.567 119.223 137.567 118.369C137.567 117.71 137.675 117.105 137.891 116.554C138.107 116.003 138.41 115.527 138.799 115.128C139.188 114.717 139.647 114.404 140.177 114.188C140.717 113.961 141.306 113.847 141.943 113.847C142.548 113.847 143.099 113.955 143.596 114.171C144.104 114.387 144.542 114.69 144.909 115.079C145.277 115.468 145.558 115.927 145.752 116.457C145.947 116.986 146.033 117.564 146.011 118.191L145.995 118.888H139.139L138.766 117.429H143.888L143.613 117.737V117.413C143.591 117.143 143.505 116.905 143.353 116.7C143.213 116.484 143.024 116.316 142.786 116.197C142.548 116.079 142.278 116.019 141.976 116.019C141.554 116.019 141.192 116.106 140.89 116.278C140.598 116.44 140.376 116.684 140.225 117.008C140.074 117.321 139.998 117.71 139.998 118.175C139.998 118.65 140.096 119.066 140.29 119.423C140.495 119.768 140.787 120.039 141.165 120.233C141.554 120.428 142.013 120.525 142.543 120.525C142.91 120.525 143.234 120.471 143.515 120.363C143.807 120.255 144.12 120.071 144.455 119.812L145.671 121.53C145.336 121.821 144.979 122.059 144.601 122.243C144.223 122.427 143.834 122.562 143.434 122.648C143.045 122.745 142.656 122.794 142.267 122.794ZM147.664 122.632V114.026H150.127L150.241 116.829L149.754 116.295C149.884 115.83 150.095 115.414 150.386 115.047C150.689 114.679 151.04 114.387 151.44 114.171C151.84 113.955 152.267 113.847 152.72 113.847C152.915 113.847 153.093 113.863 153.255 113.896C153.428 113.928 153.585 113.966 153.725 114.009L153.012 116.878C152.893 116.802 152.731 116.743 152.526 116.7C152.331 116.646 152.126 116.619 151.91 116.619C151.672 116.619 151.451 116.662 151.245 116.748C151.04 116.824 150.867 116.938 150.727 117.089C150.586 117.24 150.473 117.418 150.386 117.624C150.311 117.829 150.273 118.061 150.273 118.321V122.632H147.664ZM158.488 122.632L154.89 114.026H157.759L159.898 120.46L159.266 120.525L161.471 114.026H164.307L160.531 122.632H158.488ZM165.806 122.632V114.026H168.399V122.632H165.806ZM167.102 112.324C166.616 112.324 166.232 112.21 165.952 111.983C165.681 111.746 165.546 111.411 165.546 110.978C165.546 110.589 165.687 110.271 165.968 110.022C166.249 109.774 166.627 109.649 167.102 109.649C167.589 109.649 167.967 109.768 168.237 110.006C168.507 110.233 168.642 110.557 168.642 110.978C168.642 111.378 168.502 111.702 168.221 111.951C167.951 112.199 167.578 112.324 167.102 112.324ZM174.612 122.794C173.78 122.794 173.034 122.599 172.375 122.21C171.716 121.821 171.192 121.292 170.803 120.622C170.425 119.941 170.236 119.174 170.236 118.321C170.236 117.467 170.425 116.705 170.803 116.035C171.192 115.355 171.716 114.82 172.375 114.431C173.034 114.042 173.78 113.847 174.612 113.847C175.379 113.847 176.081 113.982 176.719 114.252C177.367 114.523 177.88 114.901 178.259 115.387L176.849 117.073C176.697 116.9 176.519 116.738 176.314 116.586C176.108 116.435 175.882 116.316 175.633 116.23C175.385 116.143 175.125 116.1 174.855 116.1C174.444 116.1 174.082 116.197 173.769 116.392C173.456 116.576 173.213 116.835 173.04 117.17C172.867 117.505 172.78 117.888 172.78 118.321C172.78 118.731 172.867 119.104 173.04 119.439C173.223 119.774 173.472 120.039 173.785 120.233C174.099 120.428 174.455 120.525 174.855 120.525C175.136 120.525 175.395 120.492 175.633 120.428C175.871 120.352 176.087 120.244 176.281 120.103C176.487 119.963 176.676 119.79 176.849 119.585L178.242 121.287C177.875 121.751 177.362 122.119 176.703 122.389C176.054 122.659 175.357 122.794 174.612 122.794ZM179.813 122.632V114.026H182.407V122.632H179.813ZM181.11 112.324C180.624 112.324 180.24 112.21 179.959 111.983C179.689 111.746 179.554 111.411 179.554 110.978C179.554 110.589 179.694 110.271 179.975 110.022C180.256 109.774 180.635 109.649 181.11 109.649C181.596 109.649 181.974 109.768 182.245 110.006C182.515 110.233 182.65 110.557 182.65 110.978C182.65 111.378 182.509 111.702 182.228 111.951C181.958 112.199 181.585 112.324 181.11 112.324ZM184.843 122.632V114.026H187.307L187.388 115.776L186.869 115.97C186.988 115.581 187.199 115.23 187.501 114.917C187.815 114.593 188.187 114.333 188.62 114.139C189.052 113.944 189.506 113.847 189.981 113.847C190.629 113.847 191.175 113.982 191.618 114.252C192.061 114.512 192.396 114.906 192.623 115.436C192.85 115.954 192.963 116.592 192.963 117.348V122.632H190.354V117.559C190.354 117.213 190.305 116.927 190.208 116.7C190.111 116.473 189.959 116.305 189.754 116.197C189.56 116.079 189.317 116.024 189.025 116.035C188.798 116.035 188.587 116.073 188.393 116.149C188.198 116.214 188.031 116.316 187.89 116.457C187.75 116.586 187.636 116.738 187.55 116.911C187.474 117.083 187.436 117.272 187.436 117.478V122.632H186.156C185.853 122.632 185.594 122.632 185.378 122.632C185.162 122.632 184.984 122.632 184.843 122.632ZM199.07 126.36C198.367 126.36 197.665 126.257 196.963 126.052C196.271 125.846 195.709 125.582 195.277 125.257L196.185 123.442C196.412 123.593 196.66 123.723 196.93 123.831C197.211 123.95 197.503 124.042 197.806 124.107C198.108 124.172 198.416 124.204 198.729 124.204C199.28 124.204 199.729 124.123 200.075 123.961C200.42 123.799 200.68 123.55 200.853 123.215C201.026 122.891 201.112 122.481 201.112 121.984V120.541L201.614 120.622C201.539 120.979 201.35 121.303 201.047 121.595C200.755 121.886 200.393 122.124 199.961 122.308C199.529 122.481 199.07 122.567 198.584 122.567C197.806 122.567 197.109 122.389 196.493 122.032C195.888 121.665 195.407 121.162 195.05 120.525C194.705 119.877 194.532 119.131 194.532 118.288C194.532 117.424 194.705 116.662 195.05 116.003C195.396 115.333 195.871 114.809 196.477 114.431C197.082 114.042 197.762 113.847 198.519 113.847C198.843 113.847 199.151 113.885 199.443 113.961C199.745 114.036 200.021 114.139 200.269 114.269C200.528 114.388 200.755 114.533 200.95 114.706C201.155 114.868 201.317 115.047 201.436 115.241C201.566 115.436 201.652 115.635 201.695 115.841L201.161 115.97L201.258 114.026H203.721V121.935C203.721 122.637 203.613 123.259 203.397 123.799C203.192 124.35 202.884 124.814 202.473 125.193C202.074 125.582 201.587 125.873 201.015 126.068C200.442 126.262 199.794 126.36 199.07 126.36ZM199.135 120.557C199.556 120.557 199.918 120.465 200.221 120.282C200.534 120.087 200.772 119.822 200.934 119.488C201.107 119.153 201.193 118.758 201.193 118.304C201.193 117.851 201.107 117.456 200.934 117.121C200.772 116.775 200.534 116.511 200.221 116.327C199.918 116.133 199.556 116.035 199.135 116.035C198.724 116.035 198.367 116.133 198.065 116.327C197.762 116.511 197.525 116.775 197.352 117.121C197.19 117.456 197.109 117.851 197.109 118.304C197.109 118.758 197.19 119.153 197.352 119.488C197.525 119.822 197.762 120.087 198.065 120.282C198.367 120.465 198.724 120.557 199.135 120.557Z" fill="#05243F"/>
<path d="M318.833 118.167L317.042 116.375C316.889 116.222 316.694 116.146 316.458 116.146C316.222 116.146 316.028 116.222 315.875 116.375C315.722 116.528 315.646 116.722 315.646 116.958C315.646 117.194 315.722 117.389 315.875 117.542L318.25 119.917C318.417 120.083 318.611 120.167 318.833 120.167C319.056 120.167 319.25 120.083 319.417 119.917L324.125 115.208C324.278 115.056 324.354 114.861 324.354 114.625C324.354 114.389 324.278 114.194 324.125 114.042C323.972 113.889 323.778 113.813 323.542 113.813C323.306 113.813 323.111 113.889 322.958 114.042L318.833 118.167ZM314.167 124.5C313.708 124.5 313.316 124.337 312.99 124.011C312.664 123.685 312.501 123.292 312.5 122.833V111.167C312.5 110.708 312.663 110.316 312.99 109.99C313.317 109.664 313.709 109.501 314.167 109.5H325.833C326.292 109.5 326.684 109.663 327.011 109.99C327.338 110.317 327.501 110.709 327.5 111.167V122.833C327.5 123.292 327.337 123.684 327.011 124.011C326.685 124.338 326.292 124.501 325.833 124.5H314.167Z" fill="#2389E3"/>
<path d="M342.598 126.632L341.704 124.41L347.231 118.369C347.538 118.026 347.872 117.638 348.233 117.205C348.594 116.771 348.946 116.329 349.29 115.877C349.633 115.408 349.904 114.956 350.102 114.523C350.319 114.089 350.427 113.692 350.427 113.331C350.427 112.969 350.346 112.653 350.184 112.382C350.021 112.112 349.786 111.904 349.479 111.759C349.172 111.597 348.784 111.516 348.314 111.516C347.899 111.516 347.502 111.624 347.122 111.841C346.743 112.039 346.382 112.355 346.039 112.789C345.714 113.222 345.407 113.755 345.118 114.387L341.704 112.545C342.084 111.498 342.616 110.576 343.303 109.782C344.007 108.969 344.829 108.346 345.768 107.913C346.707 107.461 347.709 107.235 348.775 107.235C349.895 107.253 350.906 107.497 351.809 107.967C352.712 108.418 353.425 109.059 353.949 109.89C354.491 110.703 354.762 111.66 354.762 112.762C354.762 113.141 354.717 113.538 354.626 113.954C354.536 114.369 354.401 114.803 354.22 115.254C354.039 115.687 353.796 116.157 353.488 116.663C353.2 117.15 352.847 117.665 352.432 118.207C352.017 118.749 351.529 119.327 350.969 119.941L346.662 124.627L346.12 122.568H355.602V126.632H342.598ZM364.971 126.903C363.273 126.903 361.819 126.514 360.609 125.738C359.417 124.961 358.505 123.851 357.873 122.406C357.241 120.943 356.925 119.191 356.925 117.15C356.925 115.11 357.241 113.367 357.873 111.922C358.505 110.459 359.417 109.339 360.609 108.563C361.819 107.786 363.273 107.398 364.971 107.398C366.668 107.398 368.122 107.786 369.332 108.563C370.542 109.339 371.463 110.459 372.095 111.922C372.727 113.367 373.043 115.11 373.043 117.15C373.043 119.191 372.727 120.943 372.095 122.406C371.463 123.851 370.542 124.961 369.332 125.738C368.122 126.514 366.668 126.903 364.971 126.903ZM364.971 123.002C366.145 123.002 367.048 122.496 367.68 121.485C368.33 120.473 368.655 119.029 368.655 117.15C368.655 115.218 368.33 113.737 367.68 112.708C367.048 111.66 366.145 111.136 364.971 111.136C363.797 111.136 362.885 111.66 362.235 112.708C361.602 113.737 361.286 115.218 361.286 117.15C361.286 119.029 361.602 120.473 362.235 121.485C362.885 122.496 363.797 123.002 364.971 123.002ZM375.72 126.632L374.826 124.41L380.352 118.369C380.659 118.026 380.994 117.638 381.355 117.205C381.716 116.771 382.068 116.329 382.411 115.877C382.754 115.408 383.025 114.956 383.224 114.523C383.441 114.089 383.549 113.692 383.549 113.331C383.549 112.969 383.468 112.653 383.305 112.382C383.143 112.112 382.908 111.904 382.601 111.759C382.294 111.597 381.906 111.516 381.436 111.516C381.021 111.516 380.623 111.624 380.244 111.841C379.865 112.039 379.504 112.355 379.16 112.789C378.835 113.222 378.528 113.755 378.239 114.387L374.826 112.545C375.205 111.498 375.738 110.576 376.424 109.782C377.129 108.969 377.95 108.346 378.89 107.913C379.829 107.461 380.831 107.235 381.897 107.235C383.016 107.253 384.028 107.497 384.931 107.967C385.834 108.418 386.547 109.059 387.071 109.89C387.613 110.703 387.883 111.66 387.883 112.762C387.883 113.141 387.838 113.538 387.748 113.954C387.658 114.369 387.522 114.803 387.342 115.254C387.161 115.687 386.917 116.157 386.61 116.663C386.321 117.15 385.969 117.665 385.554 118.207C385.138 118.749 384.651 119.327 384.091 119.941L379.784 124.627L379.242 122.568H388.723V126.632H375.72ZM397.888 126.632V111.299L400.354 111.353L393.5 119.751L392.85 118.938H405.419V122.731H390.791L388.949 119.182L398.62 107.506H402.331V126.632H397.888Z" fill="#05243F"/>
</g>
<rect opacity="0.4" x="52.8984" y="158.373" width="359.339" height="57.9208" rx="15.4829" fill="white"/>
<path opacity="0.4" d="M81.0227 192.247C80.2888 192.247 79.6107 192.126 78.9882 191.885C78.3751 191.634 77.841 191.286 77.3858 190.84C76.9306 190.385 76.5775 189.85 76.3267 189.237C76.0852 188.615 75.9644 187.932 75.9644 187.189C75.9644 186.464 76.0945 185.796 76.3546 185.182C76.6147 184.569 76.9724 184.04 77.4276 183.594C77.8921 183.139 78.4355 182.786 79.0579 182.535C79.6896 182.284 80.3771 182.159 81.1202 182.159C81.5847 182.159 82.0399 182.219 82.4858 182.34C82.9317 182.46 83.3451 182.642 83.726 182.883C84.1162 183.115 84.4506 183.394 84.7293 183.719L83.2801 185.377C83.085 185.173 82.876 184.997 82.6531 184.848C82.4394 184.69 82.2025 184.569 81.9424 184.486C81.6823 184.402 81.4036 184.36 81.1063 184.36C80.7347 184.36 80.3817 184.43 80.0473 184.569C79.7221 184.699 79.4342 184.89 79.1833 185.141C78.9418 185.382 78.7514 185.679 78.612 186.032C78.4727 186.385 78.403 186.78 78.403 187.217C78.403 187.644 78.4727 188.034 78.612 188.387C78.7514 188.731 78.9464 189.028 79.1973 189.279C79.4481 189.53 79.75 189.72 80.103 189.85C80.4653 189.981 80.8648 190.046 81.3014 190.046C81.5987 190.046 81.882 190.004 82.1514 189.92C82.4208 189.837 82.667 189.725 82.8899 189.586C83.1222 189.437 83.3266 189.27 83.5031 189.084L84.6457 190.896C84.4135 191.156 84.1023 191.388 83.7121 191.592C83.3312 191.797 82.9039 191.959 82.4301 192.08C81.9656 192.192 81.4965 192.247 81.0227 192.247ZM86.0439 192.108V181.796H88.2734V192.108H86.0439ZM93.6514 192.247C92.8339 192.247 92.1232 192.085 91.5194 191.76C90.9156 191.425 90.4464 190.975 90.112 190.408C89.7776 189.832 89.6104 189.177 89.6104 188.443C89.6104 187.876 89.7033 187.356 89.8891 186.882C90.0749 186.409 90.335 186 90.6694 185.656C91.0038 185.303 91.3986 185.034 91.8538 184.848C92.3183 184.653 92.8246 184.555 93.3727 184.555C93.8929 184.555 94.3667 184.648 94.7941 184.834C95.2307 185.02 95.6069 185.28 95.9228 185.614C96.2386 185.949 96.4801 186.344 96.6474 186.799C96.8146 187.254 96.8889 187.751 96.8703 188.29L96.8564 188.889H90.962L90.6415 187.635H95.0449L94.808 187.9V187.621C94.7894 187.389 94.7151 187.184 94.585 187.008C94.4643 186.822 94.3017 186.678 94.0973 186.576C93.8929 186.474 93.6607 186.423 93.4006 186.423C93.0383 186.423 92.7271 186.497 92.467 186.646C92.2161 186.785 92.0257 186.994 91.8956 187.273C91.7656 187.542 91.7006 187.876 91.7006 188.276C91.7006 188.685 91.7842 189.042 91.9514 189.349C92.1279 189.646 92.3787 189.878 92.7039 190.046C93.0383 190.213 93.4331 190.296 93.8883 190.296C94.2042 190.296 94.4828 190.25 94.7244 190.157C94.9752 190.064 95.2446 189.906 95.5326 189.683L96.5777 191.16C96.2897 191.411 95.9831 191.616 95.658 191.773C95.3329 191.931 94.9984 192.048 94.6547 192.122C94.3203 192.205 93.9858 192.247 93.6514 192.247ZM101.022 192.233C100.4 192.233 99.8422 192.071 99.3498 191.746C98.8667 191.411 98.4812 190.956 98.1932 190.38C97.9053 189.795 97.7613 189.135 97.7613 188.401C97.7613 187.649 97.9053 186.985 98.1932 186.409C98.4812 185.833 98.876 185.382 99.3777 185.057C99.8793 184.723 100.451 184.555 101.092 184.555C101.445 184.555 101.765 184.606 102.053 184.709C102.35 184.811 102.611 184.955 102.833 185.141C103.056 185.317 103.247 185.526 103.405 185.768C103.563 186 103.679 186.251 103.753 186.52L103.293 186.464V184.709H105.509V192.108H103.252V190.324L103.753 190.31C103.679 190.57 103.558 190.817 103.391 191.049C103.224 191.281 103.019 191.485 102.778 191.662C102.536 191.839 102.267 191.978 101.97 192.08C101.672 192.182 101.356 192.233 101.022 192.233ZM101.635 190.352C101.979 190.352 102.276 190.273 102.527 190.115C102.778 189.957 102.973 189.734 103.112 189.446C103.252 189.149 103.321 188.801 103.321 188.401C103.321 188.002 103.252 187.658 103.112 187.37C102.973 187.073 102.778 186.845 102.527 186.687C102.276 186.52 101.979 186.437 101.635 186.437C101.301 186.437 101.008 186.52 100.757 186.687C100.516 186.845 100.325 187.073 100.186 187.37C100.047 187.658 99.9769 188.002 99.9769 188.401C99.9769 188.801 100.047 189.149 100.186 189.446C100.325 189.734 100.516 189.957 100.757 190.115C101.008 190.273 101.301 190.352 101.635 190.352ZM107.476 192.108V184.709H109.594L109.664 186.214L109.218 186.381C109.32 186.046 109.501 185.744 109.761 185.475C110.031 185.196 110.351 184.973 110.723 184.806C111.095 184.639 111.485 184.555 111.893 184.555C112.451 184.555 112.92 184.671 113.301 184.904C113.682 185.127 113.97 185.466 114.165 185.921C114.36 186.367 114.457 186.915 114.457 187.565V192.108H112.214V187.746C112.214 187.449 112.172 187.203 112.089 187.008C112.005 186.813 111.875 186.669 111.698 186.576C111.531 186.474 111.322 186.427 111.071 186.437C110.876 186.437 110.695 186.469 110.528 186.534C110.361 186.59 110.217 186.678 110.096 186.799C109.975 186.91 109.878 187.04 109.803 187.189C109.738 187.338 109.706 187.5 109.706 187.677V192.108H108.605C108.345 192.108 108.122 192.108 107.936 192.108C107.75 192.108 107.597 192.108 107.476 192.108ZM116.447 192.108V184.709H118.676V192.108H116.447ZM117.562 183.245C117.144 183.245 116.814 183.148 116.572 182.953C116.34 182.748 116.224 182.46 116.224 182.089C116.224 181.754 116.345 181.48 116.586 181.267C116.828 181.053 117.153 180.946 117.562 180.946C117.98 180.946 118.305 181.048 118.537 181.253C118.769 181.448 118.885 181.727 118.885 182.089C118.885 182.433 118.765 182.711 118.523 182.925C118.291 183.139 117.97 183.245 117.562 183.245ZM120.771 192.108V184.709H122.889L122.959 186.214L122.513 186.381C122.615 186.046 122.796 185.744 123.057 185.475C123.326 185.196 123.646 184.973 124.018 184.806C124.39 184.639 124.78 184.555 125.189 184.555C125.746 184.555 126.215 184.671 126.596 184.904C126.977 185.127 127.265 185.466 127.46 185.921C127.655 186.367 127.753 186.915 127.753 187.565V192.108H125.509V187.746C125.509 187.449 125.467 187.203 125.384 187.008C125.3 186.813 125.17 186.669 124.993 186.576C124.826 186.474 124.617 186.427 124.366 186.437C124.171 186.437 123.99 186.469 123.823 186.534C123.656 186.59 123.512 186.678 123.391 186.799C123.27 186.91 123.173 187.04 123.098 187.189C123.033 187.338 123.001 187.5 123.001 187.677V192.108H121.9C121.64 192.108 121.417 192.108 121.231 192.108C121.045 192.108 120.892 192.108 120.771 192.108ZM133.003 195.313C132.399 195.313 131.795 195.225 131.191 195.048C130.597 194.872 130.114 194.644 129.742 194.365L130.522 192.805C130.717 192.935 130.931 193.046 131.163 193.139C131.405 193.241 131.656 193.32 131.916 193.376C132.176 193.432 132.441 193.46 132.71 193.46C133.184 193.46 133.569 193.39 133.867 193.251C134.164 193.111 134.387 192.898 134.535 192.61C134.684 192.331 134.758 191.978 134.758 191.551V190.31L135.19 190.38C135.125 190.687 134.963 190.965 134.703 191.216C134.452 191.467 134.141 191.671 133.769 191.829C133.397 191.978 133.003 192.052 132.585 192.052C131.916 192.052 131.317 191.899 130.787 191.592C130.267 191.276 129.853 190.845 129.547 190.296C129.25 189.739 129.101 189.098 129.101 188.373C129.101 187.63 129.25 186.975 129.547 186.409C129.844 185.833 130.253 185.382 130.773 185.057C131.293 184.723 131.879 184.555 132.529 184.555C132.808 184.555 133.072 184.588 133.323 184.653C133.583 184.718 133.82 184.806 134.034 184.918C134.257 185.02 134.452 185.145 134.619 185.294C134.796 185.433 134.935 185.586 135.037 185.754C135.149 185.921 135.223 186.093 135.26 186.269L134.8 186.381L134.884 184.709H137.002V191.509C137.002 192.113 136.909 192.647 136.723 193.111C136.547 193.585 136.282 193.984 135.929 194.31C135.585 194.644 135.167 194.895 134.675 195.062C134.182 195.229 133.625 195.313 133.003 195.313ZM133.058 190.324C133.421 190.324 133.732 190.245 133.992 190.087C134.261 189.92 134.466 189.693 134.605 189.405C134.754 189.117 134.828 188.778 134.828 188.387C134.828 187.997 134.754 187.658 134.605 187.37C134.466 187.073 134.261 186.845 133.992 186.687C133.732 186.52 133.421 186.437 133.058 186.437C132.705 186.437 132.399 186.52 132.139 186.687C131.879 186.845 131.674 187.073 131.526 187.37C131.386 187.658 131.317 187.997 131.317 188.387C131.317 188.778 131.386 189.117 131.526 189.405C131.674 189.693 131.879 189.92 132.139 190.087C132.399 190.245 132.705 190.324 133.058 190.324ZM146.133 192.233C145.51 192.233 144.953 192.071 144.461 191.746C143.977 191.411 143.592 190.956 143.304 190.38C143.016 189.795 142.872 189.135 142.872 188.401C142.872 187.649 143.016 186.985 143.304 186.409C143.592 185.833 143.987 185.382 144.488 185.057C144.99 184.723 145.561 184.555 146.202 184.555C146.555 184.555 146.876 184.606 147.164 184.709C147.461 184.811 147.721 184.955 147.944 185.141C148.167 185.317 148.358 185.526 148.515 185.768C148.673 186 148.79 186.251 148.864 186.52L148.404 186.464V184.709H150.62V192.108H148.362V190.324L148.864 190.31C148.79 190.57 148.669 190.817 148.502 191.049C148.334 191.281 148.13 191.485 147.888 191.662C147.647 191.839 147.377 191.978 147.08 192.08C146.783 192.182 146.467 192.233 146.133 192.233ZM146.746 190.352C147.09 190.352 147.387 190.273 147.638 190.115C147.888 189.957 148.084 189.734 148.223 189.446C148.362 189.149 148.432 188.801 148.432 188.401C148.432 188.002 148.362 187.658 148.223 187.37C148.084 187.073 147.888 186.845 147.638 186.687C147.387 186.52 147.09 186.437 146.746 186.437C146.411 186.437 146.119 186.52 145.868 186.687C145.626 186.845 145.436 187.073 145.297 187.37C145.157 187.658 145.088 188.002 145.088 188.401C145.088 188.801 145.157 189.149 145.297 189.446C145.436 189.734 145.626 189.957 145.868 190.115C146.119 190.273 146.411 190.352 146.746 190.352ZM152.587 192.108V184.709H154.705L154.775 186.214L154.329 186.381C154.431 186.046 154.612 185.744 154.872 185.475C155.142 185.196 155.462 184.973 155.834 184.806C156.205 184.639 156.595 184.555 157.004 184.555C157.562 184.555 158.031 184.671 158.412 184.904C158.792 185.127 159.08 185.466 159.276 185.921C159.471 186.367 159.568 186.915 159.568 187.565V192.108H157.325V187.746C157.325 187.449 157.283 187.203 157.199 187.008C157.116 186.813 156.986 186.669 156.809 186.576C156.642 186.474 156.433 186.427 156.182 186.437C155.987 186.437 155.806 186.469 155.639 186.534C155.471 186.59 155.327 186.678 155.207 186.799C155.086 186.91 154.988 187.04 154.914 187.189C154.849 187.338 154.816 187.5 154.816 187.677V192.108H153.716C153.456 192.108 153.233 192.108 153.047 192.108C152.861 192.108 152.708 192.108 152.587 192.108ZM164.233 192.261C163.592 192.261 163.021 192.099 162.519 191.773C162.027 191.439 161.637 190.984 161.349 190.408C161.061 189.823 160.917 189.158 160.917 188.415C160.917 187.672 161.061 187.012 161.349 186.437C161.637 185.851 162.031 185.391 162.533 185.057C163.035 184.723 163.611 184.555 164.261 184.555C164.595 184.555 164.916 184.606 165.222 184.709C165.529 184.811 165.808 184.95 166.058 185.127C166.309 185.303 166.514 185.508 166.672 185.74C166.83 185.963 166.922 186.195 166.95 186.437L166.421 186.562V181.796H168.664V192.108H166.588L166.463 190.422L166.908 190.491C166.881 190.724 166.788 190.947 166.63 191.16C166.481 191.374 166.286 191.564 166.045 191.732C165.803 191.89 165.524 192.015 165.208 192.108C164.902 192.21 164.577 192.261 164.233 192.261ZM164.804 190.408C165.148 190.408 165.445 190.324 165.696 190.157C165.947 189.99 166.137 189.758 166.267 189.46C166.407 189.163 166.476 188.815 166.476 188.415C166.476 188.006 166.407 187.653 166.267 187.356C166.137 187.059 165.947 186.827 165.696 186.659C165.445 186.492 165.148 186.409 164.804 186.409C164.461 186.409 164.163 186.492 163.913 186.659C163.671 186.827 163.481 187.059 163.341 187.356C163.202 187.653 163.132 188.006 163.132 188.415C163.132 188.815 163.202 189.163 163.341 189.46C163.481 189.758 163.671 189.99 163.913 190.157C164.163 190.324 164.461 190.408 164.804 190.408ZM175.25 192.108V182.354H179.333C180.048 182.354 180.703 182.474 181.298 182.716C181.892 182.948 182.403 183.283 182.83 183.719C183.267 184.156 183.601 184.671 183.834 185.266C184.066 185.861 184.182 186.515 184.182 187.231C184.182 187.946 184.066 188.606 183.834 189.21C183.601 189.804 183.267 190.32 182.83 190.756C182.403 191.184 181.892 191.518 181.298 191.76C180.703 191.992 180.048 192.108 179.333 192.108H175.25ZM177.619 190.491L177.298 190.018H179.263C179.653 190.018 180.002 189.953 180.308 189.823C180.615 189.683 180.875 189.493 181.088 189.251C181.311 189.01 181.483 188.717 181.604 188.373C181.725 188.03 181.785 187.649 181.785 187.231C181.785 186.813 181.725 186.432 181.604 186.088C181.483 185.744 181.311 185.452 181.088 185.21C180.875 184.969 180.615 184.783 180.308 184.653C180.002 184.514 179.653 184.444 179.263 184.444H177.256L177.619 183.998V190.491ZM189.302 192.247C188.485 192.247 187.774 192.085 187.17 191.76C186.567 191.425 186.097 190.975 185.763 190.408C185.429 189.832 185.261 189.177 185.261 188.443C185.261 187.876 185.354 187.356 185.54 186.882C185.726 186.409 185.986 186 186.32 185.656C186.655 185.303 187.05 185.034 187.505 184.848C187.969 184.653 188.476 184.555 189.024 184.555C189.544 184.555 190.018 184.648 190.445 184.834C190.882 185.02 191.258 185.28 191.574 185.614C191.89 185.949 192.131 186.344 192.298 186.799C192.466 187.254 192.54 187.751 192.521 188.29L192.507 188.889H186.613L186.293 187.635H190.696L190.459 187.9V187.621C190.44 187.389 190.366 187.184 190.236 187.008C190.115 186.822 189.953 186.678 189.748 186.576C189.544 186.474 189.312 186.423 189.052 186.423C188.689 186.423 188.378 186.497 188.118 186.646C187.867 186.785 187.677 186.994 187.547 187.273C187.417 187.542 187.352 187.876 187.352 188.276C187.352 188.685 187.435 189.042 187.602 189.349C187.779 189.646 188.03 189.878 188.355 190.046C188.689 190.213 189.084 190.296 189.539 190.296C189.855 190.296 190.134 190.25 190.375 190.157C190.626 190.064 190.896 189.906 191.184 189.683L192.229 191.16C191.941 191.411 191.634 191.616 191.309 191.773C190.984 191.931 190.649 192.048 190.306 192.122C189.971 192.205 189.637 192.247 189.302 192.247ZM194.555 192.108V182.841H196.784V192.108H194.555ZM193.245 186.659V184.709H198.22V186.659H193.245ZM202.157 192.233C201.535 192.233 200.977 192.071 200.485 191.746C200.002 191.411 199.616 190.956 199.328 190.38C199.04 189.795 198.896 189.135 198.896 188.401C198.896 187.649 199.04 186.985 199.328 186.409C199.616 185.833 200.011 185.382 200.513 185.057C201.014 184.723 201.586 184.555 202.227 184.555C202.58 184.555 202.9 184.606 203.188 184.709C203.485 184.811 203.746 184.955 203.969 185.141C204.191 185.317 204.382 185.526 204.54 185.768C204.698 186 204.814 186.251 204.888 186.52L204.428 186.464V184.709H206.644V192.108H204.387V190.324L204.888 190.31C204.814 190.57 204.693 190.817 204.526 191.049C204.359 191.281 204.154 191.485 203.913 191.662C203.671 191.839 203.402 191.978 203.105 192.08C202.807 192.182 202.491 192.233 202.157 192.233ZM202.77 190.352C203.114 190.352 203.411 190.273 203.662 190.115C203.913 189.957 204.108 189.734 204.247 189.446C204.387 189.149 204.456 188.801 204.456 188.401C204.456 188.002 204.387 187.658 204.247 187.37C204.108 187.073 203.913 186.845 203.662 186.687C203.411 186.52 203.114 186.437 202.77 186.437C202.436 186.437 202.143 186.52 201.892 186.687C201.651 186.845 201.46 187.073 201.321 187.37C201.182 187.658 201.112 188.002 201.112 188.401C201.112 188.801 201.182 189.149 201.321 189.446C201.46 189.734 201.651 189.957 201.892 190.115C202.143 190.273 202.436 190.352 202.77 190.352ZM208.737 192.108V184.709H210.966V192.108H208.737ZM209.851 183.245C209.433 183.245 209.104 183.148 208.862 182.953C208.63 182.748 208.514 182.46 208.514 182.089C208.514 181.754 208.634 181.48 208.876 181.267C209.118 181.053 209.443 180.946 209.851 180.946C210.269 180.946 210.595 181.048 210.827 181.253C211.059 181.448 211.175 181.727 211.175 182.089C211.175 182.433 211.054 182.711 210.813 182.925C210.581 183.139 210.26 183.245 209.851 183.245ZM213.075 192.108V181.796H215.305V192.108H213.075ZM217.419 192.108V184.709H219.648V192.108H217.419ZM218.533 183.245C218.115 183.245 217.786 183.148 217.544 182.953C217.312 182.748 217.196 182.46 217.196 182.089C217.196 181.754 217.316 181.48 217.558 181.267C217.8 181.053 218.125 180.946 218.533 180.946C218.951 180.946 219.277 181.048 219.509 181.253C219.741 181.448 219.857 181.727 219.857 182.089C219.857 182.433 219.736 182.711 219.495 182.925C219.263 183.139 218.942 183.245 218.533 183.245ZM221.743 192.108V184.709H223.861L223.931 186.214L223.485 186.381C223.587 186.046 223.768 185.744 224.028 185.475C224.298 185.196 224.618 184.973 224.99 184.806C225.361 184.639 225.752 184.555 226.16 184.555C226.718 184.555 227.187 184.671 227.568 184.904C227.949 185.127 228.237 185.466 228.432 185.921C228.627 186.367 228.724 186.915 228.724 187.565V192.108H226.481V187.746C226.481 187.449 226.439 187.203 226.355 187.008C226.272 186.813 226.142 186.669 225.965 186.576C225.798 186.474 225.589 186.427 225.338 186.437C225.143 186.437 224.962 186.469 224.795 186.534C224.628 186.59 224.484 186.678 224.363 186.799C224.242 186.91 224.144 187.04 224.07 187.189C224.005 187.338 223.973 187.5 223.973 187.677V192.108H222.872C222.612 192.108 222.389 192.108 222.203 192.108C222.017 192.108 221.864 192.108 221.743 192.108ZM233.974 195.313C233.371 195.313 232.767 195.225 232.163 195.048C231.568 194.872 231.085 194.644 230.714 194.365L231.494 192.805C231.689 192.935 231.903 193.046 232.135 193.139C232.377 193.241 232.627 193.32 232.887 193.376C233.148 193.432 233.412 193.46 233.682 193.46C234.156 193.46 234.541 193.39 234.838 193.251C235.136 193.111 235.359 192.898 235.507 192.61C235.656 192.331 235.73 191.978 235.73 191.551V190.31L236.162 190.38C236.097 190.687 235.935 190.965 235.674 191.216C235.424 191.467 235.112 191.671 234.741 191.829C234.369 191.978 233.974 192.052 233.556 192.052C232.887 192.052 232.288 191.899 231.759 191.592C231.239 191.276 230.825 190.845 230.519 190.296C230.221 189.739 230.073 189.098 230.073 188.373C230.073 187.63 230.221 186.975 230.519 186.409C230.816 185.833 231.225 185.382 231.745 185.057C232.265 184.723 232.85 184.555 233.501 184.555C233.779 184.555 234.044 184.588 234.295 184.653C234.555 184.718 234.792 184.806 235.006 184.918C235.229 185.02 235.424 185.145 235.591 185.294C235.767 185.433 235.907 185.586 236.009 185.754C236.12 185.921 236.195 186.093 236.232 186.269L235.772 186.381L235.856 184.709H237.974V191.509C237.974 192.113 237.881 192.647 237.695 193.111C237.518 193.585 237.254 193.984 236.901 194.31C236.557 194.644 236.139 194.895 235.647 195.062C235.154 195.229 234.597 195.313 233.974 195.313ZM234.03 190.324C234.392 190.324 234.704 190.245 234.964 190.087C235.233 189.92 235.438 189.693 235.577 189.405C235.726 189.117 235.8 188.778 235.8 188.387C235.8 187.997 235.726 187.658 235.577 187.37C235.438 187.073 235.233 186.845 234.964 186.687C234.704 186.52 234.392 186.437 234.03 186.437C233.677 186.437 233.371 186.52 233.11 186.687C232.85 186.845 232.646 187.073 232.497 187.37C232.358 187.658 232.288 187.997 232.288 188.387C232.288 188.778 232.358 189.117 232.497 189.405C232.646 189.693 232.85 189.92 233.11 190.087C233.371 190.245 233.677 190.324 234.03 190.324Z" fill="#05243F"/>
<path opacity="0.4" d="M301.497 188.417L299.832 186.752C299.69 186.611 299.51 186.54 299.29 186.54C299.071 186.54 298.891 186.611 298.749 186.752C298.607 186.894 298.536 187.075 298.536 187.294C298.536 187.514 298.607 187.694 298.749 187.836L300.955 190.043C301.11 190.197 301.29 190.275 301.497 190.275C301.703 190.275 301.884 190.197 302.039 190.043L306.413 185.669C306.555 185.527 306.626 185.346 306.626 185.127C306.626 184.907 306.555 184.727 306.413 184.585C306.271 184.443 306.09 184.372 305.871 184.372C305.651 184.372 305.471 184.443 305.329 184.585L301.497 188.417ZM297.162 194.3C296.736 194.3 296.371 194.149 296.068 193.846C295.766 193.543 295.614 193.178 295.613 192.752V181.914C295.613 181.488 295.765 181.124 296.068 180.821C296.372 180.518 296.736 180.366 297.162 180.366H308C308.425 180.366 308.79 180.517 309.094 180.821C309.397 181.124 309.548 181.489 309.548 181.914V192.752C309.548 193.178 309.396 193.542 309.094 193.846C308.791 194.149 308.426 194.301 308 194.3H297.162Z" fill="#2389E3"/>
<path opacity="0.4" d="M321.913 195.366L321.145 193.457L325.895 188.263C326.159 187.968 326.447 187.634 326.757 187.262C327.068 186.889 327.37 186.509 327.665 186.121C327.96 185.717 328.193 185.329 328.364 184.956C328.55 184.584 328.643 184.242 328.643 183.932C328.643 183.621 328.574 183.349 328.434 183.116C328.294 182.884 328.092 182.705 327.828 182.581C327.564 182.441 327.231 182.371 326.827 182.371C326.47 182.371 326.128 182.464 325.802 182.651C325.476 182.822 325.166 183.093 324.871 183.466C324.591 183.838 324.327 184.296 324.079 184.84L321.145 183.256C321.471 182.356 321.929 181.564 322.519 180.881C323.124 180.182 323.83 179.647 324.638 179.274C325.445 178.886 326.307 178.692 327.223 178.692C328.185 178.707 329.055 178.917 329.831 179.32C330.607 179.709 331.221 180.26 331.671 180.974C332.137 181.673 332.37 182.495 332.37 183.443C332.37 183.769 332.331 184.11 332.253 184.467C332.176 184.824 332.059 185.197 331.904 185.585C331.749 185.958 331.539 186.361 331.275 186.796C331.027 187.215 330.724 187.658 330.367 188.124C330.01 188.589 329.59 189.086 329.109 189.614L325.406 193.643L324.941 191.873H333.092V195.366H321.913ZM341.146 195.599C339.686 195.599 338.437 195.265 337.396 194.598C336.372 193.93 335.588 192.975 335.044 191.733C334.501 190.476 334.229 188.97 334.229 187.215C334.229 185.461 334.501 183.963 335.044 182.721C335.588 181.463 336.372 180.5 337.396 179.833C338.437 179.165 339.686 178.831 341.146 178.831C342.605 178.831 343.855 179.165 344.895 179.833C345.936 180.5 346.727 181.463 347.271 182.721C347.814 183.963 348.086 185.461 348.086 187.215C348.086 188.97 347.814 190.476 347.271 191.733C346.727 192.975 345.936 193.93 344.895 194.598C343.855 195.265 342.605 195.599 341.146 195.599ZM341.146 192.246C342.155 192.246 342.931 191.811 343.475 190.941C344.034 190.072 344.313 188.83 344.313 187.215C344.313 185.554 344.034 184.281 343.475 183.396C342.931 182.495 342.155 182.045 341.146 182.045C340.137 182.045 339.353 182.495 338.794 183.396C338.25 184.281 337.979 185.554 337.979 187.215C337.979 188.83 338.25 190.072 338.794 190.941C339.353 191.811 340.137 192.246 341.146 192.246ZM350.387 195.366L349.618 193.457L354.369 188.263C354.633 187.968 354.92 187.634 355.231 187.262C355.541 186.889 355.844 186.509 356.139 186.121C356.434 185.717 356.667 185.329 356.838 184.956C357.024 184.584 357.117 184.242 357.117 183.932C357.117 183.621 357.047 183.349 356.908 183.116C356.768 182.884 356.566 182.705 356.302 182.581C356.038 182.441 355.704 182.371 355.301 182.371C354.944 182.371 354.602 182.464 354.276 182.651C353.95 182.822 353.639 183.093 353.344 183.466C353.065 183.838 352.801 184.296 352.553 184.84L349.618 183.256C349.944 182.356 350.402 181.564 350.992 180.881C351.598 180.182 352.304 179.647 353.112 179.274C353.919 178.886 354.781 178.692 355.697 178.692C356.659 178.707 357.529 178.917 358.305 179.32C359.081 179.709 359.694 180.26 360.145 180.974C360.61 181.673 360.843 182.495 360.843 183.443C360.843 183.769 360.805 184.11 360.727 184.467C360.649 184.824 360.533 185.197 360.378 185.585C360.222 185.958 360.013 186.361 359.749 186.796C359.5 187.215 359.198 187.658 358.841 188.124C358.483 188.589 358.064 189.086 357.583 189.614L353.88 193.643L353.414 191.873H361.565V195.366H350.387ZM368.455 195.599C367.136 195.599 365.979 195.327 364.985 194.784C364.007 194.225 363.114 193.27 362.307 191.92L365.148 190.08C365.49 190.623 365.839 191.058 366.196 191.384C366.569 191.71 366.949 191.951 367.337 192.106C367.741 192.246 368.16 192.315 368.595 192.315C369.03 192.315 369.426 192.222 369.783 192.036C370.155 191.834 370.45 191.555 370.668 191.198C370.9 190.84 371.017 190.437 371.017 189.987C371.017 189.505 370.916 189.102 370.714 188.776C370.528 188.434 370.248 188.178 369.876 188.007C369.519 187.836 369.084 187.751 368.572 187.751C368.339 187.751 368.09 187.782 367.826 187.844C367.562 187.891 367.283 187.96 366.988 188.054C366.693 188.147 366.39 188.271 366.08 188.426L365.218 186.121L369.177 181.812L370.248 182.395L363.448 182.255V178.925H373.462L374.184 180.368L368.805 186.144L367.873 185.049C367.997 184.987 368.199 184.933 368.478 184.886C368.773 184.824 369.053 184.793 369.317 184.793C370.047 184.793 370.73 184.925 371.366 185.189C372.003 185.453 372.569 185.818 373.066 186.284C373.563 186.749 373.951 187.301 374.231 187.937C374.51 188.558 374.65 189.226 374.65 189.94C374.65 191.027 374.37 191.997 373.812 192.851C373.268 193.689 372.523 194.357 371.576 194.854C370.644 195.351 369.604 195.599 368.455 195.599Z" fill="#05243F"/>
</svg>
