<svg width="465" height="217" viewBox="0 0 465 217" fill="none" xmlns="http://www.w3.org/2000/svg">
<rect x="0.699219" y="0.18457" width="464.174" height="74.8188" rx="20" fill="white"/>
<path d="M41.4838 44.2738C40.5358 44.2738 39.6598 44.1178 38.8558 43.8057C38.0638 43.4817 37.3738 43.0317 36.7858 42.4557C36.1978 41.8677 35.7418 41.1777 35.4178 40.3857C35.1058 39.5817 34.9498 38.6997 34.9498 37.7397C34.9498 36.8037 35.1178 35.9397 35.4538 35.1477C35.7898 34.3557 36.2518 33.6717 36.8398 33.0957C37.4398 32.5077 38.1418 32.0517 38.9458 31.7277C39.7618 31.4037 40.6498 31.2417 41.6098 31.2417C42.2098 31.2417 42.7978 31.3197 43.3738 31.4757C43.9498 31.6317 44.4838 31.8657 44.9758 32.1777C45.4798 32.4777 45.9118 32.8377 46.2718 33.2577L44.3998 35.3997C44.1478 35.1357 43.8778 34.9077 43.5898 34.7157C43.3138 34.5117 43.0078 34.3557 42.6718 34.2477C42.3358 34.1397 41.9758 34.0857 41.5918 34.0857C41.1118 34.0857 40.6558 34.1757 40.2238 34.3557C39.8038 34.5237 39.4318 34.7697 39.1078 35.0938C38.7958 35.4057 38.5498 35.7897 38.3698 36.2457C38.1898 36.7017 38.0998 37.2117 38.0998 37.7757C38.0998 38.3277 38.1898 38.8317 38.3698 39.2877C38.5498 39.7317 38.8018 40.1157 39.1258 40.4397C39.4498 40.7637 39.8398 41.0097 40.2958 41.1777C40.7638 41.3457 41.2798 41.4297 41.8438 41.4297C42.2278 41.4297 42.5938 41.3757 42.9418 41.2677C43.2898 41.1597 43.6078 41.0157 43.8958 40.8357C44.1958 40.6437 44.4598 40.4277 44.6878 40.1877L46.1638 42.5277C45.8638 42.8637 45.4618 43.1637 44.9578 43.4277C44.4658 43.6917 43.9138 43.9017 43.3018 44.0577C42.7018 44.2018 42.0958 44.2738 41.4838 44.2738ZM51.4798 44.2558C50.6758 44.2558 49.9558 44.0458 49.3198 43.6257C48.6958 43.1937 48.1978 42.6057 47.8258 41.8617C47.4538 41.1057 47.2678 40.2537 47.2678 39.3057C47.2678 38.3337 47.4538 37.4757 47.8258 36.7317C48.1978 35.9877 48.7078 35.4057 49.3558 34.9857C50.0038 34.5537 50.7418 34.3377 51.5698 34.3377C52.0258 34.3377 52.4398 34.4037 52.8118 34.5357C53.1958 34.6677 53.5318 34.8537 53.8198 35.0938C54.1078 35.3217 54.3538 35.5917 54.5578 35.9037C54.7618 36.2037 54.9118 36.5277 55.0078 36.8757L54.4138 36.8037V34.5357H57.2758V44.0938H54.3598V41.7897L55.0078 41.7717C54.9118 42.1077 54.7558 42.4257 54.5398 42.7257C54.3238 43.0257 54.0598 43.2897 53.7478 43.5177C53.4358 43.7457 53.0878 43.9257 52.7038 44.0577C52.3198 44.1898 51.9118 44.2558 51.4798 44.2558ZM52.2718 41.8257C52.7158 41.8257 53.0998 41.7237 53.4238 41.5197C53.7478 41.3157 53.9998 41.0277 54.1798 40.6557C54.3598 40.2717 54.4498 39.8217 54.4498 39.3057C54.4498 38.7897 54.3598 38.3457 54.1798 37.9737C53.9998 37.5897 53.7478 37.2957 53.4238 37.0917C53.0998 36.8757 52.7158 36.7677 52.2718 36.7677C51.8398 36.7677 51.4618 36.8757 51.1378 37.0917C50.8258 37.2957 50.5798 37.5897 50.3998 37.9737C50.2198 38.3457 50.1298 38.7897 50.1298 39.3057C50.1298 39.8217 50.2198 40.2717 50.3998 40.6557C50.5798 41.0277 50.8258 41.3157 51.1378 41.5197C51.4618 41.7237 51.8398 41.8257 52.2718 41.8257ZM59.8171 44.0938V34.5357H62.5531L62.6791 37.6497L62.1391 37.0557C62.2831 36.5397 62.5171 36.0777 62.8411 35.6697C63.1771 35.2617 63.5671 34.9377 64.0111 34.6977C64.4551 34.4577 64.9291 34.3377 65.4331 34.3377C65.6491 34.3377 65.8471 34.3557 66.0271 34.3917C66.2191 34.4277 66.3931 34.4697 66.5491 34.5177L65.7571 37.7037C65.6251 37.6197 65.4451 37.5537 65.2171 37.5057C65.0011 37.4457 64.7731 37.4157 64.5331 37.4157C64.2691 37.4157 64.0231 37.4637 63.7951 37.5597C63.5671 37.6437 63.3751 37.7697 63.2191 37.9377C63.0631 38.1057 62.9371 38.3037 62.8411 38.5317C62.7571 38.7597 62.7151 39.0177 62.7151 39.3057V44.0938H59.8171ZM74.0801 44.0938V31.4937H79.5161C80.3081 31.4937 81.0101 31.6737 81.6221 32.0337C82.2461 32.3937 82.7381 32.8857 83.0981 33.5098C83.4701 34.1337 83.6561 34.8357 83.6561 35.6157C83.6561 36.4317 83.4701 37.1637 83.0981 37.8117C82.7381 38.4477 82.2461 38.9517 81.6221 39.3237C81.0101 39.6957 80.3081 39.8817 79.5161 39.8817H77.1401V44.0938H74.0801ZM77.0861 37.1997H79.0841C79.3481 37.1997 79.5881 37.1337 79.8041 37.0017C80.0201 36.8697 80.1941 36.6897 80.3261 36.4617C80.4581 36.2337 80.5241 35.9697 80.5241 35.6697C80.5241 35.3577 80.4581 35.0937 80.3261 34.8777C80.1941 34.6617 80.0201 34.4937 79.8041 34.3737C79.5881 34.2537 79.3481 34.1937 79.0841 34.1937H77.0861V37.1997ZM89.0443 44.2558C88.2403 44.2558 87.5203 44.0458 86.8843 43.6257C86.2603 43.1937 85.7623 42.6057 85.3903 41.8617C85.0183 41.1057 84.8323 40.2537 84.8323 39.3057C84.8323 38.3337 85.0183 37.4757 85.3903 36.7317C85.7623 35.9877 86.2723 35.4057 86.9203 34.9857C87.5683 34.5537 88.3063 34.3377 89.1343 34.3377C89.5903 34.3377 90.0043 34.4037 90.3763 34.5357C90.7603 34.6677 91.0963 34.8537 91.3843 35.0938C91.6723 35.3217 91.9183 35.5917 92.1223 35.9037C92.3263 36.2037 92.4763 36.5277 92.5723 36.8757L91.9783 36.8037V34.5357H94.8403V44.0938H91.9243V41.7897L92.5723 41.7717C92.4763 42.1077 92.3203 42.4257 92.1043 42.7257C91.8883 43.0257 91.6243 43.2897 91.3123 43.5177C91.0003 43.7457 90.6523 43.9257 90.2683 44.0577C89.8843 44.1898 89.4763 44.2558 89.0443 44.2558ZM89.8363 41.8257C90.2803 41.8257 90.6643 41.7237 90.9883 41.5197C91.3123 41.3157 91.5643 41.0277 91.7443 40.6557C91.9243 40.2717 92.0143 39.8217 92.0143 39.3057C92.0143 38.7897 91.9243 38.3457 91.7443 37.9737C91.5643 37.5897 91.3123 37.2957 90.9883 37.0917C90.6643 36.8757 90.2803 36.7677 89.8363 36.7677C89.4043 36.7677 89.0263 36.8757 88.7023 37.0917C88.3903 37.2957 88.1443 37.5897 87.9643 37.9737C87.7843 38.3457 87.6943 38.7897 87.6943 39.3057C87.6943 39.8217 87.7843 40.2717 87.9643 40.6557C88.1443 41.0277 88.3903 41.3157 88.7023 41.5197C89.0263 41.7237 89.4043 41.8257 89.8363 41.8257ZM97.3815 44.0938V34.5357H100.118L100.244 37.6497L99.7035 37.0557C99.8475 36.5397 100.082 36.0777 100.406 35.6697C100.742 35.2617 101.132 34.9377 101.576 34.6977C102.02 34.4577 102.494 34.3377 102.998 34.3377C103.214 34.3377 103.412 34.3557 103.592 34.3917C103.784 34.4277 103.958 34.4697 104.114 34.5177L103.322 37.7037C103.19 37.6197 103.01 37.5537 102.782 37.5057C102.566 37.4457 102.338 37.4157 102.098 37.4157C101.834 37.4157 101.588 37.4637 101.36 37.5597C101.132 37.6437 100.94 37.7697 100.784 37.9377C100.628 38.1057 100.502 38.3037 100.406 38.5317C100.322 38.7597 100.28 39.0177 100.28 39.3057V44.0938H97.3815ZM106.716 44.0938V32.1237H109.596V44.0938H106.716ZM105.024 37.0557V34.5357H111.45V37.0557H105.024ZM116.67 44.2738C115.734 44.2738 114.906 44.1238 114.186 43.8237C113.478 43.5237 112.914 43.1217 112.494 42.6177L114.24 41.1057C114.612 41.4777 115.032 41.7537 115.5 41.9337C115.968 42.1017 116.412 42.1857 116.832 42.1857C117 42.1857 117.15 42.1677 117.282 42.1317C117.414 42.0957 117.522 42.0477 117.606 41.9877C117.702 41.9157 117.774 41.8377 117.822 41.7537C117.87 41.6577 117.894 41.5497 117.894 41.4297C117.894 41.1897 117.786 41.0037 117.57 40.8717C117.462 40.8117 117.282 40.7397 117.03 40.6557C116.778 40.5717 116.454 40.4757 116.058 40.3677C115.494 40.2237 115.002 40.0557 114.582 39.8637C114.174 39.6597 113.838 39.4257 113.574 39.1617C113.334 38.9097 113.148 38.6337 113.016 38.3337C112.884 38.0217 112.818 37.6737 112.818 37.2897C112.818 36.8457 112.92 36.4437 113.124 36.0837C113.34 35.7237 113.622 35.4117 113.97 35.1477C114.33 34.8837 114.738 34.6857 115.194 34.5537C115.662 34.4097 116.142 34.3377 116.634 34.3377C117.162 34.3377 117.666 34.3977 118.146 34.5177C118.626 34.6377 119.07 34.8057 119.478 35.0217C119.898 35.2377 120.27 35.4957 120.594 35.7957L119.082 37.4877C118.866 37.2837 118.62 37.1037 118.344 36.9477C118.08 36.7797 117.804 36.6477 117.516 36.5517C117.228 36.4557 116.964 36.4077 116.724 36.4077C116.544 36.4077 116.382 36.4257 116.238 36.4617C116.106 36.4857 115.992 36.5337 115.896 36.6057C115.8 36.6657 115.728 36.7437 115.68 36.8397C115.632 36.9237 115.608 37.0257 115.608 37.1457C115.608 37.2657 115.638 37.3797 115.698 37.4877C115.77 37.5957 115.866 37.6857 115.986 37.7577C116.106 37.8297 116.298 37.9137 116.562 38.0097C116.826 38.0937 117.186 38.2017 117.642 38.3337C118.206 38.4897 118.692 38.6637 119.1 38.8557C119.508 39.0477 119.832 39.2757 120.072 39.5397C120.264 39.7437 120.408 39.9837 120.504 40.2597C120.6 40.5237 120.648 40.8117 120.648 41.1237C120.648 41.7357 120.474 42.2817 120.126 42.7617C119.79 43.2297 119.322 43.6017 118.722 43.8777C118.122 44.1418 117.438 44.2738 116.67 44.2738Z" fill="#05243F"/>
<path d="M340.964 45.0938L346.504 31.0937H349.384L354.884 45.0938H351.444L348.804 37.9937C348.698 37.7137 348.591 37.4137 348.484 37.0937C348.378 36.7737 348.271 36.4471 348.164 36.1137C348.058 35.7671 347.951 35.4337 347.844 35.1137C347.751 34.7804 347.671 34.4737 347.604 34.1937L348.204 34.1737C348.124 34.5071 348.031 34.8337 347.924 35.1537C347.831 35.4737 347.731 35.7937 347.624 36.1137C347.531 36.4204 347.424 36.7337 347.304 37.0537C347.184 37.3604 347.071 37.6804 346.964 38.0137L344.324 45.0938H340.964ZM343.604 42.4137L344.664 39.8537H351.104L352.144 42.4137H343.604ZM358.555 45.0938L354.115 34.4737H357.655L360.295 42.4137L359.515 42.4937L362.235 34.4737H365.735L361.075 45.0938H358.555ZM371.031 45.2738C370.138 45.2738 369.338 45.0404 368.631 44.5737C367.938 44.0937 367.385 43.4404 366.971 42.6137C366.558 41.7737 366.351 40.8271 366.351 39.7737C366.351 38.6937 366.558 37.7404 366.971 36.9137C367.385 36.0871 367.951 35.4404 368.671 34.9737C369.391 34.4937 370.211 34.2537 371.131 34.2537C371.638 34.2537 372.098 34.3271 372.511 34.4737C372.938 34.6204 373.311 34.8271 373.631 35.0938C373.951 35.3471 374.225 35.6471 374.451 35.9937C374.678 36.3271 374.845 36.6871 374.951 37.0737L374.291 36.9937V34.4737H377.471V45.0938H374.231V42.5337L374.951 42.5137C374.845 42.8871 374.671 43.2404 374.431 43.5737C374.191 43.9071 373.898 44.2004 373.551 44.4537C373.205 44.7071 372.818 44.9071 372.391 45.0537C371.965 45.2004 371.511 45.2738 371.031 45.2738ZM371.911 42.5737C372.405 42.5737 372.831 42.4604 373.191 42.2337C373.551 42.0071 373.831 41.6871 374.031 41.2737C374.231 40.8471 374.331 40.3471 374.331 39.7737C374.331 39.2004 374.231 38.7071 374.031 38.2937C373.831 37.8671 373.551 37.5404 373.191 37.3137C372.831 37.0737 372.405 36.9537 371.911 36.9537C371.431 36.9537 371.011 37.0737 370.651 37.3137C370.305 37.5404 370.031 37.8671 369.831 38.2937C369.631 38.7071 369.531 39.2004 369.531 39.7737C369.531 40.3471 369.631 40.8471 369.831 41.2737C370.031 41.6871 370.305 42.0071 370.651 42.2337C371.011 42.4604 371.431 42.5737 371.911 42.5737ZM380.475 45.0938V34.4737H383.675V45.0938H380.475ZM382.075 32.3737C381.475 32.3737 381.002 32.2337 380.655 31.9537C380.322 31.6604 380.155 31.2471 380.155 30.7137C380.155 30.2337 380.328 29.8404 380.675 29.5337C381.022 29.2271 381.488 29.0737 382.075 29.0737C382.675 29.0737 383.142 29.2204 383.475 29.5137C383.808 29.7937 383.975 30.1937 383.975 30.7137C383.975 31.2071 383.802 31.6071 383.455 31.9137C383.122 32.2204 382.662 32.3737 382.075 32.3737ZM386.702 45.0938V30.2937H389.902V45.0938H386.702ZM396.481 45.2738C395.587 45.2738 394.787 45.0404 394.081 44.5737C393.387 44.0937 392.834 43.4404 392.421 42.6137C392.007 41.7737 391.801 40.8271 391.801 39.7737C391.801 38.6937 392.007 37.7404 392.421 36.9137C392.834 36.0871 393.401 35.4404 394.121 34.9737C394.841 34.4937 395.661 34.2537 396.581 34.2537C397.087 34.2537 397.547 34.3271 397.961 34.4737C398.387 34.6204 398.761 34.8271 399.081 35.0938C399.401 35.3471 399.674 35.6471 399.901 35.9937C400.127 36.3271 400.294 36.6871 400.401 37.0737L399.741 36.9937V34.4737H402.921V45.0938H399.681V42.5337L400.401 42.5137C400.294 42.8871 400.121 43.2404 399.881 43.5737C399.641 43.9071 399.347 44.2004 399.001 44.4537C398.654 44.7071 398.267 44.9071 397.841 45.0537C397.414 45.2004 396.961 45.2738 396.481 45.2738ZM397.361 42.5737C397.854 42.5737 398.281 42.4604 398.641 42.2337C399.001 42.0071 399.281 41.6871 399.481 41.2737C399.681 40.8471 399.781 40.3471 399.781 39.7737C399.781 39.2004 399.681 38.7071 399.481 38.2937C399.281 37.8671 399.001 37.5404 398.641 37.3137C398.281 37.0737 397.854 36.9537 397.361 36.9537C396.881 36.9537 396.461 37.0737 396.101 37.3137C395.754 37.5404 395.481 37.8671 395.281 38.2937C395.081 38.7071 394.981 39.2004 394.981 39.7737C394.981 40.3471 395.081 40.8471 395.281 41.2737C395.481 41.6871 395.754 42.0071 396.101 42.2337C396.461 42.4604 396.881 42.5737 397.361 42.5737ZM412.124 45.3138C411.644 45.3138 411.184 45.2471 410.744 45.1138C410.304 44.9804 409.904 44.8004 409.544 44.5737C409.198 44.3471 408.904 44.0871 408.664 43.7937C408.438 43.4871 408.284 43.1737 408.204 42.8537L408.904 42.6137L408.724 45.0737H405.744V30.2937H408.964V37.0137L408.304 36.7737C408.384 36.4271 408.538 36.1071 408.764 35.8137C408.991 35.5071 409.278 35.2404 409.624 35.0137C409.971 34.7737 410.351 34.5871 410.764 34.4537C411.178 34.3204 411.604 34.2537 412.044 34.2537C412.964 34.2537 413.778 34.4937 414.484 34.9737C415.204 35.4404 415.771 36.0937 416.184 36.9337C416.598 37.7604 416.804 38.7071 416.804 39.7737C416.804 40.8537 416.598 41.8137 416.184 42.6537C415.784 43.4804 415.231 44.1337 414.524 44.6137C413.818 45.0804 413.018 45.3138 412.124 45.3138ZM411.284 42.6137C411.764 42.6137 412.184 42.4937 412.544 42.2537C412.904 42.0137 413.178 41.6871 413.364 41.2737C413.564 40.8471 413.664 40.3471 413.664 39.7737C413.664 39.2137 413.564 38.7204 413.364 38.2937C413.178 37.8671 412.904 37.5404 412.544 37.3137C412.184 37.0871 411.764 36.9737 411.284 36.9737C410.791 36.9737 410.364 37.0871 410.004 37.3137C409.644 37.5404 409.364 37.8671 409.164 38.2937C408.964 38.7204 408.864 39.2137 408.864 39.7737C408.864 40.3471 408.964 40.8471 409.164 41.2737C409.364 41.6871 409.644 42.0137 410.004 42.2537C410.364 42.4937 410.791 42.6137 411.284 42.6137ZM418.928 45.0938V30.2937H422.128V45.0938H418.928ZM429.847 45.2938C428.674 45.2938 427.654 45.0604 426.787 44.5937C425.921 44.1137 425.247 43.4671 424.767 42.6537C424.287 41.8271 424.047 40.8871 424.047 39.8337C424.047 39.0204 424.181 38.2737 424.447 37.5937C424.714 36.9137 425.087 36.3271 425.567 35.8337C426.047 35.3271 426.614 34.9404 427.267 34.6737C427.934 34.3937 428.661 34.2537 429.447 34.2537C430.194 34.2537 430.874 34.3871 431.487 34.6537C432.114 34.9204 432.654 35.2937 433.107 35.7737C433.561 36.2537 433.907 36.8204 434.147 37.4737C434.387 38.1271 434.494 38.8404 434.467 39.6137L434.447 40.4737H425.987L425.527 38.6737H431.847L431.507 39.0537V38.6537C431.481 38.3204 431.374 38.0271 431.187 37.7737C431.014 37.5071 430.781 37.3004 430.487 37.1537C430.194 37.0071 429.861 36.9337 429.487 36.9337C428.967 36.9337 428.521 37.0404 428.147 37.2537C427.787 37.4537 427.514 37.7537 427.327 38.1537C427.141 38.5404 427.047 39.0204 427.047 39.5937C427.047 40.1804 427.167 40.6937 427.407 41.1337C427.661 41.5604 428.021 41.8937 428.487 42.1337C428.967 42.3737 429.534 42.4937 430.187 42.4937C430.641 42.4937 431.041 42.4271 431.387 42.2937C431.747 42.1604 432.134 41.9337 432.547 41.6137L434.047 43.7337C433.634 44.0937 433.194 44.3871 432.727 44.6137C432.261 44.8404 431.781 45.0071 431.287 45.1138C430.807 45.2338 430.327 45.2938 429.847 45.2938Z" fill="#05243F"/>
<path d="M324.955 31.5427C322.885 29.4852 320.096 28.3126 317.178 28.2725C314.259 28.2325 311.44 29.3283 309.314 31.3283C307.188 33.3284 305.923 36.0762 305.786 38.9916C305.648 41.907 306.649 44.7617 308.577 46.9529L308.586 46.9623C308.601 46.9787 308.616 46.9956 308.633 47.0115C308.667 47.0509 308.707 47.0954 308.753 47.1418C308.935 47.3352 309.155 47.489 309.399 47.5935C309.643 47.6981 309.907 47.7511 310.172 47.7492C310.438 47.7474 310.7 47.6907 310.943 47.5828C311.185 47.4749 311.403 47.3181 311.583 47.1221C312.272 46.3724 313.11 45.7739 314.043 45.3646C314.976 44.9552 315.984 44.7438 317.003 44.7438C318.021 44.7438 319.029 44.9552 319.962 45.3646C320.895 45.7739 321.733 46.3724 322.423 47.1221C322.603 47.3191 322.823 47.4764 323.068 47.5842C323.312 47.6919 323.576 47.7476 323.844 47.7479C324.111 47.7482 324.375 47.6929 324.62 47.5857C324.865 47.4785 325.085 47.3216 325.266 47.1249L325.416 46.9609L325.425 46.9515C327.324 44.8064 328.334 42.0172 328.246 39.1532C328.159 36.2892 326.982 33.5665 324.956 31.5409L324.955 31.5427ZM316.25 31.9998C316.25 31.8009 316.329 31.6101 316.47 31.4694C316.61 31.3288 316.801 31.2498 317 31.2498C317.199 31.2498 317.39 31.3288 317.53 31.4694C317.671 31.6101 317.75 31.8009 317.75 31.9998V33.4998C317.75 33.6987 317.671 33.8894 317.53 34.0301C317.39 34.1708 317.199 34.2498 317 34.2498C316.801 34.2498 316.61 34.1708 316.47 34.0301C316.329 33.8894 316.25 33.6987 316.25 33.4998V31.9998ZM311 40.2498H309.5C309.301 40.2498 309.11 40.1708 308.97 40.0301C308.829 39.8895 308.75 39.6987 308.75 39.4998C308.75 39.3009 308.829 39.1101 308.97 38.9694C309.11 38.8288 309.301 38.7498 309.5 38.7498H311C311.199 38.7498 311.39 38.8288 311.53 38.9694C311.671 39.1101 311.75 39.3009 311.75 39.4998C311.75 39.6987 311.671 39.8895 311.53 40.0301C311.39 40.1708 311.199 40.2498 311 40.2498ZM313.287 35.7873C313.147 35.9278 312.956 36.0068 312.757 36.0068C312.558 36.0068 312.368 35.9278 312.227 35.7873L311.166 34.727C311.026 34.5863 310.947 34.3955 310.947 34.1966C310.947 33.9976 311.026 33.8068 311.166 33.6662C311.307 33.5255 311.498 33.4465 311.697 33.4465C311.896 33.4465 312.086 33.5255 312.227 33.6662L313.287 34.727C313.428 34.8676 313.507 35.0583 313.507 35.2571C313.507 35.4559 313.428 35.6466 313.287 35.7873ZM320.286 36.8701L318.059 40.4091C317.968 40.5354 317.857 40.6462 317.731 40.7373C317.426 40.9499 317.05 41.0337 316.684 40.9706C316.318 40.9075 315.991 40.7025 315.775 40.4001C315.559 40.0977 315.471 39.7223 315.53 39.3554C315.589 38.9885 315.791 38.6597 316.09 38.4404L319.63 36.2138C319.71 36.1578 319.806 36.1277 319.904 36.1277C320.002 36.1277 320.098 36.1578 320.178 36.2138C320.279 36.2868 320.347 36.3968 320.367 36.5197C320.387 36.6427 320.358 36.7686 320.286 36.8701ZM321.773 35.7873C321.631 35.922 321.442 35.996 321.246 35.9935C321.051 35.991 320.864 35.9122 320.726 35.7739C320.587 35.6356 320.509 35.4487 320.506 35.2531C320.504 35.0576 320.578 34.8688 320.712 34.727L321.773 33.6662C321.913 33.5255 322.104 33.4465 322.303 33.4465C322.502 33.4465 322.693 33.5255 322.833 33.6662C322.974 33.8068 323.053 33.9976 323.053 34.1966C323.053 34.3955 322.974 34.5863 322.833 34.727L321.773 35.7873ZM324.5 40.2498H323C322.801 40.2498 322.61 40.1708 322.47 40.0301C322.329 39.8895 322.25 39.6987 322.25 39.4998C322.25 39.3009 322.329 39.1101 322.47 38.9694C322.61 38.8288 322.801 38.7498 323 38.7498H324.5C324.699 38.7498 324.89 38.8288 325.03 38.9694C325.171 39.1101 325.25 39.3009 325.25 39.4998C325.25 39.6987 325.171 39.8895 325.03 40.0301C324.89 40.1708 324.699 40.2498 324.5 40.2498Z" fill="#2287E0"/>
<g opacity="0.8">
<rect x="23.8086" y="83.0034" width="417.956" height="67.3691" rx="18.0086" fill="white"/>
<path d="M57.2689 122.632L61.7585 111.286H64.0924L68.5495 122.632H65.7618L63.6224 116.878C63.5359 116.651 63.4495 116.408 63.3631 116.149C63.2766 115.889 63.1902 115.625 63.1037 115.355C63.0173 115.074 62.9309 114.803 62.8444 114.544C62.7688 114.274 62.7039 114.026 62.6499 113.799L63.1361 113.782C63.0713 114.053 62.9957 114.317 62.9092 114.577C62.8336 114.836 62.7526 115.095 62.6661 115.355C62.5905 115.603 62.504 115.857 62.4068 116.116C62.3096 116.365 62.2177 116.624 62.1313 116.894L59.9918 122.632H57.2689ZM59.4084 120.46L60.2674 118.385H65.4863L66.3291 120.46H59.4084ZM73.1494 122.794C72.3174 122.794 71.5718 122.599 70.9127 122.21C70.2536 121.821 69.7295 121.292 69.3405 120.622C68.9624 119.941 68.7733 119.174 68.7733 118.321C68.7733 117.467 68.9624 116.705 69.3405 116.035C69.7295 115.355 70.2536 114.82 70.9127 114.431C71.5718 114.042 72.3174 113.847 73.1494 113.847C73.9165 113.847 74.6189 113.982 75.2564 114.252C75.9047 114.523 76.4179 114.901 76.7961 115.387L75.386 117.073C75.2348 116.9 75.0565 116.738 74.8512 116.586C74.6459 116.435 74.419 116.316 74.1705 116.23C73.9219 116.143 73.6626 116.1 73.3925 116.1C72.9819 116.1 72.6199 116.197 72.3066 116.392C71.9932 116.576 71.7501 116.835 71.5772 117.17C71.4043 117.505 71.3179 117.888 71.3179 118.321C71.3179 118.731 71.4043 119.104 71.5772 119.439C71.7609 119.774 72.0094 120.039 72.3228 120.233C72.6361 120.428 72.9927 120.525 73.3925 120.525C73.6734 120.525 73.9327 120.492 74.1705 120.428C74.4082 120.352 74.6243 120.244 74.8188 120.103C75.0241 119.963 75.2132 119.79 75.386 119.585L76.7799 121.287C76.4125 121.751 75.8993 122.119 75.2402 122.389C74.5919 122.659 73.8949 122.794 73.1494 122.794ZM81.9813 122.794C81.1493 122.794 80.4038 122.599 79.7446 122.21C79.0855 121.821 78.5615 121.292 78.1725 120.622C77.7943 119.941 77.6052 119.174 77.6052 118.321C77.6052 117.467 77.7943 116.705 78.1725 116.035C78.5615 115.355 79.0855 114.82 79.7446 114.431C80.4038 114.042 81.1493 113.847 81.9813 113.847C82.7485 113.847 83.4508 113.982 84.0883 114.252C84.7366 114.523 85.2499 114.901 85.6281 115.387L84.218 117.073C84.0667 116.9 83.8884 116.738 83.6831 116.586C83.4778 116.435 83.2509 116.316 83.0024 116.23C82.7539 116.143 82.4946 116.1 82.2244 116.1C81.8138 116.1 81.4519 116.197 81.1385 116.392C80.8252 116.576 80.582 116.835 80.4092 117.17C80.2363 117.505 80.1498 117.888 80.1498 118.321C80.1498 118.731 80.2363 119.104 80.4092 119.439C80.5929 119.774 80.8414 120.039 81.1547 120.233C81.4681 120.428 81.8246 120.525 82.2244 120.525C82.5054 120.525 82.7647 120.492 83.0024 120.428C83.2401 120.352 83.4562 120.244 83.6507 120.103C83.856 119.963 84.0451 119.79 84.218 119.585L85.6118 121.287C85.2445 121.751 84.7312 122.119 84.0721 122.389C83.4238 122.659 82.7269 122.794 81.9813 122.794ZM91.1374 122.794C90.1866 122.794 89.36 122.605 88.6576 122.227C87.9553 121.838 87.4096 121.314 87.0207 120.654C86.6317 119.985 86.4372 119.223 86.4372 118.369C86.4372 117.71 86.5452 117.105 86.7613 116.554C86.9774 116.003 87.28 115.527 87.669 115.128C88.0579 114.717 88.5172 114.404 89.0466 114.188C89.5869 113.961 90.1758 113.847 90.8133 113.847C91.4184 113.847 91.9694 113.955 92.4665 114.171C92.9743 114.387 93.4119 114.69 93.7793 115.079C94.1467 115.468 94.4276 115.927 94.6221 116.457C94.8166 116.986 94.903 117.564 94.8814 118.191L94.8652 118.888H88.0093L87.6365 117.429H92.7582L92.4827 117.737V117.413C92.4611 117.143 92.3746 116.905 92.2233 116.7C92.0829 116.484 91.8938 116.316 91.6561 116.197C91.4184 116.079 91.1482 116.019 90.8457 116.019C90.4243 116.019 90.0623 116.106 89.7598 116.278C89.468 116.44 89.2465 116.684 89.0952 117.008C88.944 117.321 88.8683 117.71 88.8683 118.175C88.8683 118.65 88.9656 119.066 89.1601 119.423C89.3654 119.768 89.6571 120.039 90.0353 120.233C90.4243 120.428 90.8835 120.525 91.413 120.525C91.7803 120.525 92.1045 120.471 92.3854 120.363C92.6772 120.255 92.9905 120.071 93.3255 119.812L94.541 121.53C94.2061 121.821 93.8495 122.059 93.4713 122.243C93.0932 122.427 92.7042 122.562 92.3044 122.648C91.9154 122.745 91.5264 122.794 91.1374 122.794ZM99.4348 122.794C98.592 122.794 97.8464 122.659 97.1981 122.389C96.5606 122.119 96.0528 121.757 95.6746 121.303L97.2467 119.941C97.5817 120.276 97.9599 120.525 98.3813 120.687C98.8027 120.838 99.2025 120.914 99.5806 120.914C99.7319 120.914 99.867 120.898 99.9858 120.865C100.105 120.833 100.202 120.79 100.278 120.736C100.364 120.671 100.429 120.6 100.472 120.525C100.515 120.438 100.537 120.341 100.537 120.233C100.537 120.017 100.44 119.85 100.245 119.731C100.148 119.677 99.9858 119.612 99.7589 119.536C99.532 119.461 99.2403 119.374 98.8837 119.277C98.3759 119.147 97.9329 118.996 97.5547 118.823C97.1873 118.639 96.8848 118.429 96.647 118.191C96.4309 117.964 96.2635 117.715 96.1446 117.445C96.0257 117.164 95.9663 116.851 95.9663 116.505C95.9663 116.106 96.0582 115.744 96.2418 115.419C96.4363 115.095 96.6903 114.814 97.0036 114.577C97.3278 114.339 97.6951 114.161 98.1057 114.042C98.5271 113.912 98.9593 113.847 99.4024 113.847C99.8778 113.847 100.332 113.901 100.764 114.009C101.196 114.117 101.596 114.269 101.963 114.463C102.341 114.658 102.676 114.89 102.968 115.16L101.607 116.684C101.412 116.5 101.191 116.338 100.942 116.197C100.704 116.046 100.456 115.927 100.197 115.841C99.9372 115.754 99.6995 115.711 99.4834 115.711C99.3213 115.711 99.1754 115.727 99.0458 115.76C98.9269 115.781 98.8243 115.825 98.7378 115.889C98.6514 115.943 98.5866 116.014 98.5433 116.1C98.5001 116.176 98.4785 116.268 98.4785 116.376C98.4785 116.484 98.5055 116.586 98.5596 116.684C98.6244 116.781 98.7108 116.862 98.8189 116.927C98.9269 116.992 99.0998 117.067 99.3375 117.154C99.5752 117.229 99.8994 117.327 100.31 117.445C100.818 117.586 101.255 117.743 101.623 117.915C101.99 118.088 102.282 118.294 102.498 118.531C102.671 118.715 102.801 118.931 102.887 119.18C102.973 119.417 103.017 119.677 103.017 119.958C103.017 120.509 102.86 121 102.547 121.432C102.244 121.854 101.823 122.189 101.282 122.437C100.742 122.675 100.126 122.794 99.4348 122.794ZM107.459 122.794C106.617 122.794 105.871 122.659 105.223 122.389C104.585 122.119 104.077 121.757 103.699 121.303L105.271 119.941C105.606 120.276 105.985 120.525 106.406 120.687C106.827 120.838 107.227 120.914 107.605 120.914C107.757 120.914 107.892 120.898 108.011 120.865C108.129 120.833 108.227 120.79 108.302 120.736C108.389 120.671 108.454 120.6 108.497 120.525C108.54 120.438 108.562 120.341 108.562 120.233C108.562 120.017 108.464 119.85 108.27 119.731C108.173 119.677 108.011 119.612 107.784 119.536C107.557 119.461 107.265 119.374 106.908 119.277C106.401 119.147 105.958 118.996 105.579 118.823C105.212 118.639 104.909 118.429 104.672 118.191C104.456 117.964 104.288 117.715 104.169 117.445C104.05 117.164 103.991 116.851 103.991 116.505C103.991 116.106 104.083 115.744 104.267 115.419C104.461 115.095 104.715 114.814 105.028 114.577C105.352 114.339 105.72 114.161 106.13 114.042C106.552 113.912 106.984 113.847 107.427 113.847C107.903 113.847 108.356 113.901 108.789 114.009C109.221 114.117 109.621 114.269 109.988 114.463C110.366 114.658 110.701 114.89 110.993 115.16L109.631 116.684C109.437 116.5 109.215 116.338 108.967 116.197C108.729 116.046 108.481 115.927 108.221 115.841C107.962 115.754 107.724 115.711 107.508 115.711C107.346 115.711 107.2 115.727 107.071 115.76C106.952 115.781 106.849 115.825 106.763 115.889C106.676 115.943 106.611 116.014 106.568 116.1C106.525 116.176 106.503 116.268 106.503 116.376C106.503 116.484 106.53 116.586 106.584 116.684C106.649 116.781 106.736 116.862 106.844 116.927C106.952 116.992 107.125 117.067 107.362 117.154C107.6 117.229 107.924 117.327 108.335 117.445C108.843 117.586 109.28 117.743 109.648 117.915C110.015 118.088 110.307 118.294 110.523 118.531C110.696 118.715 110.825 118.931 110.912 119.18C110.998 119.417 111.041 119.677 111.041 119.958C111.041 120.509 110.885 121 110.571 121.432C110.269 121.854 109.847 122.189 109.307 122.437C108.767 122.675 108.151 122.794 107.459 122.794ZM116.635 122.794C115.738 122.794 114.939 122.599 114.236 122.21C113.545 121.821 112.994 121.292 112.583 120.622C112.183 119.952 111.983 119.185 111.983 118.321C111.983 117.456 112.183 116.689 112.583 116.019C112.994 115.349 113.545 114.82 114.236 114.431C114.939 114.042 115.738 113.847 116.635 113.847C117.532 113.847 118.326 114.042 119.018 114.431C119.72 114.82 120.271 115.349 120.671 116.019C121.07 116.689 121.27 117.456 121.27 118.321C121.27 119.185 121.07 119.952 120.671 120.622C120.271 121.292 119.72 121.821 119.018 122.21C118.326 122.599 117.532 122.794 116.635 122.794ZM116.635 120.557C117.024 120.557 117.37 120.46 117.672 120.266C117.975 120.071 118.213 119.806 118.385 119.471C118.558 119.136 118.639 118.753 118.629 118.321C118.639 117.888 118.558 117.505 118.385 117.17C118.213 116.824 117.975 116.554 117.672 116.359C117.37 116.165 117.024 116.068 116.635 116.068C116.246 116.068 115.895 116.165 115.581 116.359C115.279 116.554 115.041 116.824 114.868 117.17C114.695 117.505 114.614 117.888 114.625 118.321C114.614 118.753 114.695 119.136 114.868 119.471C115.041 119.806 115.279 120.071 115.581 120.266C115.895 120.46 116.246 120.557 116.635 120.557ZM122.966 122.632V114.026H125.43L125.543 116.829L125.057 116.295C125.187 115.83 125.397 115.414 125.689 115.047C125.992 114.679 126.343 114.387 126.743 114.171C127.142 113.955 127.569 113.847 128.023 113.847C128.217 113.847 128.396 113.863 128.558 113.896C128.731 113.928 128.887 113.966 129.028 114.009L128.315 116.878C128.196 116.802 128.034 116.743 127.828 116.7C127.634 116.646 127.429 116.619 127.213 116.619C126.975 116.619 126.753 116.662 126.548 116.748C126.343 116.824 126.17 116.938 126.029 117.089C125.889 117.24 125.775 117.418 125.689 117.624C125.613 117.829 125.576 118.061 125.576 118.321V122.632H122.966ZM130.488 122.632V114.026H133.081V122.632H130.488ZM131.784 112.324C131.298 112.324 130.915 112.21 130.634 111.983C130.364 111.746 130.228 111.411 130.228 110.978C130.228 110.589 130.369 110.271 130.65 110.022C130.931 109.774 131.309 109.649 131.784 109.649C132.271 109.649 132.649 109.768 132.919 110.006C133.189 110.233 133.324 110.557 133.324 110.978C133.324 111.378 133.184 111.702 132.903 111.951C132.633 112.199 132.26 112.324 131.784 112.324ZM139.618 122.794C138.667 122.794 137.841 122.605 137.138 122.227C136.436 121.838 135.89 121.314 135.501 120.654C135.112 119.985 134.918 119.223 134.918 118.369C134.918 117.71 135.026 117.105 135.242 116.554C135.458 116.003 135.761 115.527 136.15 115.128C136.539 114.717 136.998 114.404 137.527 114.188C138.068 113.961 138.657 113.847 139.294 113.847C139.899 113.847 140.45 113.955 140.947 114.171C141.455 114.387 141.893 114.69 142.26 115.079C142.627 115.468 142.908 115.927 143.103 116.457C143.297 116.986 143.384 117.564 143.362 118.191L143.346 118.888H136.49L136.117 117.429H141.239L140.963 117.737V117.413C140.942 117.143 140.855 116.905 140.704 116.7C140.564 116.484 140.375 116.316 140.137 116.197C139.899 116.079 139.629 116.019 139.326 116.019C138.905 116.019 138.543 116.106 138.241 116.278C137.949 116.44 137.727 116.684 137.576 117.008C137.425 117.321 137.349 117.71 137.349 118.175C137.349 118.65 137.446 119.066 137.641 119.423C137.846 119.768 138.138 120.039 138.516 120.233C138.905 120.428 139.364 120.525 139.894 120.525C140.261 120.525 140.585 120.471 140.866 120.363C141.158 120.255 141.471 120.071 141.806 119.812L143.022 121.53C142.687 121.821 142.33 122.059 141.952 122.243C141.574 122.427 141.185 122.562 140.785 122.648C140.396 122.745 140.007 122.794 139.618 122.794ZM147.916 122.794C147.073 122.794 146.327 122.659 145.679 122.389C145.041 122.119 144.534 121.757 144.155 121.303L145.727 119.941C146.062 120.276 146.441 120.525 146.862 120.687C147.283 120.838 147.683 120.914 148.061 120.914C148.213 120.914 148.348 120.898 148.467 120.865C148.585 120.833 148.683 120.79 148.758 120.736C148.845 120.671 148.91 120.6 148.953 120.525C148.996 120.438 149.018 120.341 149.018 120.233C149.018 120.017 148.92 119.85 148.726 119.731C148.629 119.677 148.467 119.612 148.24 119.536C148.013 119.461 147.721 119.374 147.364 119.277C146.857 119.147 146.414 118.996 146.035 118.823C145.668 118.639 145.366 118.429 145.128 118.191C144.912 117.964 144.744 117.715 144.625 117.445C144.507 117.164 144.447 116.851 144.447 116.505C144.447 116.106 144.539 115.744 144.723 115.419C144.917 115.095 145.171 114.814 145.484 114.577C145.809 114.339 146.176 114.161 146.586 114.042C147.008 113.912 147.44 113.847 147.883 113.847C148.359 113.847 148.812 113.901 149.245 114.009C149.677 114.117 150.077 114.269 150.444 114.463C150.822 114.658 151.157 114.89 151.449 115.16L150.087 116.684C149.893 116.5 149.671 116.338 149.423 116.197C149.185 116.046 148.937 115.927 148.677 115.841C148.418 115.754 148.18 115.711 147.964 115.711C147.802 115.711 147.656 115.727 147.527 115.76C147.408 115.781 147.305 115.825 147.219 115.889C147.132 115.943 147.067 116.014 147.024 116.1C146.981 116.176 146.959 116.268 146.959 116.376C146.959 116.484 146.986 116.586 147.04 116.684C147.105 116.781 147.192 116.862 147.3 116.927C147.408 116.992 147.581 117.067 147.818 117.154C148.056 117.229 148.38 117.327 148.791 117.445C149.299 117.586 149.736 117.743 150.104 117.915C150.471 118.088 150.763 118.294 150.979 118.531C151.152 118.715 151.281 118.931 151.368 119.18C151.454 119.417 151.497 119.677 151.497 119.958C151.497 120.509 151.341 121 151.027 121.432C150.725 121.854 150.303 122.189 149.763 122.437C149.223 122.675 148.607 122.794 147.916 122.794Z" fill="#05243F"/>
<path d="M281.629 111.619C279.904 109.904 277.58 108.927 275.148 108.894C272.716 108.861 270.366 109.774 268.595 111.44C266.824 113.107 265.769 115.397 265.655 117.827C265.54 120.256 266.374 122.635 267.981 124.461L267.988 124.469C268.001 124.482 268.013 124.496 268.027 124.51C268.056 124.543 268.089 124.58 268.128 124.618C268.279 124.78 268.463 124.908 268.666 124.995C268.87 125.082 269.089 125.126 269.31 125.125C269.531 125.123 269.75 125.076 269.952 124.986C270.155 124.896 270.336 124.765 270.485 124.602C271.06 123.977 271.759 123.478 272.536 123.137C273.313 122.796 274.153 122.62 275.002 122.62C275.851 122.62 276.691 122.796 277.468 123.137C278.246 123.478 278.944 123.977 279.519 124.602C279.67 124.766 279.852 124.897 280.056 124.987C280.26 125.077 280.48 125.123 280.703 125.123C280.926 125.124 281.146 125.078 281.35 124.988C281.554 124.899 281.737 124.768 281.888 124.604L282.014 124.468L282.021 124.46C283.604 122.672 284.445 120.348 284.372 117.961C284.299 115.575 283.319 113.306 281.63 111.618L281.629 111.619ZM274.375 112C274.375 111.834 274.441 111.675 274.558 111.558C274.675 111.441 274.834 111.375 275 111.375C275.166 111.375 275.325 111.441 275.442 111.558C275.559 111.675 275.625 111.834 275.625 112V113.25C275.625 113.416 275.559 113.575 275.442 113.692C275.325 113.809 275.166 113.875 275 113.875C274.834 113.875 274.675 113.809 274.558 113.692C274.441 113.575 274.375 113.416 274.375 113.25V112ZM270 118.875H268.75C268.584 118.875 268.425 118.809 268.308 118.692C268.191 118.575 268.125 118.416 268.125 118.25C268.125 118.084 268.191 117.925 268.308 117.808C268.425 117.691 268.584 117.625 268.75 117.625H270C270.166 117.625 270.325 117.691 270.442 117.808C270.559 117.925 270.625 118.084 270.625 118.25C270.625 118.416 270.559 118.575 270.442 118.692C270.325 118.809 270.166 118.875 270 118.875ZM271.906 115.156C271.789 115.273 271.63 115.339 271.464 115.339C271.299 115.339 271.14 115.273 271.023 115.156L270.139 114.273C270.021 114.155 269.955 113.996 269.955 113.831C269.955 113.665 270.021 113.506 270.139 113.389C270.256 113.271 270.415 113.206 270.581 113.206C270.746 113.206 270.905 113.271 271.023 113.389L271.906 114.273C272.023 114.39 272.089 114.549 272.089 114.714C272.089 114.88 272.023 115.039 271.906 115.156ZM277.738 116.059L275.883 119.008C275.807 119.113 275.714 119.205 275.609 119.281C275.355 119.458 275.042 119.528 274.736 119.476C274.431 119.423 274.159 119.252 273.979 119C273.799 118.748 273.726 118.435 273.775 118.13C273.824 117.824 273.992 117.55 274.242 117.367L277.191 115.512C277.258 115.465 277.338 115.44 277.42 115.44C277.502 115.44 277.581 115.465 277.648 115.512C277.733 115.572 277.789 115.664 277.806 115.767C277.823 115.869 277.798 115.974 277.738 116.059ZM278.977 115.156C278.859 115.268 278.702 115.33 278.539 115.328C278.376 115.326 278.22 115.26 278.105 115.145C277.99 115.03 277.924 114.874 277.922 114.711C277.92 114.548 277.981 114.391 278.094 114.273L278.977 113.389C279.094 113.271 279.253 113.206 279.419 113.206C279.585 113.206 279.744 113.271 279.861 113.389C279.978 113.506 280.044 113.665 280.044 113.831C280.044 113.996 279.978 114.155 279.861 114.273L278.977 115.156ZM281.25 118.875H280C279.834 118.875 279.675 118.809 279.558 118.692C279.441 118.575 279.375 118.416 279.375 118.25C279.375 118.084 279.441 117.925 279.558 117.808C279.675 117.691 279.834 117.625 280 117.625H281.25C281.416 117.625 281.575 117.691 281.692 117.808C281.809 117.925 281.875 118.084 281.875 118.25C281.875 118.416 281.809 118.575 281.692 118.692C281.575 118.809 281.416 118.875 281.25 118.875Z" fill="#E3586B"/>
<path d="M297.316 122.632V111.432H299.748L305.62 119.432L305.092 119.352C305.039 119 304.996 118.664 304.964 118.344C304.932 118.024 304.9 117.709 304.868 117.4C304.847 117.091 304.826 116.776 304.804 116.456C304.794 116.136 304.783 115.789 304.772 115.416C304.772 115.043 304.772 114.637 304.772 114.2V111.432H307.412V122.632H304.948L298.82 114.376L299.636 114.488C299.69 115 299.732 115.437 299.764 115.8C299.807 116.152 299.839 116.467 299.86 116.744C299.892 117.021 299.914 117.272 299.924 117.496C299.935 117.72 299.94 117.944 299.94 118.168C299.951 118.381 299.956 118.621 299.956 118.888V122.632H297.316ZM313.95 122.792C313.065 122.792 312.276 122.6 311.582 122.216C310.9 121.832 310.356 121.309 309.95 120.648C309.556 119.987 309.358 119.229 309.358 118.376C309.358 117.523 309.556 116.765 309.95 116.104C310.356 115.443 310.9 114.92 311.582 114.536C312.276 114.152 313.065 113.96 313.95 113.96C314.836 113.96 315.62 114.152 316.302 114.536C316.996 114.92 317.54 115.443 317.934 116.104C318.329 116.765 318.526 117.523 318.526 118.376C318.526 119.229 318.329 119.987 317.934 120.648C317.54 121.309 316.996 121.832 316.302 122.216C315.62 122.6 314.836 122.792 313.95 122.792ZM313.95 120.584C314.334 120.584 314.676 120.488 314.974 120.296C315.273 120.104 315.508 119.843 315.678 119.512C315.849 119.181 315.929 118.803 315.918 118.376C315.929 117.949 315.849 117.571 315.678 117.24C315.508 116.899 315.273 116.632 314.974 116.44C314.676 116.248 314.334 116.152 313.95 116.152C313.566 116.152 313.22 116.248 312.91 116.44C312.612 116.632 312.377 116.899 312.206 117.24C312.036 117.571 311.956 117.949 311.966 118.376C311.956 118.803 312.036 119.181 312.206 119.512C312.377 119.843 312.612 120.104 312.91 120.296C313.22 120.488 313.566 120.584 313.95 120.584ZM320.904 122.632V111.992H323.464V122.632H320.904ZM319.4 116.376V114.136H325.112V116.376H319.4ZM330.548 122.632L334.98 111.432H337.284L341.684 122.632H338.932L336.82 116.952C336.735 116.728 336.65 116.488 336.564 116.232C336.479 115.976 336.394 115.715 336.308 115.448C336.223 115.171 336.138 114.904 336.052 114.648C335.978 114.381 335.914 114.136 335.86 113.912L336.34 113.896C336.276 114.163 336.202 114.424 336.116 114.68C336.042 114.936 335.962 115.192 335.876 115.448C335.802 115.693 335.716 115.944 335.62 116.2C335.524 116.445 335.434 116.701 335.348 116.968L333.236 122.632H330.548ZM332.66 120.488L333.508 118.44H338.66L339.492 120.488H332.66ZM344.621 122.632L341.069 114.136H343.901L346.013 120.488L345.389 120.552L347.565 114.136H350.365L346.637 122.632H344.621ZM354.602 122.776C353.887 122.776 353.247 122.589 352.682 122.216C352.127 121.832 351.685 121.309 351.354 120.648C351.023 119.976 350.858 119.219 350.858 118.376C350.858 117.512 351.023 116.749 351.354 116.088C351.685 115.427 352.138 114.909 352.714 114.536C353.29 114.152 353.946 113.96 354.682 113.96C355.087 113.96 355.455 114.019 355.786 114.136C356.127 114.253 356.426 114.419 356.682 114.632C356.938 114.835 357.157 115.075 357.338 115.352C357.519 115.619 357.653 115.907 357.738 116.216L357.21 116.152V114.136H359.754V122.632H357.162V120.584L357.738 120.568C357.653 120.867 357.514 121.149 357.322 121.416C357.13 121.683 356.895 121.917 356.618 122.12C356.341 122.323 356.031 122.483 355.69 122.6C355.349 122.717 354.986 122.776 354.602 122.776ZM355.306 120.616C355.701 120.616 356.042 120.525 356.33 120.344C356.618 120.163 356.842 119.907 357.002 119.576C357.162 119.235 357.242 118.835 357.242 118.376C357.242 117.917 357.162 117.523 357.002 117.192C356.842 116.851 356.618 116.589 356.33 116.408C356.042 116.216 355.701 116.12 355.306 116.12C354.922 116.12 354.586 116.216 354.298 116.408C354.021 116.589 353.802 116.851 353.642 117.192C353.482 117.523 353.402 117.917 353.402 118.376C353.402 118.835 353.482 119.235 353.642 119.576C353.802 119.907 354.021 120.163 354.298 120.344C354.586 120.525 354.922 120.616 355.306 120.616ZM362.157 122.632V114.136H364.717V122.632H362.157ZM363.437 112.456C362.957 112.456 362.578 112.344 362.301 112.12C362.034 111.885 361.901 111.555 361.901 111.128C361.901 110.744 362.04 110.429 362.317 110.184C362.594 109.939 362.968 109.816 363.437 109.816C363.917 109.816 364.29 109.933 364.557 110.168C364.824 110.392 364.957 110.712 364.957 111.128C364.957 111.523 364.818 111.843 364.541 112.088C364.274 112.333 363.906 112.456 363.437 112.456ZM367.138 122.632V110.792H369.698V122.632H367.138ZM374.961 122.776C374.247 122.776 373.607 122.589 373.041 122.216C372.487 121.832 372.044 121.309 371.713 120.648C371.383 119.976 371.217 119.219 371.217 118.376C371.217 117.512 371.383 116.749 371.713 116.088C372.044 115.427 372.497 114.909 373.073 114.536C373.649 114.152 374.305 113.96 375.041 113.96C375.447 113.96 375.815 114.019 376.145 114.136C376.487 114.253 376.785 114.419 377.041 114.632C377.297 114.835 377.516 115.075 377.697 115.352C377.879 115.619 378.012 115.907 378.097 116.216L377.569 116.152V114.136H380.113V122.632H377.521V120.584L378.097 120.568C378.012 120.867 377.873 121.149 377.681 121.416C377.489 121.683 377.255 121.917 376.977 122.12C376.7 122.323 376.391 122.483 376.049 122.6C375.708 122.717 375.345 122.776 374.961 122.776ZM375.665 120.616C376.06 120.616 376.401 120.525 376.689 120.344C376.977 120.163 377.201 119.907 377.361 119.576C377.521 119.235 377.601 118.835 377.601 118.376C377.601 117.917 377.521 117.523 377.361 117.192C377.201 116.851 376.977 116.589 376.689 116.408C376.401 116.216 376.06 116.12 375.665 116.12C375.281 116.12 374.945 116.216 374.657 116.408C374.38 116.589 374.161 116.851 374.001 117.192C373.841 117.523 373.761 117.917 373.761 118.376C373.761 118.835 373.841 119.235 374.001 119.576C374.161 119.907 374.38 120.163 374.657 120.344C374.945 120.525 375.281 120.616 375.665 120.616ZM387.476 122.808C387.092 122.808 386.724 122.755 386.372 122.648C386.02 122.541 385.7 122.397 385.412 122.216C385.135 122.035 384.9 121.827 384.708 121.592C384.527 121.347 384.404 121.096 384.34 120.84L384.9 120.648L384.756 122.616H382.372V110.792H384.948V116.168L384.42 115.976C384.484 115.699 384.607 115.443 384.788 115.208C384.97 114.963 385.199 114.749 385.476 114.568C385.754 114.376 386.058 114.227 386.388 114.12C386.719 114.013 387.06 113.96 387.412 113.96C388.148 113.96 388.799 114.152 389.364 114.536C389.94 114.909 390.394 115.432 390.724 116.104C391.055 116.765 391.22 117.523 391.22 118.376C391.22 119.24 391.055 120.008 390.724 120.68C390.404 121.341 389.962 121.864 389.396 122.248C388.831 122.621 388.191 122.808 387.476 122.808ZM386.804 120.648C387.188 120.648 387.524 120.552 387.812 120.36C388.1 120.168 388.319 119.907 388.468 119.576C388.628 119.235 388.708 118.835 388.708 118.376C388.708 117.928 388.628 117.533 388.468 117.192C388.319 116.851 388.1 116.589 387.812 116.408C387.524 116.227 387.188 116.136 386.804 116.136C386.41 116.136 386.068 116.227 385.78 116.408C385.492 116.589 385.268 116.851 385.108 117.192C384.948 117.533 384.868 117.928 384.868 118.376C384.868 118.835 384.948 119.235 385.108 119.576C385.268 119.907 385.492 120.168 385.78 120.36C386.068 120.552 386.41 120.648 386.804 120.648ZM392.92 122.632V110.792H395.48V122.632H392.92ZM401.655 122.792C400.716 122.792 399.9 122.605 399.207 122.232C398.513 121.848 397.975 121.331 397.591 120.68C397.207 120.019 397.015 119.267 397.015 118.424C397.015 117.773 397.121 117.176 397.335 116.632C397.548 116.088 397.847 115.619 398.231 115.224C398.615 114.819 399.068 114.509 399.591 114.296C400.124 114.072 400.705 113.96 401.335 113.96C401.932 113.96 402.476 114.067 402.967 114.28C403.468 114.493 403.9 114.792 404.263 115.176C404.625 115.56 404.903 116.013 405.095 116.536C405.287 117.059 405.372 117.629 405.351 118.248L405.335 118.936H398.567L398.199 117.496H403.255L402.983 117.8V117.48C402.961 117.213 402.876 116.979 402.727 116.776C402.588 116.563 402.401 116.397 402.167 116.28C401.932 116.163 401.665 116.104 401.367 116.104C400.951 116.104 400.593 116.189 400.295 116.36C400.007 116.52 399.788 116.76 399.639 117.08C399.489 117.389 399.415 117.773 399.415 118.232C399.415 118.701 399.511 119.112 399.703 119.464C399.905 119.805 400.193 120.072 400.567 120.264C400.951 120.456 401.404 120.552 401.927 120.552C402.289 120.552 402.609 120.499 402.887 120.392C403.175 120.285 403.484 120.104 403.815 119.848L405.015 121.544C404.684 121.832 404.332 122.067 403.959 122.248C403.585 122.429 403.201 122.563 402.807 122.648C402.423 122.744 402.039 122.792 401.655 122.792Z" fill="#05243F"/>
</g>
<rect opacity="0.4" x="53.0508" y="158.373" width="359.339" height="57.9208" rx="15.4829" fill="white"/>
<path opacity="0.4" d="M265.81 184.002C264.688 182.888 263.178 182.253 261.597 182.231C260.016 182.209 258.489 182.803 257.338 183.886C256.186 184.97 255.501 186.458 255.427 188.037C255.352 189.616 255.894 191.163 256.939 192.35L256.943 192.355C256.952 192.364 256.96 192.373 256.969 192.381C256.987 192.403 257.009 192.427 257.034 192.452C257.133 192.557 257.252 192.64 257.384 192.697C257.516 192.753 257.659 192.782 257.803 192.781C257.946 192.78 258.089 192.749 258.22 192.691C258.351 192.632 258.469 192.547 258.566 192.441C258.94 192.035 259.394 191.711 259.899 191.489C260.405 191.267 260.951 191.153 261.502 191.153C262.054 191.153 262.6 191.267 263.105 191.489C263.611 191.711 264.065 192.035 264.438 192.441C264.536 192.548 264.655 192.633 264.788 192.691C264.92 192.75 265.063 192.78 265.208 192.78C265.353 192.78 265.496 192.75 265.629 192.692C265.761 192.634 265.88 192.549 265.978 192.443L266.06 192.354L266.064 192.349C267.093 191.187 267.64 189.676 267.593 188.125C267.546 186.573 266.908 185.099 265.81 184.001L265.81 184.002ZM261.095 184.25C261.095 184.142 261.137 184.039 261.214 183.963C261.29 183.887 261.393 183.844 261.501 183.844C261.609 183.844 261.712 183.887 261.788 183.963C261.864 184.039 261.907 184.142 261.907 184.25V185.062C261.907 185.17 261.864 185.274 261.788 185.35C261.712 185.426 261.609 185.469 261.501 185.469C261.393 185.469 261.29 185.426 261.214 185.35C261.137 185.274 261.095 185.17 261.095 185.062V184.25ZM258.251 188.719H257.438C257.331 188.719 257.227 188.676 257.151 188.6C257.075 188.524 257.032 188.42 257.032 188.312C257.032 188.205 257.075 188.101 257.151 188.025C257.227 187.949 257.331 187.906 257.438 187.906H258.251C258.359 187.906 258.462 187.949 258.538 188.025C258.614 188.101 258.657 188.205 258.657 188.312C258.657 188.42 258.614 188.524 258.538 188.6C258.462 188.676 258.359 188.719 258.251 188.719ZM259.49 186.302C259.414 186.378 259.31 186.42 259.203 186.42C259.095 186.42 258.992 186.378 258.916 186.302L258.341 185.727C258.265 185.651 258.222 185.548 258.222 185.44C258.222 185.332 258.265 185.229 258.341 185.153C258.417 185.076 258.521 185.034 258.628 185.034C258.736 185.034 258.839 185.076 258.916 185.153L259.49 185.727C259.566 185.803 259.609 185.907 259.609 186.014C259.609 186.122 259.566 186.225 259.49 186.302ZM263.281 186.888L262.075 188.805C262.025 188.873 261.965 188.933 261.897 188.983C261.732 189.098 261.528 189.143 261.33 189.109C261.131 189.075 260.954 188.964 260.837 188.8C260.72 188.636 260.673 188.433 260.705 188.234C260.737 188.036 260.846 187.857 261.008 187.739L262.925 186.533C262.969 186.502 263.021 186.486 263.074 186.486C263.127 186.486 263.179 186.502 263.222 186.533C263.277 186.572 263.314 186.632 263.325 186.698C263.336 186.765 263.32 186.833 263.281 186.888ZM264.086 186.302C264.009 186.374 263.907 186.415 263.801 186.413C263.695 186.412 263.594 186.369 263.519 186.294C263.444 186.219 263.401 186.118 263.4 186.012C263.399 185.906 263.439 185.804 263.512 185.727L264.086 185.153C264.162 185.076 264.266 185.034 264.373 185.034C264.481 185.034 264.585 185.076 264.661 185.153C264.737 185.229 264.78 185.332 264.78 185.44C264.78 185.548 264.737 185.651 264.661 185.727L264.086 186.302ZM265.563 188.719H264.751C264.643 188.719 264.54 188.676 264.464 188.6C264.387 188.524 264.345 188.42 264.345 188.312C264.345 188.205 264.387 188.101 264.464 188.025C264.54 187.949 264.643 187.906 264.751 187.906H265.563C265.671 187.906 265.774 187.949 265.851 188.025C265.927 188.101 265.97 188.205 265.97 188.312C265.97 188.42 265.927 188.524 265.851 188.6C265.774 188.676 265.671 188.719 265.563 188.719Z" fill="#F9D07C"/>
<path opacity="0.4" d="M274.425 193.108V183.357H278.507C279.222 183.357 279.876 183.478 280.471 183.719C281.065 183.951 281.576 184.286 282.003 184.722C282.439 185.159 282.774 185.674 283.006 186.268C283.238 186.863 283.354 187.517 283.354 188.232C283.354 188.947 283.238 189.607 283.006 190.21C282.774 190.805 282.439 191.32 282.003 191.757C281.576 192.184 281.065 192.518 280.471 192.76C279.876 192.992 279.222 193.108 278.507 193.108H274.425ZM276.793 191.492L276.473 191.018H278.437C278.827 191.018 279.175 190.953 279.482 190.823C279.788 190.684 280.048 190.494 280.262 190.252C280.485 190.011 280.656 189.718 280.777 189.375C280.898 189.031 280.958 188.65 280.958 188.232C280.958 187.815 280.898 187.434 280.777 187.09C280.656 186.747 280.485 186.454 280.262 186.213C280.048 185.971 279.788 185.785 279.482 185.655C279.175 185.516 278.827 185.446 278.437 185.446H276.431L276.793 185.001V191.492ZM287.47 193.261C286.922 193.261 286.453 193.145 286.063 192.913C285.682 192.671 285.385 192.328 285.172 191.882C284.967 191.436 284.865 190.902 284.865 190.28V185.711H287.108V189.974C287.108 190.271 287.154 190.526 287.247 190.74C287.34 190.953 287.479 191.121 287.665 191.241C287.851 191.353 288.074 191.408 288.334 191.408C288.529 191.408 288.705 191.376 288.863 191.311C289.03 191.246 289.169 191.158 289.281 191.046C289.402 190.926 289.494 190.791 289.559 190.642C289.624 190.484 289.657 190.313 289.657 190.127V185.711H291.9V193.108H289.796L289.699 191.59L290.117 191.422C290.005 191.775 289.819 192.091 289.559 192.37C289.299 192.639 288.988 192.857 288.626 193.024C288.264 193.182 287.879 193.261 287.47 193.261ZM297.41 193.247C296.593 193.247 295.883 193.085 295.279 192.76C294.676 192.425 294.207 191.975 293.872 191.408C293.538 190.833 293.371 190.178 293.371 189.444C293.371 188.878 293.464 188.358 293.649 187.884C293.835 187.411 294.095 187.002 294.429 186.658C294.764 186.305 295.158 186.036 295.613 185.85C296.078 185.655 296.584 185.558 297.132 185.558C297.652 185.558 298.126 185.651 298.553 185.836C298.989 186.022 299.365 186.282 299.681 186.617C299.997 186.951 300.238 187.346 300.405 187.801C300.573 188.256 300.647 188.752 300.628 189.291L300.614 189.89H294.722L294.402 188.636H298.803L298.567 188.901V188.622C298.548 188.39 298.474 188.186 298.344 188.01C298.223 187.824 298.06 187.68 297.856 187.578C297.652 187.476 297.42 187.424 297.16 187.424C296.798 187.424 296.486 187.499 296.226 187.647C295.976 187.787 295.785 187.996 295.655 188.274C295.525 188.544 295.46 188.878 295.46 189.277C295.46 189.686 295.544 190.043 295.711 190.35C295.887 190.647 296.138 190.879 296.463 191.046C296.798 191.213 297.192 191.297 297.647 191.297C297.963 191.297 298.242 191.251 298.483 191.158C298.734 191.065 299.003 190.907 299.291 190.684L300.336 192.161C300.048 192.411 299.741 192.616 299.416 192.774C299.091 192.931 298.757 193.048 298.413 193.122C298.079 193.205 297.745 193.247 297.41 193.247ZM306.636 193.108V185.711H308.864V193.108H306.636ZM307.75 184.248C307.332 184.248 307.002 184.151 306.761 183.956C306.529 183.752 306.413 183.464 306.413 183.092C306.413 182.758 306.533 182.484 306.775 182.27C307.016 182.057 307.341 181.95 307.75 181.95C308.168 181.95 308.493 182.052 308.725 182.256C308.957 182.451 309.073 182.73 309.073 183.092C309.073 183.436 308.953 183.714 308.711 183.928C308.479 184.142 308.159 184.248 307.75 184.248ZM310.959 193.108V185.711H313.076L313.146 187.216L312.7 187.383C312.802 187.048 312.983 186.747 313.243 186.477C313.512 186.199 313.833 185.976 314.204 185.809C314.576 185.641 314.966 185.558 315.374 185.558C315.932 185.558 316.401 185.674 316.781 185.906C317.162 186.129 317.45 186.468 317.645 186.923C317.84 187.369 317.937 187.917 317.937 188.567V193.108H315.695V188.748C315.695 188.451 315.653 188.205 315.569 188.01C315.486 187.815 315.356 187.671 315.179 187.578C315.012 187.476 314.803 187.429 314.552 187.438C314.357 187.438 314.176 187.471 314.009 187.536C313.842 187.592 313.698 187.68 313.577 187.801C313.457 187.912 313.359 188.042 313.285 188.191C313.22 188.339 313.187 188.502 313.187 188.678V193.108H312.087C311.827 193.108 311.604 193.108 311.418 193.108C311.233 193.108 311.079 193.108 310.959 193.108ZM326.213 192.425V184.513L326.728 185.697L324.639 186.686L324.235 184.569L327.007 183.218H328.539V192.425H326.213ZM324.43 193.108V191.018H330.364V193.108H324.43ZM335.944 193.108V185.224L337.211 185.251L333.687 189.57L333.353 189.152H339.816V191.102H332.294L331.347 189.277L336.32 183.273H338.228V193.108H335.944ZM348.556 193.261C347.915 193.261 347.344 193.099 346.843 192.774C346.351 192.439 345.961 191.984 345.673 191.408C345.385 190.823 345.241 190.159 345.241 189.416C345.241 188.674 345.385 188.014 345.673 187.438C345.961 186.853 346.355 186.394 346.857 186.059C347.358 185.725 347.934 185.558 348.584 185.558C348.918 185.558 349.239 185.609 349.545 185.711C349.852 185.813 350.13 185.953 350.381 186.129C350.632 186.305 350.836 186.51 350.994 186.742C351.152 186.965 351.245 187.197 351.273 187.438L350.743 187.564V182.8H352.986V193.108H350.91L350.785 191.422L351.231 191.492C351.203 191.724 351.11 191.947 350.952 192.161C350.804 192.374 350.609 192.565 350.367 192.732C350.126 192.89 349.847 193.015 349.531 193.108C349.225 193.21 348.9 193.261 348.556 193.261ZM349.127 191.408C349.471 191.408 349.768 191.325 350.019 191.158C350.27 190.991 350.46 190.758 350.59 190.461C350.729 190.164 350.799 189.816 350.799 189.416C350.799 189.008 350.729 188.655 350.59 188.358C350.46 188.061 350.27 187.828 350.019 187.661C349.768 187.494 349.471 187.411 349.127 187.411C348.784 187.411 348.487 187.494 348.236 187.661C347.994 187.828 347.804 188.061 347.665 188.358C347.525 188.655 347.456 189.008 347.456 189.416C347.456 189.816 347.525 190.164 347.665 190.461C347.804 190.758 347.994 190.991 348.236 191.158C348.487 191.325 348.784 191.408 349.127 191.408ZM357.601 193.233C356.979 193.233 356.422 193.071 355.929 192.746C355.446 192.411 355.061 191.956 354.773 191.381C354.485 190.796 354.341 190.136 354.341 189.403C354.341 188.65 354.485 187.986 354.773 187.411C355.061 186.835 355.456 186.384 355.957 186.059C356.459 185.725 357.03 185.558 357.671 185.558C358.024 185.558 358.344 185.609 358.632 185.711C358.929 185.813 359.189 185.957 359.412 186.143C359.635 186.319 359.825 186.528 359.983 186.77C360.141 187.002 360.257 187.253 360.331 187.522L359.872 187.466V185.711H362.086V193.108H359.83V191.325L360.331 191.311C360.257 191.571 360.136 191.817 359.969 192.049C359.802 192.281 359.598 192.486 359.356 192.662C359.115 192.839 358.845 192.978 358.548 193.08C358.251 193.182 357.935 193.233 357.601 193.233ZM358.214 191.353C358.558 191.353 358.855 191.274 359.105 191.116C359.356 190.958 359.551 190.735 359.69 190.447C359.83 190.15 359.899 189.802 359.899 189.403C359.899 189.003 359.83 188.66 359.69 188.372C359.551 188.075 359.356 187.847 359.105 187.689C358.855 187.522 358.558 187.438 358.214 187.438C357.88 187.438 357.587 187.522 357.336 187.689C357.095 187.847 356.904 188.075 356.765 188.372C356.626 188.66 356.556 189.003 356.556 189.403C356.556 189.802 356.626 190.15 356.765 190.447C356.904 190.735 357.095 190.958 357.336 191.116C357.587 191.274 357.88 191.353 358.214 191.353ZM364.823 196.312L366.509 192.342L366.537 193.484L362.97 185.711H365.492L367.052 189.43C367.136 189.616 367.214 189.816 367.289 190.029C367.363 190.243 367.419 190.447 367.456 190.642L367.149 190.823C367.205 190.684 367.266 190.512 367.331 190.308C367.405 190.094 367.484 189.867 367.567 189.625L368.932 185.711H371.468L368.32 193.108L367.038 196.312H364.823ZM374.885 193.247C374.161 193.247 373.52 193.131 372.963 192.899C372.415 192.667 371.979 192.356 371.654 191.966L373.005 190.796C373.293 191.083 373.618 191.297 373.98 191.436C374.342 191.566 374.686 191.631 375.011 191.631C375.141 191.631 375.257 191.617 375.359 191.59C375.461 191.562 375.545 191.525 375.61 191.478C375.684 191.422 375.74 191.362 375.777 191.297C375.814 191.223 375.833 191.139 375.833 191.046C375.833 190.861 375.749 190.717 375.582 190.614C375.498 190.568 375.359 190.512 375.164 190.447C374.969 190.382 374.718 190.308 374.412 190.224C373.975 190.113 373.595 189.983 373.27 189.834C372.954 189.676 372.694 189.495 372.49 189.291C372.304 189.096 372.16 188.882 372.058 188.65C371.956 188.409 371.904 188.14 371.904 187.842C371.904 187.499 371.983 187.188 372.141 186.909C372.308 186.63 372.527 186.389 372.796 186.185C373.075 185.98 373.39 185.827 373.743 185.725C374.105 185.614 374.477 185.558 374.858 185.558C375.266 185.558 375.656 185.604 376.028 185.697C376.399 185.79 376.743 185.92 377.059 186.087C377.384 186.254 377.672 186.454 377.922 186.686L376.752 187.996C376.585 187.838 376.395 187.698 376.181 187.578C375.977 187.448 375.763 187.346 375.54 187.271C375.317 187.197 375.113 187.16 374.927 187.16C374.788 187.16 374.663 187.174 374.551 187.202C374.449 187.22 374.361 187.257 374.287 187.313C374.212 187.359 374.156 187.42 374.119 187.494C374.082 187.559 374.064 187.638 374.064 187.731C374.064 187.824 374.087 187.912 374.133 187.996C374.189 188.079 374.263 188.149 374.356 188.205C374.449 188.26 374.598 188.325 374.802 188.4C375.006 188.465 375.285 188.548 375.638 188.65C376.074 188.771 376.45 188.906 376.766 189.054C377.082 189.203 377.333 189.379 377.518 189.584C377.667 189.741 377.778 189.927 377.853 190.141C377.927 190.345 377.964 190.568 377.964 190.809C377.964 191.283 377.829 191.706 377.56 192.077C377.3 192.439 376.938 192.727 376.474 192.941C376.009 193.145 375.48 193.247 374.885 193.247Z" fill="#05243F"/>
<path opacity="0.4" d="M87.7438 192.108V182.354H89.8619L93.4152 188.137L91.8964 188.123L95.4915 182.354H97.5259V192.108H95.2267V189.07C95.2267 188.234 95.2453 187.482 95.2825 186.813C95.3289 186.144 95.4032 185.48 95.5054 184.82L95.7702 185.545L93.0669 189.739H92.1472L89.4996 185.573L89.7644 184.82C89.8665 185.443 89.9362 186.083 89.9734 186.743C90.0198 187.393 90.043 188.169 90.043 189.07V192.108H87.7438ZM102.472 192.233C101.849 192.233 101.292 192.071 100.8 191.746C100.317 191.411 99.931 190.956 99.643 190.38C99.3551 189.795 99.2111 189.135 99.2111 188.401C99.2111 187.649 99.3551 186.985 99.643 186.409C99.931 185.833 100.326 185.382 100.827 185.057C101.329 184.723 101.9 184.555 102.541 184.555C102.894 184.555 103.215 184.606 103.503 184.709C103.8 184.811 104.06 184.955 104.283 185.141C104.506 185.317 104.697 185.526 104.855 185.768C105.013 186 105.129 186.251 105.203 186.52L104.743 186.464V184.709H106.959V192.108H104.701V190.324L105.203 190.31C105.129 190.57 105.008 190.817 104.841 191.049C104.673 191.281 104.469 191.485 104.228 191.662C103.986 191.839 103.717 191.978 103.419 192.08C103.122 192.182 102.806 192.233 102.472 192.233ZM103.085 190.352C103.429 190.352 103.726 190.273 103.977 190.115C104.228 189.957 104.423 189.734 104.562 189.446C104.701 189.149 104.771 188.801 104.771 188.401C104.771 188.002 104.701 187.658 104.562 187.37C104.423 187.073 104.228 186.845 103.977 186.687C103.726 186.52 103.429 186.437 103.085 186.437C102.75 186.437 102.458 186.52 102.207 186.687C101.965 186.845 101.775 187.073 101.636 187.37C101.496 187.658 101.427 188.002 101.427 188.401C101.427 188.801 101.496 189.149 101.636 189.446C101.775 189.734 101.965 189.957 102.207 190.115C102.458 190.273 102.75 190.352 103.085 190.352ZM109.051 192.108V184.709H111.281V192.108H109.051ZM110.166 183.245C109.748 183.245 109.418 183.148 109.177 182.953C108.945 182.748 108.828 182.46 108.828 182.089C108.828 181.754 108.949 181.48 109.191 181.267C109.432 181.053 109.757 180.946 110.166 180.946C110.584 180.946 110.909 181.048 111.142 181.253C111.374 181.448 111.49 181.727 111.49 182.089C111.49 182.433 111.369 182.711 111.128 182.925C110.895 183.139 110.575 183.245 110.166 183.245ZM113.376 192.108V184.709H115.494L115.564 186.214L115.118 186.381C115.22 186.046 115.401 185.744 115.661 185.475C115.931 185.196 116.251 184.973 116.623 184.806C116.994 184.639 117.384 184.555 117.793 184.555C118.351 184.555 118.82 184.671 119.201 184.904C119.581 185.127 119.869 185.466 120.064 185.921C120.26 186.367 120.357 186.915 120.357 187.565V192.108H118.114V187.746C118.114 187.449 118.072 187.203 117.988 187.008C117.905 186.813 117.775 186.669 117.598 186.576C117.431 186.474 117.222 186.427 116.971 186.437C116.776 186.437 116.595 186.469 116.428 186.534C116.26 186.59 116.116 186.678 115.996 186.799C115.875 186.91 115.777 187.04 115.703 187.189C115.638 187.338 115.605 187.5 115.605 187.677V192.108H114.505C114.244 192.108 114.021 192.108 113.836 192.108C113.65 192.108 113.497 192.108 113.376 192.108ZM122.834 192.108V182.841H125.064V192.108H122.834ZM121.524 186.659V184.709H126.499V186.659H121.524ZM131.231 192.247C130.413 192.247 129.702 192.085 129.099 191.76C128.495 191.425 128.026 190.975 127.691 190.408C127.357 189.832 127.19 189.177 127.19 188.443C127.19 187.876 127.282 187.356 127.468 186.882C127.654 186.409 127.914 186 128.249 185.656C128.583 185.303 128.978 185.034 129.433 184.848C129.898 184.653 130.404 184.555 130.952 184.555C131.472 184.555 131.946 184.648 132.373 184.834C132.81 185.02 133.186 185.28 133.502 185.614C133.818 185.949 134.059 186.344 134.227 186.799C134.394 187.254 134.468 187.751 134.449 188.29L134.436 188.889H128.541L128.221 187.635H132.624L132.387 187.9V187.621C132.369 187.389 132.294 187.184 132.164 187.008C132.043 186.822 131.881 186.678 131.677 186.576C131.472 186.474 131.24 186.423 130.98 186.423C130.617 186.423 130.306 186.497 130.046 186.646C129.795 186.785 129.605 186.994 129.475 187.273C129.345 187.542 129.28 187.876 129.28 188.276C129.28 188.685 129.363 189.042 129.531 189.349C129.707 189.646 129.958 189.878 130.283 190.046C130.617 190.213 131.012 190.296 131.467 190.296C131.783 190.296 132.062 190.25 132.304 190.157C132.554 190.064 132.824 189.906 133.112 189.683L134.157 191.16C133.869 191.411 133.562 191.616 133.237 191.773C132.912 191.931 132.578 192.048 132.234 192.122C131.899 192.205 131.565 192.247 131.231 192.247ZM135.87 192.108V184.709H137.988L138.058 186.214L137.612 186.381C137.714 186.046 137.895 185.744 138.155 185.475C138.425 185.196 138.745 184.973 139.117 184.806C139.488 184.639 139.878 184.555 140.287 184.555C140.845 184.555 141.314 184.671 141.695 184.904C142.076 185.127 142.364 185.466 142.559 185.921C142.754 186.367 142.851 186.915 142.851 187.565V192.108H140.608V187.746C140.608 187.449 140.566 187.203 140.482 187.008C140.399 186.813 140.269 186.669 140.092 186.576C139.925 186.474 139.716 186.427 139.465 186.437C139.27 186.437 139.089 186.469 138.922 186.534C138.754 186.59 138.61 186.678 138.49 186.799C138.369 186.91 138.271 187.04 138.197 187.189C138.132 187.338 138.1 187.5 138.1 187.677V192.108H136.999C136.739 192.108 136.516 192.108 136.33 192.108C136.144 192.108 135.991 192.108 135.87 192.108ZM147.446 192.233C146.824 192.233 146.267 192.071 145.774 191.746C145.291 191.411 144.906 190.956 144.618 190.38C144.33 189.795 144.186 189.135 144.186 188.401C144.186 187.649 144.33 186.985 144.618 186.409C144.906 185.833 145.3 185.382 145.802 185.057C146.304 184.723 146.875 184.555 147.516 184.555C147.869 184.555 148.19 184.606 148.478 184.709C148.775 184.811 149.035 184.955 149.258 185.141C149.481 185.317 149.671 185.526 149.829 185.768C149.987 186 150.103 186.251 150.178 186.52L149.718 186.464V184.709H151.933V192.108H149.676V190.324L150.178 190.31C150.103 190.57 149.982 190.817 149.815 191.049C149.648 191.281 149.444 191.485 149.202 191.662C148.961 191.839 148.691 191.978 148.394 192.08C148.097 192.182 147.781 192.233 147.446 192.233ZM148.06 190.352C148.403 190.352 148.701 190.273 148.951 190.115C149.202 189.957 149.397 189.734 149.537 189.446C149.676 189.149 149.746 188.801 149.746 188.401C149.746 188.002 149.676 187.658 149.537 187.37C149.397 187.073 149.202 186.845 148.951 186.687C148.701 186.52 148.403 186.437 148.06 186.437C147.725 186.437 147.432 186.52 147.182 186.687C146.94 186.845 146.75 187.073 146.61 187.37C146.471 187.658 146.401 188.002 146.401 188.401C146.401 188.801 146.471 189.149 146.61 189.446C146.75 189.734 146.94 189.957 147.182 190.115C147.432 190.273 147.725 190.352 148.06 190.352ZM153.901 192.108V184.709H156.019L156.088 186.214L155.642 186.381C155.745 186.046 155.926 185.744 156.186 185.475C156.455 185.196 156.776 184.973 157.147 184.806C157.519 184.639 157.909 184.555 158.318 184.555C158.875 184.555 159.344 184.671 159.725 184.904C160.106 185.127 160.394 185.466 160.589 185.921C160.784 186.367 160.882 186.915 160.882 187.565V192.108H158.638V187.746C158.638 187.449 158.597 187.203 158.513 187.008C158.429 186.813 158.299 186.669 158.123 186.576C157.956 186.474 157.747 186.427 157.496 186.437C157.301 186.437 157.12 186.469 156.952 186.534C156.785 186.59 156.641 186.678 156.52 186.799C156.4 186.91 156.302 187.04 156.228 187.189C156.163 187.338 156.13 187.5 156.13 187.677V192.108H155.029C154.769 192.108 154.546 192.108 154.36 192.108C154.175 192.108 154.021 192.108 153.901 192.108ZM165.993 192.247C165.277 192.247 164.636 192.08 164.07 191.746C163.503 191.411 163.052 190.956 162.718 190.38C162.393 189.795 162.23 189.135 162.23 188.401C162.23 187.667 162.393 187.012 162.718 186.437C163.052 185.851 163.503 185.391 164.07 185.057C164.636 184.723 165.277 184.555 165.993 184.555C166.652 184.555 167.256 184.671 167.804 184.904C168.362 185.136 168.803 185.461 169.128 185.879L167.916 187.328C167.786 187.18 167.632 187.04 167.456 186.91C167.279 186.78 167.084 186.678 166.871 186.604C166.657 186.529 166.434 186.492 166.202 186.492C165.849 186.492 165.537 186.576 165.268 186.743C164.999 186.901 164.79 187.124 164.641 187.412C164.492 187.7 164.418 188.03 164.418 188.401C164.418 188.754 164.492 189.075 164.641 189.363C164.799 189.651 165.013 189.878 165.282 190.046C165.551 190.213 165.858 190.296 166.202 190.296C166.443 190.296 166.666 190.269 166.871 190.213C167.075 190.148 167.261 190.055 167.428 189.934C167.604 189.813 167.767 189.665 167.916 189.488L169.114 190.951C168.798 191.351 168.357 191.667 167.79 191.899C167.233 192.131 166.634 192.247 165.993 192.247ZM173.865 192.247C173.047 192.247 172.336 192.085 171.733 191.76C171.129 191.425 170.66 190.975 170.325 190.408C169.991 189.832 169.824 189.177 169.824 188.443C169.824 187.876 169.916 187.356 170.102 186.882C170.288 186.409 170.548 186 170.883 185.656C171.217 185.303 171.612 185.034 172.067 184.848C172.532 184.653 173.038 184.555 173.586 184.555C174.106 184.555 174.58 184.648 175.007 184.834C175.444 185.02 175.82 185.28 176.136 185.614C176.452 185.949 176.693 186.344 176.861 186.799C177.028 187.254 177.102 187.751 177.084 188.29L177.07 188.889H171.175L170.855 187.635H175.258L175.021 187.9V187.621C175.003 187.389 174.928 187.184 174.798 187.008C174.677 186.822 174.515 186.678 174.311 186.576C174.106 186.474 173.874 186.423 173.614 186.423C173.252 186.423 172.94 186.497 172.68 186.646C172.429 186.785 172.239 186.994 172.109 187.273C171.979 187.542 171.914 187.876 171.914 188.276C171.914 188.685 171.997 189.042 172.165 189.349C172.341 189.646 172.592 189.878 172.917 190.046C173.252 190.213 173.646 190.296 174.102 190.296C174.417 190.296 174.696 190.25 174.938 190.157C175.188 190.064 175.458 189.906 175.746 189.683L176.791 191.16C176.503 191.411 176.196 191.616 175.871 191.773C175.546 191.931 175.212 192.048 174.868 192.122C174.533 192.205 174.199 192.247 173.865 192.247Z" fill="#05243F"/>
</svg>
