<svg width="143" height="57" viewBox="0 0 143 57" fill="none" xmlns="http://www.w3.org/2000/svg">
<path d="M9.33086 8.68461L29.6858 28.6459L9.48224 48.7913C9.15171 48.3608 8.89512 47.8783 8.72301 47.3636C8.634 46.7809 8.634 46.188 8.72301 45.6053V11.3233C8.66246 10.4034 8.87439 9.48343 9.32853 8.68461M38.4542 19.9404L31.8098 26.5219L11.6971 6.74227C12.3492 6.51637 13.0478 6.45349 13.7302 6.56062C14.8015 6.85406 15.8239 7.30588 16.7625 7.8951L34.9655 17.9678C36.1486 18.6036 37.3014 19.272 38.4542 19.9404ZM31.8121 30.8002L38.424 37.2933L33.631 39.9623L19.0076 48.0903C17.7966 48.7587 16.5809 49.3968 15.3977 50.1257C14.8915 50.4409 14.3238 50.6445 13.7327 50.7228C13.1415 50.8011 12.5404 50.7524 11.9696 50.5799L31.8121 30.8002ZM48.9531 28.6459C48.9701 29.4603 48.7643 30.2639 48.358 30.9698C47.9516 31.6758 47.3602 32.2573 46.6474 32.6517L41.1838 35.684L33.9943 28.6459L41.214 21.4868C43.0655 22.5185 44.8868 23.5502 46.7057 24.5214C47.4311 24.9268 48.0269 25.5294 48.4242 26.2593C48.8215 26.9892 49.0064 27.8166 48.9531 28.6459Z" fill="white"/>
<path d="M62.545 35.6377V24.4377H67.201C67.841 24.4377 68.417 24.5924 68.929 24.9017C69.4517 25.211 69.8677 25.6324 70.177 26.1657C70.4863 26.699 70.641 27.2964 70.641 27.9577C70.641 28.6297 70.4863 29.2377 70.177 29.7817C69.8677 30.315 69.4517 30.7417 68.929 31.0617C68.417 31.3817 67.841 31.5417 67.201 31.5417H64.625V35.6377H62.545ZM64.625 29.6217H67.057C67.3237 29.6217 67.5637 29.547 67.777 29.3977C68.001 29.2484 68.177 29.051 68.305 28.8057C68.4437 28.5604 68.513 28.283 68.513 27.9737C68.513 27.6644 68.4437 27.3924 68.305 27.1577C68.177 26.9124 68.001 26.7204 67.777 26.5817C67.5637 26.4324 67.3237 26.3577 67.057 26.3577H64.625V29.6217ZM72.5059 35.6377V23.7977H74.4899V35.6377H72.5059ZM79.8301 35.7977C79.1368 35.7977 78.5075 35.6057 77.9421 35.2217C77.3768 34.8377 76.9235 34.315 76.5821 33.6537C76.2408 32.9924 76.0701 32.2404 76.0701 31.3977C76.0701 30.555 76.2408 29.803 76.5821 29.1417C76.9235 28.4804 77.3875 27.963 77.9741 27.5897C78.5608 27.2164 79.2221 27.0297 79.9581 27.0297C80.3848 27.0297 80.7741 27.0937 81.1261 27.2217C81.4781 27.339 81.7875 27.5097 82.0541 27.7337C82.3208 27.9577 82.5395 28.2137 82.7101 28.5017C82.8915 28.7897 83.0141 29.099 83.0781 29.4297L82.6461 29.3177V27.2057H84.6301V35.6377H82.6301V33.6217L83.0941 33.5417C83.0195 33.8297 82.8808 34.1124 82.6781 34.3897C82.4861 34.6564 82.2408 34.8964 81.9421 35.1097C81.6541 35.3124 81.3288 35.4777 80.9661 35.6057C80.6141 35.7337 80.2355 35.7977 79.8301 35.7977ZM80.3741 34.0537C80.8328 34.0537 81.2381 33.9417 81.5901 33.7177C81.9421 33.4937 82.2141 33.1844 82.4061 32.7897C82.6088 32.3844 82.7101 31.9204 82.7101 31.3977C82.7101 30.8857 82.6088 30.4324 82.4061 30.0377C82.2141 29.643 81.9421 29.3337 81.5901 29.1097C81.2381 28.8857 80.8328 28.7737 80.3741 28.7737C79.9155 28.7737 79.5101 28.8857 79.1581 29.1097C78.8168 29.3337 78.5501 29.643 78.3581 30.0377C78.1661 30.4324 78.0701 30.8857 78.0701 31.3977C78.0701 31.9204 78.1661 32.3844 78.3581 32.7897C78.5501 33.1844 78.8168 33.4937 79.1581 33.7177C79.5101 33.9417 79.9155 34.0537 80.3741 34.0537ZM88.0043 39.3177L89.7963 35.1737L89.8123 36.4857L85.6523 27.2057H87.9243L90.2443 32.7097C90.3189 32.8484 90.3936 33.035 90.4683 33.2697C90.5429 33.4937 90.6069 33.7177 90.6603 33.9417L90.2603 34.0697C90.3349 33.867 90.4149 33.6537 90.5003 33.4297C90.5856 33.195 90.6656 32.955 90.7403 32.7097L92.7243 27.2057H95.0123L91.4923 35.6377L90.0523 39.3177H88.0043ZM104.847 35.7977C104.196 35.7977 103.599 35.7177 103.055 35.5577C102.511 35.387 102.02 35.1364 101.583 34.8057C101.146 34.475 100.756 34.075 100.415 33.6057L101.775 32.0697C102.298 32.795 102.81 33.2964 103.311 33.5737C103.812 33.851 104.378 33.9897 105.007 33.9897C105.37 33.9897 105.7 33.9364 105.999 33.8297C106.298 33.7124 106.532 33.5577 106.703 33.3657C106.874 33.163 106.959 32.9337 106.959 32.6777C106.959 32.4964 106.922 32.331 106.847 32.1817C106.783 32.0217 106.682 31.883 106.543 31.7657C106.404 31.6377 106.234 31.5204 106.031 31.4137C105.828 31.307 105.599 31.2164 105.343 31.1417C105.087 31.067 104.804 30.9977 104.495 30.9337C103.908 30.8164 103.396 30.6617 102.959 30.4697C102.522 30.267 102.154 30.0217 101.855 29.7337C101.556 29.435 101.338 29.1044 101.199 28.7417C101.06 28.3684 100.991 27.947 100.991 27.4777C100.991 27.0084 101.092 26.5764 101.295 26.1817C101.508 25.787 101.796 25.4457 102.159 25.1577C102.522 24.8697 102.943 24.6457 103.423 24.4857C103.903 24.3257 104.42 24.2457 104.975 24.2457C105.604 24.2457 106.164 24.3204 106.655 24.4697C107.156 24.619 107.594 24.843 107.967 25.1417C108.351 25.4297 108.666 25.7817 108.911 26.1977L107.535 27.5577C107.322 27.227 107.082 26.955 106.815 26.7417C106.548 26.5177 106.26 26.3524 105.951 26.2457C105.642 26.1284 105.316 26.0697 104.975 26.0697C104.591 26.0697 104.255 26.123 103.967 26.2297C103.69 26.3364 103.471 26.491 103.311 26.6937C103.151 26.8857 103.071 27.1204 103.071 27.3977C103.071 27.611 103.119 27.803 103.215 27.9737C103.311 28.1337 103.444 28.2777 103.615 28.4057C103.796 28.5337 104.026 28.6457 104.303 28.7417C104.58 28.8377 104.895 28.923 105.247 28.9977C105.834 29.115 106.362 29.275 106.831 29.4777C107.3 29.6697 107.7 29.9044 108.031 30.1817C108.362 30.4484 108.612 30.7577 108.783 31.1097C108.954 31.451 109.039 31.835 109.039 32.2617C109.039 32.9977 108.863 33.6324 108.511 34.1657C108.17 34.6884 107.684 35.0937 107.055 35.3817C106.426 35.659 105.69 35.7977 104.847 35.7977ZM111.886 35.6377V25.0617H113.854V35.6377H111.886ZM110.222 29.0297V27.2057H115.694V29.0297H110.222ZM120.971 35.7977C120.128 35.7977 119.376 35.611 118.715 35.2377C118.054 34.8537 117.531 34.331 117.147 33.6697C116.763 33.0084 116.571 32.2564 116.571 31.4137C116.571 30.571 116.763 29.819 117.147 29.1577C117.531 28.4964 118.054 27.979 118.715 27.6057C119.376 27.2217 120.128 27.0297 120.971 27.0297C121.803 27.0297 122.55 27.2217 123.211 27.6057C123.872 27.979 124.39 28.4964 124.763 29.1577C125.147 29.819 125.339 30.571 125.339 31.4137C125.339 32.2564 125.147 33.0084 124.763 33.6697C124.39 34.331 123.872 34.8537 123.211 35.2377C122.55 35.611 121.803 35.7977 120.971 35.7977ZM120.971 34.0537C121.43 34.0537 121.835 33.9364 122.187 33.7017C122.55 33.467 122.832 33.1524 123.035 32.7577C123.248 32.363 123.35 31.915 123.339 31.4137C123.35 30.9017 123.248 30.4484 123.035 30.0537C122.832 29.659 122.55 29.3497 122.187 29.1257C121.835 28.891 121.43 28.7737 120.971 28.7737C120.512 28.7737 120.096 28.891 119.723 29.1257C119.36 29.3497 119.078 29.6644 118.875 30.0697C118.672 30.4644 118.571 30.9124 118.571 31.4137C118.571 31.915 118.672 32.363 118.875 32.7577C119.078 33.1524 119.36 33.467 119.723 33.7017C120.096 33.9364 120.512 34.0537 120.971 34.0537ZM127.099 35.6377V27.2057H129.035L129.067 29.8937L128.795 29.2857C128.913 28.859 129.115 28.475 129.403 28.1337C129.691 27.7924 130.022 27.5257 130.395 27.3337C130.779 27.131 131.179 27.0297 131.595 27.0297C131.777 27.0297 131.947 27.0457 132.107 27.0777C132.278 27.1097 132.417 27.147 132.523 27.1897L131.995 29.3497C131.878 29.2857 131.734 29.2324 131.563 29.1897C131.393 29.147 131.222 29.1257 131.051 29.1257C130.785 29.1257 130.529 29.179 130.283 29.2857C130.049 29.3817 129.841 29.5204 129.659 29.7017C129.478 29.883 129.334 30.0964 129.227 30.3417C129.131 30.5764 129.083 30.843 129.083 31.1417V35.6377H127.099ZM137.426 35.7977C136.541 35.7977 135.757 35.611 135.074 35.2377C134.402 34.8644 133.874 34.3577 133.49 33.7177C133.117 33.067 132.93 32.3257 132.93 31.4937C132.93 30.8324 133.037 30.2297 133.25 29.6857C133.464 29.1417 133.757 28.6724 134.13 28.2777C134.514 27.8724 134.968 27.563 135.49 27.3497C136.024 27.1257 136.605 27.0137 137.234 27.0137C137.789 27.0137 138.306 27.1204 138.786 27.3337C139.266 27.547 139.682 27.8404 140.034 28.2137C140.386 28.5764 140.653 29.0137 140.834 29.5257C141.026 30.027 141.117 30.5764 141.106 31.1737L141.09 31.8617H134.258L133.89 30.5177H139.442L139.186 30.7897V30.4377C139.154 30.107 139.048 29.819 138.866 29.5737C138.685 29.3177 138.45 29.1204 138.162 28.9817C137.885 28.8324 137.576 28.7577 137.234 28.7577C136.712 28.7577 136.269 28.859 135.906 29.0617C135.554 29.2644 135.288 29.5577 135.106 29.9417C134.925 30.315 134.834 30.7844 134.834 31.3497C134.834 31.8937 134.946 32.3684 135.17 32.7737C135.405 33.179 135.73 33.4937 136.146 33.7177C136.573 33.931 137.069 34.0377 137.634 34.0377C138.029 34.0377 138.392 33.9737 138.722 33.8457C139.053 33.7177 139.41 33.4884 139.794 33.1577L140.77 34.5177C140.482 34.7844 140.152 35.0137 139.778 35.2057C139.416 35.387 139.032 35.531 138.626 35.6377C138.221 35.7444 137.821 35.7977 137.426 35.7977Z" fill="white"/>
</svg>
