<svg width="56" height="57" viewBox="0 0 56 57" fill="none" xmlns="http://www.w3.org/2000/svg">
<path d="M39.7083 47.9189C37.426 50.1314 34.934 49.782 32.5352 48.734C29.9967 47.6627 27.6677 47.6161 24.9894 48.734C21.6358 50.1779 19.8658 49.7587 17.8629 47.9189C6.49766 36.2043 8.17449 18.3646 21.0768 17.7125C24.2209 17.8756 26.4101 19.4359 28.2499 19.5757C30.9981 19.0167 33.6298 17.4098 36.5643 17.6194C40.081 17.8988 42.7359 19.2962 44.4827 21.8115C37.2164 26.1666 38.9398 35.7385 45.6005 38.4168C44.273 41.9102 42.5496 45.3803 39.685 47.9422L39.7083 47.9189ZM28.0171 17.5728C27.6677 12.3793 31.8831 8.09401 36.7273 7.6748C37.4027 13.6835 31.2776 18.155 28.0171 17.5728Z" fill="white"/>
</svg>
